<?xml version="1.0" encoding="UTF-8" standalone="no"?>
<svg
   xmlns:dc="http://purl.org/dc/elements/1.1/"
   xmlns:cc="http://creativecommons.org/ns#"
   xmlns:rdf="http://www.w3.org/1999/02/22-rdf-syntax-ns#"
   xmlns:svg="http://www.w3.org/2000/svg"
   xmlns="http://www.w3.org/2000/svg"
   xmlns:sodipodi="http://sodipodi.sourceforge.net/DTD/sodipodi-0.dtd"
   xmlns:inkscape="http://www.inkscape.org/namespaces/inkscape"
   viewBox="0 0 1000 560"
   version="1.1"
   id="svg8"
   sodipodi:docname="air-balloon.svg"
   width="1000"
   height="560"
   inkscape:version="0.92.1 r15371">
  <metadata
     id="metadata14">
    <rdf:RDF>
      <cc:Work
         rdf:about="">
        <dc:format>image/svg+xml</dc:format>
        <dc:type
           rdf:resource="http://purl.org/dc/dcmitype/StillImage" />
        <dc:title></dc:title>
      </cc:Work>
    </rdf:RDF>
  </metadata>
  <defs
     id="defs12" />
  <sodipodi:namedview
     pagecolor="#ffffff"
     bordercolor="#666666"
     borderopacity="1"
     objecttolerance="10"
     gridtolerance="10"
     guidetolerance="10"
     inkscape:pageopacity="0"
     inkscape:pageshadow="2"
     inkscape:window-width="3840"
     inkscape:window-height="2004"
     id="namedview10"
     showgrid="true"
     inkscape:zoom="1.522"
     inkscape:cx="404.01426"
     inkscape:cy="114.77808"
     inkscape:window-x="-16"
     inkscape:window-y="-16"
     inkscape:window-maximized="1"
     inkscape:current-layer="svg8">
    <inkscape:grid
       type="xygrid"
       id="grid4491" />
  </sodipodi:namedview>
  <path
     d="M 0,0 H 1000 V 560 H 0 Z"
     id="path2"
     inkscape:connector-curvature="0"
     style="fill:#c9c9c9;stroke-width:1.46158493" />
  <g
     class=""
     id="g6"
     transform="matrix(1.1172793,0,0,1.1172793,212.87585,-8.9729365)">
    <path
       d="m 247,25.332 c -0.642,0.046 -1.288,0.098 -1.936,0.152 -28.244,52.446 -31.912,108.59 -28.084,167.936 3.77,58.42 14.916,119.542 15.936,181.58 h 46.168 C 280.104,312.962 291.251,251.84 295.02,193.42 298.848,134.073 295.18,77.93 266.936,25.484 266.288,25.43 265.642,25.378 265,25.332 V 352 h -18 z m -23.795,3.51 c -7.21,1.567 -14.562,3.595 -21.893,6.04 l -2.398,2.88 c -38.992,46.79 -49.743,83.613 -45.955,123.384 3.787,39.772 23.27,83.214 47.31,139.31 l 4.45,11.458 c 0.898,3.188 4.327,9.14 7.594,15.463 -3.76,-44.326 -10.457,-88.814 -13.294,-132.797 -3.65,-56.57 -0.748,-112.657 24.185,-165.738 z m 65.59,0 c 24.933,53.08 27.835,109.168 24.185,165.738 -2.837,43.983 -9.534,88.47 -13.294,132.797 3.267,-6.324 6.696,-12.275 7.595,-15.463 l 4.45,-11.46 c 24.04,-56.094 43.523,-99.536 47.31,-139.308 3.79,-39.77 -6.962,-76.593 -45.954,-123.384 l -2.4,-2.88 c -7.33,-2.445 -14.682,-4.473 -21.89,-6.04 z M 167.5,49.422 c -3.667,1.97 -7.256,4.04 -10.73,6.21 C 126.256,74.705 105,100.5 105,128 c 0,61.75 22.053,90.394 49.773,122.074 2.808,3.21 5.702,6.47 8.608,9.76 -14.478,-34.99 -25.395,-66.073 -28.34,-96.98 -3.537,-37.152 5.253,-73.565 32.46,-113.432 z m 177,0 c 27.207,39.867 35.997,76.28 32.46,113.432 -2.945,30.907 -13.862,61.99 -28.34,96.98 2.905,-3.29 5.8,-6.55 8.607,-9.76 C 384.947,218.394 407,189.75 407,128 c 0,-27.5 -21.256,-53.296 -51.77,-72.367 -3.474,-2.172 -7.063,-4.24 -10.73,-6.21 z M 224,393 v 37 h 21.424 v -37 z m 42.576,0 v 37 H 288 V 393 Z M 224,448 v 44 h 64 v -44 z"
       id="path4"
       inkscape:connector-curvature="0"
       style="fill:#000000" />
  </g>
  <!-- react-empty: 6 -->
</svg>
