<?xml version="1.0" encoding="UTF-8" standalone="no"?>
<svg
   xmlns:dc="http://purl.org/dc/elements/1.1/"
   xmlns:cc="http://creativecommons.org/ns#"
   xmlns:rdf="http://www.w3.org/1999/02/22-rdf-syntax-ns#"
   xmlns:svg="http://www.w3.org/2000/svg"
   xmlns="http://www.w3.org/2000/svg"
   xmlns:sodipodi="http://sodipodi.sourceforge.net/DTD/sodipodi-0.dtd"
   xmlns:inkscape="http://www.inkscape.org/namespaces/inkscape"
   viewBox="0 0 1000 560"
   version="1.1"
   id="svg21"
   sodipodi:docname="backstab.svg"
   width="1000"
   height="560"
   inkscape:version="0.92.1 r15371"
   inkscape:export-filename="C:\Users\William\Documents\Dev\Games\ccg\ccgclient\src\assets\png\backstab.png"
   inkscape:export-xdpi="240"
   inkscape:export-ydpi="240">
  <metadata
     id="metadata25">
    <rdf:RDF>
      <cc:Work
         rdf:about="">
        <dc:format>image/svg+xml</dc:format>
        <dc:type
           rdf:resource="http://purl.org/dc/dcmitype/StillImage" />
        <dc:title></dc:title>
      </cc:Work>
    </rdf:RDF>
  </metadata>
  <sodipodi:namedview
     pagecolor="#000000"
     bordercolor="#666666"
     borderopacity="1"
     objecttolerance="10"
     gridtolerance="10"
     guidetolerance="10"
     inkscape:pageopacity="1"
     inkscape:pageshadow="2"
     inkscape:window-width="3840"
     inkscape:window-height="2004"
     id="namedview23"
     showgrid="false"
     inkscape:zoom="0.921875"
     inkscape:cx="550.80674"
     inkscape:cy="418.51385"
     inkscape:window-x="-16"
     inkscape:window-y="-16"
     inkscape:window-maximized="1"
     inkscape:current-layer="svg21" />
  <defs
     id="defs13">
    <filter
       id="shadow-1"
       height="3"
       width="3"
       x="-1"
       y="-1">
      <feFlood
         flood-color="#9013fe"
         result="flood"
         id="feFlood2" />
      <feComposite
         in="flood"
         in2="SourceGraphic"
         operator="atop"
         result="composite"
         id="feComposite4" />
      <feGaussianBlur
         in="composite"
         stdDeviation="25"
         result="blur"
         id="feGaussianBlur6" />
      <feOffset
         result="offset"
         id="feOffset8" />
      <feComposite
         in="SourceGraphic"
         in2="offset"
         operator="over"
         id="feComposite10" />
    </filter>
  </defs>
  <path
     d="M 0,48 H 512 V 560 H 0 Z"
     id="path15"
     inkscape:connector-curvature="0"
     style="fill:#000000" />
  <g
     class=""
     transform="matrix(1.0355952,0,0,0.98940363,233.9999,70.100387)"
     id="g19">
    <path
       d="m 180.75,22.97 -17.72,5.968 25.345,75.406 17.72,-6.03 -25.345,-75.345 z m 73.906,78.56 -104.686,35.627 10.155,29.875 c 8.316,-9.75 17.78,-17.498 28.125,-23.374 7.232,27.494 16.666,54.12 27.813,79.906 13,-5.56 26.423,-10.197 39.906,-13.718 -6.967,-26.727 -15.822,-53.187 -26.345,-79.313 11.295,-1.24 23.1,-0.91 35.22,0.94 l -10.19,-29.94 z m 191.688,88.22 c -19.464,-0.103 -42.28,9.843 -60.875,28.438 -5.778,5.776 -10.684,11.978 -14.75,18.343 -28.734,-17.313 -69.766,-18.263 -110.22,-7.968 -0.02,-0.093 -0.04,-0.187 -0.063,-0.28 -12.357,3.134 -24.726,7.248 -36.687,12.312 l 0.188,0.406 C 136.609,278.507 72.035,364.991 175.905,443.064 H 46.03 L 17.25,495.03 h 279.875 l -96.28,-112.374 c 26.414,-29.067 73.41,-47.584 105.56,-49.062 C 321.42,382.674 345.85,457.11 384.47,495 h 66.25 c -46.88,-50.664 -83.318,-118.734 -89.19,-195.75 1.76,3.523 4.022,6.77 6.845,9.594 20.312,20.312 60.906,12.657 90.656,-17.094 29.752,-29.75 37.407,-70.344 17.095,-90.656 -7.617,-7.617 -18.103,-11.282 -29.78,-11.344 z"
       id="path17"
       inkscape:connector-curvature="0"
       style="fill:#9013fe;filter:url(#shadow-1)" />
  </g>
  <!-- react-empty: 13 -->
</svg>
