<?xml version="1.0" encoding="UTF-8" standalone="no"?>
<svg
   xmlns:dc="http://purl.org/dc/elements/1.1/"
   xmlns:cc="http://creativecommons.org/ns#"
   xmlns:rdf="http://www.w3.org/1999/02/22-rdf-syntax-ns#"
   xmlns:svg="http://www.w3.org/2000/svg"
   xmlns="http://www.w3.org/2000/svg"
   xmlns:sodipodi="http://sodipodi.sourceforge.net/DTD/sodipodi-0.dtd"
   xmlns:inkscape="http://www.inkscape.org/namespaces/inkscape"
   viewBox="0 0 1000 560"
   version="1.1"
   id="svg8"
   sodipodi:docname="bat.svg"
   width="1000"
   height="560"
   inkscape:version="0.92.1 r15371"
   inkscape:export-filename="C:\Users\William\Documents\Dev\Games\ccg\ccgclient\src\assets\png\bat.png"
   inkscape:export-xdpi="240"
   inkscape:export-ydpi="240">
  <metadata
     id="metadata14">
    <rdf:RDF>
      <cc:Work
         rdf:about="">
        <dc:format>image/svg+xml</dc:format>
        <dc:type
           rdf:resource="http://purl.org/dc/dcmitype/StillImage" />
        <dc:title></dc:title>
      </cc:Work>
    </rdf:RDF>
  </metadata>
  <defs
     id="defs12" />
  <sodipodi:namedview
     pagecolor="#ffffff"
     bordercolor="#666666"
     borderopacity="1"
     objecttolerance="10"
     gridtolerance="10"
     guidetolerance="10"
     inkscape:pageopacity="0"
     inkscape:pageshadow="2"
     inkscape:window-width="3840"
     inkscape:window-height="2004"
     id="namedview10"
     showgrid="false"
     inkscape:zoom="0.921875"
     inkscape:cx="460.49414"
     inkscape:cy="329.74307"
     inkscape:window-x="-16"
     inkscape:window-y="-16"
     inkscape:window-maximized="1"
     inkscape:current-layer="svg8" />
  <path
     d="M 0,-0.81355935 H 1015.322 V 560 H 0 Z"
     id="path2"
     inkscape:connector-curvature="0"
     style="fill:#7901e2;stroke-width:1.473809;fill-opacity:1" />
  <g
     class=""
     id="g6"
     transform="matrix(1.2318237,0,0,1.2318237,190.46031,-50.397944)">
    <path
       d="m 196.14,78.192 c -11.98,26.54 -14.398,45.97 -11.355,59.664 3.357,15.106 12.85,24.708 27.24,31.903 l 11.168,5.583 -8.83,8.828 c -0.94,0.942 -2.235,4.514 -1.224,10.9 1.01,6.39 4.1,14.61 8.626,22.335 5.75,9.82 13.835,18.326 21.62,23.235 L 256,221.77 l 12.52,18.926 c 7.814,-4.9 15.94,-13.433 21.714,-23.29 4.526,-7.727 7.617,-15.947 8.627,-22.335 1.012,-6.386 -0.282,-9.958 -1.223,-10.9 l -8.83,-8.827 11.168,-5.584 c 14.39,-7.196 23.883,-16.798 27.24,-31.904 3.043,-13.694 0.626,-33.125 -11.354,-59.664 -25.09,13.792 -37.177,28.03 -51.32,70.46 L 256,174.27 247.46,148.653 c -14.143,-42.43 -26.23,-56.67 -51.32,-70.46 z M 96,97.808 c -3.376,19.912 -5.288,41.53 10.314,58.623 C 53.46,233.354 16,377.273 16,433.81 c 5.024,-10.05 13.206,-23.25 23.055,-35.647 1.14,-66.82 33.374,-161.227 81.228,-240.983 l 4.63,-7.717 7.718,4.63 c 20.08,12.047 41.164,20.96 62.73,26.745 -7.74,-5.074 -14.54,-11.42 -19.673,-19.15 -17.93,-7.796 -34.227,-18.417 -47.687,-31.877 -18.968,-1.448 -25.344,-16.872 -32,-32 z m 320,0 c -6.656,15.128 -13.032,30.552 -32,32 -13.46,13.46 -29.756,24.08 -47.688,31.877 -5.133,7.73 -11.93,14.076 -19.673,19.15 21.566,-5.785 42.65,-14.698 62.73,-26.744 l 7.718,-4.63 4.63,7.717 c 47.853,79.756 80.088,174.163 81.227,240.984 9.85,12.397 18.03,25.6 23.055,35.648 0,-56.536 -37.46,-200.455 -90.314,-277.377 15.602,-17.093 13.69,-38.71 10.314,-58.622 z m -192,80 c 11.588,8.65 18.698,11.698 32,16 13.302,-4.302 20.412,-7.35 32,-16 2.458,4.566 0,16 0,16 -11.948,5.447 -21.853,2.208 -32,0 -10.147,2.208 -20.052,5.447 -32,0 0,0 -2.458,-11.434 0,-16 z m -71.854,6.525 c 1.817,4.383 3.522,9.017 5.143,13.88 5.98,17.942 10.558,38.886 13.62,60.32 5.243,36.7 6.394,74.3 0.945,101.388 8.74,-0.234 17.477,2.767 26.21,8.274 l -31.654,24.365 20.268,-4.795 -8.55,33.595 29.872,-17.59 1.057,20.8 13.615,-34.794 c 0.632,0.695 1.264,1.432 1.896,2.145 -4.088,-5.556 -7.65,-12.068 -10.78,-19.37 C 204.448,350.759 199,321.779 199,289.809 c 0,-22.842 2.793,-44.14 7.787,-62.397 -0.18,-0.302 -0.375,-0.603 -0.553,-0.907 -5.21,-8.898 -9,-18.256 -10.636,-27.26 -14.738,-3.625 -29.273,-8.592 -43.452,-14.91 z m 207.708,0 c -14.18,6.318 -28.714,11.285 -43.452,14.91 -1.637,9.004 -5.425,18.362 -10.636,27.26 -0.178,0.304 -0.372,0.605 -0.553,0.908 4.994,18.259 7.787,39.556 7.787,62.399 0,31.97 -5.448,60.95 -14.787,82.742 -2.734,6.378 -5.807,12.136 -9.262,17.2 0.085,-0.095 0.17,-0.198 0.253,-0.292 l 13.74,35.11 1.056,-20.798 29.87,17.59 -8.548,-33.595 20.268,4.795 -32.195,-24.782 c 8.94,-5.75 17.842,-8.698 26.73,-7.957 -5.425,-27.08 -4.27,-64.633 0.965,-101.286 3.062,-21.435 7.64,-42.38 13.62,-60.322 1.622,-4.862 3.327,-9.496 5.144,-13.88 z m -227.268,0.64 c -12.714,64.79 -23.21,127.977 -15.46,180.256 12.15,-9.62 24.292,-10.477 36.362,-5.83 4.968,-22.784 4.842,-61.64 -0.398,-98.32 -2.938,-20.563 -7.36,-40.62 -12.88,-57.177 -2.344,-7.035 -4.942,-13.425 -7.624,-18.93 z m 246.828,0 c -2.682,5.505 -5.28,11.895 -7.625,18.93 -5.52,16.557 -9.942,36.614 -12.88,57.178 -5.19,36.34 -5.364,74.816 -0.537,97.683 12.897,-3.96 24.765,-2.81 36.5,6.468 7.75,-52.28 -2.745,-115.467 -15.46,-180.256 z m -271.6,33.74 c -26.35,55.316 -44.32,113.17 -49.365,158.712 13.07,-11.5 27.16,-18.727 39.995,-15.59 -5.553,-44.21 0.388,-93.13 9.368,-143.123 z m 296.374,0 c 8.98,49.993 14.92,98.912 9.367,143.122 12.835,-3.137 26.925,4.09 39.996,15.59 -5.044,-45.542 -23.014,-103.396 -49.363,-158.713 z m -183.22,27.466 c -2.517,13.256 -3.968,28.045 -3.968,43.628 0,6.126 0.233,12.123 0.656,17.963 1.642,22.645 6.29,42.786 12.676,57.688 4.017,9.372 8.73,16.627 13.307,21.143 4.575,4.517 8.57,6.208 12.36,6.208 3.79,0 7.785,-1.69 12.36,-6.207 4.577,-4.515 9.29,-11.77 13.308,-21.142 6.386,-14.902 11.034,-35.043 12.676,-57.687 0.423,-5.84 0.656,-11.836 0.656,-17.962 0,-15.583 -1.45,-30.372 -3.97,-43.63 -9.624,9.87 -21.444,16.92 -35.03,16.92 -13.586,0 -25.406,-7.05 -35.03,-16.92 z m 9.805,153.007 c 8.413,10.265 16.82,22.012 25.227,34.62 8.136,-12.204 16.2,-23.596 24.207,-33.636 -6.772,6.394 -15.1,10.638 -24.207,10.638 -9.465,0 -18.096,-4.578 -25.006,-11.397 -0.074,-0.072 -0.147,-0.15 -0.22,-0.223 z"
       id="path4"
       inkscape:connector-curvature="0"
       style="fill:#131210" />
  </g>
  <!-- react-empty: 6 -->
</svg>
