<?xml version="1.0" encoding="UTF-8" standalone="no"?>
<svg
   xmlns:dc="http://purl.org/dc/elements/1.1/"
   xmlns:cc="http://creativecommons.org/ns#"
   xmlns:rdf="http://www.w3.org/1999/02/22-rdf-syntax-ns#"
   xmlns:svg="http://www.w3.org/2000/svg"
   xmlns="http://www.w3.org/2000/svg"
   xmlns:sodipodi="http://sodipodi.sourceforge.net/DTD/sodipodi-0.dtd"
   xmlns:inkscape="http://www.inkscape.org/namespaces/inkscape"
   viewBox="0 0 1000 560"
   version="1.1"
   id="svg8"
   sodipodi:docname="battle-mech.svg"
   width="1000"
   height="560"
   inkscape:version="0.92.1 r15371"
   inkscape:export-filename="C:\Users\William\Documents\Dev\Games\ccg\ccgclient\src\assets\png\battle-mech.png"
   inkscape:export-xdpi="96"
   inkscape:export-ydpi="96">
  <metadata
     id="metadata14">
    <rdf:RDF>
      <cc:Work
         rdf:about="">
        <dc:format>image/svg+xml</dc:format>
        <dc:type
           rdf:resource="http://purl.org/dc/dcmitype/StillImage" />
        <dc:title></dc:title>
      </cc:Work>
    </rdf:RDF>
  </metadata>
  <defs
     id="defs12" />
  <sodipodi:namedview
     pagecolor="#ffffff"
     bordercolor="#666666"
     borderopacity="1"
     objecttolerance="10"
     gridtolerance="10"
     guidetolerance="10"
     inkscape:pageopacity="0"
     inkscape:pageshadow="2"
     inkscape:window-width="3840"
     inkscape:window-height="2104"
     id="namedview10"
     showgrid="true"
     inkscape:zoom="0.4609375"
     inkscape:cx="-386.16949"
     inkscape:cy="256"
     inkscape:window-x="-16"
     inkscape:window-y="-16"
     inkscape:window-maximized="1"
     inkscape:current-layer="svg8">
    <inkscape:grid
       type="xygrid"
       id="grid16" />
  </sodipodi:namedview>
  <path
     d="M 0,0 H 1000 V 560 H 0 Z"
     id="path2"
     inkscape:connector-curvature="0"
     style="fill:#c9c9c9;stroke-width:1.46158493" />
  <g
     class=""
     id="g6"
     transform="matrix(1,0,0,1.1284893,237.184,18.425705)">
    <path
       d="m 217,25 v 32.512 l 39,13.002 39,-13.002 V 25 Z m 0,51.488 v 0.787 L 244.816,119 h 22.368 L 295,77.275 v -0.787 l -39,12.998 z m -1.04,31.678 -54.245,18.084 -9.51,38.033 15.71,39.27 L 217,269 v 24 h 78 v -24 l 49.086,-65.447 15.709,-39.27 -9.51,-38.033 L 296.039,108.166 276.816,137 h -41.632 l -19.223,-28.834 z m -69.437,4.635 -43.164,21.582 L 81.822,199 h 43.15 l 21.551,-86.2 z m 218.954,0 21.55,86.199 h 43.15 L 408.641,134.383 Z M 247,160 h 18 v 52.473 l 52.816,-13.203 4.368,17.46 L 256,233.277 189.816,216.73 194.184,199.27 247,212.473 Z M 87.664,217 115.986,303.287 134.23,285.041 120.621,217 Z m 303.715,0 -13.61,68.041 18.245,18.246 L 424.336,217 Z M 199,286.563 l -46.54,23.269 -5.5,55.002 28.349,9.45 L 199,362.437 v -75.875 z m 114,0 v 75.875 l 23.691,11.845 28.348,-9.449 -5.5,-55.002 L 313,286.562 Z M 217,311 v 16 h 78 v -16 z m -18,71.563 -22.309,11.154 -31.566,-10.522 -6.693,66.938 L 199,425.906 v -43.344 z m 114,0 v 43.343 l 60.568,24.227 -6.693,-66.938 -31.566,10.522 z m -111.23,61.62 -67.25,26.903 -7.958,15.914 h 85.91 L 201.77,444.184 Z m 108.46,0 L 299.527,487 h 85.91 l -7.957,-15.914 -67.25,-26.902 z"
       id="path4"
       inkscape:connector-curvature="0"
       style="fill:#000000" />
  </g>
  <!-- react-empty: 13 -->
</svg>
