<?xml version="1.0" encoding="UTF-8" standalone="no"?>
<svg
   xmlns:dc="http://purl.org/dc/elements/1.1/"
   xmlns:cc="http://creativecommons.org/ns#"
   xmlns:rdf="http://www.w3.org/1999/02/22-rdf-syntax-ns#"
   xmlns:svg="http://www.w3.org/2000/svg"
   xmlns="http://www.w3.org/2000/svg"
   xmlns:sodipodi="http://sodipodi.sourceforge.net/DTD/sodipodi-0.dtd"
   xmlns:inkscape="http://www.inkscape.org/namespaces/inkscape"
   viewBox="0 0 1000 560"
   version="1.1"
   id="svg8"
   sodipodi:docname="bear-head.svg"
   width="1000"
   height="560"
   inkscape:version="0.92.1 r15371"
   inkscape:export-filename="C:\Users\William\Documents\Dev\Games\ccg\ccgclient\src\assets\png\bear-head.png"
   inkscape:export-xdpi="240"
   inkscape:export-ydpi="240">
  <metadata
     id="metadata14">
    <rdf:RDF>
      <cc:Work
         rdf:about="">
        <dc:format>image/svg+xml</dc:format>
        <dc:type
           rdf:resource="http://purl.org/dc/dcmitype/StillImage" />
        <dc:title></dc:title>
      </cc:Work>
    </rdf:RDF>
  </metadata>
  <defs
     id="defs12" />
  <sodipodi:namedview
     pagecolor="#ffffff"
     bordercolor="#666666"
     borderopacity="1"
     objecttolerance="10"
     gridtolerance="10"
     guidetolerance="10"
     inkscape:pageopacity="0"
     inkscape:pageshadow="2"
     inkscape:window-width="3840"
     inkscape:window-height="2004"
     id="namedview10"
     showgrid="true"
     inkscape:zoom="0.4609375"
     inkscape:cx="256"
     inkscape:cy="256"
     inkscape:window-x="-16"
     inkscape:window-y="-16"
     inkscape:window-maximized="1"
     inkscape:current-layer="svg8">
    <inkscape:grid
       type="xygrid"
       id="grid4491" />
  </sodipodi:namedview>
  <path
     d="M 0,0 H 1000 V 560 H 0 Z"
     id="path2"
     inkscape:connector-curvature="0"
     style="fill:#417505;stroke-width:1.46158493" />
  <g
     class=""
     id="g6"
     transform="matrix(1.1230138,0,0,1.1230138,226.21679,-3.4851915)">
    <path
       d="m 220.41,35.389 c -0.584,-0.175 -9.216,1.425 -18.76,7.976 -8.948,6.143 -18.914,15.31 -27.283,25.137 l 0.34,0.268 c -6.134,7.797 -13.129,16.816 -17.613,25.767 -4.485,8.951 -6.294,17.19 -3.989,24.71 l -17.209,5.274 c -4.144,-13.518 -0.522,-26.817 5.104,-38.046 2.208,-4.408 4.753,-8.587 7.398,-12.52 C 105.378,74.11 62.33,71.25 18,66.748 v 409.828 a 264.891,264.891 0 0 1 24.8,-19.922 l 1.901,-1.345 2.313,-0.254 c 24.034,-2.65 55.821,-6.651 84.908,-15.803 29.086,-9.152 54.934,-23.401 68.633,-45.191 l 2.558,-4.073 4.809,-0.134 c 91.21,-2.547 140.126,-19.862 193.652,-50.153 0.126,-0.095 0.252,-0.199 0.377,-0.295 -6.874,-0.376 -14.493,-0.65 -22.334,-0.617 -20.444,0.086 -42.1,3.08 -51.367,8.973 l -9.658,-15.188 c 16.106,-10.242 39.29,-11.694 60.949,-11.785 15.73,-0.066 30.683,1.026 40.254,1.797 6.938,-7.739 13.533,-16.503 19.18,-25.514 5.066,-8.086 9.33,-16.386 12.537,-24.177 -3.821,-0.55 -7.395,-1.642 -10.633,-3.258 -8.283,-4.134 -14.026,-11.447 -16.754,-19.596 -3.827,-11.432 -2.087,-24.798 5.268,-35.777 l -64.641,-23.35 0.277,-6.598 c 0.396,-9.422 -6.387,-27.053 -14.601,-34.712 -21.568,-20.112 -46.91,-21.58 -78.06,-33.93 l -3.554,-1.408 -1.453,-3.536 C 256.699,84.806 250.301,66.706 243.891,55.23 237.479,43.755 232.317,38.943 220.411,35.389 Z m -5.808,20.82 9.84,15.072 c -29.07,18.978 -29.771,34.937 -31.23,51.65 l -17.93,-1.562 c 1.5,-17.208 5.882,-43.33 39.32,-65.16 z m -95.002,79.264 8.119,16.064 c -42.266,21.357 -60.741,47.237 -65.88,70.451 14.366,-11.279 29.7,-17.184 50.218,-16.46 l 15.238,0.538 -7.834,13.08 c -17.268,28.834 -22.552,42.534 -26.24,59.696 4.017,-1.528 8.007,-2.635 12.119,-2.979 9.78,-0.818 19.142,2.28 29.105,7.746 l 9.5,5.211 -6.869,8.383 c -9.978,12.178 -13.966,20.02 -15.224,27.56 -0.477,2.856 -0.454,5.974 -0.198,9.333 2.711,-2.798 5.58,-5.305 8.942,-7.198 9.125,-5.137 19.745,-5.825 33.097,-4.632 l -1.601,17.927 c -11.9,-1.063 -18.132,-0.162 -22.666,2.391 -4.534,2.553 -8.91,7.798 -14.88,18.39 l -11.05,19.614 -5.516,-21.826 c -3.535,-13.99 -5.842,-25.216 -3.882,-36.961 1.486,-8.91 5.434,-17.37 12.002,-26.742 -3.422,-1.103 -6.376,-1.5 -9.258,-1.258 -5.244,0.439 -11.572,3.057 -20.965,9.203 l -17.365,11.361 3.572,-20.441 c 4.283,-24.513 7.539,-40.242 23.588,-69.49 -14.037,2.56 -23.415,10.322 -37.408,25.492 l -13.442,14.57 -2.12,-19.709 C 38.873,209.229 59.518,165.833 119.6,135.473 Z m 143.707,26.976 c 17.788,7.852 39.24,14.301 56.859,16.617 l 3.707,17.616 c -3.852,0.81 -7.24,0.644 -10.861,0.07 -1.363,9.026 -9.537,15.736 -18.74,15.736 -10.089,0 -18.946,-8.06 -18.946,-18.396 0,-2.45 0.511,-4.766 1.404,-6.883 -8.85,-3.702 -23.717,-6.978 -28.798,-14.723 5.796,-2.514 14.755,-10.553 15.375,-10.037 z M 443.633,225.4 c -3.758,6.287 -4.294,13.381 -2.438,18.928 1.396,4.17 3.941,7.317 7.721,9.203 2.142,1.07 4.803,1.797 8.147,1.823 0.303,-1.51 0.546,-2.968 0.707,-4.348 -0.926,-6.793 -6.555,-16.61 -14.137,-25.606 z"
       id="path4"
       inkscape:connector-curvature="0"
       style="fill:#131210" />
  </g>
  <!-- react-empty: 6 -->
</svg>
