<?xml version="1.0" encoding="UTF-8" standalone="no"?>
<svg
   xmlns:dc="http://purl.org/dc/elements/1.1/"
   xmlns:cc="http://creativecommons.org/ns#"
   xmlns:rdf="http://www.w3.org/1999/02/22-rdf-syntax-ns#"
   xmlns:svg="http://www.w3.org/2000/svg"
   xmlns="http://www.w3.org/2000/svg"
   xmlns:sodipodi="http://sodipodi.sourceforge.net/DTD/sodipodi-0.dtd"
   xmlns:inkscape="http://www.inkscape.org/namespaces/inkscape"
   viewBox="0 0 1000 560"
   version="1.1"
   id="svg8"
   sodipodi:docname="beech.svg"
   width="1000"
   height="560"
   inkscape:version="0.92.1 r15371"
   inkscape:export-filename="C:\Users\William\Documents\Dev\Games\ccg\ccgclient\src\assets\png\beech.png"
   inkscape:export-xdpi="240"
   inkscape:export-ydpi="240">
  <metadata
     id="metadata14">
    <rdf:RDF>
      <cc:Work
         rdf:about="">
        <dc:format>image/svg+xml</dc:format>
        <dc:type
           rdf:resource="http://purl.org/dc/dcmitype/StillImage" />
        <dc:title></dc:title>
      </cc:Work>
    </rdf:RDF>
  </metadata>
  <defs
     id="defs12" />
  <sodipodi:namedview
     pagecolor="#ffffff"
     bordercolor="#666666"
     borderopacity="1"
     objecttolerance="10"
     gridtolerance="10"
     guidetolerance="10"
     inkscape:pageopacity="0"
     inkscape:pageshadow="2"
     inkscape:window-width="3840"
     inkscape:window-height="2104"
     id="namedview10"
     showgrid="true"
     inkscape:zoom="0.4609375"
     inkscape:cx="256"
     inkscape:cy="256"
     inkscape:window-x="-16"
     inkscape:window-y="-16"
     inkscape:window-maximized="1"
     inkscape:current-layer="svg8">
    <inkscape:grid
       type="xygrid"
       id="grid4491" />
  </sodipodi:namedview>
  <path
     d="M 0,0 H 1000 V 560 H 0 Z"
     id="path2"
     inkscape:connector-curvature="0"
     style="fill:#417505;fill-opacity:1;stroke-width:1.46158493" />
  <g
     class=""
     id="g6"
     transform="matrix(1.1898739,0,0,1.0680272,206.90843,28.85078)">
    <path
       d="m 222.156,20.72 c -1.423,0.01 -2.843,0.065 -4.25,0.155 -20.084,1.29 -37.527,10.342 -46.375,27.03 l 17.626,12.532 H 159.845 C 149.512,55.181 160.257,60.171 148.47,55.157 125.312,42.039 99.683,45.517 81.22,57.969 61.158,71.496 50.486,93.775 60.97,118.062 l 3.093,7.156 -6.47,4.31 C 36.158,143.888 24.596,159.921 20.469,177.654 16.34,195.39 19.65,215.64 31,238.5 l 2.47,5.03 -3.25,4.564 c -13.796,19.38 -8.88,38.668 5.968,51.03 10.043,8.364 19.48,9.982 29.656,7.407 10.177,-2.574 21.15,-10.15 30.72,-21.874 l 2.655,-3.25 4.155,-0.187 c 27.728,-1.2 49.69,-11.635 63.97,-27.72 14.28,-16.085 21.22,-37.98 17.718,-63.906 L 184.03,182 l 7.25,-2.5 c 8.066,-2.768 14.73,-8.15 18.814,-15.53 l 5.28,-9.564 8.626,6.72 c 6.39,4.976 22.988,8.397 31.375,5.968 l 10.28,-2.97 1.564,10.595 c 4.3,29.362 24.393,52.534 50.06,60.155 l 8.25,2.438 -1.75,8.437 c -3.162,14.99 1.497,26.075 10.44,33.406 8.94,7.332 22.793,10.683 38.75,6.438 l 6.217,-1.656 3.782,5.25 c 13.513,18.845 29.945,28.087 46.342,29.562 16.398,1.475 33.29,-4.745 48.032,-19.594 12.624,-12.716 16.654,-26.51 15.062,-40.437 -1.59,-13.93 -9.318,-28.12 -21.75,-39.533 l -8.5,-7.812 9.406,-6.688 c 7.878,-5.6 10.74,-15.92 8.907,-25.5 -1.833,-9.58 -7.527,-16.677 -16.345,-17.78 l -9.375,-1.157 1.28,-9.375 C 461.869,108.306 442.407,73.225 410.685,53.217 378.962,33.207 335.012,28.731 291.903,50.122 l -6.72,3.344 -4.717,-5.876 C 267.002,30.794 246.443,21.822 226.433,20.808 c -1.43,-0.072 -2.857,-0.104 -4.28,-0.093 z m -1.22,160.31 c -4.003,4.804 -8.867,8.724 -14.25,11.782 11.968,29.99 18.83,60.783 23.033,93.532 -4.555,11.237 -9.676,22.38 -15.5,33.437 l -0.157,0.064 c -8.54,-19.537 -18.073,-38.957 -31.188,-55.75 -0.51,0.607 -1.035,1.218 -1.563,1.812 -3.628,4.088 -7.652,7.838 -12,11.25 12.034,15.867 21.048,34.83 29.72,54.938 7.724,43.39 6.386,91.267 -2.782,134.812 -26.727,5.073 -55.198,15.22 -88.594,30.5 h 252.938 c -32.428,-15.282 -60.268,-25.46 -86.688,-30.53 -13.95,-24.116 -21.036,-50.13 -23.25,-76 9.692,-45.174 28.504,-71.692 57,-99.282 -19.276,7.68 -37.422,17.31 -52.687,31.937 0.702,-3.41 1.488,-6.766 2.31,-10.092 9.476,-24.123 23.87,-45.82 42.94,-65.407 -5.784,-2.705 -11.25,-5.994 -16.283,-9.874 -12.71,13.552 -23.555,28.128 -32.312,43.78 7.156,-19.187 12.88,-38.422 18.063,-57.592 -5.443,-6.556 -10.03,-13.933 -13.563,-21.938 -4.167,16.03 -8.512,31.946 -13.5,47.72 -4.637,-23.334 -11.12,-46.08 -20.375,-68.47 -0.438,-0.204 -0.88,-0.41 -1.313,-0.625 z"
       id="path4"
       inkscape:connector-curvature="0"
       style="fill:#000000;fill-opacity:1" />
  </g>
</svg>
