<?xml version="1.0" encoding="UTF-8" standalone="no"?>
<svg
   xmlns:dc="http://purl.org/dc/elements/1.1/"
   xmlns:cc="http://creativecommons.org/ns#"
   xmlns:rdf="http://www.w3.org/1999/02/22-rdf-syntax-ns#"
   xmlns:svg="http://www.w3.org/2000/svg"
   xmlns="http://www.w3.org/2000/svg"
   xmlns:sodipodi="http://sodipodi.sourceforge.net/DTD/sodipodi-0.dtd"
   xmlns:inkscape="http://www.inkscape.org/namespaces/inkscape"
   viewBox="0 0 1000 560"
   version="1.1"
   id="svg8"
   sodipodi:docname="biplane.svg"
   width="1000"
   height="560"
   inkscape:export-filename="C:\Users\William\Documents\Dev\Games\ccg\ccgclient\src\assets\png\biplane.png"
   inkscape:export-xdpi="96"
   inkscape:export-ydpi="96"
   inkscape:version="0.92.1 r15371">
  <metadata
     id="metadata14">
    <rdf:RDF>
      <cc:Work
         rdf:about="">
        <dc:format>image/svg+xml</dc:format>
        <dc:type
           rdf:resource="http://purl.org/dc/dcmitype/StillImage" />
        <dc:title></dc:title>
      </cc:Work>
    </rdf:RDF>
  </metadata>
  <defs
     id="defs12" />
  <sodipodi:namedview
     pagecolor="#ffffff"
     bordercolor="#666666"
     borderopacity="1"
     objecttolerance="10"
     gridtolerance="10"
     guidetolerance="10"
     inkscape:pageopacity="0"
     inkscape:pageshadow="2"
     inkscape:window-width="3840"
     inkscape:window-height="2104"
     id="namedview10"
     showgrid="true"
     inkscape:zoom="0.921875"
     inkscape:cx="61.86377"
     inkscape:cy="-58.016992"
     inkscape:window-x="-16"
     inkscape:window-y="-16"
     inkscape:window-maximized="1"
     inkscape:current-layer="svg8">
    <inkscape:grid
       type="xygrid"
       id="grid16" />
  </sodipodi:namedview>
  <path
     d="M 0,0 H 1000 V 560 H 0 Z"
     id="path2"
     inkscape:connector-curvature="0"
     style="fill:#c9c9c9;stroke-width:1.46158493" />
  <g
     class=""
     transform="matrix(1.0748874,0,0,1.0748874,233.94323,-17.138003)"
     id="g6">
    <path
       d="m 12.455,112.281 v 19.153 h 31.75 l 5.606,163.779 H 39.578 v 19.152 h 153.389 l 19.318,-18.838 a 45.2,45.2 0 0 1 -2.795,-15.709 c 0,-17.091 9.399,-31.867 23.34,-39.476 v -40.51 c -10.45,7.054 -18.058,18.863 -21.37,32.506 -12.957,11.747 -21.122,28.696 -21.122,47.48 0,2.654 0.182,5.265 0.498,7.836 l -51.822,-71.302 61.716,-84.918 h 105.346 l 61.717,84.918 -49.414,67.988 c 0.105,-1.496 0.178,-3 0.178,-4.522 0,-17.758 -7.302,-33.87 -19.047,-45.504 -2.928,-13.967 -10.325,-26.2 -20.68,-33.683 v 41.365 c 12.4,7.979 20.574,21.89 20.574,37.822 0,5.47 -0.963,10.701 -2.728,15.537 l 19.025,19.01 H 468.96 v -19.152 h -12.133 l 5.606,-163.78 h 37.113 v -19.152 z m 48.38,19.153 h 0.003 l 61.717,84.916 -56.168,77.283 z m 16.464,0 h 106.97 l -53.486,73.591 z m 245.238,0 h 106.97 l -53.484,73.591 z m 123.256,0.244 -5.535,161.73 -56.004,-77.056 z m -190.957,23.115 -8.441,8.441 v 88.182 c -12.387,3.658 -21.534,15.184 -21.534,28.691 a 29.58,29.58 0 0 0 4.053,14.936 l -65.447,65.45 v 11.937 l 1.65,1.65 h 11.938 l 66.34,-66.342 a 29.519,29.519 0 0 0 11.375,2.278 c 4.062,0 7.945,-0.829 11.49,-2.323 l 65.758,65.756 h 11.937 l 1.65,-1.65 V 359.86 l -64.92,-64.922 a 29.577,29.577 0 0 0 3.993,-14.832 c 0,-12.593 -7.953,-23.464 -19.067,-27.843 v -89.03 l -8.441,-8.441 z m -124.05,72.883 49.083,67.537 H 81.7 Z m 245.237,0 49.084,67.537 h -98.17 z M 254.77,268.199 c 6.683,0 11.908,5.225 11.908,11.908 0,6.684 -5.225,11.909 -11.908,11.909 -6.684,0 -11.909,-5.225 -11.909,-11.909 0,-6.683 5.225,-11.908 11.909,-11.908 z m 11.12,55.121 a 45.458,45.458 0 0 1 -11.443,1.455 c -3.607,0 -7.107,-0.43 -10.463,-1.222 L 222.822,344.7 h 64.319 z m -118.374,2.229 V 344.7 h 14.338 l 19.642,-19.152 z m 179.377,0 19.167,19.151 h 14.652 v -19.15 z m -193.647,17.885 c -6.044,0 -9.576,5.43 -9.576,10.418 V 389.3 c 0,4.987 3.532,10.418 9.576,10.418 6.044,0 9.576,-5.431 9.576,-10.418 v -35.45 c 0,-4.986 -3.532,-10.417 -9.576,-10.417 z m 240.8,0 c -6.043,0 -9.575,5.43 -9.575,10.418 V 389.3 c 0,4.987 3.532,10.418 9.576,10.418 6.044,0 9.576,-5.431 9.576,-10.418 v -35.45 c 0,-4.986 -3.532,-10.417 -9.576,-10.417 z"
       id="path4"
       inkscape:connector-curvature="0"
       style="fill:#000000" />
  </g>
  <!-- react-empty: 6 -->
</svg>
