<?xml version="1.0" encoding="UTF-8" standalone="no"?>
<svg
   xmlns:dc="http://purl.org/dc/elements/1.1/"
   xmlns:cc="http://creativecommons.org/ns#"
   xmlns:rdf="http://www.w3.org/1999/02/22-rdf-syntax-ns#"
   xmlns:svg="http://www.w3.org/2000/svg"
   xmlns="http://www.w3.org/2000/svg"
   xmlns:sodipodi="http://sodipodi.sourceforge.net/DTD/sodipodi-0.dtd"
   xmlns:inkscape="http://www.inkscape.org/namespaces/inkscape"
   viewBox="0 0 1000 560"
   version="1.1"
   id="svg21"
   sodipodi:docname="bleeding-eye.svg"
   width="1000"
   height="560"
   inkscape:version="0.92.1 r15371"
   inkscape:export-filename="C:\Users\William\Documents\Dev\Games\ccg\ccgclient\src\assets\png\bleeding-eye.png"
   inkscape:export-xdpi="240"
   inkscape:export-ydpi="240">
  <metadata
     id="metadata25">
    <rdf:RDF>
      <cc:Work
         rdf:about="">
        <dc:format>image/svg+xml</dc:format>
        <dc:type
           rdf:resource="http://purl.org/dc/dcmitype/StillImage" />
        <dc:title></dc:title>
      </cc:Work>
    </rdf:RDF>
  </metadata>
  <sodipodi:namedview
     pagecolor="#000000"
     bordercolor="#666666"
     borderopacity="1"
     objecttolerance="10"
     gridtolerance="10"
     guidetolerance="10"
     inkscape:pageopacity="1"
     inkscape:pageshadow="2"
     inkscape:window-width="3840"
     inkscape:window-height="2004"
     id="namedview23"
     showgrid="false"
     inkscape:zoom="0.921875"
     inkscape:cx="377.49579"
     inkscape:cy="226.14323"
     inkscape:window-x="-16"
     inkscape:window-y="-16"
     inkscape:window-maximized="1"
     inkscape:current-layer="svg21" />
  <defs
     id="defs13">
    <filter
       id="shadow-1"
       height="3"
       width="3"
       x="-1"
       y="-1">
      <feFlood
         flood-color="#9013fe"
         result="flood"
         id="feFlood2" />
      <feComposite
         in="flood"
         in2="SourceGraphic"
         operator="atop"
         result="composite"
         id="feComposite4" />
      <feGaussianBlur
         in="composite"
         stdDeviation="25"
         result="blur"
         id="feGaussianBlur6" />
      <feOffset
         result="offset"
         id="feOffset8" />
      <feComposite
         in="SourceGraphic"
         in2="offset"
         operator="over"
         id="feComposite10" />
    </filter>
  </defs>
  <g
     class=""
     transform="translate(240.81356,27.220339)"
     id="g19">
    <path
       d="m 246.344,28.938 c -89.18,-0.037 -174.996,44.27 -222.656,133 21.242,38.834 45.078,64.08 54.374,100 v 49.968 C 73.3,322.043 66,329.11 66,340.312 c 0,9.09 11.63,18.094 21.03,18.094 9.198,0 21.597,-9.677 21.595,-19.25 0,-11.367 -7.31,-17.81 -11.875,-27.03 v -32.282 c 16.002,-32.16 81.357,-9.403 105.844,45.625 v 80.592 c -6.364,10.477 -13.625,16.953 -13.625,28.875 0,17.885 11.763,24.5 23.936,24.5 11.907,0 21.594,-5.66 21.594,-24.5 0,-9.298 -7.442,-16.634 -13.22,-31.062 V 325.72 c 15.678,-36.473 54.92,-20.136 71.657,31.25 v 74.842 c -5.41,10.498 -11.718,19.456 -11.718,32.313 0,12.927 10.045,22.188 21.03,22.188 10.744,0 22.188,-9.728 22.188,-23.344 0,-14.448 -7.098,-23.414 -12.813,-34.564 v -84.562 h -0.22 c 15.34,-65.977 52.293,-101.43 68.75,-52.594 v 59.78 c -4.457,8.957 -9.56,17.375 -9.56,29.595 0,13.944 9.553,23.938 18.686,23.938 9.338,0 18.095,-9.543 18.095,-22.782 0,-10.83 -4.347,-19.014 -8.53,-27.56 v -69.91 c 19.988,-69.842 66.447,-87.325 90.31,-122.375 -61.083,-88.583 -153.632,-132.963 -242.81,-133 z m 0.437,22 c 81.74,-0.606 166.08,37.776 216.126,115.906 -149.813,108.407 -280.244,108.6 -412.969,-4.938 40.834,-73.15 117.62,-110.38 196.844,-110.97 z m 4.69,16.03 c -44.972,0 -81.407,36.468 -81.407,81.438 0,44.97 36.435,81.406 81.406,81.406 44.97,0 81.436,-36.434 81.436,-81.406 0,-44.97 -36.467,-81.437 -81.437,-81.437 z m -0.532,49.063 c 16.13,0 29.187,13.06 29.187,29.19 0,16.13 -13.057,29.218 -29.188,29.218 -16.13,0 -29.218,-13.09 -29.218,-29.22 0,-16.13 13.087,-29.187 29.218,-29.187 z"
       id="path17"
       inkscape:connector-curvature="0"
       style="fill:#9013fe;filter:url(#shadow-1)" />
  </g>
  <!-- react-empty: 13 -->
</svg>
