<?xml version="1.0" encoding="UTF-8" standalone="no"?>
<svg
   xmlns:dc="http://purl.org/dc/elements/1.1/"
   xmlns:cc="http://creativecommons.org/ns#"
   xmlns:rdf="http://www.w3.org/1999/02/22-rdf-syntax-ns#"
   xmlns:svg="http://www.w3.org/2000/svg"
   xmlns="http://www.w3.org/2000/svg"
   xmlns:sodipodi="http://sodipodi.sourceforge.net/DTD/sodipodi-0.dtd"
   xmlns:inkscape="http://www.inkscape.org/namespaces/inkscape"
   viewBox="0 0 1000 560"
   version="1.1"
   id="svg8"
   sodipodi:docname="bowman.svg"
   width="1000"
   height="560"
   inkscape:export-filename="C:\Users\William\Documents\Dev\Games\ccg\ccgclient\src\assets\png\bowman.png"
   inkscape:export-xdpi="240"
   inkscape:export-ydpi="240"
   inkscape:version="0.92.1 r15371">
  <metadata
     id="metadata14">
    <rdf:RDF>
      <cc:Work
         rdf:about="">
        <dc:format>image/svg+xml</dc:format>
        <dc:type
           rdf:resource="http://purl.org/dc/dcmitype/StillImage" />
        <dc:title></dc:title>
      </cc:Work>
    </rdf:RDF>
  </metadata>
  <defs
     id="defs12" />
  <sodipodi:namedview
     pagecolor="#ffffff"
     bordercolor="#666666"
     borderopacity="1"
     objecttolerance="10"
     gridtolerance="10"
     guidetolerance="10"
     inkscape:pageopacity="0"
     inkscape:pageshadow="2"
     inkscape:window-width="3840"
     inkscape:window-height="2004"
     id="namedview10"
     showgrid="true"
     inkscape:zoom="0.4609375"
     inkscape:cx="256"
     inkscape:cy="256"
     inkscape:window-x="-16"
     inkscape:window-y="-16"
     inkscape:window-maximized="1"
     inkscape:current-layer="svg8">
    <inkscape:grid
       type="xygrid"
       id="grid4491" />
  </sodipodi:namedview>
  <path
     d="M 0,0 H 1000 V 560 H 0 Z"
     id="path2"
     inkscape:connector-curvature="0"
     style="fill:#f8e71c;stroke-width:1.46158493" />
  <g
     class=""
     transform="translate(234.562,77.81)"
     id="g6">
    <path
       d="m 281.28,15.28 -4.655,7.5 -56.28,90.44 c -7.312,-18.505 -21.67,-30.9 -37.126,-30.44 -0.66,0.02 -1.308,0.06 -1.97,0.126 -21.174,2.14 -35.927,27.865 -32.938,57.47 1.005,9.948 3.91,19.074 8.094,26.718 -44.558,1.188 -76.495,11.61 -92.812,38.25 20.32,19.086 59.816,22.993 91.844,18.625 l 4.843,3.124 0.126,0.094 18.906,51.375 -52.78,212.718 h 34.156 L 221.813,322.375 332,491.28 h 33.563 l -104.125,-199.09 97.156,62.53 c -0.08,0.262 -0.17,0.52 -0.25,0.782 0.173,-0.202 0.328,-0.422 0.5,-0.625 l 6.937,4.47 9,5.78 4.533,-9.656 c 32.03,-68.4 40.24,-134.49 25.843,-192.064 l 23.938,-4.812 6.187,23.812 55.408,-46.656 -73.875,-24.313 7.562,29.032 -24.563,4.968 C 381.796,93.172 343.996,49.38 289.033,19.5 l -7.75,-4.22 z m 3.408,29.907 c 31.818,30.565 54.66,66.986 69.093,106.094 l -136.686,21.25 c 5.196,-8.662 8.24,-19.857 8.28,-32.06 l 59.314,-95.282 z m 77.5,132.688 c 13.773,51.64 13.89,106.532 1.562,157.906 L 250.125,262.657 246,200.937 362.188,177.877 Z"
       id="path4"
       inkscape:connector-curvature="0"
       style="fill:#000000" />
  </g>
  <!-- react-empty: 6 -->
</svg>
