<?xml version="1.0" encoding="UTF-8" standalone="no"?>
<svg
   xmlns:dc="http://purl.org/dc/elements/1.1/"
   xmlns:cc="http://creativecommons.org/ns#"
   xmlns:rdf="http://www.w3.org/1999/02/22-rdf-syntax-ns#"
   xmlns:svg="http://www.w3.org/2000/svg"
   xmlns="http://www.w3.org/2000/svg"
   xmlns:sodipodi="http://sodipodi.sourceforge.net/DTD/sodipodi-0.dtd"
   xmlns:inkscape="http://www.inkscape.org/namespaces/inkscape"
   viewBox="0 0 1000 560"
   version="1.1"
   id="svg8"
   sodipodi:docname="breastplate.svg"
   width="1000"
   height="560"
   inkscape:version="0.92.1 r15371"
   inkscape:export-filename="C:\Users\William\Documents\Dev\Games\ccg\ccgclient\src\assets\png\breastplate.png"
   inkscape:export-xdpi="240"
   inkscape:export-ydpi="240">
  <metadata
     id="metadata14">
    <rdf:RDF>
      <cc:Work
         rdf:about="">
        <dc:format>image/svg+xml</dc:format>
        <dc:type
           rdf:resource="http://purl.org/dc/dcmitype/StillImage" />
        <dc:title></dc:title>
      </cc:Work>
    </rdf:RDF>
  </metadata>
  <defs
     id="defs12" />
  <sodipodi:namedview
     pagecolor="#f8e71c"
     bordercolor="#666666"
     borderopacity="1"
     objecttolerance="10"
     gridtolerance="10"
     guidetolerance="10"
     inkscape:pageopacity="1"
     inkscape:pageshadow="2"
     inkscape:window-width="3840"
     inkscape:window-height="2004"
     id="namedview10"
     showgrid="false"
     inkscape:zoom="0.4609375"
     inkscape:cx="256"
     inkscape:cy="256"
     inkscape:window-x="-16"
     inkscape:window-y="-16"
     inkscape:window-maximized="1"
     inkscape:current-layer="svg8" />
  <g
     class=""
     transform="matrix(1.2096912,0,0,1.2096912,177.12276,-33.864442)"
     id="g6">
    <path
       d="m 324.344,67.25 c -44.475,19.314 -91.03,25.953 -136.656,1.938 v 39.53 c 45.86,22.493 90.487,21.026 136.656,-0.28 z M 133.72,74.22 c -6.81,0.035 -13.448,0.378 -19.876,1 -3.125,24.06 6.117,52.095 24.625,73.78 7.23,-4.935 13.748,-10.28 19.53,-15.72 -6.15,-19.57 -10.293,-38.917 -11.625,-58.718 -2.14,-0.095 -4.324,-0.27 -6.438,-0.312 -2.082,-0.04 -4.165,-0.042 -6.218,-0.03 z m 245.343,0 c -2.054,-0.012 -4.136,-0.01 -6.22,0.03 -2.107,0.042 -4.27,0.218 -6.406,0.313 -1.33,19.8 -5.475,39.148 -11.625,58.718 5.783,5.44 12.3,10.785 19.532,15.72 18.507,-21.685 27.75,-49.72 24.625,-73.78 -6.442,-0.624 -13.086,-0.965 -19.908,-1 z M 94.75,78.062 c -13.698,2.862 -26.024,7.367 -36.406,13.593 -0.193,29.268 13.016,59.952 33.156,77.22 l -1.22,1.405 c 11.587,-2.66 22.214,-6.694 31.876,-11.624 -19.18,-23.47 -29.492,-52.762 -27.406,-80.594 z m 323.313,0 c 2.086,27.83 -8.227,57.123 -27.407,80.593 9.663,4.93 20.29,8.964 31.875,11.625 l -1.217,-1.405 c 20.146,-17.273 33.33,-47.973 33.125,-77.25 C 444.063,85.41 431.753,80.921 418.064,78.062 Z m -377.657,28 c -13.318,14.436 -20.88,34.407 -20.53,62.406 17.887,4.688 34.462,6.026 49.686,4.936 -16.07,-18.11 -26.396,-42.29 -29.156,-67.344 z m 432,0 c -2.76,25.052 -13.084,49.234 -29.156,67.343 15.225,1.09 31.8,-0.248 49.688,-4.937 0.35,-28 -7.214,-47.97 -20.532,-62.407 z m -133.72,16.406 -0.873,0.436 c -24.024,11.837 -48.424,18.767 -72.907,20.28 v 214.095 c 73.59,-26.01 122.813,-81.045 122.813,-144.25 0,-13.11 -2.14,-25.886 -6.158,-38.155 -17.663,-9.017 -32.466,-20.5 -44,-32.063 l -4.093,-4.093 1.842,-5.47 c 1.205,-3.623 2.32,-7.217 3.375,-10.78 z m -164.436,0.436 c 1.018,3.422 2.094,6.87 3.25,10.344 l 1.813,5.47 -4.063,4.093 c -12.424,12.456 -28.62,24.84 -48.125,34.125 -3.644,11.637 -5.563,23.723 -5.563,36.093 0,63.404 50.45,118.71 124.657,144.595 V 143.28 c -24.095,-1.254 -48.185,-7.88 -71.97,-20.374 z M 157,326.72 c -5.933,4.816 -11.396,9.827 -16.5,15 22.033,17.485 50.57,35.567 79.5,43.374 5.045,-5.72 10.61,-11.164 16.78,-16.313 z m 197.906,0 -79.78,42.06 c 6.348,5.3 12.058,10.913 17.218,16.814 29.006,-7.38 57.734,-25.302 80.062,-42.844 -5.387,-5.534 -11.177,-10.898 -17.5,-16.03 z m -226.97,28.905 c -6.25,7.537 -11.945,15.36 -17.25,23.375 23.228,18.444 53.698,37.554 84.25,44.594 3.68,-7.79 7.9,-15.355 12.783,-22.594 -30.46,-9.71 -58.2,-28.08 -79.782,-45.375 z m 256.97,1.094 c -21.83,17.33 -49.757,35.53 -80.312,44.874 4.804,7.193 8.967,14.706 12.594,22.437 30.588,-6.498 61.223,-25.386 84.78,-43.874 -5.26,-8.024 -10.874,-15.883 -17.062,-23.437 z M 100.72,394.936 c -5.853,9.823 -11.394,19.87 -16.97,30.032 28.236,27.185 59.256,42.295 95.28,45.78 2.33,-10.074 5.165,-19.994 8.657,-29.656 -33.072,-8.298 -63.446,-27.63 -86.968,-46.156 z m 311.186,1.22 c -23.8,18.54 -54.345,37.583 -87.5,45.406 3.415,9.513 6.18,19.277 8.47,29.187 36.024,-3.485 67.044,-18.595 95.28,-45.78 -5.346,-9.746 -10.664,-19.378 -16.25,-28.814 z"
       id="path4"
       inkscape:connector-curvature="0"
       style="fill:#000000" />
  </g>
  <!-- react-empty: 6 -->
</svg>
