<?xml version="1.0" encoding="UTF-8" standalone="no"?>
<svg
   xmlns:dc="http://purl.org/dc/elements/1.1/"
   xmlns:cc="http://creativecommons.org/ns#"
   xmlns:rdf="http://www.w3.org/1999/02/22-rdf-syntax-ns#"
   xmlns:svg="http://www.w3.org/2000/svg"
   xmlns="http://www.w3.org/2000/svg"
   xmlns:sodipodi="http://sodipodi.sourceforge.net/DTD/sodipodi-0.dtd"
   xmlns:inkscape="http://www.inkscape.org/namespaces/inkscape"
   viewBox="0 0 1000 560"
   version="1.1"
   id="svg8"
   sodipodi:docname="castle.svg"
   width="1000"
   height="560"
   inkscape:version="0.92.1 r15371">
  <metadata
     id="metadata14">
    <rdf:RDF>
      <cc:Work
         rdf:about="">
        <dc:format>image/svg+xml</dc:format>
        <dc:type
           rdf:resource="http://purl.org/dc/dcmitype/StillImage" />
        <dc:title></dc:title>
      </cc:Work>
    </rdf:RDF>
  </metadata>
  <defs
     id="defs12" />
  <sodipodi:namedview
     pagecolor="#ffffff"
     bordercolor="#666666"
     borderopacity="1"
     objecttolerance="10"
     gridtolerance="10"
     guidetolerance="10"
     inkscape:pageopacity="0"
     inkscape:pageshadow="2"
     inkscape:window-width="3840"
     inkscape:window-height="2004"
     id="namedview10"
     showgrid="false"
     inkscape:zoom="1.84375"
     inkscape:cx="536.23154"
     inkscape:cy="347.35559"
     inkscape:window-x="-16"
     inkscape:window-y="-16"
     inkscape:window-maximized="1"
     inkscape:current-layer="svg8" />
  <path
     d="M 0,0.27118644 H 1006.6441 V 560 H 0 Z"
     id="path2"
     inkscape:connector-curvature="0"
     style="fill:#f5c823;stroke-width:1.46607721" />
  <g
     class=""
     id="g6"
     transform="matrix(1.1185591,0,0,1.1185591,214.7396,-0.46323808)">
    <path
       d="m 254.25,15.344 c -132.537,0 -240.188,107.62 -240.188,240.156 0,132.537 107.65,240.188 240.188,240.188 132.537,0 240.156,-107.65 240.156,-240.188 0,-132.537 -107.62,-240.156 -240.156,-240.156 z m 0,18.687 c 122.436,0 221.47,99.034 221.47,221.47 0,65.65 -28.465,124.583 -73.75,165.125 V 238.75 l 14,-22.78 h -7.595 L 364,101.5 320.187,215.97 h -8.156 l 14.595,22.78 v 33.875 h -36.813 v -88.188 l 14.625,-22.78 h -7.593 l -44.406,-114.47 -44.375,114.47 h -7.594 l 14.03,22.78 v 123.22 h -37.375 v -18.094 l 14.594,-22.782 h -8.19 L 139.749,152.314 95.344,266.78 H 87.75 l 14.03,22.783 V 416.25 C 59.25,375.9 32.75,318.83 32.75,255.5 32.75,133.064 131.814,34.03 254.25,34.03 Z m 1.094,160.532 h 18.687 v 36.344 h -18.686 v -36.344 z m 110.156,87.97 h 18.688 v 36.312 H 365.5 V 282.53 Z m -246.656,22.03 h 18.687 v 36.344 h -18.686 v -36.344 z m 50.875,29.407 h 18.686 v 36.342 H 169.72 V 333.97 Z m 170.81,30.5 h 18.69 v 36.342 h -18.69 z"
       id="path4"
       inkscape:connector-curvature="0"
       style="fill:#131210" />
  </g>
  <!-- react-empty: 6 -->
</svg>
