<?xml version="1.0" encoding="UTF-8" standalone="no"?>
<svg
   xmlns:dc="http://purl.org/dc/elements/1.1/"
   xmlns:cc="http://creativecommons.org/ns#"
   xmlns:rdf="http://www.w3.org/1999/02/22-rdf-syntax-ns#"
   xmlns:svg="http://www.w3.org/2000/svg"
   xmlns="http://www.w3.org/2000/svg"
   xmlns:sodipodi="http://sodipodi.sourceforge.net/DTD/sodipodi-0.dtd"
   xmlns:inkscape="http://www.inkscape.org/namespaces/inkscape"
   viewBox="0 0 1000 560"
   version="1.1"
   id="svg8"
   sodipodi:docname="church.svg"
   width="1000"
   height="560"
   inkscape:version="0.92.1 r15371">
  <metadata
     id="metadata14">
    <rdf:RDF>
      <cc:Work
         rdf:about="">
        <dc:format>image/svg+xml</dc:format>
        <dc:type
           rdf:resource="http://purl.org/dc/dcmitype/StillImage" />
        <dc:title></dc:title>
      </cc:Work>
    </rdf:RDF>
  </metadata>
  <defs
     id="defs12" />
  <sodipodi:namedview
     pagecolor="#ffffff"
     bordercolor="#666666"
     borderopacity="1"
     objecttolerance="10"
     gridtolerance="10"
     guidetolerance="10"
     inkscape:pageopacity="0"
     inkscape:pageshadow="2"
     inkscape:window-width="3840"
     inkscape:window-height="2004"
     id="namedview10"
     showgrid="false"
     inkscape:zoom="1.3037281"
     inkscape:cx="554.32954"
     inkscape:cy="63.547474"
     inkscape:window-x="-16"
     inkscape:window-y="-16"
     inkscape:window-maximized="1"
     inkscape:current-layer="svg8" />
  <path
     d="M 0,0.27118644 H 1004.4746 V 560 H 0 Z"
     id="path2"
     inkscape:connector-curvature="0"
     style="fill:#f5c823;stroke-width:1.46449649" />
  <g
     class=""
     id="g6"
     transform="matrix(1.1767244,0,0,1.1767244,188.46563,-12.559567)">
    <path
       d="M 163.5,22.754 95.322,192.914 H 231.678 Z M 90.172,208.914 V 489.246 H 131.5 v -72 c 20.034,-22.093 41.16,-25.61 64,0 v 72 h 40 V 208.914 Z m 33.328,16.332 h 16 v 32 h -16 z m 32,0 h 16 v 32 h -16 z m 32,0 h 16 v 32 h -16 z m 64,47.715 v 216.286 h 48 V 324.264 c -2.595,-2.982 -13.49,-15.47 -26.64,-29.56 -7.4,-7.93 -15.062,-15.85 -21.22,-21.622 -0.055,-0.052 -0.084,-0.07 -0.14,-0.12 z m -177.328,1.267 c -5.95,5.658 -13.084,13.03 -20.033,20.476 -13.15,14.09 -24.045,26.58 -26.64,29.56 v 164.983 h 46.672 v -215.02 z m 89.328,7.35 c 30.933,0 56.186,24.12 56.186,53.67 0,29.547 -25.253,53.67 -56.186,53.67 -30.933,0 -56.186,-24.123 -56.186,-53.67 0,-29.55 25.253,-53.67 56.186,-53.67 z m -9,16.614 c -4.782,1.046 -9.23,2.898 -13.172,5.415 l 13.172,12.957 v -18.37 z m 18,0 v 19.847 l 15.14,-13.088 c -4.407,-3.203 -9.544,-5.536 -15.14,-6.76 z m -42.61,16.605 c -2.68,4.026 -4.588,8.57 -5.53,13.45 h 19.2 z m 68.485,2.025 -13.217,11.426 h 17.48 c -0.785,-4.078 -2.24,-7.923 -4.263,-11.426 z M 315.5,330.246 v 30 h 156.27 l -30,-30 z m -190.135,16 c 0.993,3.174 2.404,6.17 4.176,8.932 l 10.33,-8.932 h -14.505 z m 59.31,0 11.278,11.096 c 2.486,-3.335 4.422,-7.07 5.682,-11.096 z m -30.175,8.504 -13.662,11.813 c 4.064,2.68 8.68,4.65 13.662,5.738 v -17.55 z m 18,1.965 V 372.3 c 4.084,-0.892 7.924,-2.373 11.414,-4.357 z m 143,21.53 v 110 h 169 v -110 z m 25,23 h 18 v 32 h -18 z m 32,0 h 18 v 32 h -18 z m 32,0 h 18 v 32 h -18 z m 32,0 h 18 v 32 h -18 z"
       id="path4"
       inkscape:connector-curvature="0"
       style="fill:#131210" />
  </g>
  <!-- react-empty: 13 -->
</svg>
