<?xml version="1.0" encoding="UTF-8" standalone="no"?>
<svg
   xmlns:dc="http://purl.org/dc/elements/1.1/"
   xmlns:cc="http://creativecommons.org/ns#"
   xmlns:rdf="http://www.w3.org/1999/02/22-rdf-syntax-ns#"
   xmlns:svg="http://www.w3.org/2000/svg"
   xmlns="http://www.w3.org/2000/svg"
   xmlns:sodipodi="http://sodipodi.sourceforge.net/DTD/sodipodi-0.dtd"
   xmlns:inkscape="http://www.inkscape.org/namespaces/inkscape"
   viewBox="0 0 1000 560"
   version="1.1"
   id="svg8"
   sodipodi:docname="cobra.svg"
   width="1000"
   height="560"
   inkscape:export-filename="C:\Users\William\Documents\Dev\Games\ccg\ccgclient\src\assets\png\cobra.png"
   inkscape:export-xdpi="240"
   inkscape:export-ydpi="240"
   inkscape:version="0.92.1 r15371">
  <metadata
     id="metadata14">
    <rdf:RDF>
      <cc:Work
         rdf:about="">
        <dc:format>image/svg+xml</dc:format>
        <dc:type
           rdf:resource="http://purl.org/dc/dcmitype/StillImage" />
        <dc:title></dc:title>
      </cc:Work>
    </rdf:RDF>
  </metadata>
  <defs
     id="defs12" />
  <sodipodi:namedview
     pagecolor="#ffffff"
     bordercolor="#666666"
     borderopacity="1"
     objecttolerance="10"
     gridtolerance="10"
     guidetolerance="10"
     inkscape:pageopacity="0"
     inkscape:pageshadow="2"
     inkscape:window-width="3840"
     inkscape:window-height="2004"
     id="namedview10"
     showgrid="true"
     inkscape:zoom="0.4609375"
     inkscape:cx="256"
     inkscape:cy="256"
     inkscape:window-x="-16"
     inkscape:window-y="-16"
     inkscape:window-maximized="1"
     inkscape:current-layer="g6">
    <inkscape:grid
       type="xygrid"
       id="grid4491" />
  </sodipodi:namedview>
  <path
     d="M 0,0 H 1020 V 560 H 0 Z"
     id="path2"
     inkscape:connector-curvature="0"
     style="fill:#417505;stroke-width:1.47612846" />
  <g
     class=""
     transform="translate(0,50)"
     id="g6">
    <path
       d="m 538.41824,-26.646264 c -17.28634,0.25986 -32.31303,4.067374 -45.64498,11.829281 -17.39933,2.621197 -35.25058,1.005545 -51.29411,4.530603 -26.6639,5.976781 -50.05131,21.444102 -61.57554,63.326762 1.92071,-2.971443 4.18036,-5.66043 6.66598,-7.99917 6.66597,-6.270536 16.04353,-10.111945 25.64706,-8.191241 9.03861,1.796424 15.93055,8.213837 19.99792,15.907954 3.84141,-9.547032 9.03861,-19.139257 15.47862,-28.833166 C 458.42654,9.8923168 475.14797,8.8867715 490.17466,9.598562 l 65.86887,11.467737 51.40709,-7.886188 c -8.81264,-20.472452 -30.73127,-34.504894 -60.55868,-38.854725 12.88002,9.174189 14.46177,22.4383497 15.13967,34.0077706 C 550.05545,-0.513383 542.37263,-6.083426 522.93962,-12.69291 l 18.52915,-13.670898 c -1.01684,-0.112982 -2.03369,-0.203368 -3.05053,-0.282456 z m -56.37833,55.79082 c -6.55299,0 -12.76704,1.706038 -17.39933,6.010676 -8.92562,13.478827 -14.9137,25.88432 -18.07722,37.792688 25.19513,-2.485617 48.58253,-3.615444 72.98678,-0.790878 -10.05545,-12.473282 -19.54599,-26.121583 -25.53407,-41.306448 -3.9544,-1.073335 -8.02177,-1.694739 -11.97616,-1.706038 z m 123.82896,4.779165 -17.06038,2.609899 6.44001,33.928683 z m -86.88364,1.276704 c 8.92562,15.47862 22.25757,30.742572 34.68566,46.10821 4.63229,2.5986 8.69967,3.728426 12.08914,4.067374 -7.1179,-15.139672 -10.95931,-29.97429 -14.12282,-44.503856 z M 400.24049,60.022708 c -3.05053,2.869759 -5.98808,7.840994 -7.23089,14.055039 -1.24281,6.214044 -0.45193,12.089141 1.24281,15.93055 1.9207,3.954392 4.06737,5.536148 6.21404,5.875096 2.25966,0.451931 4.85826,-0.112982 8.02177,-3.050531 3.16351,-2.937548 6.10106,-8.021766 7.34387,-14.23581 1.24281,-6.214045 0.33895,-11.976159 -1.35579,-15.817568 -3.72843,-7.21959 -9.15159,-7.309976 -14.23581,-2.756776 z m 86.54469,30.663485 c -14.68774,0 -29.60145,1.129826 -43.27235,2.824565 -0.11298,4.406323 0.11299,8.925632 0.79088,13.331952 0.79088,5.98808 2.37264,12.08914 4.51931,18.30318 32.31303,-6.21404 60.4457,-9.7165 91.28996,-4.63228 -0.33895,-8.24774 -0.90386,-16.38249 -1.69474,-24.178286 -14.68774,-4.180357 -32.99093,-5.762114 -51.63306,-5.649131 z m -63.04431,15.591597 c -0.45193,0.45194 -0.90386,1.01685 -1.46877,1.46878 -6.66598,6.21404 -16.04353,10.05545 -25.76004,8.13475 -4.06737,-0.79088 -7.7958,-2.5986 -10.95931,-4.97124 7.1179,15.81757 18.07722,32.20005 31.8611,47.56569 17.96423,20.11091 40.10883,38.30111 62.81834,51.40709 -3.61545,-3.95439 -7.00493,-7.90878 -10.28142,-11.86317 -25.98601,-31.29619 -41.69059,-59.54185 -45.75797,-88.23943 -0.11298,-1.12983 -0.33894,-2.37264 -0.45193,-3.50247 z m 82.47732,32.08707 c -16.72143,0.22597 -33.89479,2.25965 -49.03446,5.53615 6.77896,12.76704 16.15652,26.32495 28.35864,41.12568 0.33895,0.45193 0.79088,0.90386 1.12983,1.35579 C 507.79995,174.63228 525.08629,170.56491 540,170 c 0.33894,-9.49054 0.56491,-19.20705 0.56491,-29.03654 -10.62037,-1.9207 -22.37056,-2.71158 -34.34672,-2.5986 z m -5.8751,63.38325 c 9.26458,9.94247 19.546,20.44986 29.82742,31.74812 11.63721,-8.4737 26.21197,-15.02669 43.27234,-17.62529 -8.24773,-8.69966 -16.38248,-17.17336 -24.17828,-25.64705 -18.07722,-0.90387 -36.83234,5.31018 -48.92148,11.52422 z m 43.15937,46.88779 c 8.58668,10.05546 16.83441,20.90179 24.40424,32.539 15.47862,-8.36071 32.31304,-15.5916 49.03446,-17.62529 -8.24773,-9.94247 -16.83441,-19.43301 -25.53407,-28.81057 -16.83441,0.11298 -35.70251,5.64913 -47.90463,13.89686 z m 84.17205,34.79865 c -14.12283,0.11298 -32.31303,6.32703 -49.48639,15.13967 8.24773,15.36564 15.02669,32.08707 19.09407,50.61622 5.87509,26.77688 4.97123,48.80849 -8.4737,65.30396 -1.80772,1.9207 -2.25965,2.5986 -3.38948,3.84141 -50.39025,60.67167 -230.14561,44.62813 -228.45087,36.04145 2.48562,-15.36563 108.57631,8.4737 190.37573,-34.23373 -64.06115,0.11298 -132.30266,-2.14667 -192.5224,5.31018 -16.96999,3.05053 -80.80517,5.76212 -81.9237,28.01969 1.73993,18.19021 21.72656,27.56776 35.25058,32.87795 23.85063,9.15159 76.0486,14.80072 112.88094,17.06037 73.66467,4.40633 159.41849,-5.31018 198.9624,-21.80564 25.4211,-10.62037 39.54392,-25.53408 47.45271,-43.15937 7.7958,-17.5123 9.15159,-38.30111 6.32702,-59.65482 -4.74527,-35.81549 -20.67582,-66.88572 -41.12567,-95.13137 -1.58176,-0.11299 -3.2765,-0.22597 -4.97124,-0.22597 z M 515.2568,335.18059 c -55.47447,-0.11298 -220.02236,16.83442 -219.60433,55.9264 0.11298,9.1516 6.89194,16.2695 18.33708,21.80565 11.47904,-3.38948 24.41555,-5.76211 38.23332,-7.56983 42.02954,-5.42317 92.08084,-5.31019 127.21844,-5.98808 15.13967,-0.33895 36.83233,0.33894 56.49131,0.45193 9.94247,0.11298 19.32003,0.11298 26.88987,-0.11299 5.31018,-0.11298 9.37755,-0.56491 12.3151,-0.90386 4.51931,-7.1179 6.21405,-15.81756 5.08422,-28.24565 l -228.56385,11.07229 c 30.95724,-16.26949 97.27804,-23.95231 151.96163,-28.47162 28.01969,-5.64913 30.84426,-10.50738 29.48847,-16.15651 -1.01685,-1.12983 -7.56984,-1.80773 -17.85126,-1.80773 z m 176.81781,29.82742 c 0.6779,3.61544 1.24281,7.34387 1.80772,11.18528 1.01685,7.68282 1.58176,15.36563 1.58176,23.16144 18.07722,-1.46878 38.30111,-7.56984 49.82534,-7.45686 -6.89194,9.60353 -30.27935,19.43301 -50.95517,24.85618 -1.35579,10.3944 -4.06737,20.44986 -8.36071,30.16636 -1.24281,2.82457 -2.71158,5.64913 -4.18036,8.36072 48.35656,-3.61545 84.39802,-12.08915 85.07592,-52.64991 0.45193,-26.43793 -41.69059,-34.68566 -74.7945,-37.62321 z"
       id="path4"
       inkscape:connector-curvature="0"
       style="fill:#000000;stroke-width:1.12982631" />
  </g>
  <!-- react-empty: 6 -->
</svg>
