<?xml version="1.0" encoding="UTF-8" standalone="no"?>
<svg
   xmlns:dc="http://purl.org/dc/elements/1.1/"
   xmlns:cc="http://creativecommons.org/ns#"
   xmlns:rdf="http://www.w3.org/1999/02/22-rdf-syntax-ns#"
   xmlns:svg="http://www.w3.org/2000/svg"
   xmlns="http://www.w3.org/2000/svg"
   xmlns:sodipodi="http://sodipodi.sourceforge.net/DTD/sodipodi-0.dtd"
   xmlns:inkscape="http://www.inkscape.org/namespaces/inkscape"
   viewBox="0 0 1000 560"
   version="1.1"
   id="svg8"
   sodipodi:docname="crane.svg"
   width="1000"
   height="560"
   inkscape:version="0.92.1 r15371"
   inkscape:export-filename="C:\Users\William\Documents\Dev\Games\ccg\ccgclient\src\assets\png\crane.png"
   inkscape:export-xdpi="240"
   inkscape:export-ydpi="240">
  <metadata
     id="metadata14">
    <rdf:RDF>
      <cc:Work
         rdf:about="">
        <dc:format>image/svg+xml</dc:format>
        <dc:type
           rdf:resource="http://purl.org/dc/dcmitype/StillImage" />
        <dc:title></dc:title>
      </cc:Work>
    </rdf:RDF>
  </metadata>
  <defs
     id="defs12" />
  <sodipodi:namedview
     pagecolor="#ffffff"
     bordercolor="#666666"
     borderopacity="1"
     objecttolerance="10"
     gridtolerance="10"
     guidetolerance="10"
     inkscape:pageopacity="0"
     inkscape:pageshadow="2"
     inkscape:window-width="3840"
     inkscape:window-height="2004"
     id="namedview10"
     showgrid="true"
     inkscape:zoom="0.921875"
     inkscape:cx="1019.6479"
     inkscape:cy="479.99632"
     inkscape:window-x="-16"
     inkscape:window-y="-16"
     inkscape:window-maximized="1"
     inkscape:current-layer="svg8">
    <inkscape:grid
       type="xygrid"
       id="grid4491" />
  </sodipodi:namedview>
  <path
     d="m 4,0 h 996 V 565 H 4 Z"
     id="path2"
     inkscape:connector-curvature="0"
     style="fill:#c9c9c9;stroke:#ffffff;stroke-width:5.95365047" />
  <g
     class=""
     id="g6"
     transform="matrix(1.1507841,0,0,1.1507841,190.6924,3.9127084)">
    <path
       d="M 213.293,19.46 29.691,120.34 H 67.066 L 200.555,46.994 184.736,120.34 h 18.41 l 11.584,-53.701 13.688,53.7 h 18.574 L 227.545,44.045 430.486,120.34 h 51.147 z M 25,138.34 v 30 h 462 v -30 z m 32,48 v 30 h 62 v -30 z m 144,0 v 46 h 30 v -46 z m 48,0 v 46 h 19.273 L 279,221.613 V 186.34 Z m 190,0 v 141.707 a 24.618,24.618 0 0 1 9,-1.707 c 3.166,0 6.2,0.61 9,1.707 V 186.34 Z m -238,64 v 242 h 30 v -242 z m 247,94 c -3.973,0 -7,3.027 -7,7 0,3.973 3.027,7 7,7 3.973,0 7,-3.027 7,-7 0,-3.973 -3.027,-7 -7,-7 z m -20.393,21.365 -16.421,24.635 h 21.63 l 9.743,-14.613 c -6.118,-1.384 -11.417,-5.04 -14.952,-10.022 z m 40.786,0 c -3.535,4.981 -8.834,8.638 -14.952,10.022 l 9.743,14.613 h 21.63 z M 409,408.34 v 30 h 78 v -30 z m -226,24.5 -60.4,45.3 10.8,14.4 49.6,-37.2 z m 66,0 v 22.5 l 49.6,37.2 10.8,-14.4 z"
       id="path4"
       inkscape:connector-curvature="0"
       style="fill:#000000" />
  </g>
  <!-- react-empty: 6 -->
</svg>
