<?xml version="1.0" encoding="UTF-8" standalone="no"?>
<svg
   xmlns:dc="http://purl.org/dc/elements/1.1/"
   xmlns:cc="http://creativecommons.org/ns#"
   xmlns:rdf="http://www.w3.org/1999/02/22-rdf-syntax-ns#"
   xmlns:svg="http://www.w3.org/2000/svg"
   xmlns="http://www.w3.org/2000/svg"
   xmlns:sodipodi="http://sodipodi.sourceforge.net/DTD/sodipodi-0.dtd"
   xmlns:inkscape="http://www.inkscape.org/namespaces/inkscape"
   viewBox="0 0 1000 560"
   version="1.1"
   id="svg8"
   sodipodi:docname="crossbow.svg"
   width="1000"
   height="560"
   inkscape:version="0.92.1 r15371"
   inkscape:export-filename="C:\Users\William\Documents\Dev\Games\ccg\ccgclient\src\assets\png\crossbow.png"
   inkscape:export-xdpi="240"
   inkscape:export-ydpi="240">
  <metadata
     id="metadata14">
    <rdf:RDF>
      <cc:Work
         rdf:about="">
        <dc:format>image/svg+xml</dc:format>
        <dc:type
           rdf:resource="http://purl.org/dc/dcmitype/StillImage" />
        <dc:title />
      </cc:Work>
    </rdf:RDF>
  </metadata>
  <defs
     id="defs12" />
  <sodipodi:namedview
     pagecolor="#f8e71c"
     bordercolor="#666666"
     borderopacity="1"
     objecttolerance="10"
     gridtolerance="10"
     guidetolerance="10"
     inkscape:pageopacity="1"
     inkscape:pageshadow="2"
     inkscape:window-width="3840"
     inkscape:window-height="2004"
     id="namedview10"
     showgrid="false"
     inkscape:pagecheckerboard="true"
     inkscape:zoom="0.921875"
     inkscape:cx="126.70355"
     inkscape:cy="20.164063"
     inkscape:window-x="-16"
     inkscape:window-y="-16"
     inkscape:window-maximized="1"
     inkscape:current-layer="svg8" />
  <g
     class=""
     transform="matrix(0.95888219,0.59677308,-0.95888219,0.59677308,529.87868,-25.232084)"
     id="g6">
    <path
       d="m 89.594,18.094 -10.75,10.75 0.03,0.03 27.532,333.563 -83.03,92.938 33.25,33.25 90.155,-80.563 336.19,24.907 c 0.06,0.062 0.124,0.124 0.186,0.186 l 0.156,-0.156 h 0.032 v -0.03 l 10.562,-10.564 c -1.676,-1.676 -3.122,-3.437 -4.687,-5.156 -21.332,-25.55 -25.416,-63.24 -35.47,-109.125 -8.323,-37.99 -21.225,-81.042 -53.094,-125.03 l -38.062,50.81 c 0.005,0.008 -0.005,0.026 0,0.032 28.988,36.074 46.027,67.766 59.72,96.25 15.017,31.247 26.122,59 44.467,83.688 L 165.314,391.5 337.53,237.594 l 64.376,-85.97 -41.53,-41.53 -85.907,64.312 L 122.81,344.094 98.156,45.25 c 24.68,18.33 52.425,29.426 83.656,44.438 28.49,13.693 60.2,30.72 96.282,59.718 l 50.812,-38.062 C 284.916,79.484 241.866,66.608 203.876,58.281 157.987,48.224 120.3,44.113 94.75,22.78 93.03,21.216 91.27,19.77 89.594,18.094 Z m 317.03,0.312 c -3.385,0.028 -6.862,0.406 -10.28,0.97 -4.558,0.75 -8.992,1.837 -12.813,3.093 -3.82,1.254 -6.776,2.302 -9.717,4.624 a 7.184,7.184 0 0 0 -2.72,6.187 l 5.032,62.345 a 7.184,7.184 0 0 0 2.063,4.53 l 33.656,33.626 a 7.184,7.184 0 0 0 4.5,2.095 l 62.344,5.03 a 7.184,7.184 0 0 0 6.218,-2.718 c 2.335,-2.944 3.367,-5.895 4.625,-9.718 1.26,-3.824 2.343,-8.255 3.095,-12.814 0.752,-4.56 1.18,-9.198 0.875,-13.625 -0.305,-4.425 -1.012,-8.99 -4.844,-12.81 L 422.78,23.343 c -3.822,-3.824 -8.384,-4.54 -12.81,-4.844 -1.108,-0.076 -2.216,-0.103 -3.345,-0.094 z m 0.126,14.375 c 0.8,-0.006 1.563,0.016 2.25,0.064 2.404,0.165 3.74,0.915 3.72,0.78 l 65.655,65.657 c -0.138,-0.023 0.616,1.318 0.78,3.72 0.19,2.746 -0.062,6.526 -0.686,10.313 -0.626,3.786 -1.595,7.62 -2.595,10.656 -0.412,1.25 -0.524,1.272 -0.938,2.186 l -54.78,-4.375 -29.938,-29.936 -4.376,-54.813 c 0.913,-0.41 0.94,-0.495 2.187,-0.905 3.037,-0.998 6.872,-1.97 10.658,-2.594 2.84,-0.466 5.662,-0.728 8.062,-0.75 z m -47.97,120.44 -18.936,31.593 -204.5,204.468 -8.844,-0.655 -1.188,-14.563 201.875,-201.906 31.594,-18.937 z"
       id="path4"
       inkscape:connector-curvature="0"
       style="fill:#000000" />
  </g>
  <!-- react-empty: 6 -->
</svg>
