<?xml version="1.0" encoding="UTF-8" standalone="no"?>
<svg
   xmlns:dc="http://purl.org/dc/elements/1.1/"
   xmlns:cc="http://creativecommons.org/ns#"
   xmlns:rdf="http://www.w3.org/1999/02/22-rdf-syntax-ns#"
   xmlns:svg="http://www.w3.org/2000/svg"
   xmlns="http://www.w3.org/2000/svg"
   xmlns:sodipodi="http://sodipodi.sourceforge.net/DTD/sodipodi-0.dtd"
   xmlns:inkscape="http://www.inkscape.org/namespaces/inkscape"
   viewBox="0 0 512 512"
   style="height: 512px; width: 512px;"
   version="1.1"
   id="svg21"
   sodipodi:docname="crossed-sabres.svg"
   inkscape:export-filename="C:\Users\William\Documents\Dev\Games\ccg\ccgclient\src\assets\png\crossed-sabres.png"
   inkscape:export-xdpi="240"
   inkscape:export-ydpi="240"
   inkscape:version="0.92.1 r15371">
  <metadata
     id="metadata25">
    <rdf:RDF>
      <cc:Work
         rdf:about="">
        <dc:format>image/svg+xml</dc:format>
        <dc:type
           rdf:resource="http://purl.org/dc/dcmitype/StillImage" />
      </cc:Work>
    </rdf:RDF>
  </metadata>
  <sodipodi:namedview
     pagecolor="#ffffff"
     bordercolor="#666666"
     borderopacity="1"
     objecttolerance="10"
     gridtolerance="10"
     guidetolerance="10"
     inkscape:pageopacity="0"
     inkscape:pageshadow="2"
     inkscape:window-width="3840"
     inkscape:window-height="2004"
     id="namedview23"
     showgrid="false"
     inkscape:zoom="0.4609375"
     inkscape:cx="256"
     inkscape:cy="256"
     inkscape:window-x="-16"
     inkscape:window-y="-16"
     inkscape:window-maximized="1"
     inkscape:current-layer="svg21" />
  <defs
     id="defs13">
    <filter
       id="shadow-1"
       height="300%"
       width="300%"
       x="-100%"
       y="-100%">
      <feFlood
         flood-color="#1b1919"
         result="flood"
         id="feFlood2" />
      <feComposite
         in="flood"
         in2="SourceGraphic"
         operator="atop"
         result="composite"
         id="feComposite4" />
      <feGaussianBlur
         in="composite"
         stdDeviation="15"
         result="blur"
         id="feGaussianBlur6" />
      <feOffset
         result="offset"
         id="feOffset8" />
      <feComposite
         in="SourceGraphic"
         in2="offset"
         operator="over"
         id="feComposite10" />
    </filter>
  </defs>
  <path
     d="M4 4h504v504H4z"
     fill="#1b1919"
     stroke="#fff"
     stroke-width="4"
     opacity="0"
     id="path15" />
  <g
     class=""
     transform="translate(0,2)"
     style="touch-action: none;"
     id="g19">
    <path
       fill="#d0021b"
       d="M27.084 18.248C-17.903 146.478 143.15 277.92 314.496 381.074c-4.645 13.767-5.585 27.628-3.394 40.635 4.44 26.355 20.974 48.997 42.86 62.425 21.884 13.428 49.776 17.57 75.645 5.765 25.87-11.804 48.69-38.923 62.737-84.654l-17.865-5.488c-13 42.318-32.806 64.094-52.63 73.14-19.825 9.047-40.69 5.998-58.116-4.693-17.425-10.69-30.75-29.095-34.205-49.6-3.455-20.507 2.232-43.318 24.677-65.218 20.743-20.24 32.068-41.615 30.434-61.24l-18.622 1.552c.74 8.89-4.35 22.76-16.684 37.486C222.057 230.8 73.838 128.622 27.084 18.248zm458.05 0C451.34 98.03 364.527 173.53 270.93 247.166c19.492 15.878 39.56 31.622 59.195 45.012 110.756-84.836 187.878-180.243 155.01-273.93zM127.58 292.146c-1.634 19.626 9.69 41 30.434 61.24 22.445 21.9 28.132 44.712 24.677 65.218-3.455 20.506-16.78 38.91-34.206 49.6-17.425 10.692-38.29 13.74-58.115 4.694-19.825-9.046-39.632-30.822-52.63-73.14l-17.865 5.488c14.046 45.73 36.867 72.85 62.736 84.654 25.87 11.805 53.763 7.663 75.648-5.765 21.885-13.428 38.42-36.07 42.86-62.426 2.19-13.005 1.25-26.863-3.393-40.628 13.986-8.42 27.905-17.022 41.648-25.803l-56.967-39.387c-6.55 5.103-13.063 10.2-19.52 15.293C150.55 316.46 145.46 302.59 146.2 293.7l-18.622-1.554zm18.1 73.614c-26.1 8.6-62.087 36.255-77.104 60.324 4.948 8.63 10.393 15.223 16.05 20.14 25.846-8.953 59.85-37.406 74.733-60.257-3.007-6.6-7.454-13.386-13.68-20.207zm220.863 0c-6.225 6.822-10.67 13.61-13.68 20.21 14.886 22.85 48.89 51.3 74.736 60.255 5.656-4.918 11.1-11.51 16.05-20.14-15.018-24.07-51.004-51.724-77.105-60.325z"
       transform="translate(0, 0) scale(1, 1) rotate(-360, 256, 256)"
       filter="url(#shadow-1)"
       id="path17" />
  </g>
  <!-- react-empty: 13 -->
</svg>
