<?xml version="1.0" encoding="UTF-8" standalone="no"?>
<svg
   xmlns:dc="http://purl.org/dc/elements/1.1/"
   xmlns:cc="http://creativecommons.org/ns#"
   xmlns:rdf="http://www.w3.org/1999/02/22-rdf-syntax-ns#"
   xmlns:svg="http://www.w3.org/2000/svg"
   xmlns="http://www.w3.org/2000/svg"
   xmlns:sodipodi="http://sodipodi.sourceforge.net/DTD/sodipodi-0.dtd"
   xmlns:inkscape="http://www.inkscape.org/namespaces/inkscape"
   viewBox="0 0 1000 560"
   version="1.1"
   id="svg8"
   sodipodi:docname="crowned-skull.svg"
   width="1000"
   height="560"
   inkscape:version="0.92.1 r15371"
   inkscape:export-filename="C:\Users\William\Documents\Dev\Games\ccg\ccgclient\src\assets\png\crowned-skull.png"
   inkscape:export-xdpi="240"
   inkscape:export-ydpi="240">
  <metadata
     id="metadata14">
    <rdf:RDF>
      <cc:Work
         rdf:about="">
        <dc:format>image/svg+xml</dc:format>
        <dc:type
           rdf:resource="http://purl.org/dc/dcmitype/StillImage" />
        <dc:title></dc:title>
      </cc:Work>
    </rdf:RDF>
  </metadata>
  <defs
     id="defs12" />
  <sodipodi:namedview
     pagecolor="#370661"
     bordercolor="#666666"
     borderopacity="1"
     objecttolerance="10"
     gridtolerance="10"
     guidetolerance="10"
     inkscape:pageopacity="1"
     inkscape:pageshadow="2"
     inkscape:window-width="3840"
     inkscape:window-height="2004"
     id="namedview10"
     showgrid="false"
     inkscape:zoom="0.921875"
     inkscape:cx="506.77373"
     inkscape:cy="215.67829"
     inkscape:window-x="-16"
     inkscape:window-y="-16"
     inkscape:window-maximized="1"
     inkscape:current-layer="svg8" />
  <g
     class=""
     id="g6"
     transform="matrix(1.0682525,0,0,1.0682525,213.64684,12.399488)">
    <path
       d="m 92.406,13.02 -0.164,156.353 c 3.064,0.507 6.208,1.38 9.39,2.627 36.496,14.306 74.214,22.435 111.864,25.473 l 43.402,-60.416 42.317,58.906 c 36.808,-4.127 72.566,-12.502 105.967,-24.09 3.754,-1.302 7.368,-2.18 10.818,-2.6 l 1.523,-156.252 -75.82,95.552 -34.084,-95.55 -53.724,103.74 -53.722,-103.74 -35.442,95.55 -72.32,-95.55 h -0.006 z m 164.492,156.07 -28.636,39.86 28.634,39.86 28.637,-39.86 z M 86.762,187.55 c -2.173,-0.08 -3.84,0.274 -5.012,0.762 -2.345,0.977 -3.173,2.19 -3.496,4.196 -0.645,4.01 2.825,14.35 23.03,21.36 41.7,14.468 84.262,23.748 126.778,26.833 l -17.75,-24.704 c -38.773,-3.285 -77.69,-11.775 -115.5,-26.596 -3.197,-1.253 -5.877,-1.77 -8.05,-1.85 z m 333.275,0.19 c -2.156,0.052 -5.048,0.512 -8.728,1.79 -33.582,11.65 -69.487,20.215 -106.523,24.646 l -19.264,26.818 c 40.427,-2.602 80.433,-11.287 119.22,-26.96 15.913,-6.43 21.46,-17.81 21.36,-22.362 -0.052,-2.276 -0.278,-2.566 -1.753,-3.274 -0.738,-0.353 -2.157,-0.71 -4.313,-0.658 z m -18.117,47.438 c -42.5,15.87 -86.26,23.856 -130.262,25.117 l -14.76,20.547 -14.878,-20.71 c -44.985,-1.745 -89.98,-10.23 -133.905,-24.306 -12.78,28.51 -18.94,61.14 -19.603,93.44 37.52,17.497 62.135,39.817 75.556,64.63 12.932,23.904 15.214,49.724 10.116,74.084 7.72,5.007 16.126,9.144 24.98,12.432 l 5.557,-47.89 18.563,2.154 -5.935,51.156 c 9.57,2.21 19.443,3.53 29.377,3.982 v -54.67 h 18.69 v 54.49 c 9.903,-0.638 19.705,-2.128 29.155,-4.484 l -5.857,-50.474 18.564,-2.155 5.436,46.852 c 8.747,-3.422 17.004,-7.643 24.506,-12.69 -5.758,-24.413 -3.77,-49.666 9.01,-72.988 13.28,-24.234 37.718,-46 74.803,-64.29 -0.62,-33.526 -6.687,-66.122 -19.113,-94.23 z m -266.733,47.006 c 34.602,0.23 68.407,12.236 101.358,36.867 -46.604,33.147 -129.794,34.372 -108.29,-36.755 2.315,-0.09 4.626,-0.127 6.933,-0.11 z m 242.825,0 c 2.307,-0.016 4.617,0.022 6.93,0.11 21.506,71.128 -61.684,69.903 -108.288,36.757 32.95,-24.63 66.756,-36.637 101.358,-36.866 z M 255.164,332.14 c 11.77,21.725 19.193,43.452 25.367,65.178 h -50.737 c 4.57,-21.726 13.77,-43.45 25.37,-65.18 z"
       id="path4"
       inkscape:connector-curvature="0"
       style="fill:#ffffff" />
  </g>
  <!-- react-empty: 6 -->
</svg>
