<?xml version="1.0" encoding="UTF-8" standalone="no"?>
<svg
   xmlns:dc="http://purl.org/dc/elements/1.1/"
   xmlns:cc="http://creativecommons.org/ns#"
   xmlns:rdf="http://www.w3.org/1999/02/22-rdf-syntax-ns#"
   xmlns:svg="http://www.w3.org/2000/svg"
   xmlns="http://www.w3.org/2000/svg"
   xmlns:sodipodi="http://sodipodi.sourceforge.net/DTD/sodipodi-0.dtd"
   xmlns:inkscape="http://www.inkscape.org/namespaces/inkscape"
   viewBox="0 0 1000 560"
   version="1.1"
   id="svg8"
   sodipodi:docname="cryo-chamber.svg"
   width="1000"
   height="560"
   inkscape:version="0.92.1 r15371"
   inkscape:export-filename="C:\Users\William\Documents\Dev\Games\ccg\ccgclient\src\assets\svg\cryo-chamber.png"
   inkscape:export-xdpi="240"
   inkscape:export-ydpi="240">
  <metadata
     id="metadata14">
    <rdf:RDF>
      <cc:Work
         rdf:about="">
        <dc:format>image/svg+xml</dc:format>
        <dc:type
           rdf:resource="http://purl.org/dc/dcmitype/StillImage" />
        <dc:title />
      </cc:Work>
    </rdf:RDF>
  </metadata>
  <defs
     id="defs12" />
  <sodipodi:namedview
     pagecolor="#ffffff"
     bordercolor="#666666"
     borderopacity="1"
     objecttolerance="10"
     gridtolerance="10"
     guidetolerance="10"
     inkscape:pageopacity="0"
     inkscape:pageshadow="2"
     inkscape:window-width="3840"
     inkscape:window-height="2004"
     id="namedview10"
     showgrid="false"
     inkscape:zoom="2.6074563"
     inkscape:cx="404.60835"
     inkscape:cy="345.10895"
     inkscape:window-x="-16"
     inkscape:window-y="-16"
     inkscape:window-maximized="1"
     inkscape:current-layer="svg8" />
  <path
     d="M 0,0.44407271 H 1002.1329 V 560 H 0 Z"
     id="path2"
     inkscape:connector-curvature="0"
     style="fill:#c9c9c9;stroke-width:1.46256256" />
  <g
     class=""
     id="g6"
     transform="matrix(1.1595296,0,0,1.1772551,201.7915,-21.922297)">
    <path
       d="m 23.113,18 c 3.425,32.11 13.432,59.227 28.08,82.438 20.956,33.203 50.994,58.33 83.807,80.37 V 158.943 C 107.437,139.413 83.377,117.707 66.416,90.833 53.43,70.252 44.41,46.607 41.136,18 H 23.112 Z M 105,18 V 57.512 L 145.46,71 h 59.194 L 183,45.285 V 18 Z m 96,0 V 38.715 L 228.188,71 h 55.625 L 311,38.715 V 18 Z m 128,0 V 45.285 L 307.346,71 h 59.193 L 407,57.514 V 18 Z M 153,89 V 423 H 359 V 89 H 328.473 A 16,16 0 0 1 312.5,104.25 16,16 0 0 1 296.537,89 H 186.064 c 4.35,15.944 7.01,31.603 13.13,42.752 4,7.287 8.96,12.664 17.085,16.357 2.936,1.334 6.36,2.437 10.345,3.226 A 29.68,39.572 0 0 1 226.319,145.999 29.68,39.572 0 0 1 256,106.428 29.68,39.572 0 0 1 285.68,146 29.68,39.572 0 0 1 264.494,183.885 c 5.498,0.232 11.014,0.828 16.32,1.914 8.974,1.39 15.104,5.588 20.174,12.384 5.07,6.797 8.75,16.362 11.178,27.472 4.403,20.152 4.68,44.91 4.697,66.7 h -25.287 l -6.453,97.806 c -17.838,4.018 -37.613,4.163 -56.135,-0.017 l -7.293,-97.79 h -26.558 c 0.17,-21.525 1.238,-45.946 6.097,-65.945 2.684,-11.04 6.515,-20.62 11.524,-27.494 5.01,-6.875 10.868,-11.097 18.86,-12.6 a 155.5,155.5 0 0 1 16.698,-2.142 29.68,39.572 0 0 1 -15.66,-13.863 c -9.147,-0.758 -17.02,-2.72 -23.824,-5.814 C 196.946,159.094 188.79,150.201 183.418,140.414 174.336,123.869 171.703,104.824 167.246,89 Z m 341,8.44 c -5.896,14.547 -12.162,28.405 -19.1,41.1 -22.9,41.908 -51.386,70.866 -97.9,75.806 v 18.074 c 54.012,-5.202 89.058,-40.16 113.695,-85.248 a 322.96,322.96 0 0 0 3.305,-6.23 v -43.5 z M 333.242,114.9 a 13.02,13.02 0 0 1 13.022,13.022 13.02,13.02 0 0 1 -13.022,13.02 13.02,13.02 0 0 1 -13.02,-13.02 13.02,13.02 0 0 1 13.02,-13.022 z m -26.535,33.3 a 9.047,9.047 0 0 1 9.047,9.048 9.047,9.047 0 0 1 -9.047,9.047 9.047,9.047 0 0 1 -9.047,-9.047 9.047,9.047 0 0 1 9.047,-9.047 z M 494,224.036 c -10.438,26.16 -21.8,49.85 -33.584,69 -15.506,25.197 -31.98,42.045 -45.44,47.106 -6.732,2.53 -12.46,2.607 -18.732,0.048 -5.882,-2.4 -12.438,-7.535 -19.244,-16.57 v 25.87 c 3.984,3.133 8.124,5.6 12.44,7.364 10.418,4.25 21.64,3.984 31.87,0.138 20.456,-7.69 37.942,-27.718 54.436,-54.52 6.28,-10.205 12.38,-21.468 18.254,-33.542 V 224.037 Z M 105,441 v 18 h 142 v -18 z m 160,0 v 18 H 407 V 441 Z M 73,477 v 17 h 174 v -17 z m 192,0 v 17 h 174 v -17 z"
       id="path4"
       inkscape:connector-curvature="0"
       style="fill:#170303" />
  </g>
  <!-- react-empty: 6 -->
</svg>
