<?xml version="1.0" encoding="UTF-8" standalone="no"?>
<svg
   xmlns:dc="http://purl.org/dc/elements/1.1/"
   xmlns:cc="http://creativecommons.org/ns#"
   xmlns:rdf="http://www.w3.org/1999/02/22-rdf-syntax-ns#"
   xmlns:svg="http://www.w3.org/2000/svg"
   xmlns="http://www.w3.org/2000/svg"
   xmlns:sodipodi="http://sodipodi.sourceforge.net/DTD/sodipodi-0.dtd"
   xmlns:inkscape="http://www.inkscape.org/namespaces/inkscape"
   viewBox="0 0 1000 560"
   version="1.1"
   id="svg8"
   sodipodi:docname="cyber-eye.svg"
   width="1000"
   height="560"
   inkscape:export-filename="C:\Users\William\Documents\Dev\Games\ccg\ccgclient\src\assets\png\cyber-eye.png"
   inkscape:export-xdpi="240"
   inkscape:export-ydpi="240"
   inkscape:version="0.92.1 r15371">
  <metadata
     id="metadata14">
    <rdf:RDF>
      <cc:Work
         rdf:about="">
        <dc:format>image/svg+xml</dc:format>
        <dc:type
           rdf:resource="http://purl.org/dc/dcmitype/StillImage" />
        <dc:title></dc:title>
      </cc:Work>
    </rdf:RDF>
  </metadata>
  <defs
     id="defs12" />
  <sodipodi:namedview
     pagecolor="#c9c9c9"
     bordercolor="#666666"
     borderopacity="1"
     objecttolerance="10"
     gridtolerance="10"
     guidetolerance="10"
     inkscape:pageopacity="1"
     inkscape:pageshadow="2"
     inkscape:window-width="3840"
     inkscape:window-height="2004"
     id="namedview10"
     showgrid="false"
     inkscape:zoom="0.4609375"
     inkscape:cx="256"
     inkscape:cy="256"
     inkscape:window-x="-16"
     inkscape:window-y="-16"
     inkscape:window-maximized="1"
     inkscape:current-layer="svg8" />
  <path
     d="M 0,48 H 512 V 560 H 0 Z"
     id="path2"
     inkscape:connector-curvature="0"
     style="fill:#c9c9c9" />
  <g
     class=""
     transform="translate(256.435,17.357)"
     id="g6">
    <path
       d="m 255.565,30.643 c -81.598,0 -152.721,46.707 -189.777,115.92 h 50.29 l 16.74,-33.481 h 115.865 c 2.055,-4.234 5.416,-7.771 9.246,-10.324 6.302,-4.201 14.192,-6.414 22.748,-6.414 8.555,0 16.446,2.213 22.748,6.414 6.302,4.2 11.361,11.054 11.361,19.324 0,8.27 -5.06,15.123 -11.361,19.324 -6.302,4.201 -14.193,6.414 -22.748,6.414 -8.556,0 -16.446,-2.213 -22.748,-6.414 -3.83,-2.553 -7.193,-6.09 -9.248,-10.326 H 143.94 l -7.74,15.482 h 52.402 v 17.999 H 57.143 a 228.822,228.822 0 0 0 -5.96,15.48 h 36.974 v 17.998 H 45.802 c -4.006,15.707 -6.415,32.092 -7.051,48.963 h 109.883 l 16.742,-50.22 h 39.967 v 17.997 h -26.996 l -10.743,32.223 h 47.594 c 2.056,-4.235 5.418,-7.773 9.248,-10.326 6.302,-4.201 14.193,-6.414 22.748,-6.414 8.556,0 16.446,2.213 22.748,6.414 6.302,4.2 11.364,11.054 11.364,19.324 0,8.27 -5.062,15.123 -11.364,19.324 -6.302,4.201 -14.192,6.414 -22.748,6.414 -8.555,0 -16.446,-2.213 -22.748,-6.414 -3.83,-2.553 -7.192,-6.09 -9.248,-10.326 h -95.74 l 24.482,48.963 h 78.143 v 17.998 H 132.817 L 99.335,264.998 H 38.751 c 1.614,42.826 14.69,82.527 36.129,115.922 h 90.096 c 2.055,-4.235 5.42,-7.773 9.25,-10.326 6.302,-4.201 14.19,-6.414 22.746,-6.414 8.555,0 16.446,2.213 22.748,6.414 6.302,4.2 11.363,11.054 11.363,19.324 0,8.27 -5.061,15.123 -11.363,19.324 -6.302,4.201 -14.193,6.414 -22.748,6.414 -8.556,0 -16.444,-2.213 -22.746,-6.414 -3.83,-2.553 -7.193,-6.09 -9.248,-10.324 h -9.784 l 21.483,32.22 h 73.328 l 16.74,-33.48 h 39.043 v 17.998 h -27.92 l -7.742,15.483 h 52.402 v 17.998 H 167.046 L 133.563,398.918 H 87.716 c 39.81,50.37 100.234,82.44 167.85,82.44 92.336,0 171.262,-59.806 202.581,-144.358 -4.882,10.507 -10.77,19.344 -17.916,25.893 -7.212,6.609 -16.06,10.914 -25.628,10.914 -9.569,0 -18.417,-4.305 -25.63,-10.914 -7.212,-6.61 -13.145,-15.546 -18.054,-26.182 -9.818,-21.272 -15.537,-49.542 -15.537,-80.711 0,-31.169 5.719,-59.44 15.537,-80.71 4.91,-10.637 10.842,-19.573 18.055,-26.183 7.212,-6.609 16.06,-10.914 25.629,-10.914 9.568,0 18.416,4.305 25.628,10.914 7.146,6.549 13.034,15.386 17.916,25.893 C 426.828,90.448 347.902,30.643 255.565,30.643 Z m 25.112,83.699 c -5.313,0 -9.98,1.533 -12.766,3.39 -2.786,1.858 -3.348,3.375 -3.348,4.35 0,0.975 0.562,2.492 3.348,4.35 2.787,1.857 7.453,3.39 12.766,3.39 5.313,0 9.979,-1.533 12.765,-3.39 2.787,-1.858 3.346,-3.375 3.346,-4.35 0,-0.975 -0.56,-2.492 -3.346,-4.35 -2.786,-1.857 -7.452,-3.39 -12.765,-3.39 z m 159.037,83.44 c -11.598,0 -20.097,8.806 -25.37,19.35 -5.272,10.545 -8.163,24.04 -8.163,38.868 0,14.829 2.891,28.323 8.164,38.867 5.272,10.545 13.77,19.352 25.369,19.352 11.598,0 20.098,-8.807 25.371,-19.352 5.273,-10.544 8.164,-24.038 8.164,-38.867 0,-14.829 -2.891,-28.323 -8.164,-38.867 -5.273,-10.545 -13.773,-19.352 -25.371,-19.352 z m 4.613,20.157 c 1.556,1.497 3.261,3.769 4.93,7.106 3.662,7.324 6.299,18.517 6.299,30.955 0,12.438 -2.637,23.63 -6.3,30.955 -3.662,7.324 -7.506,9.57 -9.542,9.57 -2.036,0 -5.88,-2.246 -9.543,-9.57 -3.663,-7.324 -6.297,-18.517 -6.297,-30.955 0,-0.253 0.008,-0.502 0.01,-0.754 a 16.458,24.686 0 0 0 7.604,2.81 16.458,24.686 0 0 0 16.457,-24.685 16.458,24.686 0 0 0 -3.618,-15.432 z m -197.133,30.32 c -5.313,0 -9.977,1.534 -12.763,3.391 -2.787,1.858 -3.348,3.375 -3.348,4.35 0,0.975 0.561,2.492 3.348,4.35 2.786,1.857 7.45,3.39 12.763,3.39 5.314,0 9.98,-1.533 12.766,-3.39 2.786,-1.858 3.348,-3.375 3.348,-4.35 0,-0.975 -0.562,-2.492 -3.348,-4.35 -2.786,-1.857 -7.452,-3.39 -12.766,-3.39 z m -50.222,133.919 c -5.314,0 -9.978,1.533 -12.764,3.39 -2.786,1.858 -3.348,3.375 -3.348,4.35 0,0.975 0.562,2.492 3.348,4.35 2.786,1.857 7.45,3.39 12.764,3.39 5.313,0 9.979,-1.533 12.765,-3.39 2.787,-1.858 3.348,-3.375 3.348,-4.35 0,-0.975 -0.561,-2.492 -3.348,-4.35 -2.786,-1.857 -7.452,-3.39 -12.765,-3.39 z"
       id="path4"
       inkscape:connector-curvature="0"
       style="fill:#000000" />
  </g>
  <!-- react-empty: 6 -->
</svg>
