<?xml version="1.0" encoding="UTF-8" standalone="no"?>
<svg
   xmlns:dc="http://purl.org/dc/elements/1.1/"
   xmlns:cc="http://creativecommons.org/ns#"
   xmlns:rdf="http://www.w3.org/1999/02/22-rdf-syntax-ns#"
   xmlns:svg="http://www.w3.org/2000/svg"
   xmlns="http://www.w3.org/2000/svg"
   xmlns:sodipodi="http://sodipodi.sourceforge.net/DTD/sodipodi-0.dtd"
   xmlns:inkscape="http://www.inkscape.org/namespaces/inkscape"
   viewBox="0 0 1000 560"
   id="svg2"
   version="1.1"
   inkscape:version="0.91 r13725"
   sodipodi:docname="death-juice.svg"
   width="1000"
   height="560">
  <metadata
     id="metadata14">
    <rdf:RDF>
      <cc:Work
         rdf:about="">
        <dc:format>image/svg+xml</dc:format>
        <dc:type
           rdf:resource="http://purl.org/dc/dcmitype/StillImage" />
        <dc:title></dc:title>
      </cc:Work>
    </rdf:RDF>
  </metadata>
  <defs
     id="defs12" />
  <sodipodi:namedview
     pagecolor="#511981"
     bordercolor="#666666"
     borderopacity="1"
     objecttolerance="10"
     gridtolerance="10"
     guidetolerance="10"
     inkscape:pageopacity="1"
     inkscape:pageshadow="2"
     inkscape:window-width="1536"
     inkscape:window-height="801"
     id="namedview10"
     showgrid="false"
     inkscape:zoom="0.4609375"
     inkscape:cx="256"
     inkscape:cy="256"
     inkscape:window-x="-8"
     inkscape:window-y="-8"
     inkscape:window-maximized="1"
     inkscape:current-layer="svg2" />
  <g
     class=""
     id="g6"
     transform="translate(242.98305,15.457627)">
    <path
       d="m 257.617,20.717 c -7.083,-0.011 -14.242,0.448 -21.469,1.347 -31.2,3.87 -59.077,16.346 -82.566,39.51 -18.59,18.323 -30.93,40.783 -33.8,68.274 -3.409,32.99 6.985,61.16 28.118,84.191 6.792,7.386 9.795,14.582 9.608,25.03 -0.297,16.428 0.974,32.882 1.65,50.308 21.027,-12.421 41.214,-24.384 61.674,-36.48 12.176,21.378 24.055,42.27 36.479,63.976 12.148,-21.517 23.894,-42.3 35.826,-63.244 19.753,11.8 39.24,23.46 59.373,35.557 0.514,-16.94 1.733,-32.799 1.246,-48.6 -0.353,-11.07 1.813,-19.676 10.256,-26.223 2.677,-2.083 4.707,-5.356 6.845,-8.308 20.568,-28.606 27.712,-60.348 17.16,-95.498 -9.77,-32.502 -30.771,-54.695 -57.699,-70.362 -23.066,-13.405 -47.403,-19.44 -72.7,-19.478 z m 82.799,105.207 c 17.942,-0.134 26.164,11.07 22.404,30.474 -4.353,22.379 -22.92,38.723 -42.674,37.668 -21.38,-1.139 -38.695,-18.755 -41.025,-41.892 -0.186,-1.811 0.435,-4.598 1.6,-5.547 10.658,-8.605 45.704,-20.593 59.695,-20.703 z m -165.154,0.03 c 13.717,0.865 29.494,7.548 45.084,14.91 2.297,1.107 4.408,2.785 6.763,3.464 5.847,1.651 6.088,6.113 5.25,11.31 -3.76,22.217 -23.004,39.484 -42.785,38.401 -22.433,-1.218 -39.592,-19.269 -41.162,-43.351 -1.083,-16.59 6.766,-24.952 26.85,-24.735 z m 80.615,56.556 c 7.44,18.214 14.42,35.235 21.646,52.93 l -43.187,0 c 7.144,-17.588 14.152,-34.637 21.54,-52.93 z m -16.172,141.84 c -0.146,0.319 -0.293,0.633 -0.42,0.976 -2.894,7.981 -6.197,15.856 -9.984,23.543 -8.334,16.832 -17.293,33.365 -25.71,50.09 -6.63,13.125 -10.336,26.845 -7.74,41.783 5.71,32.582 36.67,54.827 69.63,49.844 39.886,-6.033 59.48,-41.103 48.603,-74.902 -4.357,-13.586 -11.283,-26.469 -17.941,-39.159 -8.46,-16.062 -16.528,-32.279 -23.061,-49.11 -2.348,4.152 -4.698,8.311 -7.057,12.491 l -8.658,15.328 -8.742,-15.279 c -2.993,-5.225 -5.962,-10.422 -8.92,-15.605 z m 0.053,40.97 c 3.709,0.032 3.735,27.583 1.642,40.026 -2.166,12.555 0.13,24.084 10.495,32.69 15.02,12.475 35.426,9.66 46.654,-6.386 0.514,-0.68 0.975,-1.355 1.49,-2.06 0.404,0.083 0.756,0.164 1.162,0.219 -0.89,4.763 -1.217,9.633 -2.652,14.261 -6.33,20.702 -25.515,33.068 -47.977,31.174 -19.404,-1.624 -35.833,-17.753 -39.24,-37.996 -1.841,-10.579 1.218,-20.05 5.654,-29.17 6.602,-13.61 14.018,-26.817 20.647,-40.375 0.81,-1.655 1.518,-2.388 2.125,-2.383 z"
       id="path8"
       inkscape:connector-curvature="0"
       style="fill:#ffffff" />
  </g>
  <!-- react-empty: 6 -->
</svg>
