<?xml version="1.0" encoding="UTF-8" standalone="no"?>
<svg
   xmlns:dc="http://purl.org/dc/elements/1.1/"
   xmlns:cc="http://creativecommons.org/ns#"
   xmlns:rdf="http://www.w3.org/1999/02/22-rdf-syntax-ns#"
   xmlns:svg="http://www.w3.org/2000/svg"
   xmlns="http://www.w3.org/2000/svg"
   xmlns:sodipodi="http://sodipodi.sourceforge.net/DTD/sodipodi-0.dtd"
   xmlns:inkscape="http://www.inkscape.org/namespaces/inkscape"
   viewBox="0 0 1000 560"
   version="1.1"
   id="svg21"
   sodipodi:docname="death-note.svg"
   width="1000"
   height="560"
   inkscape:version="0.92.1 r15371"
   inkscape:export-filename="C:\Users\William\Documents\Dev\Games\ccg\ccgclient\src\assets\png\death-note.png"
   inkscape:export-xdpi="240"
   inkscape:export-ydpi="240">
  <metadata
     id="metadata25">
    <rdf:RDF>
      <cc:Work
         rdf:about="">
        <dc:format>image/svg+xml</dc:format>
        <dc:type
           rdf:resource="http://purl.org/dc/dcmitype/StillImage" />
        <dc:title></dc:title>
      </cc:Work>
    </rdf:RDF>
  </metadata>
  <sodipodi:namedview
     pagecolor="#000000"
     bordercolor="#666666"
     borderopacity="1"
     objecttolerance="10"
     gridtolerance="10"
     guidetolerance="10"
     inkscape:pageopacity="0"
     inkscape:pageshadow="2"
     inkscape:window-width="3840"
     inkscape:window-height="2004"
     id="namedview23"
     showgrid="false"
     inkscape:zoom="1.3037281"
     inkscape:cx="396.95736"
     inkscape:cy="344.78883"
     inkscape:window-x="-16"
     inkscape:window-y="-16"
     inkscape:window-maximized="1"
     inkscape:current-layer="svg21" />
  <defs
     id="defs13">
    <filter
       id="shadow-1"
       height="3"
       width="3"
       x="-1"
       y="-1">
      <feFlood
         flood-color="#9013fe"
         result="flood"
         id="feFlood2" />
      <feComposite
         in="flood"
         in2="SourceGraphic"
         operator="atop"
         result="composite"
         id="feComposite4" />
      <feGaussianBlur
         in="composite"
         stdDeviation="15"
         result="blur"
         id="feGaussianBlur6" />
      <feOffset
         result="offset"
         id="feOffset8" />
      <feComposite
         in="SourceGraphic"
         in2="offset"
         operator="over"
         id="feComposite10" />
    </filter>
  </defs>
  <g
     class=""
     transform="matrix(1.0967053,0,0,1.0967053,210.27929,77.664441)"
     id="g19">
    <path
       d="m 294.254,53.596 -81.14,0.242 -79.557,70.584 18.345,70.474 49.118,-7.927 -25.782,74.764 38.688,-22.482 10.933,35.945 30.224,-37.072 30.217,38.783 18.452,-38.474 31.764,21.03 -25.465,-71.884 46.448,6.09 18.897,-67.102 -81.14,-72.972 z m -88.758,61.177 c 13.326,-0.112 28.287,8.99 35.945,26.98 l -61.948,9.386 c -2.103,-24.275 10.9,-36.24 26.004,-36.367 z m 104.498,0 c 15.103,0.128 28.107,12.092 26.004,36.366 l -61.95,-9.386 c 7.66,-17.99 22.62,-27.093 35.946,-26.98 z m -54.533,38.483 25.66,56.723 H 233.18 l 22.283,-56.724 z m -162.201,135.21 -41.963,29.23 207.34,72.683 207.338,-73.034 -40.993,-28.88 c -54.665,9.214 -120.616,-14.354 -150.67,31.845 H 242.897 C 213.144,274.138 147.917,297.677 93.26,288.465 Z M 29,329.763 22.832,347.403 213.5,414.082 v 17.816 h 91.553 v -18.69 h -0.05 l 188.17,-65.804 -6.17,-17.64 -205.655,71.92 4.03,11.525 h -54.75 L 234.656,401.683 29,329.764 Z m 230.43,38.187 c -0.36,3.167 -0.664,6.443 -0.893,9.868 -0.22,-3.273 -0.51,-6.404 -0.846,-9.44 l 0.75,1.325 0.99,-1.752 z"
       id="path17"
       inkscape:connector-curvature="0"
       style="fill:#9013fe;filter:url(#shadow-1)" />
  </g>
  <!-- react-empty: 13 -->
</svg>
