<?xml version="1.0" encoding="UTF-8" standalone="no"?>
<svg
   xmlns:dc="http://purl.org/dc/elements/1.1/"
   xmlns:cc="http://creativecommons.org/ns#"
   xmlns:rdf="http://www.w3.org/1999/02/22-rdf-syntax-ns#"
   xmlns:svg="http://www.w3.org/2000/svg"
   xmlns="http://www.w3.org/2000/svg"
   xmlns:sodipodi="http://sodipodi.sourceforge.net/DTD/sodipodi-0.dtd"
   xmlns:inkscape="http://www.inkscape.org/namespaces/inkscape"
   viewBox="0 0 1000 560"
   version="1.1"
   id="svg21"
   sodipodi:docname="dna1.svg"
   width="1000"
   height="560"
   inkscape:export-filename="C:\Users\William\Documents\Dev\Games\ccg\ccgclient\src\assets\png\dna1.png"
   inkscape:export-xdpi="240"
   inkscape:export-ydpi="240"
   inkscape:version="0.92.1 r15371">
  <metadata
     id="metadata25">
    <rdf:RDF>
      <cc:Work
         rdf:about="">
        <dc:format>image/svg+xml</dc:format>
        <dc:type
           rdf:resource="http://purl.org/dc/dcmitype/StillImage" />
        <dc:title></dc:title>
      </cc:Work>
    </rdf:RDF>
  </metadata>
  <sodipodi:namedview
     pagecolor="#334033"
     bordercolor="#666666"
     borderopacity="1"
     objecttolerance="10"
     gridtolerance="10"
     guidetolerance="10"
     inkscape:pageopacity="1"
     inkscape:pageshadow="2"
     inkscape:window-width="3840"
     inkscape:window-height="2004"
     id="namedview23"
     showgrid="true"
     inkscape:zoom="1.3037281"
     inkscape:cx="96.065203"
     inkscape:cy="426.65642"
     inkscape:window-x="-16"
     inkscape:window-y="-16"
     inkscape:window-maximized="1"
     inkscape:current-layer="svg21">
    <inkscape:grid
       type="xygrid"
       id="grid4502" />
  </sodipodi:namedview>
  <defs
     id="defs13">
    <filter
       id="shadow-1"
       height="3"
       width="3"
       x="-1"
       y="-1">
      <feFlood
         flood-color="#0f0"
         result="flood"
         id="feFlood2" />
      <feComposite
         in="flood"
         in2="SourceGraphic"
         operator="atop"
         result="composite"
         id="feComposite4" />
      <feGaussianBlur
         in="composite"
         stdDeviation="15"
         result="blur"
         id="feGaussianBlur6" />
      <feOffset
         result="offset"
         id="feOffset8" />
      <feComposite
         in="SourceGraphic"
         in2="offset"
         operator="over"
         id="feComposite10" />
    </filter>
  </defs>
  <g
     class=""
     id="g19"
     transform="translate(235.312,31.25)">
    <path
       d="m 121.844,18.22 c -10.248,46.5 -5.753,86.598 7.562,121 31.722,35.503 74.78,60.367 119.5,84.405 -15.144,-14.727 -29.5,-29.294 -41.97,-44.188 h 72.94 c 5.318,-6.197 10.267,-12.425 14.812,-18.687 H 192.5 c -4.946,-7.035 -9.397,-14.18 -13.25,-21.5 -2.036,-3.867 -3.926,-7.78 -5.656,-11.75 h 140.594 c 2.73,-6.087 5.032,-12.27 6.875,-18.688 h -154.22 c -3.453,-12.16 -5.326,-25.127 -5.218,-39.437 h 164.25 c -0.176,-5.948 -0.708,-12.168 -1.656,-18.72 H 162.843 c 1.202,-10.093 3.29,-20.866 6.437,-32.436 h -47.436 z m 216.03,0 c 10.033,36.836 9.616,65.44 2.47,90.593 h -0.156 c -3.215,13.34 -8.158,25.723 -14.375,37.53 -15.708,29.833 -40.195,56.197 -67.094,82.532 12.75,6.806 25.567,13.607 38.25,20.625 26.73,-26.167 52.8,-54.185 71.03,-88.813 20.463,-38.87 29.83,-85.945 17.375,-142.468 h -47.5 z m -129,253.81 c -20.338,21.212 -39.452,44.344 -53.936,71.69 -21.326,40.26 -31.11,89.958 -19.438,149.467 h 45.625 c -5.036,-22.15 -6.48,-42.845 -5.03,-62 0.458,-7.468 1.38,-14.606 2.75,-21.468 H 179 c 1.278,-6.435 2.896,-12.663 4.813,-18.69 0.024,-0.07 0.038,-0.145 0.062,-0.217 3.025,-9.47 6.796,-18.44 11.188,-26.875 14.96,-28.73 35.86,-51.34 56.5,-71.813 -14.107,-6.74 -28.446,-13.326 -42.688,-20.094 z m 47.595,22.47 c 14.437,14.55 27.88,29.196 39.186,44.563 h -61.812 c -4.798,5.982 -9.337,12.195 -13.53,18.687 h 87.75 c 1.445,2.45 2.832,4.94 4.155,7.438 4.388,8.287 8.147,16.85 11.155,25.843 H 203.5 c -2.184,5.98 -4.007,12.218 -5.47,18.69 h 130.314 c 2.428,12.173 3.525,25.21 2.937,39.436 H 194.19 c 0.137,6.05 0.58,12.28 1.375,18.688 h 134.062 c -1.072,8.062 -2.65,16.496 -4.75,25.344 h 46.813 c 9.533,-48.618 4.736,-90.682 -8.97,-126.407 -28.443,-31.848 -66.276,-52.97 -106.25,-72.28 z"
       id="path17"
       inkscape:connector-curvature="0"
       style="fill:#00ff00;filter:url(#shadow-1)" />
  </g>
  <!-- react-empty: 13 -->
</svg>
