<?xml version="1.0" encoding="UTF-8" standalone="no"?>
<svg
   xmlns:dc="http://purl.org/dc/elements/1.1/"
   xmlns:cc="http://creativecommons.org/ns#"
   xmlns:rdf="http://www.w3.org/1999/02/22-rdf-syntax-ns#"
   xmlns:svg="http://www.w3.org/2000/svg"
   xmlns="http://www.w3.org/2000/svg"
   xmlns:sodipodi="http://sodipodi.sourceforge.net/DTD/sodipodi-0.dtd"
   xmlns:inkscape="http://www.inkscape.org/namespaces/inkscape"
   viewBox="0 0 1000 560"
   version="1.1"
   id="svg8"
   sodipodi:docname="dove.svg"
   width="1000"
   height="560"
   inkscape:version="0.92.1 r15371"
   inkscape:export-filename="C:\Users\William\Documents\Dev\Games\ccg\ccgclient\src\assets\png\dove.png"
   inkscape:export-xdpi="240"
   inkscape:export-ydpi="240">
  <metadata
     id="metadata14">
    <rdf:RDF>
      <cc:Work
         rdf:about="">
        <dc:format>image/svg+xml</dc:format>
        <dc:type
           rdf:resource="http://purl.org/dc/dcmitype/StillImage" />
        <dc:title></dc:title>
      </cc:Work>
    </rdf:RDF>
  </metadata>
  <defs
     id="defs12" />
  <sodipodi:namedview
     pagecolor="#ffffff"
     bordercolor="#666666"
     borderopacity="1"
     objecttolerance="10"
     gridtolerance="10"
     guidetolerance="10"
     inkscape:pageopacity="0"
     inkscape:pageshadow="2"
     inkscape:window-width="3840"
     inkscape:window-height="2104"
     id="namedview10"
     showgrid="true"
     inkscape:zoom="0.4609375"
     inkscape:cx="256"
     inkscape:cy="256"
     inkscape:window-x="-16"
     inkscape:window-y="-16"
     inkscape:window-maximized="1"
     inkscape:current-layer="svg8">
    <inkscape:grid
       type="xygrid"
       id="grid4491" />
  </sodipodi:namedview>
  <path
     d="M 0,0 H 1000 V 560 H 0 Z"
     id="path2"
     inkscape:connector-curvature="0"
     style="fill:#f8e71c;fill-opacity:1;stroke-width:1.46158493" />
  <g
     class=""
     id="g6"
     transform="translate(260.903,24.478)">
    <path
       d="M 38.643,17.275 32.215,59.47 c 20.354,23.085 48.127,40.682 79.195,56 -29.677,-4.055 -58.635,-12.142 -84.64,-24.868 -0.292,8.613 -0.584,26.252 0.896,35.58 23.024,8.994 48.88,14.026 75.95,16.728 -23.698,5.377 -47.716,7.58 -71.425,6.95 2.665,9.36 7.325,22.24 11.26,31.675 22.547,-1.977 45.912,-7.504 69.36,-15.47 -18.785,14.27 -39.05,26.146 -60.185,35.322 l 28.877,30.056 17.144,-9.898 -5.978,22.312 c 6.788,6.61 20.498,15.434 27.56,20.623 l 13.268,-11.662 -0.338,20.2 c 19.91,13.99 41.056,12.083 61.15,1.718 -0.804,6.438 -1.308,13.29 -1.482,20.56 C 132.47,314.7 66.666,320.958 70.59,348.222 l 34.553,6.947 -34.108,18.04 c 1.503,7.398 3.84,15.003 7.73,22.677 L 120.1,379.56 92.17,416.226 c 4.726,6.13 14.61,14.823 20.537,20.515 l 39.47,-46.24 -17.962,63.475 c 6.238,4.326 19.387,9.33 26.273,12.87 l 43.313,-71.076 -14.138,80.248 c 17.225,3.487 20.708,4.81 39.82,3.19 l 18.186,-75.66 20.297,71.852 c 7.333,-2.51 23.21,-9.526 29.976,-12.664 l -11.794,-59.3 35.372,45.14 c 7.232,-5.076 18.943,-11.587 24.316,-17.328 l -17.994,-37.326 31.973,18.19 c 25.568,-17.19 -44.333,-57.458 -86.944,-100.22 6.416,-8.725 11.636,-17.086 15.786,-25.042 19.45,27.668 44.75,39.74 75.84,29.93 l -1.176,-21.815 16.002,14.943 c 7.52,-4.34 15.072,-10.137 22.48,-16.166 l -6.99,-19.133 18.694,8.745 c 12.732,-6.638 22.917,-17.1 33.08,-27.59 -16.19,-12.562 -32.92,-27.903 -47.49,-40.242 17.74,9.162 38.718,17.52 56.892,23.95 4.27,-7.49 12.045,-21.063 15.463,-28.7 -19.626,-4.04 -39.435,-11.263 -58.413,-20.58 23.383,2.56 45.728,3.05 66.367,-1.138 2.805,-8.642 9.82,-22.678 11.123,-30.996 -23.616,6.897 -49.242,8.78 -74.923,7.03 28.832,-9.016 55.294,-21.066 75.56,-39.81 L 485.69,93 c -84.44,76.087 -173.95,30.858 -210.133,83.916 -5.043,-1.298 -10.115,-1.43 -14.932,-0.56 C 245.925,95.661 121.592,122.932 38.643,17.273 Z M 293,226.155 l -9.643,45.806 -23.623,-44.347 c 10.196,4.382 20.545,8.023 33.266,-1.457 z"
       id="path4"
       inkscape:connector-curvature="0"
       style="fill:#000000;fill-opacity:1" />
  </g>
</svg>
