<?xml version="1.0" encoding="UTF-8" standalone="no"?>
<svg
   xmlns:dc="http://purl.org/dc/elements/1.1/"
   xmlns:cc="http://creativecommons.org/ns#"
   xmlns:rdf="http://www.w3.org/1999/02/22-rdf-syntax-ns#"
   xmlns:svg="http://www.w3.org/2000/svg"
   xmlns="http://www.w3.org/2000/svg"
   xmlns:sodipodi="http://sodipodi.sourceforge.net/DTD/sodipodi-0.dtd"
   xmlns:inkscape="http://www.inkscape.org/namespaces/inkscape"
   viewBox="0 0 1000 560"
   version="1.1"
   id="svg21"
   sodipodi:docname="dragon-head.svg"
   width="1000"
   height="560"
   inkscape:version="0.92.1 r15371"
   inkscape:export-filename="C:\Users\William\Documents\Dev\Games\ccg\ccgclient\src\assets\png\dragon-head.png"
   inkscape:export-xdpi="240"
   inkscape:export-ydpi="240">
  <metadata
     id="metadata25">
    <rdf:RDF>
      <cc:Work
         rdf:about="">
        <dc:format>image/svg+xml</dc:format>
        <dc:type
           rdf:resource="http://purl.org/dc/dcmitype/StillImage" />
        <dc:title />
      </cc:Work>
    </rdf:RDF>
  </metadata>
  <sodipodi:namedview
     pagecolor="#ffffff"
     bordercolor="#666666"
     borderopacity="1"
     objecttolerance="10"
     gridtolerance="10"
     guidetolerance="10"
     inkscape:pageopacity="0"
     inkscape:pageshadow="2"
     inkscape:window-width="3840"
     inkscape:window-height="2004"
     id="namedview23"
     showgrid="true"
     inkscape:zoom="1.84375"
     inkscape:cx="287.61986"
     inkscape:cy="145.37896"
     inkscape:window-x="-16"
     inkscape:window-y="-16"
     inkscape:window-maximized="1"
     inkscape:current-layer="svg21">
    <inkscape:grid
       type="xygrid"
       id="grid4502" />
  </sodipodi:namedview>
  <defs
     id="defs13">
    <filter
       id="shadow-1"
       height="3"
       width="3"
       x="-1"
       y="-1">
      <feFlood
         flood-color="#e7e191"
         result="flood"
         id="feFlood2" />
      <feComposite
         in="flood"
         in2="SourceGraphic"
         operator="atop"
         result="composite"
         id="feComposite4" />
      <feGaussianBlur
         in="composite"
         stdDeviation="20"
         result="blur"
         id="feGaussianBlur6" />
      <feOffset
         result="offset"
         id="feOffset8" />
      <feComposite
         in2="offset"
         in="SourceGraphic"
         operator="over"
         id="feComposite10" />
    </filter>
  </defs>
  <path
     d="M 0,0 H 1000 V 560 H 0 Z"
     id="path15"
     style="fill:#417505;fill-opacity:1;stroke-width:1.46158493"
     inkscape:connector-curvature="0" />
  <g
     class=""
     id="g19"
     transform="matrix(1.0965496,0,0,1.0965496,252.93272,36.148172)"
     style="fill:#000000">
    <path
       d="m 200.947,18.686 c -6.98,0.087 -14.64,0.774 -22.85,1.9 27.57,20.468 51.098,45.25 67.594,70.527 1.66,0 3.312,0.012 4.958,0.047 18.066,0.39 35.487,2.906 53.217,7.2 -15.695,-28.457 -29.935,-50.19 -47.45,-63.22 -13.817,-10.278 -30.063,-16.168 -52.52,-16.454 -0.967,-0.013 -1.95,-0.013 -2.948,0 z m -91.66,22.96 c -0.73,-0.002 -1.46,0.006 -2.195,0.022 -14.045,0.31 -29.36,3.92 -46.86,11.13 56.18,18.807 106.985,50.468 133.907,83.585 18.377,-5.13 29.44,-14.72 36.454,-28.817 C 195.84,78.18 168.118,56.19 140.65,46.96 130.482,43.542 120.217,41.654 109.287,41.645 Z m -0.203,52.786 c -39.42,6.758 -74.73,31.854 -87.822,74.19 -25.4294715,102.93455 -27.1397549,209.87685 0,322.345 h 212.73 C 100.352,442.58 61.19,206.49 187.115,230.104 c 5.838,-14.164 9.92,-28.027 11.018,-41.465 l 18.627,1.522 c -1.684,20.592 -8.828,40.49 -18.033,59.943 -0.732,2.035 -1.472,4.12 -2.186,6.063 32.842,85.24 113.77,160.69 169.495,168.197 0.915,0.033 1.905,-0.002 2.953,-0.09 17.016,1.035 35.86,-4.222 52.21,-22.304 l 7.984,-8.83 -10.473,-5.658 c -6.507,-3.515 -14.29,-7.094 -18.167,-10.925 -1.938,-1.916 -2.793,-3.47 -3.074,-5.194 -0.282,-1.725 -0.13,-4.227 2.23,-8.578 l 10.673,-19.656 -21.484,6.222 c -6.304,1.825 -17.305,-3.032 -23.224,-10.71 -2.96,-3.84 -4.408,-7.907 -4.387,-10.843 0.02,-2.938 0.72,-5.125 4.747,-8.05 l 19.453,-14.125 -23.884,-2.72 c -9.974,-1.137 -16.37,-6.658 -19.17,-12.294 -2.802,-5.634 -2.312,-10.084 1.375,-13.31 l 12.204,-10.677 -15.358,-5.205 c -6.717,-2.276 -10.296,-7.555 -10.357,-10.633 -0.028,-1.373 0.238,-2.666 1.843,-4.476 10.93,-2.39 21.258,-0.45 28.088,6.374 6.154,6.146 8.35,15.128 6.977,24.832 8.55,-2.254 16.985,-1.616 24.112,2.494 9.34,5.387 14.647,15.692 15.67,27.965 15.212,-10.132 32.152,-12.725 45.262,-5.164 15.467,8.92 21.36,29.513 16.805,51.75 23.992,-33.355 34.588,-75.717 5.617,-120.43 -46.726,-4.442 -81.693,-30.676 -93.293,-67.64 -5.026,-16.016 -21.284,-28.67 -42,-37.904 l -0.08,0.217 c -29.74,-10.823 -55.575,-17.35 -82.604,-18.733 l 0.08,0.155 c -2.294,-0.093 -4.56,-0.16 -6.762,-0.172 -9.537,22.874 -28.662,39.9 -57.436,46.054 l -5.906,1.262 -3.576,-4.864 c -14.216,-19.33 -41.23,-40.452 -74.002,-58.074 z m 156.215,65.26 c 27.927,-0.073 44.874,11.617 42.09,44.45 -35.844,3.39 -51.933,-16.683 -63.074,-42.632 7.507,-1.155 14.538,-1.8 20.983,-1.817 z m 48.407,66.363 c 3.708,0.07 7.14,0.994 10.014,2.812 -1.51,1.102 -2.898,2.28 -4.16,3.543 -5.246,5.24 -8.087,12.122 -7.956,18.742 0.183,9.322 5.27,17.184 12.68,22.56 -3.14,8.103 -2.452,17.455 1.407,25.22 3.813,7.668 10.54,14.273 19.302,18.398 -1.445,3.366 -2.375,6.862 -2.4,10.33 -0.062,8.407 3.38,16.042 8.273,22.39 6.792,8.81 16.862,15.936 28.026,17.91 -0.183,2.18 -0.204,4.333 0.133,6.407 1.05,6.444 4.515,11.66 8.38,15.48 3.41,3.37 7.19,5.892 10.798,7.993 -6.345,4.792 -12.414,7.056 -18.618,7.79 -6.515,-7.937 -9.71,-19.084 -9.41,-31.454 -11.767,6.177 -24.21,7.156 -34.12,1.44 -14.668,-8.46 -19.393,-29.036 -13.187,-50.33 -11.336,2.77 -22.13,0.92 -29.187,-6.132 -8.875,-8.865 -9.535,-23.626 -3.094,-37.95 -3.676,-0.615 -6.963,-2.166 -9.525,-4.725 -8.808,-8.798 -5.773,-26.09 6.776,-38.626 7.843,-7.835 17.546,-11.957 25.87,-11.8 z"
       id="path17"
       style="fill:#000000;fill-opacity:1;filter:url(#shadow-1)"
       inkscape:connector-curvature="0"
       sodipodi:nodetypes="ccccccccccccccccccccccccccccccccccccccccccccccccccccccccccccccccccccccccccccccccccccccccccccc" />
  </g>
  <!-- react-empty: 13 -->
</svg>
