<?xml version="1.0" encoding="UTF-8" standalone="no"?>
<svg
   xmlns:dc="http://purl.org/dc/elements/1.1/"
   xmlns:cc="http://creativecommons.org/ns#"
   xmlns:rdf="http://www.w3.org/1999/02/22-rdf-syntax-ns#"
   xmlns:svg="http://www.w3.org/2000/svg"
   xmlns="http://www.w3.org/2000/svg"
   xmlns:sodipodi="http://sodipodi.sourceforge.net/DTD/sodipodi-0.dtd"
   xmlns:inkscape="http://www.inkscape.org/namespaces/inkscape"
   viewBox="0 0 1000 560"
   version="1.1"
   id="svg8"
   sodipodi:docname="drakkar.svg"
   width="1000"
   height="560"
   inkscape:version="0.92.1 r15371"
   inkscape:export-filename="C:\Users\William\Documents\Dev\Games\ccg\ccgclient\src\assets\png\drakkar.png"
   inkscape:export-xdpi="240"
   inkscape:export-ydpi="240">
  <metadata
     id="metadata14">
    <rdf:RDF>
      <cc:Work
         rdf:about="">
        <dc:format>image/svg+xml</dc:format>
        <dc:type
           rdf:resource="http://purl.org/dc/dcmitype/StillImage" />
        <dc:title></dc:title>
      </cc:Work>
    </rdf:RDF>
  </metadata>
  <defs
     id="defs12" />
  <sodipodi:namedview
     pagecolor="#370661"
     bordercolor="#666666"
     borderopacity="1"
     objecttolerance="10"
     gridtolerance="10"
     guidetolerance="10"
     inkscape:pageopacity="1"
     inkscape:pageshadow="2"
     inkscape:window-width="3840"
     inkscape:window-height="2004"
     id="namedview10"
     showgrid="false"
     inkscape:zoom="0.4609375"
     inkscape:cx="256"
     inkscape:cy="256"
     inkscape:window-x="-16"
     inkscape:window-y="-16"
     inkscape:window-maximized="1"
     inkscape:current-layer="svg8" />
  <g
     class=""
     transform="matrix(1.2502916,0,0,1.1924073,171.78346,4.3031123)"
     id="g6"
     style="fill:#ffffff">
    <path
       d="m 248.672,23.266 -64,32 61.566,15.39 V 87 h 19.524 V 23.266 Z M 146.334,105 c 13.692,21.145 20.243,47.388 20.164,73.742 -0.08,26.744 -6.98,53.69 -20.805,75.793 h 234.23 c 16.93,-18.827 26.41,-46.276 26.677,-74.15 0.267,-27.947 -8.674,-55.727 -26.647,-75.385 H 146.333 Z M 416,155.244 441,231 h 62 v -14 h -39 v -18 h 39 v -1.438 l -32,-16 v -15.076 z m -371.492,6.61 c -6.67,0.12 -13.668,2.495 -18.922,7.833 -9.12,9.27 -9.382,21.518 -7.256,29.637 2.126,8.12 6.344,13.905 6.344,13.905 l 14.652,-10.46 c 0,0 -2.4,-3.49 -3.584,-8.006 -1.183,-4.518 -1.444,-8.27 2.672,-12.452 1.932,-1.962 4.236,-2.685 7.53,-2.43 3.293,0.257 7.228,1.863 10.148,4.263 2.92,2.4 4.68,5.353 5.068,8.025 0.388,2.67 -0.034,5.552 -3.86,9.822 l -0.06,0.065 -0.054,0.064 c -19.097,22.143 -25.463,40.51 -25.323,78.704 0.14,38.193 0.465,69.313 40.77,97.133 l -56.87,48.746 11.714,13.666 61.35,-52.585 c 2.307,1.25 4.674,2.5 7.173,3.75 7.86,0.786 15.04,1.502 22.164,2.21 l -38.45,32.958 11.714,13.666 51.55,-44.186 c 11.823,1.147 22.805,2.183 32.77,3.06 l -32.035,27.46 11.715,13.665 45.582,-39.07 c 12.314,0.895 23.462,1.514 34.158,1.87 l -27.455,23.533 11.715,13.666 43.027,-36.882 c 12.13,-0.13 24.454,-0.622 38.07,-1.482 l -28.812,24.697 11.715,13.666 47.427,-40.653 c 12.838,-1.1 27.384,-2.48 43.473,-4.053 l -37.316,30.943 11.49,13.858 57.848,-47.967 c 3.278,-0.327 6.228,-0.62 9.65,-0.963 50.065,-50.065 60.964,-100.13 63.338,-142.535 H 441.68 c -13.08,22.76 -22.973,42.718 -48.78,57.828 3.594,6.09 5.67,13.167 5.67,20.707 0,22.537 -18.463,41 -41,41 -12.906,0 -24.468,-6.062 -32,-15.47 -7.53,9.408 -19.094,15.47 -32,15.47 -12.906,0 -24.468,-6.062 -32,-15.47 -7.53,9.408 -19.094,15.47 -32,15.47 -14.623,0 -27.523,-7.777 -34.785,-19.392 -7.262,11.615 -20.162,19.392 -34.785,19.392 -22.537,0 -41,-18.463 -41,-41 0,-0.17 0.012,-0.338 0.014,-0.508 -29.774,-3.39 -49.577,-21.213 -64.58,-42.46 -5.57,-7.888 -4.7,-17.596 -4.704,-25.907 -0.005,-11.62 3.798,-24.738 21.084,-44.78 l -0.113,0.128 c 6.645,-7.412 9.443,-16.39 8.275,-24.428 -1.17,-8.04 -5.742,-14.646 -11.455,-19.342 -5.714,-4.695 -12.713,-7.72 -20.18,-8.3 -0.934,-0.073 -1.88,-0.102 -2.832,-0.084 z m 201.73,110.68 v 17.59 c 6.004,2.7 11.26,6.794 15.332,11.88 1.282,-1.6 2.69,-3.096 4.192,-4.49 v -24.98 z m -86.238,32 c -12.81,0 -23,10.192 -23,23 0,12.81 10.19,23 23,23 12.81,0 23,-10.19 23,-23 0,-12.808 -10.19,-23 -23,-23 z m 69.57,0 c -12.81,0 -23,10.192 -23,23 0,12.81 10.19,23 23,23 12.81,0 23,-10.19 23,-23 0,-12.808 -10.19,-23 -23,-23 z m 64,0 c -12.81,0 -23,10.192 -23,23 0,12.81 10.19,23 23,23 12.81,0 23,-10.19 23,-23 0,-12.808 -10.19,-23 -23,-23 z m 64,0 c -12.81,0 -23,10.192 -23,23 0,12.81 10.19,23 23,23 12.81,0 23,-10.19 23,-23 0,-12.808 -10.19,-23 -23,-23 z"
       id="path4"
       inkscape:connector-curvature="0"
       style="fill:#ffffff" />
  </g>
  <!-- react-empty: 6 -->
</svg>
