<?xml version="1.0" encoding="UTF-8" standalone="no"?>
<svg
   xmlns:dc="http://purl.org/dc/elements/1.1/"
   xmlns:cc="http://creativecommons.org/ns#"
   xmlns:rdf="http://www.w3.org/1999/02/22-rdf-syntax-ns#"
   xmlns:svg="http://www.w3.org/2000/svg"
   xmlns="http://www.w3.org/2000/svg"
   xmlns:sodipodi="http://sodipodi.sourceforge.net/DTD/sodipodi-0.dtd"
   xmlns:inkscape="http://www.inkscape.org/namespaces/inkscape"
   viewBox="0 0 1000 560"
   version="1.1"
   id="svg8"
   sodipodi:docname="evil-book.svg"
   width="1000"
   height="560"
   inkscape:export-filename="C:\Users\William\Documents\Dev\Games\ccg\ccgclient\src\assets\png\evil-book.png"
   inkscape:export-xdpi="240"
   inkscape:export-ydpi="240"
   inkscape:version="0.92.1 r15371">
  <metadata
     id="metadata14">
    <rdf:RDF>
      <cc:Work
         rdf:about="">
        <dc:format>image/svg+xml</dc:format>
        <dc:type
           rdf:resource="http://purl.org/dc/dcmitype/StillImage" />
        <dc:title></dc:title>
      </cc:Work>
    </rdf:RDF>
  </metadata>
  <defs
     id="defs12" />
  <sodipodi:namedview
     pagecolor="#370661"
     bordercolor="#ffffff"
     borderopacity="1"
     objecttolerance="10"
     gridtolerance="10"
     guidetolerance="10"
     inkscape:pageopacity="1"
     inkscape:pageshadow="2"
     inkscape:window-width="3840"
     inkscape:window-height="2004"
     id="namedview10"
     showgrid="false"
     inkscape:zoom="0.4609375"
     inkscape:cx="256"
     inkscape:cy="256"
     inkscape:window-x="-16"
     inkscape:window-y="-16"
     inkscape:window-maximized="1"
     inkscape:current-layer="svg8" />
  <g
     class=""
     id="g6"
     transform="translate(256,34.983051)"
     style="fill:#ffffff">
    <path
       d="M 93.998,27.8 C 69.994,27.67 51.058,43.068 39.266,60.578 27.094,78.653 20.66,98.816 24.684,115.1 l 0.01,0.04 81.476,318.186 c 0.11,-9.534 2.292,-19.376 6.22,-28.596 4.24,-9.948 10.73,-19.412 19.245,-27.21 7.477,-7.44 17.398,-13.343 29.234,-16.575 0.002,0 0.004,0 0.007,-0.002 4.364,-1.292 8.962,-2.224 13.787,-2.74 l 0.658,-0.07 323.2,11.25 L 371.546,40.823 96.336,27.863 c -0.786,-0.037 -1.565,-0.058 -2.34,-0.062 z m -0.107,18.69 c 0.52,0.003 1.043,0.017 1.567,0.04 l 263.046,12.39 112.408,290.867 -299.46,-9.77 -0.653,0.07 c -26.13,2.814 -47.677,15.802 -60.554,33.823 L 42.825,110.62 v -0.003 c -1.57,-6.362 2.12,-25.013 11.942,-39.6 9.516,-14.132 23.03,-24.603 39.123,-24.525 z m 17.426,17.403 -17.967,5.144 73.06,255.193 17.967,-5.142 z m 52.48,19.2 c 3.22,62.57 46.11,84.672 81.54,87.507 l 9.07,-16.85 -43.873,-19.943 15.91,-8.95 c -24.727,-2.388 -42.9,-24.437 -62.648,-41.765 z m 180.157,2.948 c -10.863,18.29 -18.594,40.613 -39.375,46.132 l 10.31,13.844 -24.808,16.07 14.943,13.84 c 29.995,-7.382 59.367,-33.122 38.93,-89.885 z m 44.406,88.26 -33.432,59.067 -18.184,-40.082 -25.455,50.627 -50.07,-37.266 -8.277,35.157 -76.937,-59.768 46.058,99.145 13.426,-21.8 45.862,59.07 19.857,-46.41 41.196,47.108 17.785,-52.03 20.13,28.827 8.04,-121.644 z M 176.214,376.866 c -23.563,2.688 -39.208,17.766 -46.63,35.19 -6.863,16.106 -5.658,33.007 1.804,42.7 l 315.006,10.862 c -2.514,-13.553 -1.82,-27.43 2.32,-41.203 l -21.546,-6.818 34.252,-20.055 c 2.305,-3.522 4.85,-7.02 7.658,-10.48 L 176.213,376.867 Z"
       id="path4"
       inkscape:connector-curvature="0"
       style="fill:#ffffff" />
  </g>
  <!-- react-empty: 6 -->
</svg>
