<?xml version="1.0" encoding="UTF-8" standalone="no"?>
<svg
   xmlns:dc="http://purl.org/dc/elements/1.1/"
   xmlns:cc="http://creativecommons.org/ns#"
   xmlns:rdf="http://www.w3.org/1999/02/22-rdf-syntax-ns#"
   xmlns:svg="http://www.w3.org/2000/svg"
   xmlns="http://www.w3.org/2000/svg"
   xmlns:sodipodi="http://sodipodi.sourceforge.net/DTD/sodipodi-0.dtd"
   xmlns:inkscape="http://www.inkscape.org/namespaces/inkscape"
   viewBox="0 0 1000 560"
   version="1.1"
   id="svg6"
   sodipodi:docname="evil-moon.svg"
   inkscape:version="0.92.1 r15371"
   inkscape:export-filename="C:\Users\William\Documents\Dev\Games\ccg\ccgclient\src\assets\png\evil-moon.png"
   inkscape:export-xdpi="90"
   inkscape:export-ydpi="90">
  <metadata
     id="metadata12">
    <rdf:RDF>
      <cc:Work
         rdf:about="">
        <dc:format>image/svg+xml</dc:format>
        <dc:type
           rdf:resource="http://purl.org/dc/dcmitype/StillImage" />
      </cc:Work>
    </rdf:RDF>
  </metadata>
  <defs
     id="defs10" />
  <sodipodi:namedview
     pagecolor="#ffffff"
     bordercolor="#666666"
     borderopacity="1"
     objecttolerance="10"
     gridtolerance="10"
     guidetolerance="10"
     inkscape:pageopacity="0"
     inkscape:pageshadow="2"
     inkscape:window-width="3840"
     inkscape:window-height="2104"
     id="namedview8"
     showgrid="false"
     inkscape:zoom="0.42142857"
     inkscape:cx="500"
     inkscape:cy="280"
     inkscape:window-x="-16"
     inkscape:window-y="-16"
     inkscape:window-maximized="1"
     inkscape:current-layer="svg6" />
  <rect
     width="1000"
     height="560"
     fill="white"
     class="card-image-background"
     id="rect2"
     style="fill:#370661;fill-opacity:1" />
  <path
     d="M255.938 19.938C124.514 19.938 17.78 126.67 17.78 258.094c0 131.422 106.735 238.156 238.157 238.156 131.423 0 238.157-106.734 238.157-238.156 0-131.422-106.734-238.156-238.156-238.156zm0 18.687c121.322 0 219.468 98.147 219.468 219.47 0 26.08-4.548 51.085-12.875 74.28-20.99 8.188-43.686 12.75-67.624 12.75-22.242 0-43.584-3.855-63.406-10.938l12.094 44.594-71.75-12.467 18.844 51.562c-57.855 7.1-108.19-15.432-130.47-49.28l81.313 1.78-23.56-48.438 72.436-8.062.688.063c-16.83-11.135-31.777-24.876-44.22-40.688 30.674-18.014 66.44-28.814 102.782-22.844-43.234-49.45-95.713-64.09-139.437-57.437-2.188-11.438-3.345-23.236-3.345-35.314 0-45.286 16.2-86.562 42.938-118.937 2.04-.057 4.072-.095 6.125-.095zM139.188 180.78c.638-.006 1.268-.013 1.906 0 19.467.437 38.24 10.748 48.687 28.845 15.923 27.577 6.48 62.83-21.093 78.75-27.572 15.92-62.828 6.483-78.75-21.094-15.92-27.576-6.478-62.86 21.094-78.78 8.887-5.13 18.58-7.615 28.157-7.72zm-.063 21.064c-20.26 0-36.906 16.643-36.906 36.906 0 20.263 16.644 36.875 36.905 36.875 20.26 0 36.875-16.612 36.875-36.875s-16.614-36.906-36.875-36.906zm0 18.687c10.16 0 18.188 8.058 18.188 18.22 0 10.162-8.028 18.188-18.188 18.188-10.16 0-18.22-8.026-18.22-18.188 0-10.162 8.06-18.22 18.22-18.22z"
     fill="black"
     class="card-image-forground"
     transform="translate(244, 24)"
     id="path4"
     style="fill:#ffffff" />
</svg>
