<?xml version="1.0" encoding="UTF-8" standalone="no"?>
<svg
   xmlns:dc="http://purl.org/dc/elements/1.1/"
   xmlns:cc="http://creativecommons.org/ns#"
   xmlns:rdf="http://www.w3.org/1999/02/22-rdf-syntax-ns#"
   xmlns:svg="http://www.w3.org/2000/svg"
   xmlns="http://www.w3.org/2000/svg"
   xmlns:sodipodi="http://sodipodi.sourceforge.net/DTD/sodipodi-0.dtd"
   xmlns:inkscape="http://www.inkscape.org/namespaces/inkscape"
   viewBox="0 0 1000 560"
   version="1.1"
   id="svg8"
   sodipodi:docname="factory-arm.svg"
   width="1000"
   height="560"
   inkscape:version="0.92.1 r15371"
   inkscape:export-filename="C:\Users\William\Documents\Dev\Games\ccg\ccgclient\src\assets\png\factory-arm.png"
   inkscape:export-xdpi="240"
   inkscape:export-ydpi="240">
  <metadata
     id="metadata14">
    <rdf:RDF>
      <cc:Work
         rdf:about="">
        <dc:format>image/svg+xml</dc:format>
        <dc:type
           rdf:resource="http://purl.org/dc/dcmitype/StillImage" />
        <dc:title></dc:title>
      </cc:Work>
    </rdf:RDF>
  </metadata>
  <defs
     id="defs12" />
  <sodipodi:namedview
     pagecolor="#ffffff"
     bordercolor="#666666"
     borderopacity="1"
     objecttolerance="10"
     gridtolerance="10"
     guidetolerance="10"
     inkscape:pageopacity="0"
     inkscape:pageshadow="2"
     inkscape:window-width="3840"
     inkscape:window-height="2104"
     id="namedview10"
     showgrid="true"
     inkscape:zoom="1.3037281"
     inkscape:cx="508.9399"
     inkscape:cy="265.57046"
     inkscape:window-x="-16"
     inkscape:window-y="-16"
     inkscape:window-maximized="1"
     inkscape:current-layer="svg8">
    <inkscape:grid
       type="xygrid"
       id="grid4491" />
  </sodipodi:namedview>
  <path
     d="M 0,0 H 1000 V 560 H 0 Z"
     id="path2"
     inkscape:connector-curvature="0"
     style="fill:#c9c9c9;fill-opacity:1;stroke-width:1.46158493" />
  <g
     class=""
     id="g6"
     transform="matrix(1.2058898,0,0,1.2058898,151.27054,-31.11931)">
    <path
       d="m 117.725,24.998 30.002,30.004 h 4.779 c 10.261,-9.89 24.188,-16 39.494,-16 15.306,0 29.233,6.11 39.494,16 h 4.78 l 30.001,-30.004 z m 74.275,32 A 38.867,38.867 0 0 0 152.998,96 38.867,38.867 0 0 0 192,135.002 38.867,38.867 0 0 0 231.002,96 38.867,38.867 0 0 0 192,56.998 Z m 56.955,37.297 c 0.017,0.568 0.043,1.133 0.043,1.705 0,22.324 -12.981,41.729 -31.77,51.07 l 77.8,29.946 c -0.011,-0.338 -0.026,-0.676 -0.026,-1.016 0,-13.624 8.415,-25.416 20.293,-30.428 z M 328,160.998 c -8.391,0 -15.002,6.61 -15.002,15.002 0,8.391 6.61,15.002 15.002,15.002 8.391,0 15.002,-6.61 15.002,-15.002 0,-8.391 -6.61,-15.002 -15.002,-15.002 z m -15.871,43.887 -2.945,25.799 19.57,4.084 6.21,-26.524 a 32.649,32.649 0 0 1 -22.836,-3.36 z m -19.998,16.484 c -9.663,3.586 -17.838,9.415 -24.137,15.309 -11.977,11.206 -18.521,23.416 -18.521,23.416 l 15.834,8.556 c 0,0 5.364,-9.83 14.984,-18.83 2.877,-2.691 6.024,-5.225 9.436,-7.388 z m 55.703,10.858 -5.025,21.459 c 2.06,2.912 3.878,6.001 5.468,9.134 6.149,12.113 8.244,23.496 8.244,23.496 l 17.713,-3.195 c 0,0 -2.437,-13.73 -9.908,-28.447 -3.838,-7.561 -9.205,-15.727 -16.492,-22.447 z m -178.836,64.771 v 30.004 h 30.004 v -30.004 z m 128,0 v 30.004 h 30.004 v -30.004 z m 122.322,0 v 30.004 h 30.002 v -30.004 z m -275.32,48 c -20,0 -27.002,11.502 -27.002,23.002 0,11.5 7.002,23.002 27.002,23.002 h 6.275 c -8.936,-3.83 -15.273,-12.742 -15.273,-23.002 0,-10.26 6.337,-19.173 15.273,-23.002 z m 25.725,0 c 8.936,3.83 15.273,12.742 15.273,23.002 0,10.26 -6.337,19.173 -15.273,23.002 h 156.55 c -8.936,-3.83 -15.273,-12.742 -15.273,-23.002 0,-10.26 6.337,-19.173 15.273,-23.002 z m 176,0 c 8.936,3.83 15.273,12.742 15.273,23.002 0,10.26 -6.337,19.173 -15.273,23.002 H 495.002 V 344.998 Z M 63.482,360.227 47.246,385.455 72.475,401.691 88.711,376.465 Z M 160,360.998 c -3.973,0 -7.002,3.029 -7.002,7.002 0,3.973 3.029,7.002 7.002,7.002 3.973,0 7.002,-3.029 7.002,-7.002 0,-3.973 -3.029,-7.002 -7.002,-7.002 z m 176,0 c -3.973,0 -7.002,3.029 -7.002,7.002 0,3.973 3.029,7.002 7.002,7.002 3.973,0 7.002,-3.029 7.002,-7.002 0,-3.973 -3.029,-7.002 -7.002,-7.002 z m -136.998,48 V 496 h 17.996 v -87.002 z m 240,0 V 496 h 17.996 v -87.002 z"
       id="path4"
       inkscape:connector-curvature="0"
       style="fill:#000000;fill-opacity:1" />
  </g>
</svg>
