<?xml version="1.0" encoding="UTF-8" standalone="no"?>
<svg
   xmlns:dc="http://purl.org/dc/elements/1.1/"
   xmlns:cc="http://creativecommons.org/ns#"
   xmlns:rdf="http://www.w3.org/1999/02/22-rdf-syntax-ns#"
   xmlns:svg="http://www.w3.org/2000/svg"
   xmlns="http://www.w3.org/2000/svg"
   xmlns:sodipodi="http://sodipodi.sourceforge.net/DTD/sodipodi-0.dtd"
   xmlns:inkscape="http://www.inkscape.org/namespaces/inkscape"
   viewBox="0 0 1000 560"
   version="1.1"
   id="svg8"
   sodipodi:docname="fairy.svg"
   width="1000"
   height="560"
   inkscape:export-filename="C:\Users\William\Documents\Dev\Games\ccg\ccgclient\src\assets\png\fairy.png"
   inkscape:export-xdpi="240"
   inkscape:export-ydpi="240"
   inkscape:version="0.92.1 r15371">
  <metadata
     id="metadata14">
    <rdf:RDF>
      <cc:Work
         rdf:about="">
        <dc:format>image/svg+xml</dc:format>
        <dc:type
           rdf:resource="http://purl.org/dc/dcmitype/StillImage" />
        <dc:title></dc:title>
      </cc:Work>
    </rdf:RDF>
  </metadata>
  <defs
     id="defs12" />
  <sodipodi:namedview
     pagecolor="#ffffff"
     bordercolor="#666666"
     borderopacity="1"
     objecttolerance="10"
     gridtolerance="10"
     guidetolerance="10"
     inkscape:pageopacity="0"
     inkscape:pageshadow="2"
     inkscape:window-width="3840"
     inkscape:window-height="2104"
     id="namedview10"
     showgrid="false"
     inkscape:zoom="0.4609375"
     inkscape:cx="256"
     inkscape:cy="256"
     inkscape:window-x="-16"
     inkscape:window-y="-16"
     inkscape:window-maximized="1"
     inkscape:current-layer="svg8" />
  <path
     d="M 0,0.27118644 H 1013.1525 V 560 H 0 Z"
     id="path2"
     inkscape:connector-curvature="0"
     style="fill:#417505;fill-opacity:1;stroke-width:1.47080898" />
  <g
     class=""
     id="g6"
     transform="translate(253.8305,15.457627)">
    <path
       d="M 58.03,24.5 C 23.27,94.19 12.043,159.392 21.813,208.344 c 9.777,48.98 38.724,81.862 88.157,91.562 0.273,7.875 1.34,15.623 3.155,23.156 0.002,0.01 -0.002,0.022 0,0.032 -28.127,27.637 -42.97,61.425 -43.5,97.03 48.38,13.457 82.514,3.99 106.563,-18.905 6.406,3.07 13.175,5.595 20.28,7.5 7.128,1.91 14.27,3.113 21.376,3.655 0.156,0.957 0.32,1.9 0.5,2.844 6.946,36.782 28.896,65.042 74.186,76.592 17.09,-29.536 21.327,-63.994 10.94,-107.906 5.174,-4.5 9.967,-9.482 14.31,-14.875 22.468,14.3 43.262,19.52 62.158,17.595 19.33,-1.97 37.185,-11.402 53.218,-28.28 31.266,-32.916 54.233,-94.763 59.906,-176.876 -24.374,-11.548 -48.163,-16.737 -71,-16.657 -24.58,0.086 -48.055,6.17 -70.03,16.593 -16.08,7.626 -31.292,17.67 -45.313,29.47 -13.61,-12.85 -30.473,-22.608 -49.783,-27.782 -11.663,-3.125 -23.398,-4.37 -34.875,-3.906 -6.836,0.276 -13.57,1.18 -20.156,2.625 C 178.323,111.115 129.416,47.12 58.03,24.5 Z m 23.94,66.688 c 18.666,0 33.593,14.926 33.593,33.593 0,18.672 -14.926,33.595 -33.594,33.595 -18.67,0 -33.626,-14.926 -33.626,-33.594 0,-18.666 14.957,-33.593 33.625,-33.593 z m -24.376,82.53 c 10.23,0 18.312,8.116 18.312,18.345 0,10.228 -8.083,18.312 -18.312,18.312 -10.23,0 -18.313,-8.08 -18.313,-18.313 0,-10.228 8.085,-18.343 18.314,-18.343 z m 156.156,24.876 c -32.586,12.06 -55.813,43.41 -55.813,80.187 0,47.21 38.26,85.5 85.47,85.5 37.43,0 69.24,-24.062 80.812,-57.56 -0.55,4.852 -1.448,9.728 -2.75,14.592 -14.055,52.448 -67.71,83.43 -120.158,69.375 -52.447,-14.053 -83.428,-67.74 -69.375,-120.187 10.592,-39.528 43.698,-66.854 81.813,-71.906 z m 215.938,16.47 c 18.667,0 33.593,14.956 33.593,33.624 0,18.67 -14.924,33.593 -33.592,33.593 -18.668,0 -33.625,-14.925 -33.625,-33.592 0,-18.668 14.957,-33.625 33.625,-33.625 z m -354.75,13.155 c 8.86,0 15.843,6.982 15.843,15.843 0,8.86 -6.982,15.843 -15.843,15.843 -8.86,0 -15.843,-6.98 -15.843,-15.844 0,-8.86 6.983,-15.843 15.843,-15.843 z m 341.093,71.874 c 10.23,0 18.314,8.083 18.314,18.312 0,10.232 -8.083,18.344 -18.313,18.344 -10.228,0 -18.31,-8.115 -18.31,-18.344 0,-10.23 8.082,-18.312 18.31,-18.312 z m -41.31,37.156 c 8.86,0 15.874,6.983 15.874,15.844 0,8.863 -7.014,15.844 -15.875,15.844 -8.862,0 -15.845,-6.984 -15.845,-15.844 0,-8.86 6.983,-15.844 15.844,-15.844 z m -265.533,37.594 c 8.86,0 15.844,6.983 15.844,15.844 0,8.862 -6.98,15.843 -15.843,15.843 -8.86,0 -15.843,-6.982 -15.843,-15.842 0,-8.86 6.983,-15.844 15.844,-15.844 z m 163.532,52.03 c 8.86,0 15.874,6.984 15.874,15.845 0,8.862 -7.014,15.842 -15.875,15.842 -8.862,0 -15.845,-6.983 -15.845,-15.843 0,-8.862 6.983,-15.845 15.844,-15.845 z"
       id="path4"
       inkscape:connector-curvature="0"
       style="fill:#000000;fill-opacity:1" />
  </g>
</svg>
