<?xml version="1.0" encoding="UTF-8" standalone="no"?>
<svg
   xmlns:dc="http://purl.org/dc/elements/1.1/"
   xmlns:cc="http://creativecommons.org/ns#"
   xmlns:rdf="http://www.w3.org/1999/02/22-rdf-syntax-ns#"
   xmlns:svg="http://www.w3.org/2000/svg"
   xmlns="http://www.w3.org/2000/svg"
   xmlns:sodipodi="http://sodipodi.sourceforge.net/DTD/sodipodi-0.dtd"
   xmlns:inkscape="http://www.inkscape.org/namespaces/inkscape"
   viewBox="0 0 1000 560"
   version="1.1"
   id="svg21"
   sodipodi:docname="fangs.svg"
   width="1000"
   height="560"
   inkscape:version="0.92.1 r15371">
  <metadata
     id="metadata25">
    <rdf:RDF>
      <cc:Work
         rdf:about="">
        <dc:format>image/svg+xml</dc:format>
        <dc:type
           rdf:resource="http://purl.org/dc/dcmitype/StillImage" />
        <dc:title></dc:title>
      </cc:Work>
    </rdf:RDF>
  </metadata>
  <sodipodi:namedview
     pagecolor="#334033"
     bordercolor="#666666"
     borderopacity="1"
     objecttolerance="10"
     gridtolerance="10"
     guidetolerance="10"
     inkscape:pageopacity="1"
     inkscape:pageshadow="2"
     inkscape:window-width="3840"
     inkscape:window-height="2004"
     id="namedview23"
     showgrid="false"
     inkscape:zoom="0.4609375"
     inkscape:cx="256"
     inkscape:cy="256"
     inkscape:window-x="-16"
     inkscape:window-y="-16"
     inkscape:window-maximized="1"
     inkscape:current-layer="svg21" />
  <defs
     id="defs13">
    <filter
       id="shadow-1"
       height="3"
       width="3"
       x="-1"
       y="-1">
      <feFlood
         flood-color="#0f0"
         result="flood"
         id="feFlood2" />
      <feComposite
         in="flood"
         in2="SourceGraphic"
         operator="atop"
         result="composite"
         id="feComposite4" />
      <feGaussianBlur
         in="composite"
         stdDeviation="15"
         result="blur"
         id="feGaussianBlur6" />
      <feOffset
         result="offset"
         id="feOffset8" />
      <feComposite
         in="SourceGraphic"
         in2="offset"
         operator="over"
         id="feComposite10" />
    </filter>
  </defs>
  <g
     class=""
     transform="translate(249.49153,13.118644)"
     id="g19">
    <path
       d="m 169.57,106.12 c -1.882,-14.48 -28.184,-30.424 -41.092,-30.424 -2.54,0 -4.56,0.612 -5.773,1.974 -21.81,24.385 14.225,81.262 14.225,81.262 0,0 35.746,-28.785 32.64,-52.812 z m 128.832,60.524 c 0,0 34.315,-54.186 13.544,-77.36 -1.155,-1.292 -3.083,-1.88 -5.496,-1.88 -12.308,0 -37.352,15.183 -39.142,28.98 -2.967,22.78 31.094,50.26 31.094,50.26 z m -53.724,-50.352 c -1.79,-13.798 -26.845,-28.98 -39.14,-28.98 -2.414,0 -4.343,0.588 -5.497,1.88 -20.782,23.22 13.544,77.36 13.544,77.36 0,0 34.06,-27.387 31.094,-50.26 z M 58.128,58.896 a 16.546,16.546 0 0 0 -1.664,0.08 c -87.75,8.937 11.373,286.056 40.55,304.484 0,0 -16.984,-151.636 2.795,-244.236 C 107.047,85.117 75.803,58.896 58.126,58.896 Z m 397.394,0.08 a 16.465,16.465 0 0 0 -1.663,-0.08 c -17.678,0 -48.968,26.198 -41.682,60.328 19.778,92.6 2.794,244.236 2.794,244.236 29.223,-18.416 128.312,-295.535 40.55,-304.483 z m -72.013,16.72 c -12.92,0 -39.258,15.945 -41.094,30.424 -3.106,23.97 32.652,52.823 32.652,52.823 0,0 36.024,-56.888 14.225,-81.26 -1.224,-1.375 -3.244,-1.987 -5.784,-1.987 z m -148.3,348.98 c -2.032,-11.37 -25.598,-35.353 -25.598,-35.353 0,0 -20.54,23.97 -20.32,33.727 0,2.147 -1.155,23.092 2.03,26 2.876,2.645 12.84,4.043 22.62,4.043 9.468,0 18.75,-1.305 21.268,-4.042 2.31,-2.47 0.335,-22.733 0,-24.373 z m -60.04,-24.35 c -12.065,-20.69 -19.155,-51.01 -23.092,-73.733 -3.094,-17.966 -4.19,-31.174 -4.19,-31.174 -15.127,11.81 -44.292,137.675 2.54,137.675 a 30.02,30.02 0 0 0 4.952,-0.428 c 4.62,-0.762 10.46,-4.295 15.01,-9.236 5.935,-6.43 9.456,-15.17 4.78,-23.103 z m 188.85,-104.93 c 0,0 -1.006,12.03 -3.777,28.738 -3.81,22.965 -10.98,54.74 -23.485,76.204 -3.764,6.466 -2.136,13.417 1.744,19.236 4.618,6.86 12.308,12.135 18.035,13.082 a 30.124,30.124 0 0 0 4.953,0.427 c 46.912,-0.046 17.677,-125.91 2.563,-137.734 z m -41.406,127.7 c 0.22,-9.757 -20.32,-33.726 -20.32,-33.726 0,0 -23.532,23.935 -25.518,35.307 -0.254,1.444 -2.563,21.592 0,24.386 2.564,2.794 11.812,4.04 21.268,4.04 9.78,0 19.744,-1.396 22.62,-4.04 4.387,-4.088 1.962,-25.286 1.985,-26.002 z m -143.726,5.496 0.243,0.115 v -0.44 z"
       id="path17"
       inkscape:connector-curvature="0"
       style="fill:#00ff00;filter:url(#shadow-1)" />
  </g>
  <!-- react-empty: 6 -->
</svg>
