<?xml version="1.0" encoding="UTF-8" standalone="no"?>
<svg
   xmlns:osb="http://www.openswatchbook.org/uri/2009/osb"
   xmlns:dc="http://purl.org/dc/elements/1.1/"
   xmlns:cc="http://creativecommons.org/ns#"
   xmlns:rdf="http://www.w3.org/1999/02/22-rdf-syntax-ns#"
   xmlns:svg="http://www.w3.org/2000/svg"
   xmlns="http://www.w3.org/2000/svg"
   xmlns:sodipodi="http://sodipodi.sourceforge.net/DTD/sodipodi-0.dtd"
   xmlns:inkscape="http://www.inkscape.org/namespaces/inkscape"
   viewBox="0 0 512 512"
   style="height: 512px; width: 512px;"
   id="svg2"
   version="1.1"
   inkscape:version="0.91 r13725"
   sodipodi:docname="favicon.svg">
  <metadata
     id="metadata14">
    <rdf:RDF>
      <cc:Work
         rdf:about="">
        <dc:format>image/svg+xml</dc:format>
        <dc:type
           rdf:resource="http://purl.org/dc/dcmitype/StillImage" />
        <dc:title />
      </cc:Work>
    </rdf:RDF>
  </metadata>
  <defs
     id="defs12">
    <linearGradient
       id="linearGradient5579"
       osb:paint="solid">
      <stop
         style="stop-color:#0088aa;stop-opacity:1;"
         offset="0"
         id="stop5581" />
    </linearGradient>
  </defs>
  <sodipodi:namedview
     pagecolor="#ffffff"
     bordercolor="#666666"
     borderopacity="1"
     objecttolerance="10"
     gridtolerance="10"
     guidetolerance="10"
     inkscape:pageopacity="0"
     inkscape:pageshadow="2"
     inkscape:window-width="1536"
     inkscape:window-height="801"
     id="namedview10"
     showgrid="false"
     inkscape:zoom="0.4609375"
     inkscape:cx="-113.89831"
     inkscape:cy="256"
     inkscape:window-x="-8"
     inkscape:window-y="-8"
     inkscape:window-maximized="1"
     inkscape:current-layer="svg2" />
  <ellipse
     style="opacity:1;fill:#003380;fill-opacity:1;stroke:#000000;stroke-width:2.61351442;stroke-miterlimit:4;stroke-dasharray:none;stroke-opacity:1"
     id="path4142"
     cx="257.08478"
     cy="259.25424"
     rx="235.58308"
     ry="237.75255" />
  <g
     class=""
     transform="matrix(0.88928027,0,0,0.93010168,37.912821,40.47039)"
     id="g6">
    <path
       d="m 150.156,82.406 c -1.843,0.092 -3.663,0.446 -5.344,1.063 L 41.094,121.53 c -4.483,1.645 -8.493,5.357 -10.5,9.69 -2.007,4.33 -2.238,9.798 -0.594,14.28 l 66.72,181.875 c 1.643,4.482 5.354,8.524 9.686,10.53 4.332,2.008 9.8,2.24 14.28,0.595 l 103.72,-38.063 c 4.483,-1.644 8.493,-5.355 10.5,-9.687 l 0.03,-0.063 c 1.982,-4.322 2.2,-9.757 0.564,-14.218 L 168.78,94.593 c -1.635,-4.46 -5.318,-8.484 -9.624,-10.5 l -0.062,-0.03 c -2.166,-1.005 -4.623,-1.556 -7.094,-1.658 -0.618,-0.025 -1.23,-0.03 -1.844,0 z m 39.064,13.624 63.843,174 c 3.41,9.3 2.975,19.61 -1.188,28.595 -4.163,8.986 -11.734,15.965 -21.03,19.375 l -27.44,10.063 60,2.78 c 4.77,0.223 9.91,-1.66 13.44,-4.874 3.528,-3.217 5.87,-8.17 6.092,-12.94 l 9,-193.5 c 0.222,-4.768 -1.628,-9.938 -4.843,-13.468 -3.216,-3.53 -8.168,-5.87 -12.938,-6.093 l -84.937,-3.94 z m 121,33.25 -8.626,184.626 c -0.46,9.893 -4.836,19.237 -12.156,25.906 -7.32,6.67 -17.014,10.148 -26.907,9.688 l -26.06,-1.22 69.374,23.095 c 4.53,1.507 10.012,1.107 14.28,-1.03 4.27,-2.14 7.838,-6.283 9.345,-10.814 l 61.155,-183.81 c 1.507,-4.532 1.107,-10.013 -1.03,-14.282 -2.14,-4.27 -6.283,-7.87 -10.814,-9.375 l -68.56,-22.782 z m -205.064,18.345 c 24.458,24.936 68.02,17.74 80.75,45.53 11.875,25.927 -14.51,46.006 -37.97,38.407 l 17,30.782 -18.78,6.906 -10.937,-31.688 c -10.39,22.624 -43.053,23.746 -54.157,-0.53 -13.53,-29.577 24.02,-54.2 24.093,-89.407 z m 301.438,39.22 -59.374,178.592 c -3.127,9.397 -9.865,17.19 -18.72,21.625 l -0.094,0.03 c -8.834,4.396 -19.07,5.116 -28.437,2 l -20.376,-6.78 43.312,37.03 c 3.63,3.102 8.865,4.78 13.625,4.407 4.76,-0.374 9.618,-2.84 12.72,-6.47 l 125.875,-147.31 c 3.102,-3.63 4.78,-8.835 4.406,-13.595 -0.372,-4.76 -2.87,-9.648 -6.5,-12.75 l -66.436,-56.78 z"
       id="path8"
       inkscape:connector-curvature="0"
       style="fill:#ffffff" />
  </g>
  <!-- react-empty: 6 -->
</svg>
