<?xml version="1.0" encoding="UTF-8" standalone="no"?>
<svg
   xmlns:dc="http://purl.org/dc/elements/1.1/"
   xmlns:cc="http://creativecommons.org/ns#"
   xmlns:rdf="http://www.w3.org/1999/02/22-rdf-syntax-ns#"
   xmlns:svg="http://www.w3.org/2000/svg"
   xmlns="http://www.w3.org/2000/svg"
   xmlns:sodipodi="http://sodipodi.sourceforge.net/DTD/sodipodi-0.dtd"
   xmlns:inkscape="http://www.inkscape.org/namespaces/inkscape"
   viewBox="0 0 1000 560"
   version="1.1"
   id="svg8"
   sodipodi:docname="field-gun.svg"
   width="1000"
   height="560"
   inkscape:version="0.92.1 r15371"
   inkscape:export-filename="C:\Users\William\Documents\Dev\Games\ccg\ccgclient\src\assets\png\field-gun.png"
   inkscape:export-xdpi="240"
   inkscape:export-ydpi="240">
  <metadata
     id="metadata14">
    <rdf:RDF>
      <cc:Work
         rdf:about="">
        <dc:format>image/svg+xml</dc:format>
        <dc:type
           rdf:resource="http://purl.org/dc/dcmitype/StillImage" />
        <dc:title></dc:title>
      </cc:Work>
    </rdf:RDF>
  </metadata>
  <defs
     id="defs12" />
  <sodipodi:namedview
     pagecolor="#ffffff"
     bordercolor="#666666"
     borderopacity="1"
     objecttolerance="10"
     gridtolerance="10"
     guidetolerance="10"
     inkscape:pageopacity="0"
     inkscape:pageshadow="2"
     inkscape:window-width="3840"
     inkscape:window-height="2004"
     id="namedview10"
     showgrid="true"
     inkscape:zoom="0.921875"
     inkscape:cx="434.88311"
     inkscape:cy="268.63604"
     inkscape:window-x="-16"
     inkscape:window-y="-16"
     inkscape:window-maximized="1"
     inkscape:current-layer="svg8">
    <inkscape:grid
       type="xygrid"
       id="grid4491" />
  </sodipodi:namedview>
  <path
     d="M 0,0 H 1000 V 560 H 0 Z"
     id="path2"
     inkscape:connector-curvature="0"
     style="fill:#9b9b9b;stroke-width:1.46158493" />
  <g
     class=""
     id="g6"
     transform="matrix(1.3799261,0,0,1.3799261,144.16398,-155.75184)">
    <path
       d="m 269.188,155.574 -16.644,6.852 112,272 16.644,-6.852 z m 192.825,34.781 -136.733,56.301 13.71,33.29 136.73,-56.301 z m -13.117,62.456 -103.35,43.06 6.585,14.94 86.545,-36.133 z m -172.44,13.95 -86.443,35.594 8.162,19.823 a 90.276,90.276 0 0 0 -10.62,7.736 c -26.465,22.463 -38.002,55.997 -39.413,82.63 l -128.286,47.975 6.02,16.964 140.055,-52.148 -0.065,-6.424 c -0.22,-22.04 10.067,-55.522 33.338,-75.273 21.751,-18.462 66.699,-30.458 106.637,-5.514 C 276.332,266.8 286.63,293.047 276.456,266.763 Z M 256.866,342 c -40.21,0 -73,32.79 -73,73 0,40.21 32.79,73 73,73 40.21,0 73,-32.79 73,-73 0,-40.21 -32.79,-73 -73,-73 z m 0,18 c 30.482,0 55,24.518 55,55 0,30.482 -24.518,55 -55,55 -30.482,0 -55,-24.518 -55,-55 0,-30.482 24.518,-55 55,-55 z m 1,21 c -18.119,0 -33,14.881 -33,33 0,18.119 14.881,33 33,33 18.119,0 33,-14.881 33,-33 0,-18.119 -14.881,-33 -33,-33 z"
       id="path4"
       inkscape:connector-curvature="0"
       style="fill:#131210" />
  </g>
  <!-- react-empty: 6 -->
</svg>
