<?xml version="1.0" encoding="UTF-8" standalone="no"?>
<svg
   xmlns:dc="http://purl.org/dc/elements/1.1/"
   xmlns:cc="http://creativecommons.org/ns#"
   xmlns:rdf="http://www.w3.org/1999/02/22-rdf-syntax-ns#"
   xmlns:svg="http://www.w3.org/2000/svg"
   xmlns="http://www.w3.org/2000/svg"
   xmlns:sodipodi="http://sodipodi.sourceforge.net/DTD/sodipodi-0.dtd"
   xmlns:inkscape="http://www.inkscape.org/namespaces/inkscape"
   viewBox="0 0 1000 560"
   version="1.1"
   id="svg21"
   sodipodi:docname="fragrance.svg"
   width="1000"
   height="560"
   inkscape:version="0.92.1 r15371"
   inkscape:export-filename="C:\Users\William\Documents\Dev\Games\ccg\ccgclient\src\assets\png\fragrance.png"
   inkscape:export-xdpi="240"
   inkscape:export-ydpi="240">
  <metadata
     id="metadata25">
    <rdf:RDF>
      <cc:Work
         rdf:about="">
        <dc:format>image/svg+xml</dc:format>
        <dc:type
           rdf:resource="http://purl.org/dc/dcmitype/StillImage" />
        <dc:title></dc:title>
      </cc:Work>
    </rdf:RDF>
  </metadata>
  <sodipodi:namedview
     pagecolor="#334033"
     bordercolor="#666666"
     borderopacity="1"
     objecttolerance="10"
     gridtolerance="10"
     guidetolerance="10"
     inkscape:pageopacity="1"
     inkscape:pageshadow="2"
     inkscape:window-width="3840"
     inkscape:window-height="2004"
     id="namedview23"
     showgrid="false"
     inkscape:zoom="1.84375"
     inkscape:cx="457.75159"
     inkscape:cy="251.96042"
     inkscape:window-x="-16"
     inkscape:window-y="-16"
     inkscape:window-maximized="1"
     inkscape:current-layer="svg21" />
  <defs
     id="defs13">
    <filter
       id="shadow-1"
       height="3"
       width="3"
       x="-1"
       y="-1">
      <feFlood
         flood-color="#0f0"
         result="flood"
         id="feFlood2" />
      <feComposite
         in="flood"
         in2="SourceGraphic"
         operator="atop"
         result="composite"
         id="feComposite4" />
      <feGaussianBlur
         in="composite"
         stdDeviation="15"
         result="blur"
         id="feGaussianBlur6" />
      <feOffset
         result="offset"
         id="feOffset8" />
      <feComposite
         in="SourceGraphic"
         in2="offset"
         operator="over"
         id="feComposite10" />
    </filter>
  </defs>
  <g
     class=""
     transform="translate(248.03389,-20.508475)"
     id="g19">
    <path
       d="m 231.645,20.488 c -20.69,8.84 -38.014,18.377 -51.856,28.223 -0.156,-6.016 -5.073,-10.85 -11.128,-10.85 -6.152,0 -11.14,4.988 -11.14,11.14 0,5.174 3.533,9.513 8.314,10.766 -36.054,32.193 -35.402,66.126 7.076,89.08 -1.02,2.088 -1.61,4.425 -1.61,6.906 0,8.716 7.068,15.783 15.784,15.783 6.967,0 12.87,-4.52 14.963,-10.785 19.075,5.936 42.643,10.463 70.93,13.13 0.657,0.063 1.306,0.133 1.96,0.198 61.806,10.37 76.9,45.655 66.06,85.117 27.126,-22.623 28.948,-44.287 18.38,-62.88 34.483,19.89 33.625,50.662 -36.59,87.435 10.135,0.36 19.835,0.414 29.087,0.186 66.92,-11.71 77.4,-46.377 58.684,-62.34 47.91,6.44 41.262,36.17 8.21,53.65 35.227,-9.873 53.265,-27.65 48.05,-51.422 3.034,-1.99 5.04,-5.417 5.04,-9.316 0,-6.152 -4.987,-11.14 -11.14,-11.14 -1.27,0 -2.486,0.222 -3.624,0.614 -2.72,-4.334 -5.435,-8.16 -8.18,-11.544 -3.162,-3.598 -6.754,-7.282 -10.76,-11.045 -9.925,-8.322 -20.794,-12.855 -34.16,-17.14 -23.02,-7.382 -53.336,-12.837 -92.652,-31.956 -53.474,-23.85 -58.654,-43.222 -33.834,-58.22 1.025,5.093 5.524,8.93 10.92,8.93 6.152,0 11.14,-4.99 11.14,-11.142 0,-2.553 -0.87,-4.898 -2.314,-6.777 41.773,-14.924 117.26,-24.23 199.724,-28.057 V 20.49 H 231.645 Z M 129.86,49.615 c -5.838,0 -10.62,4.493 -11.094,10.207 -0.672,-0.098 -1.354,-0.166 -2.053,-0.166 -7.826,0 -14.17,6.346 -14.17,14.172 0,7.826 6.344,14.17 14.17,14.17 7.826,0 14.17,-6.344 14.17,-14.17 0,-0.672 -0.062,-1.33 -0.153,-1.976 5.744,-0.446 10.268,-5.238 10.268,-11.096 0,-6.152 -4.986,-11.14 -11.14,-11.14 z m 356.624,1.97 c -79.575,-0.35 -175.28,17.336 -167.953,54.42 -4.79,1.247 -8.333,5.59 -8.333,10.77 0,6.153 4.99,11.14 11.14,11.14 4.64,0 8.617,-2.838 10.292,-6.872 31.273,13.618 55.956,18.32 78.073,25.412 0.53,0.17 1.05,0.355 1.578,0.53 -3.853,-16.51 4.33,-33.433 25.064,-44.604 1.39,4.57 5.635,7.895 10.658,7.895 6.152,0 11.14,-4.986 11.14,-11.138 0,-1.692 -0.387,-3.29 -1.062,-4.727 11.237,-2.98 24.51,-4.76 39.9,-4.904 V 51.74 c -3.46,-0.086 -6.962,-0.138 -10.496,-0.154 z M 233.742,55.3 c -29.453,24.135 -33.892,78.445 46.295,91.235 -50.294,11.002 -83.52,-8.546 -93.103,-32.514 0.81,0.19 1.65,0.296 2.515,0.296 6.15,0 11.14,-4.986 11.14,-11.138 0,-6.153 -4.99,-11.14 -11.14,-11.14 -1.723,0 -3.348,0.4 -4.804,1.1 3.072,-17.085 18.668,-32.697 49.096,-37.84 z m 239.442,55.3 c -6.153,0 -11.14,4.988 -11.14,11.14 0,4.355 2.505,8.115 6.147,9.947 -0.994,1.982 -1.567,4.214 -1.567,6.583 0,8.125 6.587,14.71 14.71,14.71 8.125,0 14.714,-6.585 14.714,-14.71 0,-7.17 -5.135,-13.135 -11.926,-14.44 0.13,-0.677 0.204,-1.375 0.204,-2.09 0,-6.153 -4.988,-11.14 -11.14,-11.14 z m -350.18,9.308 c -6.152,0 -11.14,4.99 -11.14,11.14 0,6.153 4.988,11.14 11.14,11.14 6.152,0 11.14,-4.987 11.14,-11.14 0,-6.152 -4.988,-11.14 -11.14,-11.14 z m 317.238,6.447 c -6.152,0 -11.14,4.987 -11.14,11.14 0,6.15 4.988,11.14 11.14,11.14 6.152,0 11.14,-4.99 11.14,-11.14 0,-6.153 -4.988,-11.14 -11.14,-11.14 z m -193.35,60.15 c -6.152,0 -11.14,4.987 -11.14,11.14 0,6.152 4.988,11.14 11.14,11.14 6.153,0 11.14,-4.988 11.14,-11.14 0,-6.153 -4.987,-11.14 -11.14,-11.14 z m -57.01,24.407 c -0.74,-0.028 -1.49,-0.025 -2.25,0.008 -2.023,0.088 -4.118,0.392 -6.286,0.898 -8.675,2.024 -18.16,7.71 -26.037,16.237 l -4.244,4.59 -5.86,-2.167 c -14.527,-5.37 -22.593,-3.663 -26.417,-0.644 -3.825,3.02 -6.157,9.336 -4.257,20.078 2.157,12.19 10.328,28.35 25.082,44.588 12.768,-16.185 32.53,-26.62 54.66,-26.62 9.317,0 18.21,1.86 26.346,5.208 0.405,-31.986 -7.51,-49.643 -16.565,-56.858 -4.296,-3.422 -8.998,-5.124 -14.174,-5.318 z m 105.425,22.582 c -7.717,-0.06 -17.306,1.996 -27.46,7.297 -12.956,6.764 -26.685,18.603 -38.585,36.582 14.012,8.196 24.936,21.133 30.52,36.596 29.35,-20.23 45.412,-38.237 51.81,-51.372 3.805,-7.813 4.304,-13.638 3.44,-17.57 -0.866,-3.933 -2.865,-6.51 -6.634,-8.633 -2.826,-1.593 -6.8,-2.644 -11.574,-2.86 -0.497,-0.022 -1.003,-0.035 -1.517,-0.04 z M 468.46,277.04 c -6.15,0 -11.14,4.987 -11.14,11.14 0,6.152 4.99,11.138 11.14,11.138 6.153,0 11.14,-4.986 11.14,-11.138 0,-6.153 -4.987,-11.14 -11.14,-11.14 z m -401.887,7.03 c -12.2,0.132 -20.13,2.703 -24.13,5.47 -4.003,2.77 -4.84,4.915 -4.588,8.792 0.505,7.754 11.362,23.518 34.646,35.738 13.916,7.304 31.904,13.47 53.502,17.024 -0.877,-4.4 -1.346,-8.944 -1.346,-13.594 0,-9.1 1.78,-17.796 4.983,-25.777 -6.67,-6.793 -12.36,-13.73 -17.08,-20.66 -19.05,-5.045 -34.38,-7.12 -45.988,-6.993 z m 127.703,2.506 c -5.13,0 -10.07,0.758 -14.73,2.152 l 4.152,34.88 -25.707,-21.913 c -8.914,9.034 -14.444,21.405 -14.62,35.13 l 34.396,4.087 -28.407,20.688 c 6.848,12.8 19.008,22.277 33.583,25.56 l 10.768,-35.873 15.51,34.93 c 14.567,-4.43 26.315,-15.178 32.09,-29.092 l -27.103,-13.975 30.857,-9.203 c -0.753,-11.04 -4.974,-21.084 -11.605,-29.054 l -27.01,17.357 7.558,-31.738 c -6.062,-2.533 -12.726,-3.934 -19.733,-3.934 z m 128.774,17.436 c -1.24,-0.002 -2.512,0.032 -3.814,0.103 -6.348,0.35 -13.44,1.618 -21.21,4.065 -9.32,8.29 -20.664,16.88 -34.22,25.748 0.06,1.183 0.09,2.374 0.09,3.572 0,14.957 -4.776,28.83 -12.86,40.2 31.408,12.195 57.268,19.153 77.273,21.913 24.497,3.38 40.48,0.482 47.903,-3.756 3.71,-2.12 5.303,-4.235 6.074,-6.317 0.77,-2.082 0.862,-4.568 -0.377,-8.076 -2.478,-7.017 -11.105,-17.17 -26.283,-25.88 l -10.477,-6.01 8.45,-8.632 c 5.392,-5.508 6.526,-11.094 5.078,-16.8 -1.448,-5.703 -6.014,-11.707 -14.34,-15.74 -5.464,-2.645 -12.61,-4.382 -21.29,-4.39 z M 86.76,360.516 c -8.795,2.64 -16.58,5.424 -23.354,8.3 -22.97,9.753 -34.525,20.675 -37.85,27.774 -1.662,3.55 -1.65,5.87 -0.906,8.11 0.746,2.237 2.57,4.755 6.303,7.232 7.467,4.952 22.298,8.71 41.99,7.242 l 14.62,-1.09 -5.186,13.713 c -6.277,16.594 -3.912,26.063 0.665,31.394 4.577,5.333 13.265,8.087 24.54,5.99 21.045,-3.915 48.297,-25.026 56.038,-69.205 -12.78,-6.308 -23.36,-16.42 -30.258,-28.846 -17.34,-2.126 -32.928,-5.824 -46.603,-10.614 z m 150.21,31.888 c -5.4,4.213 -11.43,7.65 -17.927,10.14 19.73,36.77 38.192,60.258 53.092,72.876 9.516,8.06 17.496,11.62 22.748,12.367 5.252,0.748 7.575,-0.363 9.945,-3.14 4.74,-5.556 7.29,-23.453 -2.164,-47.475 -3.312,-8.416 -7.985,-17.506 -14.125,-26.985 -15.45,-4.288 -32.62,-10.147 -51.567,-17.783 z m -55.44,13.526 c -4.556,23.238 -14.088,41.612 -26.01,55.068 1.023,3.767 2.212,7.158 3.54,10.16 8.382,18.94 19.942,23.523 31.57,21.207 11.626,-2.316 24.605,-13.56 30.714,-33.63 1.072,-3.525 1.923,-7.32 2.51,-11.368 -7.766,-11.55 -15.728,-24.997 -23.823,-40.5 -1.9,0.157 -3.815,0.258 -5.755,0.258 -4.353,0 -8.61,-0.424 -12.746,-1.195 z"
       id="path17"
       inkscape:connector-curvature="0"
       style="fill:#00ff00;filter:url(#shadow-1)" />
  </g>
  <!-- react-empty: 13 -->
</svg>
