<?xml version="1.0" encoding="UTF-8" standalone="no"?>
<svg
   xmlns:dc="http://purl.org/dc/elements/1.1/"
   xmlns:cc="http://creativecommons.org/ns#"
   xmlns:rdf="http://www.w3.org/1999/02/22-rdf-syntax-ns#"
   xmlns:svg="http://www.w3.org/2000/svg"
   xmlns="http://www.w3.org/2000/svg"
   xmlns:sodipodi="http://sodipodi.sourceforge.net/DTD/sodipodi-0.dtd"
   xmlns:inkscape="http://www.inkscape.org/namespaces/inkscape"
   viewBox="0 0 1000 560"
   version="1.1"
   id="svg8"
   sodipodi:docname="frankenstein-creature.svg"
   width="1000"
   height="560"
   inkscape:version="0.92.1 r15371"
   inkscape:export-filename="C:\Users\William\Documents\Dev\Games\ccg\ccgclient\src\assets\png\frankenstein-creature.png"
   inkscape:export-xdpi="240"
   inkscape:export-ydpi="240">
  <metadata
     id="metadata14">
    <rdf:RDF>
      <cc:Work
         rdf:about="">
        <dc:format>image/svg+xml</dc:format>
        <dc:type
           rdf:resource="http://purl.org/dc/dcmitype/StillImage" />
        <dc:title></dc:title>
      </cc:Work>
    </rdf:RDF>
  </metadata>
  <defs
     id="defs12" />
  <sodipodi:namedview
     pagecolor="#ffffff"
     bordercolor="#666666"
     borderopacity="1"
     objecttolerance="10"
     gridtolerance="10"
     guidetolerance="10"
     inkscape:pageopacity="0"
     inkscape:pageshadow="2"
     inkscape:window-width="3840"
     inkscape:window-height="2004"
     id="namedview10"
     showgrid="true"
     inkscape:zoom="1.3037281"
     inkscape:cx="474.62671"
     inkscape:cy="220.45497"
     inkscape:window-x="-16"
     inkscape:window-y="-16"
     inkscape:window-maximized="1"
     inkscape:current-layer="svg8">
    <inkscape:grid
       type="xygrid"
       id="grid4491" />
  </sodipodi:namedview>
  <path
     d="M 0,-20 H 1000 V 580 H 0 Z"
     id="path2"
     inkscape:connector-curvature="0"
     style="fill:#370661;fill-opacity:1;stroke:#ffffff;stroke-width:6.14759254" />
  <g
     class=""
     id="g6"
     transform="matrix(1.1897634,0,0,1.1897634,185.87067,-4.9684367)"
     style="fill:#f9f9f9">
    <path
       d="m 255.03,18.906 c -27.872,0 -53.334,14.366 -72.31,38.625 -4.504,5.757 -8.61,12.07 -12.265,18.847 l 22.856,1.55 16.27,-32.16 7.795,33.794 28.01,1.9 13.527,-30.103 8.844,31.62 26.535,1.8 9.505,-33.548 15.7,35.256 23.827,1.618 C 338.471,76.679 332.411,66.295 325.4,57.269 310.434,37.997 291.425,24.975 270.385,20.386 c -5.016,-0.975 -10.14,-1.48 -15.352,-1.48 z M 162.19,94.56 c -6.697,17.794 -10.502,37.84 -10.502,59.065 0,39.172 13.372,74.36 33.656,98.813 l 10.125,12.218 -0.677,0.127 c 16.8,15.398 36.98,24.15 58.617,24.15 27.744,0 53.088,-14.385 71.988,-38.722 18.9,-24.336 30.913,-58.52 30.913,-96.472 0,-16.34 -2.232,-31.98 -6.277,-46.437 l -30.926,-2.097 -9.142,32.268 -15.1,-33.91 -26.326,-1.787 -16.09,35.803 -10.518,-37.607 -25.883,-1.757 -16.892,33.387 -8.092,-35.082 -28.875,-1.96 z m -68.565,92.627 v 71.032 h 18.688 v -25.345 h 38.542 c -2.913,-5.98 -5.51,-12.22 -7.76,-18.688 h -30.782 v -27 H 93.624 Z m 295.406,0 v 27 h -21.497 c -2.15,6.463 -4.645,12.702 -7.467,18.688 h 28.965 v 25.344 h 18.69 v -71.033 h -18.69 z m -52.723,79.225 c -21.44,25.248 -50.626,41.21 -82.897,41.21 -31.14,0 -59.41,-14.863 -80.617,-38.59 -14.19,3.05 -26.44,6.908 -37.08,11.61 l 23.767,27.612 33.268,-4.828 -19.107,21.28 19.995,23.23 32.318,-11.088 -17.305,28.53 20.16,23.42 34.008,-15.92 -16.81,35.903 20.678,24.027 36.53,-17.104 -18.056,38.567 30.028,34.886 h 38.158 v -68.312 h 18.687 v 68.312 h 78.94 c -0.015,-65.304 -0.462,-117.143 -14.158,-153.094 -14.12,-37.066 -40.573,-59.58 -100.505,-69.65 z m -217.48,23.244 c -18.722,12.042 -31.002,28.007 -39.67,48.406 -15.068,35.456 -17.94,86.204 -18.188,151.094 h 79.093 v -68.312 h 18.687 v 68.312 h 131.79 l -21.476,-24.95 -26.986,12.636 13.34,-28.49 -24.232,-28.153 -29.508,13.814 14.586,-31.153 -20.97,-24.362 -36.68,12.584 19.642,-32.38 -17.918,-20.817 -43.81,6.357 25.16,-28.023 -22.862,-26.564 z"
       id="path4"
       inkscape:connector-curvature="0"
       style="fill:#f9f9f9" />
  </g>
  <!-- react-empty: 6 -->
</svg>
