<?xml version="1.0" encoding="UTF-8" standalone="no"?>
<svg
   xmlns:dc="http://purl.org/dc/elements/1.1/"
   xmlns:cc="http://creativecommons.org/ns#"
   xmlns:rdf="http://www.w3.org/1999/02/22-rdf-syntax-ns#"
   xmlns:svg="http://www.w3.org/2000/svg"
   xmlns="http://www.w3.org/2000/svg"
   xmlns:sodipodi="http://sodipodi.sourceforge.net/DTD/sodipodi-0.dtd"
   xmlns:inkscape="http://www.inkscape.org/namespaces/inkscape"
   viewBox="0 0 1000 560"
   version="1.1"
   id="svg21"
   sodipodi:docname="fruiting.svg"
   width="1000"
   height="560"
   inkscape:version="0.92.1 r15371"
   inkscape:export-filename="C:\Users\William\Documents\Dev\Games\ccg\ccgclient\src\assets\png\fruiting.png"
   inkscape:export-xdpi="240"
   inkscape:export-ydpi="240">
  <metadata
     id="metadata25">
    <rdf:RDF>
      <cc:Work
         rdf:about="">
        <dc:format>image/svg+xml</dc:format>
        <dc:type
           rdf:resource="http://purl.org/dc/dcmitype/StillImage" />
        <dc:title></dc:title>
      </cc:Work>
    </rdf:RDF>
  </metadata>
  <sodipodi:namedview
     pagecolor="#334033"
     bordercolor="#666666"
     borderopacity="1"
     objecttolerance="10"
     gridtolerance="10"
     guidetolerance="10"
     inkscape:pageopacity="1"
     inkscape:pageshadow="2"
     inkscape:window-width="3840"
     inkscape:window-height="2004"
     id="namedview23"
     showgrid="false"
     inkscape:zoom="0.4609375"
     inkscape:cx="256"
     inkscape:cy="256"
     inkscape:window-x="-16"
     inkscape:window-y="-16"
     inkscape:window-maximized="1"
     inkscape:current-layer="svg21" />
  <defs
     id="defs13">
    <filter
       id="shadow-1"
       height="3"
       width="3"
       x="-1"
       y="-1">
      <feFlood
         flood-color="#0f0"
         result="flood"
         id="feFlood2" />
      <feComposite
         in="flood"
         in2="SourceGraphic"
         operator="atop"
         result="composite"
         id="feComposite4" />
      <feGaussianBlur
         in="composite"
         stdDeviation="15"
         result="blur"
         id="feGaussianBlur6" />
      <feOffset
         result="offset"
         id="feOffset8" />
      <feComposite
         in="SourceGraphic"
         in2="offset"
         operator="over"
         id="feComposite10" />
    </filter>
  </defs>
  <g
     class=""
     transform="translate(253.83051,76.033898)"
     id="g19">
    <path
       d="m 183.625,18.625 c 14.87,30 48.802,61.854 94.625,69.813 -0.92,0.074 -1.844,0.157 -2.78,0.25 -120.804,11.912 -47.283,183.807 16.467,124.906 72.576,57.343 121.264,-114.676 8.75,-125.156 0.896,-1.462 1.836,-2.847 2.844,-4.157 9.85,-12.794 25.548,-19.246 42.876,-19.093 34.656,0.308 73.688,26.587 73.688,82.094 0,25.625 -6.817,44.11 -18.375,58.845 -11.56,14.736 -28.308,25.84 -48.876,34.688 -41.137,17.695 -96.796,25.78 -149.438,38.562 -6.806,1.653 -13.36,3.46 -19.687,5.406 1.525,-5.413 1.8,-11.35 0.374,-17.842 -3.726,-16.97 -17.056,-28.657 -35.78,-28.72 -6.243,-0.02 -13.09,1.268 -20.376,4.063 35.376,4.074 54.748,36.824 13.562,59.22 -38.89,19.51 -64.424,45.92 -77.063,75.688 C 48.583,414.532 53.69,456.16 75.812,493.16 H 223.25 c -39.562,-34.53 -49.422,-78.006 -30.063,-119.625 34.61,-56.74 113.376,-65.356 120.907,4.283 4.367,40.096 -32.934,42.928 -56.063,18.125 8.312,30.084 34.22,37.283 55.376,27.843 19.453,-8.68 22.78,-32.91 20.47,-51.342 -5.843,-46.6 -35.67,-68.998 -69.407,-68.25 -2.554,0.056 -5.13,0.272 -7.72,0.593 18.125,-12.167 39.6,-23.373 64.406,-33.217 13.658,-3.896 26.794,-8.317 39.063,-13.594 22.377,-9.628 42.07,-22.244 56.217,-40.283 0.05,-0.063 0.107,-0.123 0.157,-0.187 l 0.125,0.063 c 32.98,-36.512 60.553,-9.002 55.25,26.78 18.34,-25.255 9.634,-46.69 -10.94,-57.343 -9.6,-4.973 -18.7,-5.787 -27.124,-3.72 3.16,-10.856 4.875,-22.835 4.875,-36 0,-64.522 -47.85,-100.387 -92.186,-100.78 -22.168,-0.197 -44.005,8.353 -57.875,26.375 -0.322,0.417 -0.627,0.855 -0.94,1.28 -16.542,-41.594 -64.536,-55.71 -104.155,-55.53 z"
       id="path17"
       inkscape:connector-curvature="0"
       style="fill:#00ff00;filter:url(#shadow-1)" />
  </g>
  <!-- react-empty: 13 -->
</svg>
