<?xml version="1.0" encoding="UTF-8" standalone="no"?>
<svg
   xmlns:dc="http://purl.org/dc/elements/1.1/"
   xmlns:cc="http://creativecommons.org/ns#"
   xmlns:rdf="http://www.w3.org/1999/02/22-rdf-syntax-ns#"
   xmlns:svg="http://www.w3.org/2000/svg"
   xmlns="http://www.w3.org/2000/svg"
   xmlns:sodipodi="http://sodipodi.sourceforge.net/DTD/sodipodi-0.dtd"
   xmlns:inkscape="http://www.inkscape.org/namespaces/inkscape"
   viewBox="0 0 1000 560"
   version="1.1"
   id="svg8"
   sodipodi:docname="gargoyle.svg"
   width="1000"
   height="560"
   inkscape:version="0.92.1 r15371"
   inkscape:export-filename="C:\Users\William\Documents\Dev\Games\ccg\ccgclient\src\assets\png\gargoyle.png"
   inkscape:export-xdpi="96"
   inkscape:export-ydpi="96">
  <metadata
     id="metadata14">
    <rdf:RDF>
      <cc:Work
         rdf:about="">
        <dc:format>image/svg+xml</dc:format>
        <dc:type
           rdf:resource="http://purl.org/dc/dcmitype/StillImage" />
        <dc:title></dc:title>
      </cc:Work>
    </rdf:RDF>
  </metadata>
  <defs
     id="defs12" />
  <sodipodi:namedview
     pagecolor="#ffffff"
     bordercolor="#666666"
     borderopacity="1"
     objecttolerance="10"
     gridtolerance="10"
     guidetolerance="10"
     inkscape:pageopacity="0"
     inkscape:pageshadow="2"
     inkscape:window-width="3840"
     inkscape:window-height="2104"
     id="namedview10"
     showgrid="true"
     inkscape:zoom="0.4609375"
     inkscape:cx="256"
     inkscape:cy="256"
     inkscape:window-x="-16"
     inkscape:window-y="-16"
     inkscape:window-maximized="1"
     inkscape:current-layer="svg8">
    <inkscape:grid
       type="xygrid"
       id="grid4491" />
  </sodipodi:namedview>
  <path
     d="M 0,0 H 1020 V 560 H 0 Z"
     id="path2"
     style="fill:#370661;fill-opacity:1;stroke-width:1.47612846"
     inkscape:connector-curvature="0" />
  <g
     class=""
     transform="matrix(1.1354934,0,0,1.1354934,220.88549,16.288896)"
     id="g6">
    <path
       d="m 136.645,32.4 45.85,57.313 c 0.436,0.417 0.54,0.477 0.86,0.502 0.37,0.029 1.402,-0.067 3.026,-0.84 3.247,-1.546 8.209,-5.741 12.705,-11.137 4.496,-5.395 8.695,-11.924 11.615,-17.763 1.125,-2.25 1.821,-4.266 2.498,-6.202 z m 238.71,0 -76.554,21.873 c 0.677,1.936 1.373,3.953 2.498,6.202 2.92,5.84 7.119,12.368 11.615,17.763 4.496,5.396 9.458,9.59 12.705,11.137 1.624,0.773 2.657,0.869 3.026,0.84 0.32,-0.025 0.424,-0.085 0.86,-0.502 z M 97.283,48.48 C 82.865,73.02 65.837,88.542 38.977,102.46 24.999,131.963 21.198,169.297 24.943,203.005 c 2.989,26.896 11.055,51.29 20.756,67.146 0.696,-2.358 1.43,-4.493 2.024,-7.15 2.048,-9.166 3.736,-19.319 6.675,-27.793 1.47,-4.237 3.094,-8.205 6.602,-11.74 3.508,-3.535 10.54,-5.56 15.85,-3.678 5.31,1.882 9.066,5.553 13.232,10.668 1.06,1.3 2.21,3.066 3.313,4.6 6.694,-17.853 14.224,-29.296 23.959,-35.61 6.379,-4.138 13.982,-5.452 20.753,-3.998 5.075,1.09 9.627,3.437 13.803,6.512 10.199,-7.09 23.028,-11.26 36.111,-13.957 -7.337,-9.01 -13.987,-17.245 -18.384,-21.643 l -3.276,-3.275 3.899,-23.39 c -17.409,-9.155 -34.717,-19.446 -52.555,-30.835 1.778,7.223 3.063,14.662 3.309,22.366 0.522,16.393 -4.227,33.921 -18.108,50.54 L 89.094,170.23 c 11.34,-13.578 14.34,-25.596 13.931,-38.427 -0.273,-8.589 -2.356,-17.57 -5.119,-26.907 -5.357,5.364 -11.082,10.912 -17.11,15.987 C 70.733,129.359 60.5,136.998 48,136.998 v -17.996 c 3.5,0 12.268,-4.36 21.203,-11.885 8.935,-7.524 18.301,-17.348 26.434,-25.48 l 5.217,-5.217 6.138,4.092 c 23.195,15.463 44.851,28.947 66.377,40.535 l 2.592,-15.549 C 146.282,90.801 117.171,72.04 97.283,48.478 Z m 317.434,0 c -19.888,23.561 -49,42.322 -78.678,57.02 l 2.592,15.548 c 21.526,-11.588 43.182,-25.072 66.377,-40.535 l 6.138,-4.092 5.217,5.217 c 8.133,8.132 17.5,17.956 26.434,25.48 8.935,7.524 17.702,11.885 21.203,11.885 v 17.996 c -12.5,0 -22.732,-7.64 -32.797,-16.115 -6.027,-5.075 -11.752,-10.623 -17.11,-15.987 -2.762,9.336 -4.845,18.318 -5.118,26.907 -0.41,12.83 2.59,24.85 13.931,38.427 l -13.812,11.54 c -13.881,-16.62 -18.63,-34.148 -18.108,-50.541 0.246,-7.704 1.53,-15.143 3.309,-22.366 -17.838,11.389 -35.146,21.68 -52.555,30.834 l 3.899,23.39 -3.276,3.276 c -4.397,4.398 -11.047,12.632 -18.384,21.643 13.083,2.697 25.912,6.866 36.11,13.957 4.177,-3.075 8.729,-5.422 13.804,-6.512 6.771,-1.454 14.374,-0.14 20.753,3.998 9.735,6.314 17.265,17.757 23.96,35.61 1.102,-1.534 2.253,-3.3 3.312,-4.6 4.166,-5.115 7.923,-8.786 13.232,-10.668 5.31,-1.882 12.342,0.143 15.85,3.678 3.508,3.535 5.132,7.503 6.602,11.74 2.939,8.474 4.627,18.627 6.675,27.793 0.594,2.657 1.328,4.792 2.024,7.15 9.7,-15.856 17.767,-40.25 20.756,-67.146 3.745,-33.708 -0.056,-71.042 -14.034,-100.545 C 446.163,88.543 429.135,73.022 414.717,48.48 Z M 247.002,59.525 228.93,64.043 a 120.019,120.019 0 0 1 -2.131,4.482 c -3.58,7.16 -8.381,14.632 -13.885,21.237 -5.485,6.582 -11.503,12.368 -18.723,15.826 l -8.595,51.58 c 8.541,9.282 18.82,22.822 29.236,34.975 a 306.945,306.945 0 0 0 3.725,4.255 l 17.119,-21.396 h 11.326 v -11.895 c -8.51,-1.493 -17.098,-4.736 -24.7,-7.81 -10.303,-4.167 -18.415,-8.338 -18.415,-8.338 l 8.226,-16.008 c 0,0 7.456,3.827 16.936,7.66 9.48,3.834 21.364,7.344 26.951,7.344 5.587,0 17.471,-3.51 26.951,-7.344 9.48,-3.833 16.936,-7.66 16.936,-7.66 l 8.226,16.008 c 0,0 -8.112,4.171 -18.416,8.338 -7.601,3.074 -16.189,6.317 -24.699,7.81 v 11.895 h 11.326 l 17.12,21.396 c 1.235,-1.388 2.476,-2.799 3.724,-4.255 10.417,-12.153 20.695,-25.693 29.236,-34.975 l -8.595,-51.58 c -7.22,-3.458 -13.238,-9.244 -18.723,-15.826 -5.504,-6.605 -10.305,-14.076 -13.885,-21.237 a 120.019,120.019 0 0 1 -2.13,-4.482 L 264.998,59.525 V 96 h -17.996 z m -2.678,133.473 -13.064,16.332 0.123,0.11 c 4.877,4.211 9.117,5.562 8.617,5.562 h 32 c -0.5,0 3.74,-1.35 8.617,-5.563 0.04,-0.034 0.083,-0.074 0.123,-0.109 l -13.064,-16.332 z m -43.086,10.94 c -1.89,0.28 -3.773,0.578 -5.629,0.916 -19.81,3.601 -35.87,10.742 -42.466,21.468 0.766,28.334 15.33,58.5 30.906,89.653 l 0.441,0.884 33.205,132.82 -19.658,29.489 28.008,-9.336 20.957,18.338 v -39.06 l -32,-128.004 V 320 c 0,-16 -1.607,-45.879 -13.365,-57.637 l 12.726,-12.726 c 17.055,17.055 18.589,43.786 18.65,61.365 h 45.973 c 0.062,-17.579 1.596,-44.31 18.65,-61.365 l 12.727,12.726 C 298.605,274.121 296.998,304 296.998,320 v 1.107 l -32,128.004 v 39.059 l 20.957,-18.338 28.008,9.336 -19.658,-29.488 33.205,-132.82 0.441,-0.885 c 15.577,-31.153 30.14,-61.319 30.906,-89.653 -6.597,-10.726 -22.657,-17.867 -42.466,-21.468 a 176.746,176.746 0 0 0 -5.63,-0.917 c -6.114,7.13 -12.278,13.855 -18.378,19.124 -6.123,5.288 -11.883,9.937 -20.383,9.937 h -32 c -8.5,0 -14.26,-4.65 -20.383,-9.937 -6.1,-5.269 -12.264,-11.993 -18.379,-19.124 z m -53.215,77.68 a 84.634,84.634 0 0 0 -3.345,1.57 c -8.107,4.037 -15.415,9.336 -20.022,14.31 -4.607,4.974 -5.759,9.089 -5.533,10.463 7.857,47.767 33.241,87.677 47.24,101.676 l 9.65,9.65 -52.76,21.104 32.21,1.039 -9.768,22.793 29.573,-8.344 9.863,10.203 13.174,-19.762 -30.803,-123.209 c -6.813,-13.62 -13.76,-27.427 -19.479,-41.494 z m 215.954,0 c -5.72,14.066 -12.666,27.873 -19.479,41.493 l -30.803,123.21 13.174,19.761 9.863,-10.203 29.573,8.344 -9.768,-22.793 32.21,-1.04 -52.76,-21.103 9.65,-9.65 c 13.999,-14 39.383,-53.909 47.24,-101.676 0.226,-1.374 -0.926,-5.489 -5.533,-10.463 -4.607,-4.974 -11.915,-10.273 -20.022,-14.31 a 84.634,84.634 0 0 0 -3.345,-1.57 z M 235.525,328.998 256,410.896 276.475,328.998 Z M 255.951,496 256,496.043 256.049,496 Z"
       id="path4"
       inkscape:connector-curvature="0"
       style="fill:#ffffff" />
  </g>
  <!-- react-empty: 6 -->
</svg>
