<?xml version="1.0" encoding="UTF-8" standalone="no"?>
<svg
   xmlns:dc="http://purl.org/dc/elements/1.1/"
   xmlns:cc="http://creativecommons.org/ns#"
   xmlns:rdf="http://www.w3.org/1999/02/22-rdf-syntax-ns#"
   xmlns:svg="http://www.w3.org/2000/svg"
   xmlns="http://www.w3.org/2000/svg"
   xmlns:sodipodi="http://sodipodi.sourceforge.net/DTD/sodipodi-0.dtd"
   xmlns:inkscape="http://www.inkscape.org/namespaces/inkscape"
   viewBox="0 0 1000 560"
   version="1.1"
   id="svg8"
   sodipodi:docname="gold-mine.svg"
   width="1000"
   height="560"
   inkscape:version="0.92.1 r15371"
   inkscape:export-filename="C:\Users\William\Documents\Dev\Games\ccg\ccgclient\src\assets\png\gold-mine.png"
   inkscape:export-xdpi="240"
   inkscape:export-ydpi="240">
  <metadata
     id="metadata14">
    <rdf:RDF>
      <cc:Work
         rdf:about="">
        <dc:format>image/svg+xml</dc:format>
        <dc:type
           rdf:resource="http://purl.org/dc/dcmitype/StillImage" />
        <dc:title />
      </cc:Work>
    </rdf:RDF>
  </metadata>
  <defs
     id="defs12" />
  <sodipodi:namedview
     pagecolor="#ffffff"
     bordercolor="#666666"
     borderopacity="1"
     objecttolerance="10"
     gridtolerance="10"
     guidetolerance="10"
     inkscape:pageopacity="0"
     inkscape:pageshadow="2"
     inkscape:window-width="3840"
     inkscape:window-height="2004"
     id="namedview10"
     showgrid="false"
     inkscape:zoom="0.4609375"
     inkscape:cx="-398.10169"
     inkscape:cy="256"
     inkscape:window-x="-16"
     inkscape:window-y="-16"
     inkscape:window-maximized="1"
     inkscape:current-layer="svg8" />
  <path
     d="M 0,-1.8983051 H 1010.9831 V 560 H 0 Z"
     id="path2"
     inkscape:connector-curvature="0"
     style="fill:#c9c9c9;stroke-width:1.47207808;fill-opacity:1" />
  <g
     class=""
     id="g6"
     transform="matrix(1.0924704,0,0,1.0924704,222.45871,-2.7909708)"
     style="fill:#000000">
    <path
       d="M 403.818,33.117 34.264,48.517 V 94.529 L 426.97,79.425 403.818,33.115 Z m -18.484,65.923 -30.408,1.17 9.78,185.806 38.554,-7.71 z m -135.152,5.198 -18.39,0.71 -2.694,15.61 -26.578,18.75 0.13,0.866 -0.273,-0.047 -3.063,17.738 6.188,1.07 4.617,30.395 31.532,5.445 14.543,-27.088 6.186,1.07 3.063,-17.74 -0.273,-0.046 0.416,-0.773 -18.75,-26.578 z m -77.444,2.98 -22.82,0.878 -39.47,54.775 -1.692,33.138 63.982,-88.79 z m -77.625,2.985 -31.275,1.203 -28.72,272.832 45.66,6.733 14.335,-280.767 z m 141.815,17.897 14.457,20.49 -34.947,-6.035 z m -20.516,32.718 28.87,4.985 -7.012,13.064 -19.63,-3.39 -2.228,-14.66 z M 437.12,289.89 360.686,305.178 315.696,290.18 286.99,318.883 h 169.457 z m -260.05,2.268 -9.42,20.725 h -16.386 v 18 h 8.205 l -7.275,16 h -22.93 v 18 h 14.75 l -8.183,18 h -26.568 v 18 h 18.386 l -13.636,30 h -24.75 v 18 h 16.568 l -8.762,19.275 16.387,7.45 12.147,-26.725 h 143.423 l -6.75,-18 H 133.785 l 13.637,-30 h 103.605 l -6.75,-18 h -88.673 l 8.18,-18 h 73.74 l -6.75,-18 h -58.807 l 7.273,-16 h 45.535 l -4.498,-12 h 41.258 l 6,-6 h -80.113 l 6.035,-13.276 -16.387,-7.45 z m 69.182,44.725 40.36,107.635 c 6.022,-8.242 15.748,-13.635 26.652,-13.635 11.916,0 22.43,6.438 28.234,16 h 55.53 c 5.804,-9.562 16.32,-16 28.236,-16 10.424,0 19.768,4.93 25.832,12.564 l 26.64,-106.564 z m 67.012,112 c -8.39,0 -15,6.61 -15,15 0,8.39 6.61,15 15,15 8.39,0 15,-6.61 15,-15 0,-8.39 -6.61,-15 -15,-15 z m 112,0 c -8.39,0 -15,6.61 -15,15 0,8.39 6.61,15 15,15 8.39,0 15,-6.61 15,-15 0,-8.39 -6.61,-15 -15,-15 z"
       id="path4"
       inkscape:connector-curvature="0"
       style="fill:#000000" />
  </g>
  <!-- react-empty: 6 -->
</svg>
