<?xml version="1.0" encoding="UTF-8" standalone="no"?>
<svg
   xmlns:dc="http://purl.org/dc/elements/1.1/"
   xmlns:cc="http://creativecommons.org/ns#"
   xmlns:rdf="http://www.w3.org/1999/02/22-rdf-syntax-ns#"
   xmlns:svg="http://www.w3.org/2000/svg"
   xmlns="http://www.w3.org/2000/svg"
   xmlns:sodipodi="http://sodipodi.sourceforge.net/DTD/sodipodi-0.dtd"
   xmlns:inkscape="http://www.inkscape.org/namespaces/inkscape"
   viewBox="0 0 1000 560"
   version="1.1"
   id="svg8"
   sodipodi:docname="grim-reaper.svg"
   width="1000"
   height="560"
   inkscape:export-filename="C:\Users\William\Documents\Dev\Games\ccg\ccgclient\src\assets\png\grim-reaper.png"
   inkscape:export-xdpi="240"
   inkscape:export-ydpi="240"
   inkscape:version="0.92.1 r15371">
  <metadata
     id="metadata14">
    <rdf:RDF>
      <cc:Work
         rdf:about="">
        <dc:format>image/svg+xml</dc:format>
        <dc:type
           rdf:resource="http://purl.org/dc/dcmitype/StillImage" />
        <dc:title></dc:title>
      </cc:Work>
    </rdf:RDF>
  </metadata>
  <defs
     id="defs12" />
  <sodipodi:namedview
     pagecolor="#370661"
     bordercolor="#666666"
     borderopacity="1"
     objecttolerance="10"
     gridtolerance="10"
     guidetolerance="10"
     inkscape:pageopacity="1"
     inkscape:pageshadow="2"
     inkscape:window-width="3840"
     inkscape:window-height="2104"
     id="namedview10"
     showgrid="false"
     inkscape:zoom="0.4609375"
     inkscape:cx="256"
     inkscape:cy="82.440678"
     inkscape:window-x="-16"
     inkscape:window-y="-16"
     inkscape:window-maximized="1"
     inkscape:current-layer="svg8" />
  <g
     class=""
     transform="matrix(1.1571282,0,0,1.1571282,196.29205,-7.7105989)"
     id="g6">
    <path
       d="m 246.53,21.03 c -62.334,0.34 -123.514,15.678 -165,39.44 l -6.155,2.06 c 19.528,58.267 48.163,98.687 80.938,132.376 l -1.72,67.47 64.5,30.437 c -19,58.985 -34.515,128.892 -50.405,197.656 h 191.125 c -10.308,-47.13 -20.516,-94.494 -32.157,-138.72 23.774,28.113 46.51,61.63 67.063,104.313 l 16.842,-8.094 c -22.568,-46.87 -47.938,-83.34 -74.312,-113.626 l 31.125,-24.28 -47.47,-104.377 48.22,-33.75 c -18.963,-35.457 -37.446,-71.306 -72.28,-92.656 -32.51,19.993 -52,56.712 -72.22,92.5 l -29.22,34.69 c -28.89,-25.67 -54.975,-53.34 -76.093,-90.532 C 192.195,60.42 315.858,47.172 419.656,72.56 373.43,35.602 309.392,20.69 246.53,21.032 Z"
       id="path4"
       inkscape:connector-curvature="0"
       style="fill:#ffffff" />
  </g>
  <!-- react-empty: 6 -->
</svg>
