<?xml version="1.0" encoding="UTF-8" standalone="no"?>
<svg
   xmlns:dc="http://purl.org/dc/elements/1.1/"
   xmlns:cc="http://creativecommons.org/ns#"
   xmlns:rdf="http://www.w3.org/1999/02/22-rdf-syntax-ns#"
   xmlns:svg="http://www.w3.org/2000/svg"
   xmlns="http://www.w3.org/2000/svg"
   xmlns:sodipodi="http://sodipodi.sourceforge.net/DTD/sodipodi-0.dtd"
   xmlns:inkscape="http://www.inkscape.org/namespaces/inkscape"
   viewBox="0 0 1000 560"
   id="svg2"
   version="1.1"
   inkscape:version="0.91 r13725"
   sodipodi:docname="hanging-spider.svg"
   width="1000"
   height="560"
   inkscape:export-filename="C:\Users\William\Documents\Dev\Games\ccg\resources\Cards\hanging-spider.png"
   inkscape:export-xdpi="240"
   inkscape:export-ydpi="240">
  <metadata
     id="metadata14">
    <rdf:RDF>
      <cc:Work
         rdf:about="">
        <dc:format>image/svg+xml</dc:format>
        <dc:type
           rdf:resource="http://purl.org/dc/dcmitype/StillImage" />
        <dc:title></dc:title>
      </cc:Work>
    </rdf:RDF>
  </metadata>
  <defs
     id="defs12" />
  <sodipodi:namedview
     pagecolor="#ffffff"
     bordercolor="#666666"
     borderopacity="1"
     objecttolerance="10"
     gridtolerance="10"
     guidetolerance="10"
     inkscape:pageopacity="0"
     inkscape:pageshadow="2"
     inkscape:window-width="1536"
     inkscape:window-height="801"
     id="namedview10"
     showgrid="false"
     inkscape:zoom="0.4609375"
     inkscape:cx="256"
     inkscape:cy="256"
     inkscape:window-x="-8"
     inkscape:window-y="-8"
     inkscape:window-maximized="1"
     inkscape:current-layer="svg2" />
  <path
     d="m -2.1694919,-1.8983056 1006.6440919,0 0,572.7457656 -1006.6440919,0 z"
     id="path4"
     inkscape:connector-curvature="0"
     style="fill:#417505" />
  <g
     class=""
     id="g6"
     transform="matrix(1.1788916,0,0,1.1788916,191.88467,-43.570987)">
    <path
       d="m 245.625,14.656 0,141.53 c -27.713,6.03 -48.875,38.405 -48.875,77.47 0,15.552 3.366,30.034 9.156,42.22 -3.25,-3.28 -6.404,-6.91 -9.406,-10.97 -33.54,-45.34 -33.54,-121.904 0,-167.25 l -15,-11.125 c -39.288,53.12 -39.292,136.387 0,189.5 2.543,3.44 5.202,6.67 7.97,9.69 C 134.18,263.356 96.063,213.569 96.063,156.313 l -18.689,0 c 0,61.73 38.437,115.01 94.438,141.938 -21.208,7.248 -40.477,17.198 -57,29.344 -36.29,26.675 -59.594,64.432 -59.594,106.5 l 18.686,0 c 0,-35.19 19.332,-67.448 51.97,-91.438 16.31,-11.99 35.903,-21.796 57.75,-28.594 -2.178,2.024 -4.292,4.167 -6.345,6.407 -42.477,46.365 -42.477,120.787 0,167.155 L 191.063,475 c -32.263,-35.218 -35.342,-90.954 -9.25,-130.094 4.213,13.518 16.883,23.438 31.72,23.438 3.25,0 6.396,-0.49 9.374,-1.375 0.453,1.81 1.043,3.564 1.78,5.25 -4.572,6.227 -7.28,13.926 -7.28,22.25 0,14.788 8.532,27.58 20.938,33.717 -0.826,-4.1 -1.28,-8.56 -1.28,-13.25 0,-19.7 8.013,-35.687 17.905,-35.687 9.89,0 17.905,15.987 17.905,35.688 0,4.69 -0.456,9.15 -1.28,13.25 12.404,-6.14 20.936,-18.93 20.936,-33.72 0,-8.215 -2.657,-15.814 -7.124,-22 0.776,-1.73 1.402,-3.54 1.875,-5.406 2.88,0.824 5.904,1.282 9.033,1.282 14.87,0 27.566,-9.965 31.75,-23.53 26.16,39.143 23.102,94.94 -9.188,130.186 l 13.78,12.625 c 42.48,-46.368 42.48,-120.79 0,-167.156 -2.05,-2.24 -4.166,-4.384 -6.342,-6.408 21.845,6.798 41.438,16.604 57.75,28.594 32.637,23.99 51.968,56.25 51.968,91.438 l 18.69,0 c 0,-42.068 -23.305,-79.825 -59.595,-106.5 -16.524,-12.146 -35.792,-22.096 -57,-29.344 56,-26.93 94.438,-80.208 94.438,-141.938 l -18.688,0 c 0,57.256 -38.118,107.043 -93.406,129.407 2.765,-3.02 5.424,-6.25 7.967,-9.69 39.292,-53.11 39.292,-136.38 0,-189.5 l -15,11.126 c 33.542,45.345 33.54,121.913 0,167.25 -2.987,4.04 -6.14,7.64 -9.375,10.906 5.77,-12.18 9.125,-26.627 9.125,-42.156 0,-39.065 -21.162,-71.44 -48.875,-77.47 l 0,-141.526 -18.687,0 z m 9.47,281.5 c 8.137,0 14.53,6.398 14.53,14.53 0,8.135 -6.393,14.533 -14.53,14.533 -8.14,0 -14.5,-6.398 -14.5,-14.533 0,-8.133 6.366,-14.53 14.5,-14.53 z m -41.564,24.438 c 8.14,0 14.532,6.398 14.532,14.53 0,8.134 -6.393,14.532 -14.53,14.532 -8.14,0 -14.532,-6.396 -14.532,-14.53 0,-8.134 6.398,-14.532 14.53,-14.532 z m 82.782,0 c 8.138,0 14.532,6.398 14.532,14.53 0,8.134 -6.394,14.532 -14.53,14.532 -8.14,0 -14.533,-6.396 -14.533,-14.53 0,-8.134 6.4,-14.532 14.533,-14.532 z m -41.218,23.875 c 8.138,0 14.53,6.397 14.53,14.53 0,8.133 -6.392,14.53 -14.53,14.53 -8.138,0 -14.5,-6.395 -14.5,-14.53 0,-8.133 6.367,-14.53 14.5,-14.53 z"
       id="path8"
       inkscape:connector-curvature="0"
       style="fill:#000000" />
  </g>
  <!-- react-empty: 6 -->
</svg>
