<?xml version="1.0" encoding="UTF-8" standalone="no"?>
<svg
   xmlns:dc="http://purl.org/dc/elements/1.1/"
   xmlns:cc="http://creativecommons.org/ns#"
   xmlns:rdf="http://www.w3.org/1999/02/22-rdf-syntax-ns#"
   xmlns:svg="http://www.w3.org/2000/svg"
   xmlns="http://www.w3.org/2000/svg"
   xmlns:sodipodi="http://sodipodi.sourceforge.net/DTD/sodipodi-0.dtd"
   xmlns:inkscape="http://www.inkscape.org/namespaces/inkscape"
   viewBox="0 0 1000 560"
   version="1.1"
   id="svg8"
   sodipodi:docname="imp.svg"
   inkscape:version="0.92.1 r15371"
   width="1000"
   height="560"
   inkscape:export-filename="C:\Users\William\Documents\Dev\Games\ccg\ccgclient\src\assets\png\imp.png"
   inkscape:export-xdpi="240"
   inkscape:export-ydpi="240">
  <metadata
     id="metadata14">
    <rdf:RDF>
      <cc:Work
         rdf:about="">
        <dc:format>image/svg+xml</dc:format>
        <dc:type
           rdf:resource="http://purl.org/dc/dcmitype/StillImage" />
        <dc:title></dc:title>
      </cc:Work>
    </rdf:RDF>
  </metadata>
  <defs
     id="defs12" />
  <sodipodi:namedview
     pagecolor="#ffffff"
     bordercolor="#666666"
     borderopacity="1"
     objecttolerance="10"
     gridtolerance="10"
     guidetolerance="10"
     inkscape:pageopacity="0"
     inkscape:pageshadow="2"
     inkscape:window-width="3840"
     inkscape:window-height="2104"
     id="namedview10"
     showgrid="true"
     inkscape:zoom="1.4845"
     inkscape:cx="297.01681"
     inkscape:cy="101.21948"
     inkscape:window-x="-16"
     inkscape:window-y="-16"
     inkscape:window-maximized="1"
     inkscape:current-layer="svg8">
    <inkscape:grid
       type="xygrid"
       id="grid4491" />
  </sodipodi:namedview>
  <path
     d="M 0,0 H 1000 V 560 H 0 Z"
     id="path2"
     style="fill:#370661;fill-opacity:1;stroke:#ffffff;stroke-width:0;stroke-miterlimit:4;stroke-dasharray:none"
     inkscape:connector-curvature="0" />
  <g
     class=""
     style="fill:#ffffff"
     id="g6"
     transform="translate(246.404,20.468)">
    <path
       d="m 192,22.406 c -1.116,0.01 -2.227,0.032 -3.344,0.063 C 110.036,24.667 31.22,78.444 22.78,166.72 c 36.28,-57.542 111.226,-39.602 97.532,32.374 34.528,-48.998 108,-6.56 91.126,36.875 -6.546,6.625 -11.585,14.91 -14.375,24.436 -1.938,-0.243 -3.866,-0.38 -5.75,-0.406 -0.56,-0.007 -1.103,-0.012 -1.657,0 -8.31,0.174 -16.004,2.5 -22.47,6.78 -9.193,6.09 -15.415,16.174 -16.78,27.814 -0.663,5.657 -0.217,11.64 1.344,17.78 l -44,42.126 82.72,-11.22 -16.345,-24.78 c -0.004,-0.008 0.004,-0.023 0,-0.03 -4.59,-8.555 -5.833,-15.946 -5.156,-21.72 0.773,-6.605 3.817,-11.285 8.53,-14.406 4.195,-2.78 10.137,-4.337 17.25,-3.5 0.706,19.904 11.67,38.224 29,48.22 -1.963,8.995 -5.146,15.323 -9.03,20.123 -5.837,7.212 -13.817,11.578 -24.032,15.125 -20.43,7.096 -49.176,9.42 -73.094,28.938 -16.534,13.492 -23.706,30.644 -22.75,46.625 0.955,15.98 9.375,30.28 21.312,40.156 11.938,9.877 27.78,15.568 44.188,13.376 12.81,-1.71 25.544,-8.47 36.187,-20.625 8.264,5.754 16,13.057 23.25,21.845 5.466,-33.608 4.89,-68.43 -4.624,-105.063 -15.498,26.303 -36.19,49.6 -66.344,67.5 10.966,0.254 21.27,2.46 30.97,6.5 -7.102,7.112 -14.607,10.37 -21.907,11.344 -10.573,1.413 -21.425,-2.31 -29.813,-9.25 -8.387,-6.94 -13.963,-16.862 -14.562,-26.875 -0.6,-10.01 3.11,-20.618 15.906,-31.06 18.563,-15.15 43.676,-17.5 67.438,-25.75 11.88,-4.128 23.607,-10.13 32.406,-21 5.415,-6.693 9.51,-15.02 12.094,-25.25 11.967,2.42 23.922,0.925 34.47,-3.626 8.432,12.26 16.06,23.816 17.123,31.312 0.633,4.466 0.138,7.127 -3.625,11.125 -2.183,2.322 -5.808,4.95 -11.187,7.595 l -0.03,-0.22 -43.94,14.47 54.876,54.22 -7.842,-49.283 c 9.445,-3.92 16.556,-8.45 21.75,-13.968 7.212,-7.663 9.788,-17.69 8.53,-26.563 -2.07,-14.607 -11.246,-27.07 -19.78,-38.81 5.926,-5.317 10.807,-11.9 14.187,-19.47 30.866,-38.44 82.993,-1.49 63.25,55.438 50.463,-53.127 91.272,-7.716 78.844,43.218 C 506.964,296.638 515.542,149.092 417,86.72 c 5.394,96.634 -39.326,133.366 -86.813,130.56 8.533,-4.576 15.234,-12.534 17.938,-22.624 1.302,-4.857 1.563,-9.752 0.906,-14.437 6.56,-6.188 11.527,-14.246 14.033,-23.595 4.568,-17.04 -0.135,-33.9 -11.282,-45.97 1.728,6.93 1.88,14.3 -0.217,22.126 -2.748,10.25 -8.54,18.718 -15.75,24.157 -3.824,-3.078 -8.328,-5.43 -13.375,-6.78 -9.164,-2.455 -18.458,-1.168 -26.25,2.905 -7.454,-9.137 -10.465,-23.08 -6.75,-36.937 2.004,-7.478 5.384,-13.74 10.03,-18.78 -15.03,5.186 -27.51,17.173 -31.937,33.686 -4.38,16.344 0.032,33.082 10.283,45.157 -2.08,8.068 -1.267,16.22 1.78,23.344 -7.003,-4.675 -13.64,-10.19 -19.687,-16.468 -37.63,-39.066 -31.36,-98.562 29.188,-129.656 -28.218,-21.218 -62.49,-31.3 -97.094,-31 z"
       id="path4"
       style="fill:#ffffff"
       inkscape:connector-curvature="0" />
  </g>
  <!-- react-empty: 6 -->
</svg>
