<?xml version="1.0" encoding="UTF-8" standalone="no"?>
<svg
   xmlns:dc="http://purl.org/dc/elements/1.1/"
   xmlns:cc="http://creativecommons.org/ns#"
   xmlns:rdf="http://www.w3.org/1999/02/22-rdf-syntax-ns#"
   xmlns:svg="http://www.w3.org/2000/svg"
   xmlns="http://www.w3.org/2000/svg"
   xmlns:sodipodi="http://sodipodi.sourceforge.net/DTD/sodipodi-0.dtd"
   xmlns:inkscape="http://www.inkscape.org/namespaces/inkscape"
   viewBox="0 0 1000 560"
   id="svg2"
   version="1.1"
   inkscape:version="0.91 r13725"
   sodipodi:docname="king.svg"
   width="1000"
   height="560">
  <metadata
     id="metadata14">
    <rdf:RDF>
      <cc:Work
         rdf:about="">
        <dc:format>image/svg+xml</dc:format>
        <dc:type
           rdf:resource="http://purl.org/dc/dcmitype/StillImage" />
        <dc:title></dc:title>
      </cc:Work>
    </rdf:RDF>
  </metadata>
  <defs
     id="defs12" />
  <sodipodi:namedview
     pagecolor="#ffffff"
     bordercolor="#666666"
     borderopacity="1"
     objecttolerance="10"
     gridtolerance="10"
     guidetolerance="10"
     inkscape:pageopacity="0"
     inkscape:pageshadow="2"
     inkscape:window-width="1536"
     inkscape:window-height="801"
     id="namedview10"
     showgrid="false"
     inkscape:zoom="0.4609375"
     inkscape:cx="256"
     inkscape:cy="169.22034"
     inkscape:window-x="-8"
     inkscape:window-y="-8"
     inkscape:window-maximized="1"
     inkscape:current-layer="svg2" />
  <path
     d="m 0,2.440678 1004.4746,0 0,557.559322 L 0,560 Z"
     id="path4"
     inkscape:connector-curvature="0"
     style="fill:#e7da49" />
  <g
     class=""
     id="g6"
     transform="matrix(1.306208,0,0,1.064123,163.75649,37.903184)"
     style="fill:#241c1c">
    <path
       d="M 257.408,22.127 234.326,84.162 203.309,26.455 191.767,85.605 147.765,30.062 154.26,110 c 27.263,27.263 178.638,27.663 206.3,0 l 5.772,-79.936 -44.002,55.543 -11.54,-59.15 -31.02,56.986 -22.36,-61.313 -0.002,0 z m 0.45,129.094 c -18.725,0 -36.08,9.108 -49.06,25.696 -12.977,16.588 -21.023,40.493 -21.023,66.578 0,27.678 9.47,52.137 23.946,68.914 l 10.512,11.682 -15.185,3.504 c -40.28,9.177 -59.512,28.283 -70.666,57.818 -10.383,27.496 -12.014,65.42 -12.263,110.38 l 269.231,0 c -0.047,-45.15 -0.35,-84.062 -9.928,-112.134 -10.28,-30.13 -29.122,-49.348 -72.418,-57.816 l -15.186,-2.92 9.928,-12.266 c 13.574,-16.684 22.193,-40.46 22.193,-67.162 0,-26.085 -8.048,-49.99 -21.026,-66.578 -12.978,-16.588 -30.332,-25.695 -49.057,-25.695 z"
       id="path8"
       inkscape:connector-curvature="0"
       style="fill:#241c1c" />
  </g>
  <!-- react-empty: 6 -->
</svg>
