<?xml version="1.0" encoding="UTF-8" standalone="no"?>
<svg
   xmlns:dc="http://purl.org/dc/elements/1.1/"
   xmlns:cc="http://creativecommons.org/ns#"
   xmlns:rdf="http://www.w3.org/1999/02/22-rdf-syntax-ns#"
   xmlns:svg="http://www.w3.org/2000/svg"
   xmlns="http://www.w3.org/2000/svg"
   xmlns:sodipodi="http://sodipodi.sourceforge.net/DTD/sodipodi-0.dtd"
   xmlns:inkscape="http://www.inkscape.org/namespaces/inkscape"
   viewBox="0 0 1000 560"
   version="1.1"
   id="svg21"
   sodipodi:docname="lightning-dissipation.svg"
   width="1000"
   height="560"
   inkscape:export-filename="C:\Users\William\Documents\Dev\Games\ccg\ccgclient\src\assets\png\lightning-dissipation.png"
   inkscape:export-xdpi="240"
   inkscape:export-ydpi="240"
   inkscape:version="0.92.1 r15371">
  <metadata
     id="metadata25">
    <rdf:RDF>
      <cc:Work
         rdf:about="">
        <dc:format>image/svg+xml</dc:format>
        <dc:type
           rdf:resource="http://purl.org/dc/dcmitype/StillImage" />
        <dc:title></dc:title>
      </cc:Work>
    </rdf:RDF>
  </metadata>
  <sodipodi:namedview
     pagecolor="#ffffff"
     bordercolor="#666666"
     borderopacity="1"
     objecttolerance="10"
     gridtolerance="10"
     guidetolerance="10"
     inkscape:pageopacity="0"
     inkscape:pageshadow="2"
     inkscape:window-width="3840"
     inkscape:window-height="2004"
     id="namedview23"
     showgrid="true"
     inkscape:zoom="1.84375"
     inkscape:cx="402.55991"
     inkscape:cy="392.56894"
     inkscape:window-x="-16"
     inkscape:window-y="-16"
     inkscape:window-maximized="1"
     inkscape:current-layer="svg21">
    <inkscape:grid
       type="xygrid"
       id="grid4502" />
  </sodipodi:namedview>
  <defs
     id="defs13">
    <filter
       id="shadow-1"
       height="3"
       width="3"
       x="-1"
       y="-1">
      <feFlood
         flood-color="#c9c9c9"
         result="flood"
         id="feFlood2" />
      <feComposite
         in="flood"
         in2="SourceGraphic"
         operator="atop"
         result="composite"
         id="feComposite4" />
      <feGaussianBlur
         in="composite"
         stdDeviation="15"
         result="blur"
         id="feGaussianBlur6" />
      <feOffset
         result="offset"
         id="feOffset8" />
      <feComposite
         in="SourceGraphic"
         in2="offset"
         operator="over"
         id="feComposite10" />
    </filter>
  </defs>
  <path
     d="M 0,0 H 1000 V 570 H 0 Z"
     id="path15"
     inkscape:connector-curvature="0"
     style="fill:#0e110e;stroke:#ffffff;stroke-width:5.99193192" />
  <g
     class=""
     id="g19"
     transform="matrix(1.1840454,0,0,1.1840454,190.84965,-18.635205)">
    <path
       d="m 36.482,18.307 68.088,108.87 -66.244,57.555 98.518,117.485 -15.184,61.19 31.707,47.357 c -7.105,4.968 -13.8,10.476 -20.04,16.463 L 68.268,346.8 98.546,331.662 18.356,208.949 v 78.92 l 25.94,34.96 -17.662,31.54 33.834,33.485 -24.6,37.483 60.45,54.406 c -1.99,4.436 -3.804,8.97 -5.415,13.604 h 317.196 c -1.926,-5.546 -4.137,-10.952 -6.604,-16.213 l 64.03,-65.492 -51.272,-58.762 2.412,-9.872 17.65,-35.838 38.887,29.164 20.445,-24.053 v -94.176 l -37.71,64.083 -35.904,-31.76 -35.458,145.218 -38.77,15.212 c -9.884,-6.924 -20.553,-12.805 -31.857,-17.488 l 74.93,-104.864 -23.672,-39.678 48.473,-72.346 -93.783,7.504 45.834,-79.63 33.914,31.183 69.215,-117.233 h -21.7 l -51.866,87.843 -34.108,-31.36 -63.893,111.005 -25.52,2.043 95.906,-169.53 h -134.18 l -53.642,245.225 85.873,-22.902 -28.32,49.206 -53.696,15.998 7.63,85.092 c -7.638,2.81 -15.008,6.158 -22.07,10 l -27.48,-41.043 15.48,-62.39 -6.643,-7.925 -59.22,-102.59 85.745,-45.503 -47.238,-123.168 z m 283.875,207.755 -86,155.25 c -8.45,0.748 -16.718,2.11 -24.752,4.057 l -5.916,-65.99 46.195,-13.763 41.314,-71.78 29.157,-7.774 z m 33.332,39.946 12.873,21.576 -71.024,99.395 c -6.507,-1.84 -13.18,-3.295 -19.99,-4.347 l 78.14,-116.625 z m 55.14,109.084 31.264,35.83 -47.92,49.014 c -8.19,-13.21 -18.144,-25.19 -29.55,-35.602 L 400.427,409.5 Z M 74.018,401.268 117.68,444.48 c -4.532,5.75 -8.697,11.805 -12.46,18.13 L 60.293,422.18 Z"
       id="path17"
       inkscape:connector-curvature="0"
       style="fill:#c9c9c9;filter:url(#shadow-1)" />
  </g>
  <!-- react-empty: 13 -->
</svg>
