<?xml version="1.0" encoding="UTF-8" standalone="no"?>
<svg
   xmlns:dc="http://purl.org/dc/elements/1.1/"
   xmlns:cc="http://creativecommons.org/ns#"
   xmlns:rdf="http://www.w3.org/1999/02/22-rdf-syntax-ns#"
   xmlns:svg="http://www.w3.org/2000/svg"
   xmlns="http://www.w3.org/2000/svg"
   xmlns:sodipodi="http://sodipodi.sourceforge.net/DTD/sodipodi-0.dtd"
   xmlns:inkscape="http://www.inkscape.org/namespaces/inkscape"
   viewBox="0 0 1000 560"
   version="1.1"
   id="svg8"
   sodipodi:docname="magic-gate.svg"
   width="1000"
   height="560"
   inkscape:version="0.92.1 r15371"
   inkscape:export-filename="C:\Users\William\Documents\Dev\Games\ccg\ccgclient\src\assets\png\magic-gate.png"
   inkscape:export-xdpi="240"
   inkscape:export-ydpi="240">
  <metadata
     id="metadata14">
    <rdf:RDF>
      <cc:Work
         rdf:about="">
        <dc:format>image/svg+xml</dc:format>
        <dc:type
           rdf:resource="http://purl.org/dc/dcmitype/StillImage" />
        <dc:title></dc:title>
      </cc:Work>
    </rdf:RDF>
  </metadata>
  <defs
     id="defs12" />
  <sodipodi:namedview
     pagecolor="#ffffff"
     bordercolor="#666666"
     borderopacity="1"
     objecttolerance="10"
     gridtolerance="10"
     guidetolerance="10"
     inkscape:pageopacity="0"
     inkscape:pageshadow="2"
     inkscape:window-width="3840"
     inkscape:window-height="2104"
     id="namedview10"
     showgrid="true"
     inkscape:zoom="0.4609375"
     inkscape:cx="256"
     inkscape:cy="256"
     inkscape:window-x="-16"
     inkscape:window-y="-16"
     inkscape:window-maximized="1"
     inkscape:current-layer="svg8">
    <inkscape:grid
       type="xygrid"
       id="grid4491" />
  </sodipodi:namedview>
  <path
     d="M 0,0 H 1000 V 560 H 0 Z"
     id="path2"
     inkscape:connector-curvature="0"
     style="fill:#c9c9c9;fill-opacity:1;stroke-width:1.46158493" />
  <g
     class=""
     id="g6"
     transform="matrix(1.1203399,0,0,1.1203399,210.36908,15.771733)">
    <path
       d="M 43.72,13.844 18.155,64.97 c 27.97,13.658 58.89,24.446 91.53,32.436 L 20.155,490.844 H 123.5 l 41.25,-373.438 1.03,-9.437 9.44,1.186 c 52.986,6.706 108.616,6.364 161.56,-0.594 l 9.44,-1.218 1.06,9.47 41.25,374.03 H 491.844 L 402.156,96.75 C 433.81,88.828 463.8,78.25 491,64.97 L 465.47,13.844 c -112.422,54.9 -309.332,54.9 -421.75,0 z m 286,114.344 c -14.14,1.644 -28.428,2.836 -42.783,3.562 -21.804,10.4 -32.54,26.267 -35.312,54.406 27.25,-30.575 55.034,-36.127 81.188,-29.906 l -3.094,-28.063 z m -147.44,0.53 -10.03,90.97 c 8.553,-37.432 27.04,-73.21 54.875,-87.625 -15.038,-0.6 -30.02,-1.7 -44.844,-3.344 z m 64.97,13.313 c -34.87,17.008 -72.704,109.172 -38.156,162.907 -23.665,3.18 -37.152,-6.345 -43.406,-26 l -4.313,39.125 c 9.257,32.188 30.822,44 56.844,44 -12.7,21.47 -47.05,23.77 -62.94,11.188 l -1.655,15.188 c 10.71,28.704 37.626,43.795 74.344,42.093 -18.365,23.685 -30.833,24.123 -63.064,14 39.07,48.74 103.567,18.582 119.125,-31.53 13.896,22.31 -2.982,63.977 -44.374,67.75 82.914,13.18 105.38,-62.936 57.125,-124.406 21.172,2.414 47.277,11.1 62.314,38.312 l -10.813,-98.22 c -25.328,-31.6 -75.52,-19.695 -66.56,-46.373 4.55,-13.55 34.584,-16.545 42.03,11.093 12.44,-41.053 -37.255,-49.697 -52.563,-29.78 16.442,-29.484 50.19,-27.943 69.125,-7.157 l -5.03,-45.5 c -33.345,-13.155 -72.762,8.446 -89.188,52.655 -12.81,-21.176 -21.274,-66.546 1.156,-89.344 z m 92.03,255.22 c 9.187,42.963 -7.44,81.635 -44.81,93 l 75.217,0.25 L 363,429.875 c -7.54,-14.486 -14.178,-24.364 -23.72,-32.625 z m -192.467,52.78 -4.5,40.845 h 67.843 c -27.745,-8.302 -48.728,-18.543 -63.344,-40.844 z"
       id="path4"
       inkscape:connector-curvature="0"
       style="fill:#131210" />
  </g>
  <!-- react-empty: 6 -->
</svg>
