<?xml version="1.0" encoding="UTF-8" standalone="no"?>
<svg
   xmlns:dc="http://purl.org/dc/elements/1.1/"
   xmlns:cc="http://creativecommons.org/ns#"
   xmlns:rdf="http://www.w3.org/1999/02/22-rdf-syntax-ns#"
   xmlns:svg="http://www.w3.org/2000/svg"
   xmlns="http://www.w3.org/2000/svg"
   xmlns:sodipodi="http://sodipodi.sourceforge.net/DTD/sodipodi-0.dtd"
   xmlns:inkscape="http://www.inkscape.org/namespaces/inkscape"
   viewBox="0 0 1000 560"
   id="svg2"
   version="1.1"
   inkscape:version="0.91 r13725"
   sodipodi:docname="masked-spider.svg"
   width="1000"
   height="560"
   inkscape:export-filename="C:\Users\William\Documents\Dev\Games\ccg\resources\Cards\masked-spider.png"
   inkscape:export-xdpi="240"
   inkscape:export-ydpi="240">
  <metadata
     id="metadata14">
    <rdf:RDF>
      <cc:Work
         rdf:about="">
        <dc:format>image/svg+xml</dc:format>
        <dc:type
           rdf:resource="http://purl.org/dc/dcmitype/StillImage" />
        <dc:title></dc:title>
      </cc:Work>
    </rdf:RDF>
  </metadata>
  <defs
     id="defs12" />
  <sodipodi:namedview
     pagecolor="#ffffff"
     bordercolor="#666666"
     borderopacity="1"
     objecttolerance="10"
     gridtolerance="10"
     guidetolerance="10"
     inkscape:pageopacity="0"
     inkscape:pageshadow="2"
     inkscape:window-width="1536"
     inkscape:window-height="801"
     id="namedview10"
     showgrid="false"
     inkscape:zoom="0.4609375"
     inkscape:cx="256"
     inkscape:cy="256"
     inkscape:window-x="-8"
     inkscape:window-y="-8"
     inkscape:window-maximized="1"
     inkscape:current-layer="svg2" />
  <path
     d="m 0,2.440678 1004.4746,0 0,557.559322 L 0,560 Z"
     id="path4"
     inkscape:connector-curvature="0"
     style="fill:#417505" />
  <g
     class=""
     id="g6"
     transform="matrix(1.173497,0,0,1.173497,197.50648,-20.295376)">
    <path
       d="m 255.88,18.98 c -23.81,0 -48.425,22.043 -66.732,53.043 -18.306,31 -29.69,69.843 -29.69,96.06 0,32.048 16.078,60.385 40.77,77.575 14.4,-17.246 33.924,-28.357 55.647,-28.357 21.725,0 41.25,11.113 55.65,28.362 24.695,-17.19 40.774,-45.528 40.774,-77.58 0,-26.217 -11.386,-65.058 -29.693,-96.06 -18.306,-31 -42.92,-53.043 -66.728,-53.043 z m 237.62,14.14 -73.746,173.946 -95.787,57.327 c 2.867,5.447 5.36,11.24 7.45,17.318 l 103.163,-61.737 58.92,-138.97 0,-47.884 z m -475.244,0.005 0,47.877 58.922,138.98 103.226,61.508 c 2.102,-6.07 4.607,-11.855 7.483,-17.295 L 91.997,207.059 18.257,33.124 Z m -18.69,3.675 -0.043,0.018 0.043,0.102 0,-0.12 z m 512.623,0 0,0.12 0.042,-0.102 -0.043,-0.017 z M 255.874,235.99 c -16.893,0 -32.575,9.335 -44.592,25.865 -12.017,16.53 -19.816,40.063 -19.816,66.243 0,15.354 2.698,29.784 7.342,42.44 3.13,-5.468 9.03,-9.163 15.807,-9.163 10.046,0 18.194,8.1 18.194,18.096 0,9.993 -8.147,18.096 -18.193,18.096 -0.303,0 -0.6,-0.03 -0.898,-0.045 11.663,14.54 26.38,22.683 42.155,22.683 15.775,0 30.493,-8.144 42.158,-22.682 -0.3,0.016 -0.594,0.046 -0.896,0.046 -10.047,0 -18.194,-8.103 -18.194,-18.095 0,-9.992 8.147,-18.095 18.194,-18.095 6.776,0 12.677,3.692 15.808,9.158 4.642,-12.654 7.338,-27.082 7.338,-42.435 0,-26.18 -7.797,-49.712 -19.814,-66.243 -12.018,-16.53 -27.702,-25.865 -44.595,-25.865 z m -237.62,1.64 0,23.858 64.496,51.182 90.06,12.527 c 0.12,-6.362 0.64,-12.594 1.526,-18.656 L 90.37,294.86 18.256,237.63 Z m 475.245,0 -72.12,57.233 -83.956,11.73 c 0.884,6.063 1.403,12.295 1.52,18.657 l 90.066,-12.582 64.49,-51.182 0,-23.856 z m -263.613,81.09 c 10.046,0 18.193,8.1 18.193,18.096 0,9.993 -8.147,18.096 -18.193,18.096 -10.047,0 -18.194,-8.103 -18.194,-18.096 0,-9.992 8.147,-18.095 18.194,-18.095 z m 51.98,0 c 10.046,0 18.194,8.1 18.194,18.096 0,9.993 -8.147,18.096 -18.193,18.096 -10.046,0 -18.193,-8.103 -18.193,-18.096 0,-9.992 8.147,-18.095 18.193,-18.095 z m 55.34,32.253 c -0.98,6.284 -2.357,12.376 -4.102,18.234 l 87.948,19.166 72.447,58.285 0,-23.984 -64.164,-51.623 -92.13,-20.077 z m -162.648,0.084 -92.138,19.993 -64.164,51.62 0,23.986 72.44,-58.28 87.972,-19.09 c -1.748,-5.855 -3.127,-11.947 -4.11,-18.23 z m 149.94,39.728 c -2.654,5.165 -5.635,10.03 -8.916,14.543 -0.33,0.455 -0.667,0.902 -1.004,1.35 l 67.865,36.015 27.487,50.983 21.228,0 -34.953,-64.836 -71.707,-38.055 z m -137.184,0.13 -71.763,37.917 -34.957,64.844 21.23,0 27.486,-50.976 67.95,-35.903 c -0.368,-0.487 -0.734,-0.974 -1.094,-1.47 -3.253,-4.474 -6.212,-9.296 -8.85,-14.413 z m 20.276,27.47 c -5.428,8.665 -8.572,18.89 -8.572,29.85 0,14.978 5.863,28.585 15.42,38.702 -0.017,-0.858 -0.03,-1.718 -0.03,-2.582 0,-20.844 8.072,-39.128 20.16,-49.152 -9.903,-3.482 -19.02,-9.28 -26.978,-16.818 z m 96.564,0.002 c -7.956,7.536 -17.073,13.332 -26.974,16.814 12.087,10.025 20.158,28.31 20.158,49.155 0,0.863 -0.013,1.72 -0.03,2.58 9.554,-10.118 15.417,-23.724 15.417,-38.7 0,-10.96 -3.144,-21.183 -8.57,-29.848 z"
       id="path8"
       inkscape:connector-curvature="0"
       style="fill:#000000" />
  </g>
  <!-- react-empty: 6 -->
</svg>
