<?xml version="1.0" encoding="UTF-8" standalone="no"?>
<svg
   xmlns:dc="http://purl.org/dc/elements/1.1/"
   xmlns:cc="http://creativecommons.org/ns#"
   xmlns:rdf="http://www.w3.org/1999/02/22-rdf-syntax-ns#"
   xmlns:svg="http://www.w3.org/2000/svg"
   xmlns="http://www.w3.org/2000/svg"
   xmlns:sodipodi="http://sodipodi.sourceforge.net/DTD/sodipodi-0.dtd"
   xmlns:inkscape="http://www.inkscape.org/namespaces/inkscape"
   viewBox="0 0 1000 560"
   version="1.1"
   id="svg8"
   sodipodi:docname="megabot.svg"
   width="1000"
   height="560"
   inkscape:version="0.92.1 r15371"
   inkscape:export-filename="C:\Users\William\Documents\Dev\Games\ccg\ccgclient\src\assets\png\megabot.png"
   inkscape:export-xdpi="240"
   inkscape:export-ydpi="240">
  <metadata
     id="metadata14">
    <rdf:RDF>
      <cc:Work
         rdf:about="">
        <dc:format>image/svg+xml</dc:format>
        <dc:type
           rdf:resource="http://purl.org/dc/dcmitype/StillImage" />
        <dc:title></dc:title>
      </cc:Work>
    </rdf:RDF>
  </metadata>
  <defs
     id="defs12" />
  <sodipodi:namedview
     pagecolor="#c9c9c9"
     bordercolor="#666666"
     borderopacity="1"
     objecttolerance="10"
     gridtolerance="10"
     guidetolerance="10"
     inkscape:pageopacity="1"
     inkscape:pageshadow="2"
     inkscape:window-width="3840"
     inkscape:window-height="2004"
     id="namedview10"
     showgrid="false"
     inkscape:zoom="0.921875"
     inkscape:cx="436.23105"
     inkscape:cy="-1.403125"
     inkscape:window-x="-16"
     inkscape:window-y="-16"
     inkscape:window-maximized="1"
     inkscape:current-layer="svg8" />
  <g
     class=""
     id="g6"
     transform="matrix(1.2047241,0,0,1.2047241,176.90324,-25.666744)">
    <path
       d="M 231.732,22.063 256,62.508 280.268,22.062 256,34.313 Z m -10.783,17.01 a 108.982,108.982 0 0 0 -7.02,7.67 C 203.315,59.553 195.339,91.059 192.346,103 h 23.61 c 1.65,-8.502 5.383,-33.391 10.327,-41.63 a 76.828,76.828 0 0 1 4.235,-6.349 z m 70.102,0 -9.569,15.948 a 76.828,76.828 0 0 1 4.235,6.348 c 4.944,8.24 8.676,33.129 10.328,41.631 h 23.61 C 316.662,91.06 308.685,59.553 298.07,46.742 a 108.982,108.982 0 0 0 -7.02,-7.67 z M 153.412,74.755 113.316,84.009 91.83,113.761 98.352,137.235 151,124.7 V 103 h 9.475 z m 205.176,0 L 351.525,103 H 361 v 21.7 l 52.648,12.536 6.522,-23.474 L 398.684,84.01 Z M 240,80 a 8,8 0 1 0 0,16 8,8 0 0 0 0,-16 z m 32,0 a 8,8 0 1 0 0,16 8,8 0 0 0 0,-16 z m -103,41 v 20.875 L 181.563,167 h 42.019 c 5.75,-7.427 13.98,-12.846 23.418,-14.984 V 131.729 L 236.271,121 Z M 275.729,121 265,131.729 v 20.287 c 9.437,2.138 17.667,7.557 23.418,14.984 h 42.02 L 343,141.875 V 121 Z M 151,144.664 l -21.066,3.555 -6.647,33.234 a 43.003,43.003 0 0 1 20.467,9.465 l 16.168,-26.95 z m 210,0 -8.922,19.305 16.168,26.949 a 43.003,43.003 0 0 1 20.467,-9.465 l -6.647,-33.234 z M 256,169 c -12.81,0 -23,10.19 -23,23 0,12.81 10.19,23 23,23 12.81,0 23,-10.19 23,-23 0,-12.81 -10.19,-23 -23,-23 z m -55,16 v 14 h 14.615 A 40.734,40.734 0 0 1 215,192 c 0,-2.386 0.218,-4.722 0.615,-7 z m 95.385,0 c 0.397,2.278 0.615,4.614 0.615,7 0,2.386 -0.218,4.722 -0.615,7 H 311 v -14 z m -180.457,13.88 c -13.245,0.104 -27.387,10.127 -33.78,27.216 -2.873,7.68 -3.621,15.307 -2.681,22.177 3.907,-1.326 7.72,-1.573 11.105,-1.45 8.12,0.294 14.768,2.896 14.768,2.896 0,0 6.724,2.4 13.043,7.508 3.008,2.43 6.121,5.59 8.267,9.955 5.665,-4.63 10.506,-11.182 13.567,-19.364 7.868,-21.032 -0.145,-41.693 -15.37,-47.388 -2.854,-1.068 -5.863,-1.573 -8.92,-1.55 z m 280.144,0 c -3.056,-0.023 -6.065,0.48 -8.92,1.548 -15.224,5.695 -23.237,26.358 -15.369,47.39 3.061,8.182 7.902,14.735 13.567,19.364 2.146,-4.366 5.26,-7.524 8.267,-9.955 6.319,-5.107 13.043,-7.508 13.043,-7.508 0,0 6.649,-2.602 14.768,-2.897 3.386,-0.122 7.199,0.125 11.107,1.451 0.94,-6.87 0.192,-14.499 -2.681,-22.18 -6.394,-17.088 -20.537,-27.11 -33.782,-27.212 z M 201,217 v 1.438 l 21.223,10.61 6.511,-6.51 A 41.582,41.582 0 0 1 223.582,217 Z m 87.418,0 a 41.582,41.582 0 0 1 -5.152,5.537 l 6.511,6.512 L 311,218.437 V 217 Z m -44.69,16 -17.95,17.951 -28.52,-14.26 -9.873,29.91 45.615,15.297 v 18.374 L 243.729,311 h 24.542 L 279,300.271 V 281.897 L 324.584,266.602 315.168,236.48 286.223,250.951 268.27,233 Z M 61.34,247.445 c -1.4,0.108 -2.595,0.366 -3.336,0.703 -1.076,0.49 -1.442,0.674 -2.055,2.313 -6.14,16.414 -3.47,34.046 -0.72,44.732 a 100.42,100.42 0 0 0 5.421,-4.025 c -0.06,-8.656 1.072,-18.097 4.329,-27.606 -1.955,-5.047 -3.188,-10.484 -3.64,-16.117 z m 389.32,0 c -0.45,5.633 -1.684,11.07 -3.639,16.118 3.257,9.508 4.39,18.95 4.329,27.605 a 100.54,100.54 0 0 0 5.421,4.025 c 2.75,-10.686 5.42,-28.318 -0.72,-44.732 -0.613,-1.64 -0.98,-1.823 -2.055,-2.313 -0.74,-0.337 -1.936,-0.595 -3.336,-0.703 z M 89.92,264.811 c -2.26,-0.082 -4.258,0.265 -5.334,0.755 -1.076,0.49 -1.442,0.674 -2.055,2.313 -6.14,16.414 -3.47,34.045 -0.72,44.732 9.088,-6.258 22.677,-17.806 28.818,-34.22 0.613,-1.64 0.459,-2.018 -0.031,-3.094 -0.49,-1.076 -1.772,-2.648 -3.532,-4.07 -3.518,-2.845 -8.033,-4.649 -8.033,-4.649 0,0 -4.591,-1.604 -9.113,-1.767 z m 332.16,0 c -4.522,0.163 -9.113,1.767 -9.113,1.767 0,0 -4.514,1.804 -8.033,4.649 -1.76,1.422 -3.042,2.994 -3.532,4.07 -0.49,1.076 -0.644,1.455 -0.03,3.094 6.14,16.414 19.73,27.962 28.818,34.22 2.749,-10.687 5.42,-28.318 -0.721,-44.732 -0.613,-1.64 -0.98,-1.823 -2.055,-2.313 -1.076,-0.49 -3.073,-0.837 -5.334,-0.755 z m -280.867,13.431 c -4.628,4.392 -9.834,7.931 -15.37,10.455 -3.713,8.427 -8.69,15.616 -13.993,21.627 a 100.44,100.44 0 0 0 1.449,6.594 c 9.088,-6.259 22.678,-17.807 28.818,-34.22 0.613,-1.64 0.457,-2.019 -0.033,-3.094 -0.18,-0.394 -0.495,-0.867 -0.871,-1.362 z m 229.576,0 c -0.376,0.496 -0.694,0.968 -0.873,1.362 -0.49,1.075 -0.646,1.454 -0.033,3.093 6.14,16.414 19.73,27.962 28.818,34.221 a 100.44,100.44 0 0 0 1.45,-6.594 c -5.305,-6.012 -10.283,-13.2 -13.997,-21.629 -5.534,-2.524 -10.738,-6.062 -15.365,-10.453 z M 319.004,285.256 297,299.129 v 8.6 l -8.715,8.714 12.848,25.696 10.06,-10.06 c 1.057,-10.982 6.498,-20.736 14.54,-27.481 z m -126.52,0 -6.216,19.342 c 8.04,6.745 13.482,16.5 14.539,27.48 l 10.06,10.06 12.848,-25.695 L 215,307.73 v -8.6 c -7.25,-4.82 0,0.273 -22.516,-13.873 z M 160,313 c -12.81,0 -23,10.19 -23,23 0,12.81 10.19,23 23,23 12.81,0 23,-10.19 23,-23 0,-12.81 -10.19,-23 -23,-23 z m 192,0 c -12.81,0 -23,10.19 -23,23 0,12.81 10.19,23 23,23 12.81,0 23,-10.19 23,-23 0,-12.81 -10.19,-23 -23,-23 z m -155.041,40.688 c -3.93,8.143 -10.484,14.806 -18.537,18.894 l 6.308,25.234 -17.46,4.368 -6.303,-25.207 C 160.644,376.985 160.324,377 160,377 c -8.03,0 -15.536,-2.354 -21.88,-6.39 l -1.12,1.119 v 25.324 L 156.03,433 202.437,423 215,397.875 v -26.146 z m 118.082,0 -18.041,18.04 v 26.147 L 309.563,423 355.971,433 375,397.053 v -25.324 l -1.12,-1.12 C 367.537,374.646 360.03,377 352,377 c -0.324,0 -0.644,-0.016 -0.967,-0.023 l -6.303,25.207 -17.46,-4.368 6.308,-25.234 c -8.053,-4.088 -14.607,-10.75 -18.537,-18.894 z M 176,441 c -12.82,0 -26.656,6.6 -37.19,16.936 4.2,1.769 8.076,4.255 11.518,7.21 C 157.383,459.082 166.28,455 176,455 c 11,0 20.95,5.223 28.363,12.637 5.328,5.327 9.512,11.968 11.451,19.363 h 14.31 C 225.733,463.14 204.466,441 176,441 Z m 160,0 c -28.466,0 -49.733,22.14 -54.123,46 h 14.309 c 1.94,-7.395 6.123,-14.036 11.45,-19.363 C 315.052,460.223 325,455 336,455 c 9.72,0 18.617,4.082 25.672,10.146 3.442,-2.955 7.318,-5.441 11.517,-7.21 C 362.656,447.6 348.821,441 336,441 Z m -211.336,32 c -5,0 -11.05,2.777 -15.637,7.363 -1.997,1.998 -3.571,4.292 -4.802,6.637 h 31.96 a 39.015,39.015 0 0 1 2.95,-7.729 C 134.721,475.343 129.252,473 124.665,473 Z M 176,473 c -5,0 -11.05,2.777 -15.637,7.363 -1.997,1.998 -3.571,4.292 -4.802,6.637 h 40.878 c -1.23,-2.345 -2.805,-4.64 -4.802,-6.637 C 187.05,475.777 181,473 176,473 Z m 160,0 c -5,0 -11.05,2.777 -15.637,7.363 -1.997,1.998 -3.571,4.292 -4.802,6.637 h 40.878 c -1.23,-2.345 -2.805,-4.64 -4.802,-6.637 C 347.05,475.777 341,473 336,473 Z m 51.336,0 c -5,0 -9.051,0.777 -13.637,5.363 -1.997,1.998 0.629,3.56 1.197,8.637 h 32.88 c -1.232,-2.345 -2.806,-4.64 -4.803,-6.637 C 398.387,475.777 392.336,473 387.336,473 Z"
       id="path4"
       inkscape:connector-curvature="0"
       style="fill:#131210" />
  </g>
  <!-- react-empty: 6 -->
</svg>
