<?xml version="1.0" encoding="UTF-8" standalone="no"?>
<svg
   xmlns:dc="http://purl.org/dc/elements/1.1/"
   xmlns:cc="http://creativecommons.org/ns#"
   xmlns:rdf="http://www.w3.org/1999/02/22-rdf-syntax-ns#"
   xmlns:svg="http://www.w3.org/2000/svg"
   xmlns="http://www.w3.org/2000/svg"
   xmlns:sodipodi="http://sodipodi.sourceforge.net/DTD/sodipodi-0.dtd"
   xmlns:inkscape="http://www.inkscape.org/namespaces/inkscape"
   viewBox="0 0 1000 560"
   version="1.1"
   id="svg8"
   sodipodi:docname="military-ambulance.svg"
   width="1000"
   height="560"
   inkscape:version="0.92.1 r15371"
   inkscape:export-filename="C:\Users\William\Documents\Dev\Games\ccg\ccgclient\src\assets\png\military-ambulance.png"
   inkscape:export-xdpi="240"
   inkscape:export-ydpi="240">
  <metadata
     id="metadata14">
    <rdf:RDF>
      <cc:Work
         rdf:about="">
        <dc:format>image/svg+xml</dc:format>
        <dc:type
           rdf:resource="http://purl.org/dc/dcmitype/StillImage" />
        <dc:title></dc:title>
      </cc:Work>
    </rdf:RDF>
  </metadata>
  <defs
     id="defs12" />
  <sodipodi:namedview
     pagecolor="#ffffff"
     bordercolor="#666666"
     borderopacity="1"
     objecttolerance="10"
     gridtolerance="10"
     guidetolerance="10"
     inkscape:pageopacity="0"
     inkscape:pageshadow="2"
     inkscape:window-width="3840"
     inkscape:window-height="2104"
     id="namedview10"
     showgrid="true"
     inkscape:zoom="0.921875"
     inkscape:cx="479.81475"
     inkscape:cy="141.79654"
     inkscape:window-x="-16"
     inkscape:window-y="-16"
     inkscape:window-maximized="1"
     inkscape:current-layer="svg8">
    <inkscape:grid
       type="xygrid"
       id="grid4491" />
  </sodipodi:namedview>
  <path
     d="M 0,0 H 1020 V 560 H 0 Z"
     id="path2"
     inkscape:connector-curvature="0"
     style="fill:#c9c9c9;stroke-width:1.47612846" />
  <g
     class=""
     transform="matrix(1.670783,0,0,1.6996056,68.476418,-72.870234)"
     id="g6">
    <path
       d="M 23.386,142.898 V 274.27 H 266.077 V 142.898 Z m 258.959,1.397 c -0.156,48.746 -0.098,96.793 -0.098,145.914 H 179.556 a 53.33,53.33 0 0 1 21.62,30.86 v 29.736 h 196.352 v -32.707 c 3.503,-10.956 18.466,-26.48 27.844,-33.139 h 50.346 v -41.148 h -110.39 v -28.295 h -7.17 v 37.103 h -52 v -51.44 c 0.078,-1.439 0.036,-3.089 0.036,-4.597 h 60.092 v -21.248 h -24.45 z m -186.73,11.72 c 26.848,0 48.806,21.958 48.806,48.807 0,26.85 -21.958,48.807 -48.807,48.807 -26.849,0 -48.804,-21.958 -48.804,-48.807 0,-26.849 21.955,-48.806 48.804,-48.806 z m -8.268,13.854 v 25.486 H 61.858 v 17.198 h 25.489 v 25.488 h 17.195 V 212.553 H 130.03 V 195.355 H 104.542 V 169.87 Z m -47.83,120.37 c 0.156,14.386 0.105,4.07 0.507,32.359 h 57.944 l 4,-11.819 a 53.36,53.36 0 0 1 17.728,-20.54 z m 109.931,4.161 c -21.985,0 -40,18.016 -40,40 0,21.985 18.015,40 40,40 21.985,0 40,-18.015 40,-40 0,-21.984 -18.015,-40 -40,-40 z m 299.166,0.262 c -21.985,0 -40,18.015 -40,40 0,10.15 3.846,19.448 10.143,26.524 7.343,8.25 18.022,13.476 29.857,13.476 21.985,0 40,-18.015 40,-40 0,-21.985 -18.015,-40 -40,-40 z M 149.448,312.4 c 12.257,0 22,9.744 22,22 0,12.257 -9.743,22 -22,22 -12.257,0 -22,-9.743 -22,-22 0,-12.256 9.743,-22 22,-22 z m 299.166,0.262 c 12.257,0 22,9.743 22,22 0,12.257 -9.743,22 -22,22 -12.257,0 -22,-9.743 -22,-22 0,-12.257 9.743,-22 22,-22 z m -298.978,8.656 c -11.449,0 -17.182,13.84 -9.088,21.936 8.094,8.095 21.936,2.365 21.937,-9.084 -0.006,-7.093 -5.757,-12.84 -12.85,-12.84 z m 298.406,0.014 c -10.766,-0.003 -17.007,13.839 -8.912,21.934 8.095,8.094 21.936,2.363 21.935,-9.086 0,-7.093 -3.747,-12.845 -13.023,-12.848 z"
       id="path4"
       inkscape:connector-curvature="0"
       style="fill:#000000" />
  </g>
  <!-- react-empty: 6 -->
</svg>
