<?xml version="1.0" encoding="UTF-8" standalone="no"?>
<svg
   xmlns:dc="http://purl.org/dc/elements/1.1/"
   xmlns:cc="http://creativecommons.org/ns#"
   xmlns:rdf="http://www.w3.org/1999/02/22-rdf-syntax-ns#"
   xmlns:svg="http://www.w3.org/2000/svg"
   xmlns="http://www.w3.org/2000/svg"
   xmlns:sodipodi="http://sodipodi.sourceforge.net/DTD/sodipodi-0.dtd"
   xmlns:inkscape="http://www.inkscape.org/namespaces/inkscape"
   viewBox="0 0 1000 560"
   version="1.1"
   id="svg6"
   sodipodi:docname="missile-mech.svg"
   inkscape:version="0.92.1 r15371"
   inkscape:export-filename="C:\Users\William\Documents\Dev\Games\ccg\ccgclient\src\assets\png\missile-mech.png"
   inkscape:export-xdpi="200"
   inkscape:export-ydpi="200">
  <metadata
     id="metadata12">
    <rdf:RDF>
      <cc:Work
         rdf:about="">
        <dc:format>image/svg+xml</dc:format>
        <dc:type
           rdf:resource="http://purl.org/dc/dcmitype/StillImage" />
        <dc:title></dc:title>
      </cc:Work>
    </rdf:RDF>
  </metadata>
  <defs
     id="defs10" />
  <sodipodi:namedview
     pagecolor="#ffffff"
     bordercolor="#666666"
     borderopacity="1"
     objecttolerance="10"
     gridtolerance="10"
     guidetolerance="10"
     inkscape:pageopacity="0"
     inkscape:pageshadow="2"
     inkscape:window-width="3840"
     inkscape:window-height="2104"
     id="namedview8"
     showgrid="false"
     inkscape:zoom="1.6857143"
     inkscape:cx="399.46914"
     inkscape:cy="181.0654"
     inkscape:window-x="-16"
     inkscape:window-y="-16"
     inkscape:window-maximized="1"
     inkscape:current-layer="svg6" />
  <rect
     width="1000"
     height="560"
     fill="white"
     class="card-image-background"
     id="rect2"
     style="fill:#c9c9c9;fill-opacity:1" />
  <path
     d="m 354.35,90.398 -80.952,61.74 v 47.173 h 162.524 c -15.238,16.172 -24.608,38.184 -24.608,62.538 0,49.97 39.442,90.097 88.11,90.097 48.668,0 88.107,-40.126 88.107,-90.097 0,-24.353 -9.368,-46.366 -24.604,-62.537 h 163.396 v -47.174 l -80.95,-61.74 h -88.6 v 102.978 c -5.696,-4.987 -12.02,-9.24 -18.84,-12.623 v -56.259 h -75.778 v 55.66 c -6.942,3.308 -13.392,7.51 -19.205,12.47 V 90.397 h -88.6 z m 10.67,18.688 c 7.38,0 13.156,5.776 13.156,13.152 0,7.38 -5.777,13.158 -13.156,13.158 -7.38,0 -13.16,-5.778 -13.16,-13.158 0,-7.38 5.78,-13.152 13.16,-13.152 z m 45.662,0 c 7.38,0 13.156,5.776 13.156,13.152 0,7.38 -5.777,13.158 -13.156,13.158 -7.38,0 -13.16,-5.778 -13.16,-13.158 0,-7.38 5.78,-13.152 13.16,-13.152 z m 177.86,0 c 7.38,0 13.155,5.773 13.155,13.152 0,7.38 -5.776,13.158 -13.156,13.158 -7.38,0 -13.155,-5.778 -13.155,-13.158 0,-7.376 5.776,-13.152 13.156,-13.152 z m 46.16,0 c 7.38,0 13.155,5.773 13.155,13.152 0,7.38 -5.776,13.158 -13.156,13.158 -7.378,0 -13.155,-5.778 -13.155,-13.158 0,-7.376 5.777,-13.152 13.156,-13.152 z M 305.25,154.088 c 7.38,0 13.156,5.776 13.156,13.152 0,7.38 -5.776,13.158 -13.156,13.158 -7.38,0 -13.156,-5.778 -13.156,-13.158 0,-7.38 5.776,-13.152 13.156,-13.152 z m 45.705,0 c 7.38,0 13.156,5.776 13.156,13.152 0,7.38 -5.775,13.158 -13.155,13.158 -7.38,0 -13.156,-5.778 -13.156,-13.158 0,-7.38 5.774,-13.152 13.155,-13.152 z m 45.662,0 c 7.38,0 13.158,5.776 13.158,13.152 0,7.38 -5.778,13.158 -13.158,13.158 -7.38,0 -13.157,-5.778 -13.157,-13.158 0,-7.38 5.776,-13.152 13.157,-13.152 z m 205.738,0 c 7.38,0 13.157,5.773 13.157,13.152 0,7.38 -5.777,13.158 -13.157,13.158 -7.38,0 -13.155,-5.778 -13.155,-13.158 0,-7.376 5.776,-13.152 13.155,-13.152 z m 46.41,0 c 7.38,0 13.155,5.773 13.155,13.152 0,7.38 -5.777,13.158 -13.156,13.158 -7.38,0 -13.157,-5.778 -13.157,-13.158 0,-7.376 5.777,-13.152 13.157,-13.152 z m 45.704,0 c 7.38,0 13.157,5.773 13.157,13.152 0,7.38 -5.78,13.158 -13.158,13.158 -7.38,0 -13.158,-5.778 -13.158,-13.158 0,-7.376 5.777,-13.152 13.157,-13.152 z m -195.046,39.2 c 9.8,0 19.12,2.093 27.57,5.843 l 2.045,32.16 c -8.006,-7.307 -18.012,-11.77 -29.257,-11.77 -10.234,0 -19.45,3.69 -27.064,9.855 l 2,-31.434 c 7.673,-2.994 15.997,-4.65 24.704,-4.65 z m -44.172,16.267 -3.867,60.785 c -7.05,-1.798 -14.102,-3.95 -21.153,-6.445 0,-21.858 9.737,-41.39 25.02,-54.34 z m 91.303,2.666 c 13.567,12.89 22.062,31.266 22.062,51.675 -6.127,2.41 -12.255,4.46 -18.383,6.177 l -3.68,-57.85 z m -205.22,22.87 v 54.44 h 54.806 c -2.288,-8.845 -3.513,-18.123 -3.513,-27.682 0,-9.226 1.14,-18.19 3.277,-26.758 z m 261.608,0 c 2.137,8.567 3.278,17.532 3.278,26.758 0,9.56 -1.224,18.837 -3.513,27.683 h 54.084 v -54.44 h -53.847 z m -103.16,3.12 c 13.253,0 25.927,12.614 29.205,31.124 h -58.41 c 3.278,-18.51 15.952,-31.125 29.205,-31.125 z m -143.887,70.01 v 62.032 c 5.21,-2.606 10.862,-4.078 16.874,-4.078 6.013,0 11.666,1.472 16.876,4.08 V 308.22 h -33.75 z m 252.58,0 v 62.034 c 5.21,-2.607 10.863,-4.08 16.876,-4.08 6.012,0 11.665,1.473 16.875,4.08 V 308.22 h -33.75 z M 372.77,384.862 c -8.27,0 -17.002,5.945 -24.237,18.412 -7.235,12.467 -12.123,30.715 -12.123,50.996 0,20.283 4.888,38.53 12.123,50.998 7.235,12.467 15.966,18.414 24.237,18.414 8.27,0 17.003,-5.946 24.238,-18.412 7.235,-12.467 12.123,-30.716 12.123,-51 0,-20.28 -4.887,-38.528 -12.122,-50.995 -7.235,-12.467 -15.968,-18.412 -24.238,-18.412 z m 252.582,0 c -8.27,0 -17.002,5.945 -24.237,18.412 -7.235,12.467 -12.125,30.715 -12.125,50.996 0,20.283 4.89,38.53 12.125,50.998 7.235,12.467 15.966,18.414 24.237,18.414 8.27,0 17,-5.946 24.236,-18.412 7.235,-12.467 12.123,-30.716 12.123,-51 0,-20.28 -4.887,-38.528 -12.122,-50.995 -7.235,-12.467 -15.966,-18.412 -24.236,-18.412 z M 342.664,528.4 309.21,561.855 H 436.33 L 402.875,528.4 c -8.298,8.535 -18.537,13.97 -30.105,13.97 -11.568,0 -21.81,-5.435 -30.106,-13.97 z m 252.582,0 -33.455,33.455 H 688.913 L 655.457,528.4 c -8.298,8.535 -18.537,13.97 -30.105,13.97 -11.568,0 -21.808,-5.435 -30.106,-13.97 z"
     class="card-image-forground"
     id="path4"
     inkscape:connector-curvature="0"
     style="fill:#000000" />
</svg>
