<?xml version="1.0" encoding="UTF-8" standalone="no"?>
<svg
   xmlns:dc="http://purl.org/dc/elements/1.1/"
   xmlns:cc="http://creativecommons.org/ns#"
   xmlns:rdf="http://www.w3.org/1999/02/22-rdf-syntax-ns#"
   xmlns:svg="http://www.w3.org/2000/svg"
   xmlns="http://www.w3.org/2000/svg"
   xmlns:sodipodi="http://sodipodi.sourceforge.net/DTD/sodipodi-0.dtd"
   xmlns:inkscape="http://www.inkscape.org/namespaces/inkscape"
   viewBox="0 0 1000 560"
   version="1.1"
   id="svg8"
   sodipodi:docname="monk-face.svg"
   width="1000"
   height="560"
   inkscape:version="0.92.1 r15371">
  <metadata
     id="metadata14">
    <rdf:RDF>
      <cc:Work
         rdf:about="">
        <dc:format>image/svg+xml</dc:format>
        <dc:type
           rdf:resource="http://purl.org/dc/dcmitype/StillImage" />
        <dc:title></dc:title>
      </cc:Work>
    </rdf:RDF>
  </metadata>
  <defs
     id="defs12" />
  <sodipodi:namedview
     pagecolor="#ffffff"
     bordercolor="#666666"
     borderopacity="1"
     objecttolerance="10"
     gridtolerance="10"
     guidetolerance="10"
     inkscape:pageopacity="0"
     inkscape:pageshadow="2"
     inkscape:window-width="3840"
     inkscape:window-height="2004"
     id="namedview10"
     showgrid="false"
     inkscape:zoom="0.921875"
     inkscape:cx="312.66904"
     inkscape:cy="210.2249"
     inkscape:window-x="-16"
     inkscape:window-y="-16"
     inkscape:window-maximized="1"
     inkscape:current-layer="svg8" />
  <path
     d="M 0,2.4406779 H 1008.8136 V 560 H 0 Z"
     id="path2"
     inkscape:connector-curvature="0"
     style="fill:#f8e71c;stroke-width:1.46480918" />
  <g
     class=""
     id="g6"
     transform="matrix(1.1914261,0,0,1.1914261,206.99482,-22.318079)">
    <path
       d="m 256,41 c -29.03,0 -56.162,11.49 -78.38,31.12 1.61,1.512 3.192,3.022 4.714,4.49 9.823,9.47 18.386,17.234 26.963,18.484 5.004,0.73 11.068,-1.446 18.715,-4.95 7.647,-3.503 16.566,-8.274 27.62,-8.294 11.163,-0.02 20.207,4.76 27.975,8.28 7.77,3.522 13.955,5.722 19.08,4.966 8.583,-1.267 17.153,-9.04 26.98,-18.506 1.52,-1.464 3.095,-2.97 4.704,-4.48 C 312.156,52.488 285.027,41 256,41 Z M 143.572,72.99 c -1.595,-0.076 -5.878,2.043 -9.21,5.373 -4.138,4.14 -8.75,9.024 -11.485,13.395 -2.736,4.37 -3.203,7.102 -2.465,9.043 3.604,9.48 12.928,14.148 27.156,17.555 14.228,3.408 31.67,4.636 46.905,8.99 20.49,5.857 41.04,10.94 61.052,10.968 20.34,0.026 41.222,-5.056 62.012,-10.97 15.233,-4.332 32.672,-5.563 46.897,-8.974 14.224,-3.412 23.55,-8.088 27.154,-17.57 0.738,-1.94 0.27,-4.672 -2.465,-9.042 -2.736,-4.37 -7.347,-9.256 -11.486,-13.395 -3.33,-3.33 -7.614,-5.45 -9.21,-5.373 -8.463,0.402 -16.603,7.244 -26.273,16.56 -9.67,9.317 -20.536,20.948 -36.84,23.354 -11.4,1.683 -21.038,-2.707 -29.138,-6.38 -8.1,-3.67 -14.97,-6.685 -20.51,-6.674 -5.422,0.01 -12.174,3.002 -20.156,6.66 -7.983,3.657 -17.506,8.043 -28.807,6.396 -16.317,-2.377 -27.19,-14.016 -36.86,-23.34 -9.672,-9.323 -17.813,-16.174 -26.27,-16.576 z m -8.437,60.555 C 126.11,155.883 121,181.13 121,208 c 0,67.545 32.248,124.872 78,151.332 v -5.795 h 18 v 9 c 0,0 -0.073,4.904 4.2,10.6 4.27,5.696 12.8,12.4 34.8,12.4 22,0 30.53,-6.704 34.8,-12.4 4.273,-5.696 4.2,-10.6 4.2,-10.6 v -9 h 18 v 5.795 c 45.752,-26.46 78,-83.787 78,-151.332 0,-26.865 -5.11,-52.11 -14.13,-74.443 -2.73,0.888 -5.49,1.657 -8.24,2.316 -16.316,3.913 -33.775,5.26 -46.167,8.783 -21.193,6.028 -43.652,11.687 -66.96,11.656 -22.997,-0.03 -45.113,-5.695 -65.976,-11.658 -12.38,-3.538 -29.835,-4.887 -46.152,-8.795 -2.75,-0.66 -5.51,-1.428 -8.24,-2.315 z m -29.02,37.197 c -6.307,1.07 -11.955,2.64 -16.623,4.72 -9.613,4.29 -14.883,9.754 -16.68,18.376 -1.835,8.79 4.34,18.974 15.292,29.193 5.215,4.868 10.972,9.264 16.693,13.33 -1.18,-9.257 -1.797,-18.73 -1.797,-28.36 0,-12.74 1.073,-25.202 3.115,-37.258 z m 299.77,0 c 2.042,12.056 3.115,24.52 3.115,37.258 0,9.63 -0.616,19.103 -1.797,28.36 5.72,-4.066 11.478,-8.462 16.693,-13.33 10.953,-10.218 17.127,-20.4 15.293,-29.192 -1.8,-8.622 -7.07,-14.087 -16.682,-18.375 -4.668,-2.082 -10.315,-3.652 -16.623,-4.72 z M 151,179.428 h 82 v 18 h -17.893 c 1.228,3.317 1.893,6.904 1.893,10.572 0,14.537 -10.435,27.842 -25,27.842 -14.565,0 -25,-13.305 -25,-27.842 0,-3.668 0.665,-7.255 1.893,-10.572 H 151 Z m 128,0 h 82 v 18 h -17.893 c 1.228,3.317 1.893,6.904 1.893,10.572 0,14.537 -10.435,27.842 -25,27.842 -14.565,0 -25,-13.305 -25,-27.842 0,-3.668 0.665,-7.255 1.893,-10.572 H 279 Z m -87,18.73 c -3.11,0 -7,3.566 -7,9.842 0,6.276 3.89,9.842 7,9.842 3.11,0 7,-3.566 7,-9.842 0,-6.276 -3.89,-9.842 -7,-9.842 z m 128,0 c -3.11,0 -7,3.566 -7,9.842 0,6.276 3.89,9.842 7,9.842 3.11,0 7,-3.566 7,-9.842 0,-6.276 -3.89,-9.842 -7,-9.842 z m -96.615,29.13 6.664,6.048 c 10.193,9.253 18.694,12.328 26.63,12.053 7.936,-0.277 16.305,-4.164 25.375,-12.146 l 6.756,-5.945 11.89,13.51 -6.755,5.946 c -11.043,9.72 -23.294,16.16 -36.64,16.623 -13.347,0.462 -26.79,-5.312 -39.354,-16.716 l -6.663,-6.05 12.098,-13.327 z m -40.37,28.173 17.97,1.08 c -0.528,8.798 -2.63,16.397 -5.788,23.036 46.533,15.463 75.073,15.463 121.606,0 -3.158,-6.64 -5.26,-14.238 -5.787,-23.037 l 17.968,-1.08 c 1.277,21.287 12.412,30.7 27.993,41.042 l -9.954,14.996 c -6.863,-4.555 -13.805,-9.87 -19.744,-16.437 l -4.434,1.48 c -49.14,16.38 -84.553,16.38 -133.692,0 l -4.433,-1.48 c -5.938,6.567 -12.88,11.883 -19.743,16.438 l -9.954,-14.996 c 15.58,-10.34 26.716,-19.755 27.993,-41.04 z m -53.247,57.112 c -11.485,7.137 -19.815,15.392 -24.174,24.328 15.652,60.648 38.172,93.902 64.263,116.266 22.97,19.69 49.378,31.227 77.143,44.504 V 441 h -32 v -18 h 32 v -19.86 c -20.637,-1.876 -33.41,-10.15 -40.2,-19.202 -0.244,-0.327 -0.46,-0.655 -0.69,-0.983 C 174.7,369.909 148.082,344.9 129.768,312.572 Z m 252.464,0 c -18.314,32.328 -44.93,57.337 -76.34,70.383 -0.23,0.328 -0.448,0.656 -0.693,0.983 -6.79,9.053 -19.563,17.326 -40.2,19.2 V 423 h 32 v 18 h -32 v 56.67 c 27.765,-13.277 54.172,-24.815 77.143,-44.504 26.09,-22.364 48.61,-55.618 64.263,-116.266 -4.36,-8.936 -12.69,-17.19 -24.174,-24.328 z M 231,327 h 50 v 18 H 231 Z M 89.107,345.256 c -19.795,1.35 -39.674,8.244 -54.736,16.61 -6.51,3.618 -12.106,7.51 -16.37,11.148 V 494 h 37 v -39 h 18 v 39 h 125.602 c -13.88,-7.477 -27.505,-16.063 -40.46,-27.166 -28.365,-24.313 -52.697,-60.595 -69.035,-121.578 z m 333.786,0 c -16.338,60.983 -40.67,97.265 -69.036,121.578 -12.954,11.103 -26.58,19.69 -40.46,27.166 H 439 v -39 h 18 v 39 h 37 V 373.014 c -4.264,-3.637 -9.86,-7.53 -16.37,-11.147 -15.063,-8.367 -34.942,-15.262 -54.737,-16.61 z"
       id="path4"
       inkscape:connector-curvature="0"
       style="fill:#000000" />
  </g>
  <!-- react-empty: 13 -->
</svg>
