<?xml version="1.0" encoding="UTF-8" standalone="no"?>
<svg
   xmlns:dc="http://purl.org/dc/elements/1.1/"
   xmlns:cc="http://creativecommons.org/ns#"
   xmlns:rdf="http://www.w3.org/1999/02/22-rdf-syntax-ns#"
   xmlns:svg="http://www.w3.org/2000/svg"
   xmlns="http://www.w3.org/2000/svg"
   xmlns:sodipodi="http://sodipodi.sourceforge.net/DTD/sodipodi-0.dtd"
   xmlns:inkscape="http://www.inkscape.org/namespaces/inkscape"
   viewBox="0 0 1000 560"
   version="1.1"
   id="svg8"
   sodipodi:docname="mounted-knight.svg"
   width="1000"
   height="560"
   inkscape:version="0.92.1 r15371">
  <metadata
     id="metadata14">
    <rdf:RDF>
      <cc:Work
         rdf:about="">
        <dc:format>image/svg+xml</dc:format>
        <dc:type
           rdf:resource="http://purl.org/dc/dcmitype/StillImage" />
        <dc:title></dc:title>
      </cc:Work>
    </rdf:RDF>
  </metadata>
  <defs
     id="defs12" />
  <sodipodi:namedview
     pagecolor="#ffffff"
     bordercolor="#666666"
     borderopacity="1"
     objecttolerance="10"
     gridtolerance="10"
     guidetolerance="10"
     inkscape:pageopacity="0"
     inkscape:pageshadow="2"
     inkscape:window-width="3840"
     inkscape:window-height="2004"
     id="namedview10"
     showgrid="true"
     inkscape:zoom="1.84375"
     inkscape:cx="481.19028"
     inkscape:cy="312.82436"
     inkscape:window-x="-16"
     inkscape:window-y="-16"
     inkscape:window-maximized="1"
     inkscape:current-layer="svg8">
    <inkscape:grid
       type="xygrid"
       id="grid4491" />
  </sodipodi:namedview>
  <path
     d="M 0,0 H 1000 V 560 H 0 Z"
     id="path2"
     inkscape:connector-curvature="0"
     style="fill:#f8e71c;stroke-width:1.46158493" />
  <g
     class=""
     id="g6"
     transform="matrix(1.0965052,0,0,1.0965052,237.82961,-12.711553)">
    <path
       d="m 222.776,64.76 a 16.1,16.1 0 0 1 4.22,0.56 c 8.45,2.29 13.88,11.15 14.57,22 l -25.78,6 21.89,13.86 c -4.93,10.47 -13.67,17.3 -22.34,17.3 a 16.1,16.1 0 0 1 -4.22,-0.56 c -11.68,-3.16 -17.59,-18.85 -13.2,-35 3.87,-14.26 14.43,-24.16 24.86,-24.16 z m -20.29,-9.44 a 38.78,38.78 0 0 1 9.18,-4.65 c -5.47,-4.23 -12.06,-8.82 -15.9,-9.73 -27.8,-6.55 -28.34,34.41 -49.08,15.35 16.77,30.56 35.36,-12.18 55.8,-0.96 z m 54,115.56 c -6.437,-14.24 -23.208,-20.557 -37.44,-14.1 l 23.34,51.55 c 14.246,-6.438 20.57,-23.21 14.12,-37.45 z m -69.52,35 -21.72,-6.66 -60.94,31 7.16,14.07 z m 29.88,-65.41 h -1.53 c -2.836,0.002 -5.66,-0.37 -8.4,-1.11 a 32.64,32.64 0 0 1 -14.27,-8.23 l -19.49,53.78 47.69,14.63 -10.68,-23.59 -14,-2.64 9.69,-7 -8.01,-17.51 c 0,0 17.52,-7.83 19,-8.33 z m -132.65,143 c -64.72,-46.18 42,-97.32 -47.05,-105.87 59.27,26.57 -49.43,44.81 -10.25,97.71 7.49,10.11 34.76,24.95 49.64,32.56 a 78.51,78.51 0 0 1 7.7,-24.38 z m 132.79,-63.26 2.31,-4.42 -10.29,-3.15 -49.91,25.39 68.65,26.47 -48.34,40.09 40.63,26.55 -6.5,-23.93 45.41,-49 z m 13.73,-82 c 4.898,0.003 9.76,0.82 14.39,2.42 l 41.79,-21.22 a 184.67,184.67 0 0 0 -35.66,-3.51 c -5.68,11 -14.35,19 -24.17,22.51 1.21,-0.09 2.43,-0.16 3.65,-0.16 z m 182,124.37 h -4.15 c -5.37,0 -11.36,-0.21 -17.77,-0.63 l 12.66,18 25,-7.33 c 0,0 -1.13,-4.55 -2.74,-11.23 a 82.78,82.78 0 0 1 -13.04,1.23 z m -138.97,-46.37 c 13.84,-22.89 46.76,-66.73 96,-66.73 16.79,0 35.49,5.1 56,17.86 l -11,19.83 0.21,21.93 c -0.43,3.25 3.4,21 7.08,36.9 -6.65,1.15 -23,1 -43.18,-1 l -5.68,-8.1 c -16.16,-9.55 -28.75,-15.76 -28.75,-15.76 0,0 0.91,7.77 1.22,19.23 -23.06,-4.18 -46.85,-10.67 -64.84,-20.13 a 81.992,81.992 0 0 1 -7.06,-4.03 z m 120.1,-18.38 c 0,4.678 5.655,7.02 8.963,3.712 3.306,-3.307 0.964,-8.962 -3.714,-8.962 a 5.25,5.25 0 0 0 -5.25,5.25 z m -132.64,-47.42 a 44.15,44.15 0 0 1 9.43,12.91 l 223.21,-123.4 v -9.4 z m 76.17,154.12 c 5.64,-14.72 7.68,-32.58 8.2,-48 a 325.89,325.89 0 0 1 -49,-12.25 151.31,151.31 0 0 1 -30.12,-13.81 l 13.78,96.66 -129,17.14 -10.39,-87.05 c -4.26,1.77 -8.45,3.64 -12.54,5.64 -58.81,28.68 -29.46,96.18 -29.46,96.18 l -25,49.21 30.11,54.35 v 18.81 h 33.9 l -15.74,-22.83 -14.48,-52.57 48.87,-46.4 c 27.89,1.26 102.44,-11.49 134.52,-17 l 83,4.55 22.88,29.29 -16.85,12.55 29.55,13.9 9.37,-18.45 -19.23,-49.28 z m -51.22,-131.12 -11.31,5.72 a 44.08,44.08 0 0 1 -0.07,7.38 c 3.46,-4.32 7.23,-8.75 11.38,-13.1 z m 31.69,231.92 -5,-45.44 -20.89,-1.14 c -6.2,1.06 -13.11,2.22 -20.44,3.43 l 21.46,47.74 17.68,54.56 -0.63,17 h 31.67 l -9.65,-17.83 z m -140.38,19.45 36.79,-53.82 c -21.33,2.95 -51.31,5.07 -51.47,5.07 l 2.93,7.61 -19.1,41.87 47,44.07 v 11.75 h 28.65 l -11.35,-12.92 z"
       id="path4"
       inkscape:connector-curvature="0"
       style="fill:#000000" />
  </g>
  <!-- react-empty: 6 -->
</svg>
