<?xml version="1.0" encoding="UTF-8" standalone="no"?>
<svg
   xmlns:dc="http://purl.org/dc/elements/1.1/"
   xmlns:cc="http://creativecommons.org/ns#"
   xmlns:rdf="http://www.w3.org/1999/02/22-rdf-syntax-ns#"
   xmlns:svg="http://www.w3.org/2000/svg"
   xmlns="http://www.w3.org/2000/svg"
   xmlns:sodipodi="http://sodipodi.sourceforge.net/DTD/sodipodi-0.dtd"
   xmlns:inkscape="http://www.inkscape.org/namespaces/inkscape"
   viewBox="0 0 1000 560"
   version="1.1"
   id="svg8"
   sodipodi:docname="mummy-head.svg"
   width="1000"
   height="560"
   inkscape:version="0.92.1 r15371"
   inkscape:export-filename="C:\Users\William\Documents\Dev\Games\ccg\ccgclient\src\assets\png\mummy-head.png"
   inkscape:export-xdpi="96"
   inkscape:export-ydpi="96">
  <metadata
     id="metadata14">
    <rdf:RDF>
      <cc:Work
         rdf:about="">
        <dc:format>image/svg+xml</dc:format>
        <dc:type
           rdf:resource="http://purl.org/dc/dcmitype/StillImage" />
        <dc:title></dc:title>
      </cc:Work>
    </rdf:RDF>
  </metadata>
  <defs
     id="defs12" />
  <sodipodi:namedview
     pagecolor="#ffffff"
     bordercolor="#666666"
     borderopacity="1"
     objecttolerance="10"
     gridtolerance="10"
     guidetolerance="10"
     inkscape:pageopacity="0"
     inkscape:pageshadow="2"
     inkscape:window-width="3840"
     inkscape:window-height="2104"
     id="namedview10"
     showgrid="true"
     inkscape:zoom="0.4609375"
     inkscape:cx="-384"
     inkscape:cy="256"
     inkscape:window-x="-16"
     inkscape:window-y="-16"
     inkscape:window-maximized="1"
     inkscape:current-layer="svg8">
    <inkscape:grid
       type="xygrid"
       id="grid821" />
  </sodipodi:namedview>
  <rect
     id="rect823"
     width="1000"
     height="560"
     x="0"
     y="0"
     style="fill:#370661;fill-opacity:1" />
  <g
     class=""
     id="g6"
     transform="translate(257.6,22.9)"
     style="fill:#ffffff">
    <path
       d="m 256,25 c -14.2,0 -29.2,2.8 -44.1,7.98 52.5,25.75 110.4,48.59 178.2,66.36 C 383.4,90.47 375.9,82.17 367.8,74.55 335.3,43.93 293,25 256,25 Z m -69.9,15.14 c -24.2,8.01 -44.4,22.9 -58.3,37.39 11.1,4.1 22,7.57 31.2,10.35 25.7,7.75 60.5,17.12 95.5,26.12 33.9,8.7 67.9,17 94.2,23 20,-0.4 40,-0.5 60,-0.5 2.3,-4.4 3.8,-9.1 2.2,-13.5 C 322.8,102.3 250.4,73.21 186.1,40.14 Z M 118.8,93.19 C 115.4,102 112,111 108.5,119.9 102.7,130.4 98.06,141.4 94.74,152.8 156.4,145.7 218,141.3 279.5,138.9 c -9.6,-2.4 -19.4,-4.8 -29.4,-7.4 -35.2,-9.1 -70.1,-18.5 -96.3,-26.4 -11.9,-3.6 -24.3,-7.5 -35,-11.91 z m 299,61.31 c -112.8,-0.3 -225.6,4.4 -338.26,18.2 -3.13,10.1 -1.66,19.6 3.04,29.7 117.42,-15.8 231.52,-10.1 342.72,-5.1 0.3,-6.6 0.5,-13.7 -0.2,-20.7 -0.8,-9 -3.2,-16.8 -7.3,-22.1 z m -278.7,55.1 c 0,0 19.3,39.9 37.2,49.2 14.7,7.6 41.6,-10.8 51.7,-22.8 -30.6,3.4 -61.6,-9 -88.9,-26.4 z m 233.8,0 C 345.6,227 314.6,239.4 284,236 c 10.1,12 37,30.4 51.7,22.8 17.9,-9.3 37.2,-49.2 37.2,-49.2 z m 32.9,4.9 c -2.9,16.7 -6.2,33.8 -11.6,51.3 5.6,-0.1 11.1,-0.3 16.7,-0.6 1.4,-17 4.7,-33.7 9.1,-50.1 -4.7,-0.2 -9.4,-0.4 -14.2,-0.6 z m -302.8,3.4 -18.79,2.4 5.69,20.9 0.6,0.1 c 6,1.4 12,2.7 18,3.9 -2.6,-8.8 -4.7,-17.9 -5.5,-27.3 z M 71.74,243 c -8.76,23 -19.95,45.5 -33.95,65.9 10.99,2.8 21.87,7 30,14.4 6.05,-7.1 11.84,-15.7 17.39,-25.2 -1.38,-5.7 -2.32,-11.4 -3.01,-16.9 z m 26.71,18.3 c 1.41,18 2.95,34.7 10.85,51 92.3,19.3 191.1,22.2 291.1,22.8 5.3,-18.5 7.9,-35.8 7.8,-51.8 -102.1,3.9 -206.9,0.2 -309.75,-22 z m 17.85,70.8 c 8,18.5 14.9,37.4 19.2,57.5 114.2,-25.5 211.9,-19.8 254.3,-18.2 l 4.7,-18.3 c -94.7,-0.6 -188.9,-3.5 -278.2,-21 z m 177,56.1 c -7.5,0.3 -15.3,0.6 -23.2,1.1 l 8.6,19.1 z m 67.5,0.2 c -5.6,12 -11.6,24.4 -18.8,37.3 5.7,-0.8 11.4,-1.6 17.1,-2.5 4.7,-11.3 9.4,-22.7 14.2,-34.4 -3.9,-0.1 -8.1,-0.3 -12.5,-0.4 z m 31.6,1.7 c -5.8,14.2 -11.6,28.1 -17.3,41.6 7.1,18.1 16.2,34.3 29.6,47.1 7,-14.7 16,-27.7 29.1,-35.6 -17,-12.3 -29.5,-28.8 -38.6,-47.2 -1,-2 -1.9,-3.9 -2.8,-5.9 z m -149.5,1.1 c -7.2,0.7 -14.6,1.4 -22.1,2.3 4.9,8.5 9.8,17 14.7,25.4 2.5,-9.2 4.9,-18.5 7.4,-27.7 z m -82.6,11.6 c -4.9,1 -9.7,2 -14.6,3 2.1,5.2 4.3,10.3 6.4,15.4 5.2,1.2 10.3,2.3 15.5,3.2 -3,-7.2 -5.3,-14.5 -7.3,-21.6 z m 44.3,4.4 c -2.2,7.2 -4.4,14.5 -6.6,21.7 6.5,0.8 13,1.4 19.5,1.8 -4.3,-7.8 -8.6,-15.7 -12.9,-23.5 z m 54.8,4.1 c -2.2,6.9 -4.5,13.8 -6.7,20.7 5.9,0 11.7,-0.1 17.6,-0.2 -3.6,-6.8 -7.3,-13.7 -10.9,-20.5 z m 41.7,1.2 c -2.2,6.1 -4.6,12.1 -6.9,18.1 4.6,-0.3 9.3,-0.7 13.9,-1.1 -2.3,-5.7 -4.7,-11.3 -7,-17 z m -140.6,28.9 c 2.5,6.1 5,12.2 7.4,18.1 9,13 29,22.8 52.6,27.8 20.9,-12.4 42,-23.9 58.6,-37.8 -39.6,1.6 -79.7,-0.5 -118.6,-8.1 z m 190.5,1.2 c -14.7,2.2 -29.5,3.9 -44.5,5.1 -15.4,18.2 -35.8,31.2 -56.2,43.2 1.9,0.1 3.8,0.1 5.7,0.1 37.8,0 74.8,-12.4 88.1,-31.5 2.2,-5.6 4.5,-11.2 6.9,-16.9 z"
       id="path4"
       inkscape:connector-curvature="0"
       style="fill:#ffffff" />
  </g>
</svg>
