<?xml version="1.0" encoding="UTF-8" standalone="no"?>
<svg
   xmlns:dc="http://purl.org/dc/elements/1.1/"
   xmlns:cc="http://creativecommons.org/ns#"
   xmlns:rdf="http://www.w3.org/1999/02/22-rdf-syntax-ns#"
   xmlns:svg="http://www.w3.org/2000/svg"
   xmlns="http://www.w3.org/2000/svg"
   xmlns:sodipodi="http://sodipodi.sourceforge.net/DTD/sodipodi-0.dtd"
   xmlns:inkscape="http://www.inkscape.org/namespaces/inkscape"
   viewBox="0 0 1000 560"
   version="1.1"
   id="svg21"
   sodipodi:docname="neck-bite.svg"
   width="1000"
   height="560"
   inkscape:version="0.92.1 r15371"
   inkscape:export-filename="C:\Users\William\Documents\Dev\Games\ccg\ccgclient\src\assets\png\neck-bite.png"
   inkscape:export-xdpi="240"
   inkscape:export-ydpi="240">
  <metadata
     id="metadata25">
    <rdf:RDF>
      <cc:Work
         rdf:about="">
        <dc:format>image/svg+xml</dc:format>
        <dc:type
           rdf:resource="http://purl.org/dc/dcmitype/StillImage" />
        <dc:title />
      </cc:Work>
    </rdf:RDF>
  </metadata>
  <sodipodi:namedview
     pagecolor="#000000"
     bordercolor="#666666"
     borderopacity="1"
     objecttolerance="10"
     gridtolerance="10"
     guidetolerance="10"
     inkscape:pageopacity="1"
     inkscape:pageshadow="2"
     inkscape:window-width="3840"
     inkscape:window-height="2004"
     id="namedview23"
     showgrid="false"
     inkscape:zoom="0.921875"
     inkscape:cx="333.1287"
     inkscape:cy="156.72709"
     inkscape:window-x="-16"
     inkscape:window-y="-16"
     inkscape:window-maximized="1"
     inkscape:current-layer="svg21" />
  <defs
     id="defs13">
    <filter
       id="shadow-1"
       height="3"
       width="3"
       x="-1"
       y="-1">
      <feFlood
         flood-color="#9013fe"
         result="flood"
         id="feFlood2" />
      <feComposite
         in="flood"
         in2="SourceGraphic"
         operator="atop"
         result="composite"
         id="feComposite4" />
      <feGaussianBlur
         in="composite"
         stdDeviation="25"
         result="blur"
         id="feGaussianBlur6" />
      <feOffset
         result="offset"
         id="feOffset8" />
      <feComposite
         in="SourceGraphic"
         in2="offset"
         operator="over"
         id="feComposite10" />
    </filter>
  </defs>
  <g
     class=""
     transform="matrix(1.614888,0,0,1.2107699,-33.689279,-29.764274)"
     id="g19">
    <path
       d="m 18,18 v 269.635 c 12.326,-4.654 24.576,-9.755 36.59,-15.332 20.283,-16.343 31.497,-28.505 37.603,-43.502 6.494,-15.947 7.643,-36.665 5.246,-70.93 l 17.955,-1.26 c 2.457,35.128 1.698,58.774 -6.532,78.982 -1.432,3.518 -3.09,6.877 -4.96,10.137 0.01,-0.006 0.02,-0.01 0.027,-0.017 -6.666,16.806 -47.957,57.937 -85.932,84.416 V 494 H 494 V 469.535 C 436.3,464.563 373.212,457.312 315.47,431.789 243.94,400.171 181.754,339.616 152.518,223.859 c -1.824,-7.22 -0.89,-14.784 0.8,-24.182 1.69,-9.398 4.476,-20.38 7.883,-32.582 6.815,-24.404 16.128,-53.64 24.136,-82.99 6.222,-22.803 11.618,-45.683 14.496,-66.106 H 18 Z m 253.326,43.703 c -5.677,0.675 -14.48,24.16 -8.38,30.938 17.84,19.823 73.65,32.397 76.005,24.965 2.244,-7.074 -44.703,-36.343 -66.014,-55.367 -0.168,-0.15 -0.344,-0.264 -0.522,-0.35 -0.345,-0.17 -0.71,-0.23 -1.088,-0.185 z m 214.418,70.44 c -28.44,2.68 -83.598,-1.59 -85.988,5.435 -2.51,7.38 49.885,30.35 76.004,24.967 9.524,-1.963 16.673,-29.287 10.615,-30.38 -0.194,-0.035 -0.406,-0.043 -0.63,-0.022 z m -207.848,69.11 c -12.725,12.637 -22.49,43.11 -20.156,60.743 l 30.303,-40.517 5.107,35.407 20.225,-10.147 10.146,20.227 20.226,-10.15 10.15,20.228 25.262,-25.332 0.07,50.596 c 11.704,-12.976 23.372,-42.82 20.157,-60.744 -43.176,-3.936 -83.91,-16.537 -121.49,-40.314 z m -22.308,67.296 c -12.334,12.812 -16.927,26.04 -14.172,43.76 32.817,31.52 75.394,45.256 121.73,39.577 13.217,-12.527 15.9,-26.378 14.168,-43.766 l -24.437,23.605 -10.316,-20.178 -20.164,10.27 -10.27,-20.167 -20.16,10.27 -10.27,-20.162 -20.116,10.285 -5.99,-33.494 h -0.002 z M 128,272 c 4.836,-0.035 10.04,1.717 14.506,4.88 9.482,6.715 13.138,17.85 8.166,24.868 -0.158,0.21 -0.324,0.41 -0.496,0.61 -4.204,30.237 -4.278,40.477 0.77,70.716 2.155,20.262 -6.275,19.11 -6.946,19.842 0,0 -14.647,-0.792 -11.053,-19.842 4.267,-29.007 4.585,-37.817 1.24,-66.443 -3.362,-0.732 -6.7,-2.225 -9.685,-4.33 -9.482,-6.715 -13.138,-17.848 -8.166,-24.868 2.433,-3.435 6.64,-5.394 11.664,-5.43 z m 66.66,87.72 c 4.836,-0.033 10.04,1.716 14.506,4.88 9.482,6.715 13.138,17.85 8.166,24.87 -0.158,0.208 -0.324,0.41 -0.496,0.608 -4.204,30.24 -4.278,38.478 0.77,68.717 2.786,20.262 -1.643,26.247 -8.67,26.162 -7.028,-0.084 -12.924,-7.112 -9.33,-26.162 4.267,-29.007 4.586,-35.817 1.242,-64.443 -3.363,-0.734 -6.7,-2.227 -9.686,-4.332 -9.482,-6.716 -13.138,-17.85 -8.166,-24.87 2.433,-3.435 6.64,-5.392 11.664,-5.43 z"
       id="path17"
       inkscape:connector-curvature="0"
       style="fill:#9013fe;filter:url(#shadow-1)" />
  </g>
  <!-- react-empty: 13 -->
</svg>
