<?xml version="1.0" encoding="UTF-8" standalone="no"?>
<svg
   xmlns:dc="http://purl.org/dc/elements/1.1/"
   xmlns:cc="http://creativecommons.org/ns#"
   xmlns:rdf="http://www.w3.org/1999/02/22-rdf-syntax-ns#"
   xmlns:svg="http://www.w3.org/2000/svg"
   xmlns="http://www.w3.org/2000/svg"
   xmlns:sodipodi="http://sodipodi.sourceforge.net/DTD/sodipodi-0.dtd"
   xmlns:inkscape="http://www.inkscape.org/namespaces/inkscape"
   viewBox="0 0 1000 560"
   version="1.1"
   id="svg8"
   sodipodi:docname="nested-hexagons.svg"
   width="1000"
   height="560"
   inkscape:version="0.92.1 r15371"
   inkscape:export-filename="C:\Users\William\Documents\Dev\Games\ccg\ccgclient\src\assets\png\nested-hexagons.png"
   inkscape:export-xdpi="96"
   inkscape:export-ydpi="96">
  <metadata
     id="metadata14">
    <rdf:RDF>
      <cc:Work
         rdf:about="">
        <dc:format>image/svg+xml</dc:format>
        <dc:type
           rdf:resource="http://purl.org/dc/dcmitype/StillImage" />
        <dc:title></dc:title>
      </cc:Work>
    </rdf:RDF>
  </metadata>
  <defs
     id="defs12" />
  <sodipodi:namedview
     pagecolor="#ffffff"
     bordercolor="#666666"
     borderopacity="1"
     objecttolerance="10"
     gridtolerance="10"
     guidetolerance="10"
     inkscape:pageopacity="0"
     inkscape:pageshadow="2"
     inkscape:window-width="3840"
     inkscape:window-height="2104"
     id="namedview10"
     showgrid="true"
     inkscape:zoom="0.4609375"
     inkscape:cx="-461.01695"
     inkscape:cy="256"
     inkscape:window-x="-16"
     inkscape:window-y="-16"
     inkscape:window-maximized="1"
     inkscape:current-layer="svg8">
    <inkscape:grid
       type="xygrid"
       id="grid821" />
  </sodipodi:namedview>
  <path
     d="M 0,0 H 1000 V 560 H 0 Z"
     id="path2"
     inkscape:connector-curvature="0"
     style="fill:#c9c9c9;fill-opacity:1;stroke-width:1.46158481" />
  <g
     class=""
     id="g6"
     transform="matrix(1.117319,0,0,1.117319,220.66807,-7.6370471)">
    <path
       fill="rgba(0, 0, 0, 1)"
       d="M 256,21.52 251.5,24.117 52.934,138.76 V 373.24 L 256,490.48 459.066,373.24 V 138.76 Z m 0,20.783 185.066,106.85 V 362.848 L 256,469.698 70.934,362.847 V 149.152 L 256,42.302 Z m 0,30.93 -4.5,2.597 -153.78,88.785 v 182.77 L 256,438.768 414.28,347.385 V 164.615 L 256,73.232 Z m 0,20.783 140.28,80.992 V 336.992 L 256,417.984 115.72,336.992 V 175.008 Z m 0,30.93 -4.5,2.597 -108.998,62.93 V 321.527 L 256,387.055 369.498,321.527 V 190.473 L 256,124.945 Z m 0,20.783 95.498,55.135 v 110.27 L 256,366.27 160.502,311.135 V 200.865 L 256,145.73 Z m 0,30.928 -4.5,2.598 -64.213,37.072 v 79.344 L 256,335.342 324.713,295.672 V 216.328 L 256,176.658 Z m 0,20.783 50.713,29.28 v 58.56 L 256,314.56 205.287,285.28 v -58.56 z m 0,30.93 -4.5,2.6 -19.428,11.216 v 27.628 L 256,283.63 279.928,269.814 v -27.628 z"
       id="path4"
       inkscape:connector-curvature="0" />
  </g>
</svg>
