<?xml version="1.0" encoding="UTF-8" standalone="no"?>
<svg
   xmlns:dc="http://purl.org/dc/elements/1.1/"
   xmlns:cc="http://creativecommons.org/ns#"
   xmlns:rdf="http://www.w3.org/1999/02/22-rdf-syntax-ns#"
   xmlns:svg="http://www.w3.org/2000/svg"
   xmlns="http://www.w3.org/2000/svg"
   xmlns:sodipodi="http://sodipodi.sourceforge.net/DTD/sodipodi-0.dtd"
   xmlns:inkscape="http://www.inkscape.org/namespaces/inkscape"
   viewBox="0 0 1000 560"
   version="1.1"
   id="svg6"
   sodipodi:docname="overlord-helm.svg"
   inkscape:version="0.92.1 r15371"
   inkscape:export-filename="C:\Users\William\Documents\Dev\Games\ccg\ccgclient\src\assets\png\overlord-helm.png"
   inkscape:export-xdpi="90"
   inkscape:export-ydpi="90">
  <metadata
     id="metadata12">
    <rdf:RDF>
      <cc:Work
         rdf:about="">
        <dc:format>image/svg+xml</dc:format>
        <dc:type
           rdf:resource="http://purl.org/dc/dcmitype/StillImage" />
      </cc:Work>
    </rdf:RDF>
  </metadata>
  <defs
     id="defs10" />
  <sodipodi:namedview
     pagecolor="#ffffff"
     bordercolor="#666666"
     borderopacity="1"
     objecttolerance="10"
     gridtolerance="10"
     guidetolerance="10"
     inkscape:pageopacity="0"
     inkscape:pageshadow="2"
     inkscape:window-width="3840"
     inkscape:window-height="2104"
     id="namedview8"
     showgrid="false"
     inkscape:zoom="1.19198"
     inkscape:cx="486.74708"
     inkscape:cy="126.09998"
     inkscape:window-x="-16"
     inkscape:window-y="-16"
     inkscape:window-maximized="1"
     inkscape:current-layer="svg6" />
  <rect
     width="1000"
     height="560"
     fill="white"
     class="card-image-background"
     id="rect2"
     style="fill:#370661;fill-opacity:1" />
  <path
     d="M 405.43935,12.669661 C 383.21053,86.808134 358.16279,159.93847 370.96992,223.97633 l 0.39962,2.00491 -18.19858,90.9906 17.44475,104.66166 92.7026,122.63547 13.65745,-94.75066 -25.20327,12.60163 c -18.16452,-36.32903 -18.16452,-72.65806 0,-90.82258 l -54.49355,-18.16451 v -72.65806 c 11.80013,11.80012 38.92883,31.25886 61.471,43.45065 l -17.66954,-61.8479 0.78335,-2.35231 -35.77274,-10.21981 -0.6528,-236.834624 z m 165.53778,3.068667 V 249.25907 l -36.63556,10.4673 0.78107,2.35004 -17.66953,61.85016 c 22.54216,-12.19405 49.67087,-31.65279 61.47099,-43.45178 v 72.65806 l -54.49355,18.16451 c 18.16451,18.16452 18.16451,54.49355 0,90.82258 l -25.21462,-12.60617 13.67788,95.727 92.68899,-123.58683 17.44928,-104.6821 -18.19857,-90.9906 0.39962,-2.00491 C 617.83931,160.94319 592.77,88.868664 570.97713,15.738328 Z m -82.87561,56.48029 -7.94697,63.575812 v 73.67981 l -17.68998,53.06876 25.63695,89.72477 25.63694,-89.72477 -17.68997,-53.06876 v -73.67981 z m 28.38206,125.891442 v 8.04915 l 11.38687,34.16065 22.67159,-6.47565 v -19.66537 c -13.94921,-6.94225 -24.94215,-12.26331 -34.05846,-16.06764 z m -56.76412,0.005 c -8.9551,3.73508 -19.70849,8.93013 -33.29101,15.68392 l 0.0568,20.27955 21.84623,6.24178 11.38801,-34.16178 z m -44.276,118.68808 v 18.16451 l 36.32903,18.16452 z m 145.31612,0 -36.32903,36.32903 36.32903,-18.16452 z m -333.80703,95.71564 c -5.54018,26.62464 -8.35908,53.61484 -4.54113,82.73029 12.37913,-6.15096 25.30091,-10.17213 38.56327,-12.38253 -14.12063,-19.60632 -25.42578,-43.9831 -34.02441,-70.34889 z m 522.24118,0 c -8.59977,26.36466 -19.90378,50.74144 -34.02441,70.34776 13.26009,2.2104 26.18301,6.2327 38.56553,12.38253 3.81455,-29.11545 0.99565,-56.10565 -4.54112,-82.73142 z M 299.61062,423.6822 c -3.46829,16.66821 -5.87282,33.47721 -6.25541,50.86065 6.24064,-4.84085 12.84232,-9.99502 20.59402,-14.43285 -5.41303,-11.4777 -10.19483,-23.71604 -14.33861,-36.4278 z m 376.92504,0 c -4.14718,12.71062 -8.929,24.9501 -14.34088,36.4278 7.7517,4.43896 14.35223,9.59314 20.59175,14.43285 -0.38146,-17.38344 -2.78485,-34.19244 -6.252,-50.86065 z m -329.6519,47.28905 c -8.64403,0.15894 -15.42621,2.72808 -22.26969,6.57669 -5.86373,3.29686 -11.75585,7.79938 -17.9034,12.52557 l 120.46253,71.73848 -71.61588,-90.05627 c -2.37046,-0.33604 -4.79997,-0.74474 -6.9184,-0.78334 -0.59376,-0.0113 -1.17729,-0.0113 -1.75401,0 z m 280.62247,0 c -2.11844,0.0398 -4.54908,0.4473 -6.92068,0.78334 l -71.61814,90.06194 120.46706,-71.74302 c -6.14755,-4.72619 -12.04194,-9.22984 -17.90567,-12.52557 -7.29986,-4.10518 -14.52707,-6.75493 -24.02257,-6.57669 z m -341.947,30.30068 c -24.18606,0.1703 -46.30249,6.017 -66.85223,19.80727 l 5.17689,22.23563 150.50096,11.29947 -69.24541,-41.58198 0.13056,-0.034 -10.12899,-6.03062 0.009,0.0658 -9.59086,-5.76043 z m 405.02782,0 -9.59314,5.76382 0.008,-0.0681 -10.12899,6.03062 0.13283,0.034 -69.24881,41.58538 150.50437,-11.30287 5.17348,-22.23563 c -20.54896,-13.79093 -42.66426,-19.63764 -66.84918,-19.80566 z"
     class="card-image-forground"
     id="path4"
     style="fill:#ffffff;fill-opacity:1;stroke-width:1.13528228"
     inkscape:connector-curvature="0" />
</svg>
