<?xml version="1.0" encoding="UTF-8" standalone="no"?>
<svg
   xmlns:dc="http://purl.org/dc/elements/1.1/"
   xmlns:cc="http://creativecommons.org/ns#"
   xmlns:rdf="http://www.w3.org/1999/02/22-rdf-syntax-ns#"
   xmlns:svg="http://www.w3.org/2000/svg"
   xmlns="http://www.w3.org/2000/svg"
   xmlns:sodipodi="http://sodipodi.sourceforge.net/DTD/sodipodi-0.dtd"
   xmlns:inkscape="http://www.inkscape.org/namespaces/inkscape"
   viewBox="0 0 1000 560"
   version="1.1"
   id="svg21"
   sodipodi:docname="parmecia.svg"
   width="1000"
   height="560"
   inkscape:version="0.92.1 r15371"
   inkscape:export-filename="C:\Users\William\Documents\Dev\Games\ccg\ccgclient\src\assets\png\parmecia.png"
   inkscape:export-xdpi="90"
   inkscape:export-ydpi="90">
  <metadata
     id="metadata25">
    <rdf:RDF>
      <cc:Work
         rdf:about="">
        <dc:format>image/svg+xml</dc:format>
        <dc:type
           rdf:resource="http://purl.org/dc/dcmitype/StillImage" />
        <dc:title></dc:title>
      </cc:Work>
    </rdf:RDF>
  </metadata>
  <sodipodi:namedview
     pagecolor="#ffffff"
     bordercolor="#666666"
     borderopacity="1"
     objecttolerance="10"
     gridtolerance="10"
     guidetolerance="10"
     inkscape:pageopacity="0"
     inkscape:pageshadow="2"
     inkscape:window-width="3840"
     inkscape:window-height="2104"
     id="namedview23"
     showgrid="false"
     inkscape:zoom="0.921875"
     inkscape:cx="380.0665"
     inkscape:cy="196.29609"
     inkscape:window-x="-16"
     inkscape:window-y="-16"
     inkscape:window-maximized="1"
     inkscape:current-layer="svg21" />
  <defs
     id="defs13">
    <filter
       id="shadow-1"
       height="3"
       width="3"
       x="-1"
       y="-1">
      <feFlood
         flood-color="rgba(0, 255, 0, 1)"
         result="flood"
         id="feFlood2" />
      <feComposite
         in="flood"
         in2="SourceGraphic"
         operator="atop"
         result="composite"
         id="feComposite4" />
      <feGaussianBlur
         in="composite"
         stdDeviation="15"
         result="blur"
         id="feGaussianBlur6" />
      <feOffset
         result="offset"
         id="feOffset8" />
      <feComposite
         in="SourceGraphic"
         in2="offset"
         operator="over"
         id="feComposite10" />
    </filter>
  </defs>
  <path
     d="M 0,-0.81355935 H 1001.2203 V 560 H 0 Z"
     id="path15"
     inkscape:connector-curvature="0"
     style="fill:#334033;fill-opacity:1;stroke-width:1.46353841" />
  <g
     class=""
     id="g19"
     transform="translate(236,42)">
    <path
       d="m 305.105,21.24 -4.4,0.137 -0.156,0.006 -0.157,0.01 -5.454,0.35 -0.155,0.01 -0.154,0.017 -5.413,0.53 -0.153,0.014 -0.152,0.022 -3.353,0.44 2.33,17.75 c -5.88,0.717 -11.674,1.738 -17.34,3.042 l -4.51,-17.04 -4.593,1.218 -0.142,0.037 -0.143,0.043 -5.057,1.512 -0.14,0.04 -0.14,0.048 -4.975,1.662 -0.14,0.047 -0.14,0.05 -3.205,1.186 5.975,16.17 c -5.655,1.98 -11.12,4.246 -16.334,6.786 l -7.819,-14.898 -3.12,1.638 -0.137,0.073 -0.135,0.075 -4.342,2.467 -0.137,0.076 -0.134,0.084 -4.213,2.586 -0.14,0.084 -0.133,0.088 -4.08,2.7 -0.137,0.093 -0.134,0.095 -0.274,0.196 9.56,13.386 c -1.06,0.7 -2.11,1.408 -3.14,2.133 -3.825,2.694 -7.442,5.586 -10.804,8.656 l -11.266,-11.59 -3.305,3.21 -0.137,0.133 -0.13,0.14 -3.135,3.306 -0.137,0.14 -0.13,0.15 -2.954,3.392 -0.135,0.154 -0.128,0.16 -2.767,3.473 -0.1,0.124 -0.094,0.127 -0.348,0.47 12.943,9.613 c -3.468,4.682 -6.368,9.65 -8.592,14.866 l -3.86,-1.695 -11.034,-5.2 -0.034,0.07 -0.055,0.115 -0.05,0.115 -0.84,1.918 -0.052,0.117 -0.05,0.12 -0.782,1.93 -0.05,0.122 -0.046,0.123 -0.73,1.945 -0.044,0.125 -0.042,0.127 -0.67,1.96 -0.045,0.126 -0.04,0.13 -0.612,1.972 -0.04,0.13 -0.038,0.133 -0.55,1.985 -0.038,0.132 -0.033,0.137 -0.49,1.994 -0.034,0.14 -0.032,0.14 -0.427,2.005 -0.032,0.14 -0.025,0.14 -0.367,2.018 -0.026,0.143 -0.02,0.143 -0.003,0.004 9.37,1.407 7.32,1.333 c -0.182,1.355 -0.32,2.722 -0.41,4.1 -0.26,3.98 -0.103,8.003 0.454,12.05 l -17.11,2.436 0.288,2.01 0.022,0.15 0.025,0.15 0.37,2.1 0.026,0.15 0.03,0.15 0.442,2.1 0.03,0.15 0.037,0.148 0.512,2.105 0.035,0.147 0.04,0.144 0.59,2.112 0.038,0.142 0.045,0.145 0.662,2.11 0.043,0.144 0.05,0.138 0.735,2.116 0.05,0.14 0.052,0.136 0.813,2.117 0.05,0.135 0.057,0.133 0.504,1.198 15.906,-6.678 c 2.016,4.97 4.667,9.942 7.957,14.885 l -13.622,9.9 1.172,1.61 0.072,0.1 0.074,0.097 1.618,2.106 0.072,0.095 0.076,0.094 1.7,2.1 0.075,0.092 0.077,0.088 1.787,2.096 0.075,0.088 0.076,0.086 1.874,2.09 0.076,0.084 0.076,0.082 1.96,2.084 0.076,0.08 0.078,0.078 2.047,2.08 6.683,-6.586 -6.56,6.707 1.19,1.164 11.26,-11.51 c 3.796,3.988 8.03,7.935 12.73,11.82 0.316,0.26 0.645,0.54 0.962,0.803 l -11.456,11.958 2.626,2.52 0.024,0.023 0.023,0.02 10.936,10.34 12.012,-12.704 c 4.512,3.977 9.152,8.175 13.868,12.528 l -12.297,13.014 4.898,4.63 0.027,0.022 8.607,8.19 12.393,-13.024 c 4.525,4.353 9.006,8.765 13.425,13.2 l -12.484,12.7 7.65,7.52 0.057,0.057 0.008,0.007 4.572,4.584 0.053,0.053 0.808,0.825 12.483,-12.252 c 0.584,0.618 1.18,1.24 1.76,1.854 3.862,4.106 7.563,8.152 11.067,12.096 l -12.582,11.566 3.314,3.603 0.052,0.06 0.04,0.04 3.69,4.134 0.03,0.035 3.348,3.883 0.037,0.045 1.527,1.846 12.89,-10.666 c 1.753,2.182 3.42,4.31 4.94,6.337 2.577,3.438 4.74,6.727 6.492,9.633 l -13.963,8.705 0.854,1.37 0.742,1.304 0.677,1.284 0.55,1.137 0.463,1.077 0.366,0.96 0.244,0.777 0.162,0.644 0.125,0.738 0.51,3.65 0.013,0.093 0.016,0.094 0.13,0.822 15.974,-2.56 c 1.218,6.126 2.603,11.95 4.164,17.435 l -16.104,4.384 0.63,2.307 0.026,0.103 0.03,0.1 0.986,3.327 0.03,0.104 0.034,0.103 1.047,3.252 0.033,0.105 0.036,0.103 1.105,3.176 0.037,0.107 0.04,0.107 1.163,3.098 0.04,0.107 0.044,0.107 1.03,2.54 15.567,-6.29 c 0.872,2.125 1.774,4.186 2.717,6.163 1.586,3.33 3.277,6.47 5.088,9.395 l -1.06,0.695 -13.106,8.033 0.1,0.163 0.075,0.124 0.08,0.12 1.576,2.397 0.082,0.128 0.088,0.123 1.62,2.302 0.09,0.13 0.094,0.124 1.664,2.203 0.098,0.13 0.104,0.127 1.707,2.1 0.107,0.134 0.113,0.13 1.748,1.998 0.12,0.135 0.12,0.13 1.79,1.893 0.126,0.135 0.133,0.13 1.49,1.46 11.7,-11.954 c 3.04,2.732 6.347,4.986 9.978,6.664 1.13,0.522 2.287,0.952 3.46,1.33 l -6.692,16.184 0.717,0.296 0.242,0.1 0.246,0.086 2.12,0.74 0.252,0.088 0.258,0.074 2.145,0.614 0.263,0.076 0.268,0.058 2.168,0.487 0.27,0.06 0.277,0.045 2.192,0.354 0.28,0.045 0.28,0.03 2.212,0.222 0.283,0.026 0.285,0.012 2.232,0.088 0.285,0.01 0.283,-0.007 2.252,-0.05 0.285,-0.005 0.28,-0.024 2.27,-0.186 0.282,-0.024 0.277,-0.04 h 0.007 l -1.344,-9.378 -0.724,-8.752 c 4.692,-0.622 9.423,-2.18 13.975,-4.626 l 8.97,15.51 1.104,-0.637 0.19,-0.11 0.184,-0.12 2.37,-1.522 0.177,-0.114 0.173,-0.122 2.373,-1.68 0.164,-0.117 0.158,-0.122 2.377,-1.843 0.153,-0.118 0.146,-0.123 2.38,-2.004 0.138,-0.117 0.135,-0.123 2.378,-2.17 0.13,-0.117 0.122,-0.12 1.676,-1.646 -12.256,-12.482 c 3.87,-3.678 7.698,-8.023 11.514,-13.04 l 13.763,10.13 0.496,-0.674 0.075,-0.1 0.074,-0.106 2.345,-3.377 0.07,-0.1 0.067,-0.103 2.336,-3.557 0.064,-0.097 0.06,-0.1 2.325,-3.74 0.058,-0.094 0.057,-0.096 2.313,-3.923 0.052,-0.09 0.05,-0.09 0.257,-0.46 -14.492,-8.11 c 1.246,-2.032 2.496,-4.127 3.748,-6.31 v -0.003 c 1.855,-3.236 3.607,-6.462 5.303,-9.682 l 14.457,7.264 1.486,-2.957 0.047,-0.095 0.045,-0.095 3.115,-6.567 0.047,-0.096 0.043,-0.1 2.916,-6.53 0.044,-0.1 0.043,-0.1 0.37,-0.884 -14.622,-6.125 c 2.56,-5.707 4.883,-11.382 6.963,-17.016 l 14.638,5.328 0.397,-1.09 0.04,-0.105 0.034,-0.108 2.148,-6.38 0.038,-0.108 0.033,-0.11 1.965,-6.338 0.034,-0.11 0.03,-0.113 1.134,-4.003 -14.79,-4.185 c 1.718,-5.954 3.176,-11.854 4.386,-17.698 l 14.937,3.032 0.56,-2.75 0.023,-0.117 0.022,-0.12 1.078,-6.112 0.02,-0.117 0.02,-0.118 0.907,-6.065 0.017,-0.12 0.016,-0.12 0.436,-3.518 -15.072,-1.864 c 0.757,-6.133 1.24,-12.19 1.465,-18.164 l 15.162,0.674 0.07,-1.6 0.006,-0.123 0.003,-0.123 0.106,-5.8 v -0.245 l -0.048,-5.742 -0.002,-0.123 -0.004,-0.123 -0.193,-5.545 -15.2,0.53 c -0.31,-6.098 -0.902,-12.09 -1.736,-17.973 l 15.123,-2.148 -0.52,-3.658 -0.017,-0.123 -0.02,-0.122 -0.91,-5.37 -0.02,-0.122 -0.024,-0.12 -1.044,-5.306 -0.024,-0.12 -0.027,-0.122 -0.906,-4.04 -14.984,3.36 c -1.408,-5.92 -3.086,-11.7 -4.996,-17.34 l 14.658,-4.95 -1.168,-3.456 -0.04,-0.115 -0.04,-0.115 -1.79,-4.877 -0.044,-0.116 -0.045,-0.114 -1.903,-4.8 -0.045,-0.114 -0.047,-0.11 -1.838,-4.302 -14.34,6.125 c -2.484,-5.54 -5.198,-10.912 -8.138,-16.096 l 13.733,-7.614 -1.002,-1.805 -0.055,-0.102 -0.06,-0.102 -2.54,-4.32 -0.06,-0.102 -0.063,-0.1 -2.637,-4.236 -0.062,-0.1 -0.065,-0.1 -2.73,-4.147 -0.065,-0.097 -0.066,-0.096 -0.947,-1.363 -13.016,9.043 c -3.48,-4.964 -7.168,-9.715 -11.043,-14.244 l 12.18,-10.406 -2.706,-3.168 -0.074,-0.09 -0.08,-0.085 -3.235,-3.604 -0.076,-0.085 -0.08,-0.084 -3.312,-3.504 -0.08,-0.084 -0.082,-0.084 -3.383,-3.41 -0.082,-0.08 -0.08,-0.08 -0.04,-0.038 -7.994,8.334 -3.322,3.295 c -4.382,-4.2 -8.937,-8.146 -13.64,-11.817 l 10.487,-12.705 -0.21,-0.174 -0.09,-0.074 -0.093,-0.073 -3.703,-2.904 -0.092,-0.072 -0.094,-0.07 -3.758,-2.798 -0.095,-0.07 -0.096,-0.067 -3.813,-2.694 -0.096,-0.067 -0.097,-0.064 -3.617,-2.423 -9.34,13.957 c -3.88,-2.42 -7.827,-4.674 -11.84,-6.736 -1.223,-0.63 -2.456,-1.23 -3.69,-1.82 l 3.388,-6.766 4.517,-8.522 -0.005,-0.004 -0.095,-0.05 -0.098,-0.05 -2.637,-1.32 -0.086,-0.04 -0.087,-0.042 -2.65,-1.26 -0.086,-0.043 -0.086,-0.036 -2.663,-1.203 -0.086,-0.036 -0.087,-0.037 -2.676,-1.143 -0.086,-0.037 -0.086,-0.035 -2.69,-1.086 -0.086,-0.033 -0.088,-0.033 -2.7,-1.028 -0.085,-0.033 -0.088,-0.032 -1.105,-0.396 -5.955,16.642 c -5.613,-1.88 -11.3,-3.416 -17.024,-4.61 l 0.67,-3.155 3.332,-14.384 -0.1,-0.024 -0.083,-0.02 -0.088,-0.017 -2.758,-0.586 -0.086,-0.018 -0.086,-0.018 -2.764,-0.53 -0.084,-0.017 -0.086,-0.015 -2.765,-0.48 -0.084,-0.015 -0.085,-0.013 -2.768,-0.428 -0.084,-0.014 -0.084,-0.01 -2.77,-0.376 -0.084,-0.012 -0.084,-0.01 -2.77,-0.326 -0.084,-0.01 -0.082,-0.008 -1.752,-0.173 -1.793,18.035 c -5.854,-0.55 -11.707,-0.765 -17.522,-0.682 l -0.563,-18.09 z m 3.127,37.12 c 20.786,-0.04 42.003,4.204 60.96,13.95 72.236,37.13 126.302,141.437 55.855,264.31 -10.51,18.338 -20.474,29.698 -28.426,35.14 -7.95,5.442 -12.73,5.576 -17.882,3.195 -5.15,-2.38 -11.336,-8.984 -16.693,-20.223 -5.357,-11.238 -9.857,-26.714 -12.852,-45.226 -1.517,-9.38 -7.22,-17.63 -15.076,-28.11 -7.855,-10.478 -18.175,-22.33 -29.7,-34.576 -23.046,-24.49 -50.83,-50.433 -72.65,-68.466 -24.105,-19.92 -31.777,-38.28 -30.753,-54.07 1.024,-15.79 11.206,-30.808 28.238,-42.802 19.16,-13.493 46.42,-22.226 74.83,-23.056 1.38,-0.04 2.765,-0.062 4.15,-0.065 z m -222.658,2.06 -0.377,0.01 -2.222,0.062 -0.4,0.012 -0.393,0.045 -2.205,0.25 -0.307,0.034 -0.305,0.055 -1.094,0.196 -0.206,0.04 -0.207,0.046 -0.61,0.14 3.83,16.766 c -2.53,0.566 -5.034,1.513 -7.393,2.883 -2.264,1.316 -4.396,2.754 -6.422,4.278 l -9.9,-14.037 -1.17,0.823 -0.108,0.08 -0.107,0.08 -1.622,1.212 -0.107,0.08 -0.105,0.084 -1.563,1.24 -0.105,0.085 -0.106,0.088 -1.505,1.27 -0.103,0.087 -0.102,0.09 -1.447,1.295 -0.102,0.092 -0.1,0.095 -1.39,1.32 -0.1,0.094 -0.096,0.098 -1.334,1.342 -0.098,0.098 -0.094,0.1 -1.277,1.366 -0.095,0.102 -0.09,0.103 -1.222,1.387 -0.092,0.106 -0.09,0.107 -1.15,1.39 13.537,11.236 c -3.406,4.264 -6.205,8.834 -8.4,13.525 l -15.94,-5.85 -0.69,1.88 -0.093,0.254 -0.08,0.256 -0.947,3.133 -0.078,0.255 -0.062,0.26 -0.76,3.146 -0.062,0.257 -0.046,0.26 -0.576,3.152 -0.047,0.255 -0.03,0.258 -0.395,3.146 -0.033,0.255 -0.018,0.258 -0.22,3.133 -0.016,0.256 -0.004,0.256 -0.01,0.658 15.023,0.223 c -1.12,5.943 -1.325,11.885 -0.353,17.434 l -11.707,3.775 0.553,1.716 0.08,0.25 0.094,0.244 1.042,2.704 0.096,0.248 0.11,0.244 1.18,2.607 0.113,0.25 0.126,0.24 1.316,2.506 0.13,0.247 0.145,0.24 1.447,2.395 0.148,0.246 0.164,0.238 1.57,2.274 0.17,0.246 0.185,0.232 1.693,2.145 8.912,-7.04 c 0.28,0.308 0.57,0.613 0.866,0.913 3.355,3.39 7.352,5.807 11.505,7.164 l -7.952,11.424 0.502,0.35 0.198,0.138 0.205,0.127 1.62,1.007 0.218,0.137 0.227,0.123 1.602,0.88 0.237,0.13 0.246,0.117 1.584,0.752 0.26,0.123 0.265,0.106 1.567,0.627 0.278,0.113 0.285,0.094 1.55,0.508 0.296,0.097 0.302,0.08 1.53,0.39 0.312,0.08 0.318,0.058 1.51,0.277 0.326,0.06 0.328,0.036 1.492,0.164 0.332,0.037 0.334,0.014 1.473,0.057 0.336,0.014 0.334,-0.01 1.455,-0.048 0.332,-0.01 0.33,-0.034 1.437,-0.15 0.326,-0.034 0.32,-0.057 0.28,-0.048 -2.317,-13.216 -0.427,-4.082 c 4.464,-1.2 8.353,-3.434 11.848,-6.192 l 11.885,11.756 0.686,-0.693 0.108,-0.11 0.104,-0.11 1.166,-1.26 0.096,-0.102 0.093,-0.107 1.145,-1.314 0.086,-0.1 0.084,-0.102 1.127,-1.368 0.114,-0.138 0.11,-0.145 2.19,-2.883 0.13,-0.17 0.123,-0.177 2.11,-3.06 0.107,-0.155 0.1,-0.158 2.028,-3.21 0.09,-0.142 0.084,-0.144 0.68,-1.166 -12.64,-7.37 c 3.72,-4.93 6.93,-10.24 9.603,-15.443 l 11.95,5.056 1.37,-3.233 0.032,-0.08 0.034,-0.08 1.44,-3.592 0.03,-0.073 0.03,-0.072 1.355,-3.55 0.026,-0.065 0.026,-0.07 1.267,-3.48 0.023,-0.062 0.02,-0.062 1.183,-3.39 0.03,-0.083 0.027,-0.084 0.066,-0.202 -11.917,-3.906 c 1.33,-5.458 0.955,-10.916 -0.643,-15.99 l 15.42,-3.045 -0.21,-1.07 -0.07,-0.358 -0.1,-0.353 -0.602,-2.146 -0.094,-0.33 -0.117,-0.327 -0.766,-2.116 -0.11,-0.308 -0.133,-0.3 -0.922,-2.08 -0.125,-0.283 -0.144,-0.276 -1.07,-2.032 -0.137,-0.262 -0.155,-0.254 -1.207,-1.98 -0.147,-0.242 -0.16,-0.233 -1.337,-1.92 -0.156,-0.226 -0.168,-0.214 -1.458,-1.853 -0.164,-0.21 -0.176,-0.2 -1.014,-1.145 -12.103,10.68 c -0.092,-0.106 -0.18,-0.218 -0.272,-0.323 -3.286,-3.696 -7.43,-6.82 -12.388,-8.576 l 6.332,-15.024 -1.045,-0.442 -0.27,-0.113 -0.275,-0.095 -2.188,-0.765 -0.29,-0.1 -0.293,-0.082 -2.213,-0.615 -0.308,-0.086 -0.317,-0.065 -2.227,-0.457 -0.332,-0.066 -0.337,-0.046 -2.235,-0.29 -0.355,-0.048 -0.357,-0.017 -2.233,-0.12 -0.38,-0.02 z M 256.06,94.205 c -11.702,0.262 -22.988,6.446 -29.267,17.322 -9.568,16.573 -3.89,37.766 12.684,47.334 16.573,9.57 37.763,3.89 47.332,-12.682 9.567,-16.573 3.89,-37.766 -12.683,-47.334 -5.697,-3.29 -11.94,-4.776 -18.068,-4.64 z M 86.31,96.043 c 0.56,-0.005 1.1,0.09 1.694,0.244 1.583,0.408 3.56,1.608 5.31,3.576 3.5,3.938 4.988,10.4 3.873,13.54 -3.142,8.85 -10.42,22.592 -17.844,30.284 -3.712,3.847 -7.315,5.93 -9.444,6.348 -2.13,0.42 -3.296,0.496 -6.603,-2.846 -2.97,-3 -4.967,-11.83 -1.933,-22.21 C 64.4,114.602 71.78,103.678 83.07,97.12 c 1.07,-0.62 1.907,-0.932 2.676,-1.036 0.192,-0.026 0.38,-0.04 0.567,-0.04 z m 259.86,16.828 c -7.924,0 -14.348,6.425 -14.348,14.35 0,7.922 6.424,14.346 14.348,14.346 7.924,0 14.348,-6.424 14.348,-14.347 0,-7.925 -6.424,-14.35 -14.348,-14.35 z m 38.062,60.85 c -17.126,0.384 -33.645,9.437 -42.836,25.356 -14.005,24.258 -5.693,55.276 18.565,69.28 24.257,14.006 55.272,5.692 69.277,-18.565 14.005,-24.256 5.697,-55.273 -18.56,-69.278 -8.34,-4.815 -17.475,-6.992 -26.446,-6.79 z m -291.9,77.243 -1.898,17.396 c -1.002,-0.17 -2.018,-0.31 -3.06,-0.405 -1.41,-0.126 -2.812,-0.144 -4.2,-0.062 -2.617,0.153 -5.183,0.673 -7.666,1.5 l -5.885,-15.534 -1.66,0.628 -0.2,0.076 -0.2,0.086 -1.885,0.817 -0.198,0.084 -0.193,0.096 -1.864,0.91 -0.194,0.092 -0.187,0.104 -1.834,1.002 -0.19,0.103 -0.182,0.112 -1.803,1.094 -0.183,0.112 -0.178,0.12 -1.766,1.186 -0.18,0.122 -0.17,0.128 -1.73,1.28 -0.172,0.13 -0.168,0.135 -1.683,1.373 -0.166,0.135 -0.163,0.145 -1.588,1.424 L 62,277.767 c -1.432,1.387 -2.78,2.892 -4.027,4.507 -1.92,2.487 -3.63,5.24 -5.118,8.223 l -4.647,-2.125 -10.375,-5.318 -0.047,0.093 -0.095,0.186 -0.086,0.19 -1.05,2.298 -0.087,0.188 -0.078,0.19 -0.967,2.392 -0.076,0.19 -0.07,0.193 -0.88,2.48 -0.066,0.19 -0.06,0.193 -0.788,2.574 -0.058,0.19 -0.05,0.193 -0.696,2.664 -0.05,0.188 -0.04,0.192 -0.596,2.756 -0.04,0.19 -0.034,0.187 -0.442,2.547 16.137,2.8 c -0.88,4.59 -1.354,9.492 -1.354,14.676 v 0.025 c 0.002,0.843 0.023,1.672 0.035,2.507 l -15.792,0.563 0.164,4.63 0.004,0.104 0.006,0.104 0.3,5.19 0.006,0.107 0.008,0.105 0.412,5.1 0.01,0.107 0.01,0.108 0.386,3.72 15.528,-1.615 c 0.63,6.17 1.534,12.132 2.687,17.89 l -15.21,3.06 0.395,1.96 0.02,0.113 0.027,0.112 1.035,4.556 0.025,0.113 0.028,0.113 1.13,4.467 0.03,0.11 0.03,0.114 1.226,4.377 0.03,0.114 0.036,0.11 0.842,2.74 14.81,-4.55 c 1.836,5.89 3.944,11.53 6.31,16.91 l -14.288,6.052 0.12,0.286 0.048,0.114 0.05,0.11 1.745,3.84 0.05,0.11 0.055,0.11 1.825,3.752 0.054,0.11 0.054,0.108 1.902,3.663 0.06,0.11 0.057,0.106 1.98,3.572 0.058,0.107 0.063,0.106 0.904,1.534 13.41,-7.89 c 3.08,5.233 6.417,10.168 9.975,14.8 l -12.262,9.61 1.998,2.55 0.077,0.098 0.078,0.095 2.445,2.955 0.078,0.094 0.082,0.094 2.504,2.867 0.08,0.094 0.084,0.09 2.56,2.78 0.085,0.09 0.087,0.09 2.613,2.692 0.086,0.087 0.088,0.086 0.197,0.193 10.87,-11.12 c 4.27,4.298 8.746,8.245 13.387,11.84 l -9.277,12.37 2.447,1.836 0.097,0.072 0.098,0.07 2.934,2.085 0.097,0.07 0.1,0.065 2.97,1.998 0.1,0.067 0.1,0.064 3.006,1.912 0.1,0.065 0.102,0.06 3.04,1.827 0.1,0.06 0.104,0.06 1.166,0.662 7.56,-13.333 c 5.243,3.05 10.618,5.7 16.07,7.947 l -5.773,14.047 0.84,0.345 0.107,0.044 0.11,0.04 3.21,1.23 0.107,0.04 0.112,0.04 3.226,1.142 0.11,0.037 0.11,0.036 3.24,1.057 0.11,0.037 0.112,0.033 3.254,0.97 0.11,0.034 0.113,0.03 3.262,0.89 0.114,0.03 0.11,0.026 0.714,0.176 3.603,-14.67 c 5.892,1.507 11.806,2.554 17.678,3.144 l -1.76,15.048 0.577,0.07 0.118,0.013 0.115,0.01 3.273,0.3 0.117,0.01 0.118,0.008 3.265,0.216 0.12,0.007 0.117,0.006 3.257,0.133 0.12,0.006 0.12,0.002 3.243,0.05 h 0.24 l 3.232,-0.035 h 0.12 l 0.12,-0.006 1.81,-0.067 -0.555,-15.408 c 5.897,-0.41 11.48,-1.615 16.718,-3.456 l 4.5,15.61 0.573,-0.165 0.123,-0.036 0.122,-0.04 1.812,-0.575 0.123,-0.04 0.12,-0.043 1.785,-0.62 0.12,-0.044 0.12,-0.045 1.754,-0.666 0.12,-0.045 0.118,-0.05 1.727,-0.71 0.118,-0.047 0.115,-0.05 1.697,-0.755 0.172,-0.076 0.17,-0.083 3.31,-1.63 0.22,-0.11 0.218,-0.12 3.195,-1.79 0.213,-0.12 0.207,-0.13 1.14,-0.72 -9.042,-14.335 c 4.726,-3.124 9.035,-6.76 12.867,-10.744 l 12.37,11.852 1.136,-1.186 0.147,-0.152 0.138,-0.158 2.37,-2.71 0.137,-0.154 0.127,-0.16 2.25,-2.812 0.125,-0.155 0.118,-0.162 2.13,-2.907 0.114,-0.156 0.108,-0.162 2.008,-2.996 0.107,-0.16 0.098,-0.162 1.38,-2.248 -14.365,-8.8 c 3.165,-4.96 5.774,-10.148 7.81,-15.41 l 15.304,5.74 0.123,-0.323 0.058,-0.158 0.055,-0.163 1.142,-3.418 0.053,-0.16 0.05,-0.16 1.017,-3.453 0.046,-0.16 0.04,-0.162 0.892,-3.474 0.04,-0.16 0.038,-0.164 0.764,-3.492 0.035,-0.162 0.03,-0.164 0.636,-3.504 0.03,-0.164 0.024,-0.166 0.06,-0.412 -16.005,-2.318 c 0.356,-2.424 0.6,-4.832 0.688,-7.206 0.13,-3.472 0.237,-6.857 0.246,-10.152 l 16.277,-0.676 -0.073,-1.802 -0.008,-0.184 -0.016,-0.184 -0.274,-3.377 -0.015,-0.187 -0.022,-0.188 -0.406,-3.332 -0.023,-0.193 -0.032,-0.19 -0.54,-3.28 -0.032,-0.198 -0.04,-0.197 -0.673,-3.217 -0.043,-0.202 -0.05,-0.203 -0.807,-3.15 -0.053,-0.208 -0.064,-0.207 -0.082,-0.27 -14.506,4.438 c -1.217,-5.525 -3.338,-10.63 -6.957,-15.217 l 12.445,-8.846 -1.662,-2.336 -0.166,-0.234 -0.18,-0.223 -1.898,-2.35 -0.186,-0.23 -0.2,-0.22 -2.038,-2.22 -0.154,-0.17 -0.165,-0.16 -1.07,-1.057 -0.11,-0.11 -0.113,-0.103 -1.106,-1.024 -0.114,-0.107 -0.12,-0.103 -1.14,-0.986 -0.12,-0.103 -0.124,-0.1 -1.176,-0.948 -0.125,-0.103 -0.128,-0.096 -1.21,-0.91 -0.13,-0.096 -0.132,-0.092 -1.246,-0.87 -0.133,-0.095 -0.136,-0.088 -0.6,-0.39 -9.293,14.336 c -4.15,-2.082 -8.96,-3.663 -14.467,-4.86 l 2.894,-17.575 -1.558,-0.257 -0.15,-0.023 -0.15,-0.02 -1.748,-0.23 -0.147,-0.02 -0.148,-0.016 -1.785,-0.177 -0.145,-0.014 -0.144,-0.01 -1.823,-0.125 -0.142,-0.01 -0.14,-0.005 -1.86,-0.07 -0.14,-0.005 -0.14,-0.002 -1.894,-0.015 h -0.137 l -0.135,0.003 -1.93,0.04 -0.136,0.005 -0.133,0.006 -1.97,0.097 -0.127,0.007 -0.13,0.012 -2.005,0.153 -0.126,0.01 -0.125,0.013 -2.044,0.215 0.918,8.755 -0.934,-8.752 -4.482,0.48 -0.194,0.018 0.862,8.074 0.558,6.755 c -2.038,-0.12 -4.117,-0.225 -6.285,-0.3 h -0.003 c -3.856,-0.137 -8.278,-0.487 -12.93,-0.995 l 0.36,-12.866 -2.307,-0.065 -3.486,-0.21 -3.27,-0.31 -3.185,-0.418 -2.962,-0.504 -1.656,-0.353 -2.533,11.914 c -7.163,-1.337 -13.957,-2.947 -19.416,-4.705 l 3.342,-5.956 4.22,-6.567 -1.94,-1.246 -1.59,-1.17 -1.422,-1.194 -1.305,-1.254 -1.208,-1.328 -1.082,-1.37 -0.973,-1.423 -0.505,-0.862 -13.543,7.94 c -1.607,-4.72 -2.758,-10.69 -4.2,-17.005 -0.263,-1.16 -0.546,-2.34 -0.84,-3.525 l 14.695,-1.3 -0.22,-2.505 -0.02,-0.213 -0.028,-0.212 -0.345,-2.565 -0.03,-0.22 -0.04,-0.216 -0.454,-2.47 -0.04,-0.223 -0.052,-0.223 -0.556,-2.374 -0.053,-0.226 -0.065,-0.225 -0.656,-2.28 -0.066,-0.23 -0.076,-0.228 -0.752,-2.186 -0.08,-0.23 -0.092,-0.228 -0.844,-2.09 -0.094,-0.232 -0.105,-0.226 -0.717,-1.534 -15.217,7.106 c -0.58,-0.962 -1.204,-1.914 -1.89,-2.85 -2.073,-2.823 -4.76,-5.348 -7.95,-7.423 l 3.688,-5.663 6.515,-8.88 -0.075,-0.055 -0.21,-0.152 -0.213,-0.143 -1.618,-1.053 -0.215,-0.14 -0.22,-0.127 -1.667,-0.96 -0.22,-0.126 -0.225,-0.116 -1.71,-0.865 -0.224,-0.113 -0.23,-0.1 -1.75,-0.77 -0.226,-0.1 -0.23,-0.09 -1.79,-0.676 -0.226,-0.086 -0.233,-0.075 -1.822,-0.585 -0.228,-0.073 -0.233,-0.062 -1.85,-0.49 -0.23,-0.06 -0.232,-0.05 -1.88,-0.396 -0.228,-0.05 -0.23,-0.034 -1.903,-0.305 -0.227,-0.035 -0.23,-0.026 -1.32,-0.144 z m -7.37,35.568 c 0.25,0.006 0.5,0.018 0.745,0.04 6.672,0.598 8.936,2.396 11.198,5.477 2.262,3.08 4.006,8.334 5.483,14.805 1.477,6.47 2.717,13.97 5.655,21.42 2.938,7.452 8.144,15.186 16.898,19.617 17.77,8.99 46.593,12.724 66.6,13.426 h 0.002 c 25.25,0.884 36.064,5.308 40.318,10.248 4.255,4.94 5.246,14.31 4.63,30.63 -0.41,10.887 -5.686,25.306 -14.796,36.486 -9.11,11.18 -21.474,19.12 -36.592,19.865 -52.21,2.57 -119.89,-40.345 -120.15,-137.56 0.002,-12.446 3.49,-21.685 7.816,-27.292 4.06,-5.258 8.424,-7.226 12.193,-7.162 z m 29.515,82.402 c -7.925,0 -14.35,6.424 -14.35,14.347 0,7.923 6.425,14.347 14.35,14.347 7.922,0 14.346,-6.424 14.346,-14.348 0,-7.924 -6.424,-14.348 -14.347,-14.348 z m 63.73,17.6 c -13.473,0 -24.394,10.924 -24.394,24.398 0,13.474 10.92,24.398 24.395,24.398 13.475,0 24.4,-10.924 24.4,-24.398 0,-13.474 -10.925,-24.397 -24.4,-24.397 z"
       id="path17"
       inkscape:connector-curvature="0"
       style="fill:#00ff00;fill-opacity:1;filter:url(#shadow-1)" />
  </g>
</svg>
