<?xml version="1.0" encoding="UTF-8" standalone="no"?>
<svg
   xmlns:dc="http://purl.org/dc/elements/1.1/"
   xmlns:cc="http://creativecommons.org/ns#"
   xmlns:rdf="http://www.w3.org/1999/02/22-rdf-syntax-ns#"
   xmlns:svg="http://www.w3.org/2000/svg"
   xmlns="http://www.w3.org/2000/svg"
   xmlns:sodipodi="http://sodipodi.sourceforge.net/DTD/sodipodi-0.dtd"
   xmlns:inkscape="http://www.inkscape.org/namespaces/inkscape"
   viewBox="0 0 1000 560"
   version="1.1"
   id="svg8"
   sodipodi:docname="pegasus.svg"
   width="1000"
   height="560"
   inkscape:version="0.92.1 r15371"
   inkscape:export-filename="C:\Users\William\Documents\Dev\Games\ccg\ccgclient\src\assets\png\pegasus.png"
   inkscape:export-xdpi="240"
   inkscape:export-ydpi="240">
  <metadata
     id="metadata14">
    <rdf:RDF>
      <cc:Work
         rdf:about="">
        <dc:format>image/svg+xml</dc:format>
        <dc:type
           rdf:resource="http://purl.org/dc/dcmitype/StillImage" />
        <dc:title></dc:title>
      </cc:Work>
    </rdf:RDF>
  </metadata>
  <defs
     id="defs12" />
  <sodipodi:namedview
     pagecolor="#ffffff"
     bordercolor="#666666"
     borderopacity="1"
     objecttolerance="10"
     gridtolerance="10"
     guidetolerance="10"
     inkscape:pageopacity="0"
     inkscape:pageshadow="2"
     inkscape:window-width="3840"
     inkscape:window-height="2104"
     id="namedview10"
     showgrid="true"
     inkscape:zoom="0.4609375"
     inkscape:cx="256"
     inkscape:cy="256"
     inkscape:window-x="-16"
     inkscape:window-y="-16"
     inkscape:window-maximized="1"
     inkscape:current-layer="svg8">
    <inkscape:grid
       type="xygrid"
       id="grid4491" />
  </sodipodi:namedview>
  <path
     d="M 0,0 H 1000 V 560 H 0 Z"
     id="path2"
     inkscape:connector-curvature="0"
     style="fill:#f8e71c;fill-opacity:1;stroke-width:1.46158493" />
  <g
     class=""
     id="g6"
     transform="translate(239.91,33.96)">
    <path
       d="m 329.2,317.16 c -3,82.09 -78.09,146 -78.09,146 L 192,439.73 c -27.57,-11 -37.86,-28.56 -50.31,-55.49 l -0.06,-0.12 94.49,27.2 -57.73,-27.64 C 136.86,363.8 119.52,336.56 101.63,294.13 l 134.47,52 L 109.9,269.9 C 81.23,252.58 72.75,233.22 58.65,202.84 l 161.16,68.74 -79,-51.51 C 55.6,166.5 47.95,135.26 18.88,72.57 l 181,113.86 c 51.5,32.38 131.55,69.93 129.32,130.73 z M 493.12,216.5 c 0,6.87 -17.51,20.85 -20.35,20.62 -3.7,-0.31 -46.27,-27.85 -61.93,-35.68 -15,-7.49 -59.39,1.27 -64.19,-42.81 -11,28 10.77,90.21 27.84,120.18 35.42,62.17 -25.71,146.59 -101.8,186 A 304.54,304.54 0 0 0 302,430.4 252.08,252.08 0 0 0 330.5,380.88 c 9,-21.2 14,-42.44 14.73,-63.13 A 85.52,85.52 0 0 0 334.45,273.4 c -6.49,-12 -15.74,-23.4 -28.28,-34.93 -21.84,-20.09 -50,-36.91 -74.92,-51.74 l -1.16,-0.69 c -5.83,-11 -8.63,-21.26 -4.81,-29.76 26.71,-59.41 100.93,-93.52 166.18,-86.86 21.2,-25.48 41.89,-22.08 41.89,-22.08 l -11.9,25.33 c 0,0 20,-11.19 23.11,-7.29 l -16.48,30.7 13.92,18.53 c 0,0 51.12,95.57 51.12,101.89 z m -73.8,-99.92 a 9.47,9.47 0 1 0 -9.47,9.47 9.47,9.47 0 0 0 9.48,-9.48 z"
       id="path4"
       inkscape:connector-curvature="0"
       style="fill:#000000;fill-opacity:1" />
  </g>
</svg>
