<?xml version="1.0" encoding="UTF-8" standalone="no"?>
<svg
   xmlns:dc="http://purl.org/dc/elements/1.1/"
   xmlns:cc="http://creativecommons.org/ns#"
   xmlns:rdf="http://www.w3.org/1999/02/22-rdf-syntax-ns#"
   xmlns:svg="http://www.w3.org/2000/svg"
   xmlns="http://www.w3.org/2000/svg"
   xmlns:sodipodi="http://sodipodi.sourceforge.net/DTD/sodipodi-0.dtd"
   xmlns:inkscape="http://www.inkscape.org/namespaces/inkscape"
   viewBox="0 0 1000 560"
   version="1.1"
   id="svg8"
   sodipodi:docname="pikeman.svg"
   width="1000"
   height="560"
   inkscape:version="0.92.1 r15371"
   inkscape:export-filename="C:\Users\William\Documents\Dev\Games\ccg\ccgclient\src\assets\png\pikeman.png"
   inkscape:export-xdpi="240"
   inkscape:export-ydpi="240">
  <metadata
     id="metadata14">
    <rdf:RDF>
      <cc:Work
         rdf:about="">
        <dc:format>image/svg+xml</dc:format>
        <dc:type
           rdf:resource="http://purl.org/dc/dcmitype/StillImage" />
        <dc:title></dc:title>
      </cc:Work>
    </rdf:RDF>
  </metadata>
  <defs
     id="defs12" />
  <sodipodi:namedview
     pagecolor="#ffffff"
     bordercolor="#666666"
     borderopacity="1"
     objecttolerance="10"
     gridtolerance="10"
     guidetolerance="10"
     inkscape:pageopacity="0"
     inkscape:pageshadow="2"
     inkscape:window-width="3840"
     inkscape:window-height="2004"
     id="namedview10"
     showgrid="true"
     inkscape:zoom="1.3037281"
     inkscape:cx="631.26005"
     inkscape:cy="365.0587"
     inkscape:window-x="-16"
     inkscape:window-y="-16"
     inkscape:window-maximized="1"
     inkscape:current-layer="svg8">
    <inkscape:grid
       type="xygrid"
       id="grid4491" />
  </sodipodi:namedview>
  <path
     d="M 0,0 H 1000 V 560 H 0 Z"
     id="path2"
     inkscape:connector-curvature="0"
     style="fill:#f8e71c;stroke-width:1.46158493" />
  <g
     class=""
     id="g6"
     transform="matrix(1.177087,0,0,1.177087,195.15656,-5.5488174)">
    <path
       d="m 406,27.594 -23.625,76.187 -5.844,28.97 -52.25,47.844 -51.5,-43.125 -23.405,-4.095 c 8.217,-14.33 14.685,-32.77 16.406,-49.594 10.02,-2.28 20.516,-5.426 31.69,-9.81 L 261.189,57.407 c -1.964,-7.07 -16.546,-28.484 -31.406,-27.28 h -0.03 c -18.2,4.6 -25.82,25.298 -28.72,40.718 L 176.5,90.53 c 7.87,-0.307 15.58,-0.415 23.344,-0.53 0.66,14.1 4.4,27.847 9.97,36.375 L 174.656,120.25 106,195.906 l 77.344,55.875 1.625,16.845 -34.19,215.75 h 38.376 l 38.313,-169.25 47.874,169.25 h 37.47 l -3.564,-16.406 17.094,16.405 63.062,-322.53 c 5.01,-4.54 9.265,-8.483 12.094,-11.314 0.177,-10.537 -2.537,-18.942 -5.094,-24.5 l 1.125,-5.686 8.47,-92.75 z m -223.156,125.78 0.344,64.095 -31.5,-23.75 z m 88.03,21.25 50.876,45.94 c 0,0 22.993,-19.458 44.875,-38.533 l -57.438,285.564 -42.812,-197.53 4.5,-95.44 z"
       id="path4"
       inkscape:connector-curvature="0"
       style="fill:#000000" />
  </g>
  <!-- react-empty: 6 -->
</svg>
