<?xml version="1.0" encoding="UTF-8" standalone="no"?>
<svg
   xmlns:dc="http://purl.org/dc/elements/1.1/"
   xmlns:cc="http://creativecommons.org/ns#"
   xmlns:rdf="http://www.w3.org/1999/02/22-rdf-syntax-ns#"
   xmlns:svg="http://www.w3.org/2000/svg"
   xmlns="http://www.w3.org/2000/svg"
   xmlns:sodipodi="http://sodipodi.sourceforge.net/DTD/sodipodi-0.dtd"
   xmlns:inkscape="http://www.inkscape.org/namespaces/inkscape"
   viewBox="0 0 1000 560"
   version="1.1"
   id="svg8"
   sodipodi:docname="plague-doctor-profile.svg"
   width="1000"
   height="560"
   inkscape:version="0.92.1 r15371"
   inkscape:export-filename="C:\Users\William\Documents\Dev\Games\ccg\ccgclient\src\assets\png\plague-doctor-profile.png"
   inkscape:export-xdpi="240"
   inkscape:export-ydpi="240">
  <metadata
     id="metadata14">
    <rdf:RDF>
      <cc:Work
         rdf:about="">
        <dc:format>image/svg+xml</dc:format>
        <dc:type
           rdf:resource="http://purl.org/dc/dcmitype/StillImage" />
        <dc:title />
      </cc:Work>
    </rdf:RDF>
  </metadata>
  <defs
     id="defs12" />
  <sodipodi:namedview
     pagecolor="#ffffff"
     bordercolor="#666666"
     borderopacity="1"
     objecttolerance="10"
     gridtolerance="10"
     guidetolerance="10"
     inkscape:pageopacity="0"
     inkscape:pageshadow="2"
     inkscape:window-width="3840"
     inkscape:window-height="2004"
     id="namedview10"
     showgrid="false"
     inkscape:zoom="0.921875"
     inkscape:cx="16.621033"
     inkscape:cy="264.59219"
     inkscape:window-x="-16"
     inkscape:window-y="-16"
     inkscape:window-maximized="1"
     inkscape:current-layer="svg8" />
  <path
     d="M -5.4237288,-2.9830509 H 1003.3899 V 558.91525 H -5.4237288 Z"
     id="path2"
     inkscape:connector-curvature="0"
     style="fill:#f8e71c;stroke-width:1.47049773;fill-opacity:1" />
  <g
     class=""
     id="g6"
     transform="matrix(1.2200999,0,0,1.2200999,221.64088,-29.900531)">
    <path
       d="M 259.646,33.586 C 214.948,43.702 163.07,59.661 117.666,76.512 75.103,92.308 37.945,109.308 19.85,120.732 l 28.634,40.006 C 85.45,141.836 163.58,106.833 258.87,78.725 c 0.115,-12.307 0.426,-26.651 0.777,-45.14 z m -0.755,63.922 C 169.338,124.346 95.078,157.384 59.082,175.543 l 11.363,15.877 c 64.955,-26.867 129.99,-52.813 189.244,-73.865 -0.436,-6.558 -0.686,-13.057 -0.798,-20.047 z m 10.861,35.584 c -63.467,22.407 -134.187,50.745 -204.494,79.949 l -0.063,-0.148 c -22.345,11.147 -36.325,23.22 -47.084,35.552 3.174,0.194 6.684,0.262 10.803,-0.04 11.524,-0.847 26.29,-3.532 42.982,-7.69 33.387,-8.316 74.56,-22.461 115.413,-38.873 40.852,-16.412 81.444,-35.104 113.841,-52.438 20.416,-10.922 37.096,-21.52 48.778,-30.168 -27.24,-0.104 -57.425,6.306 -80.176,13.856 z m 18.371,43.3 a 1084.226,1084.226 0 0 1 -16.488,8.057 c 6.635,4.076 11.482,10.968 14.367,18.592 3.944,10.42 4.892,22.894 2.566,35.8 -2.325,12.907 -7.527,24.049 -14.789,32.046 -7.262,7.997 -17.434,13.233 -28.275,10.888 -10.842,-2.344 -18.433,-11.423 -22.377,-21.843 -3.944,-10.42 -4.894,-22.894 -2.568,-35.801 1.264,-7.02 3.387,-13.512 6.222,-19.266 a 1358.468,1358.468 0 0 1 -32.761,13.678 1248.826,1248.826 0 0 1 -43.65,16.613 c 11.354,20.924 27.32,38.077 51.366,50.307 l 9.17,4.664 -5.842,8.469 c -8.506,12.333 -6.783,30.624 1.875,43.974 8.659,13.35 21.871,20.897 38.64,14.395 59.434,-23.047 104.228,-28.81 145.775,-21.113 34.839,6.454 67.127,22.398 103.834,43.81 -12.425,-28.256 -33.968,-57.384 -60.729,-82.209 -33.985,-31.525 -76.04,-56.09 -116.33,-64.65 l -5.635,-1.198 -1.271,-5.617 c -0.802,-3.538 -8.001,-29.713 -23.1,-49.595 z m -29.527,22.372 c -2.798,0.11 -6.202,1.744 -9.908,5.826 -4.563,5.024 -8.733,13.374 -10.53,23.348 -1.796,9.973 -0.835,19.436 1.643,25.982 2.477,6.546 5.817,9.469 8.896,10.135 3.08,0.666 7.182,-0.646 11.744,-5.67 4.563,-5.024 8.735,-13.377 10.532,-23.35 1.796,-9.973 0.833,-19.436 -1.645,-25.982 -2.478,-6.547 -5.817,-9.469 -8.896,-10.135 a 7.293,7.293 0 0 0 -1.836,-0.154 z m -125.414,42.4 c -18.266,6.199 -35.82,11.553 -51.98,15.748 -4.18,24.009 9.737,55.444 19.53,71.184 36.172,26.058 68.19,52.072 126.23,70.021 l -4.89,-22.824 c -12.567,-3.576 -23.285,-12.214 -30.234,-22.93 -10.383,-16.01 -14.055,-37.249 -6.25,-55.41 -23.92,-14.166 -40.703,-33.554 -52.406,-55.789 z m -56.55,92.08 c -9.031,13.247 -23.97,18.894 -37.823,21.772 15.285,25.397 49.541,49.906 93.216,72.103 41.305,20.993 90.376,40.17 138.215,58.6 -11.892,-19.381 -20.046,-40.812 -22.304,-63.33 C 161.773,401.842 122.84,365.104 76.633,333.244 Z m -27.696,61.57 C 36.052,424.224 26.8,455.703 25.279,487 h 198.588 c -34.824,-13.775 -69.286,-28.225 -99.998,-43.834 -29.2,-14.84 -55.252,-30.589 -74.933,-48.352 z"
       id="path4"
       inkscape:connector-curvature="0"
       style="fill:#131210" />
  </g>
  <!-- react-empty: 6 -->
</svg>
