<?xml version="1.0" encoding="UTF-8" standalone="no"?>
<svg
   xmlns:dc="http://purl.org/dc/elements/1.1/"
   xmlns:cc="http://creativecommons.org/ns#"
   xmlns:rdf="http://www.w3.org/1999/02/22-rdf-syntax-ns#"
   xmlns:svg="http://www.w3.org/2000/svg"
   xmlns="http://www.w3.org/2000/svg"
   xmlns:sodipodi="http://sodipodi.sourceforge.net/DTD/sodipodi-0.dtd"
   xmlns:inkscape="http://www.inkscape.org/namespaces/inkscape"
   viewBox="0 0 512 512"
   style="height: 512px; width: 512px;"
   version="1.1"
   id="svg8"
   sodipodi:docname="play2.svg"
   inkscape:export-filename="C:\Users\William\Documents\Dev\Games\ccg\ccgclient\src\assets\png\play2.png"
   inkscape:export-xdpi="240"
   inkscape:export-ydpi="240"
   inkscape:version="0.92.1 r15371">
  <metadata
     id="metadata14">
    <rdf:RDF>
      <cc:Work
         rdf:about="">
        <dc:format>image/svg+xml</dc:format>
        <dc:type
           rdf:resource="http://purl.org/dc/dcmitype/StillImage" />
      </cc:Work>
    </rdf:RDF>
  </metadata>
  <defs
     id="defs12" />
  <sodipodi:namedview
     pagecolor="#ffffff"
     bordercolor="#666666"
     borderopacity="1"
     objecttolerance="10"
     gridtolerance="10"
     guidetolerance="10"
     inkscape:pageopacity="0"
     inkscape:pageshadow="2"
     inkscape:window-width="3840"
     inkscape:window-height="2004"
     id="namedview10"
     showgrid="false"
     inkscape:zoom="0.4609375"
     inkscape:cx="256"
     inkscape:cy="256"
     inkscape:window-x="-16"
     inkscape:window-y="-16"
     inkscape:window-maximized="1"
     inkscape:current-layer="svg8" />
  <g
     class=""
     transform="translate(0,2)"
     style="touch-action: none;"
     id="g6">
    <path
       fill="#000000"
       d="M115.063 21.97v9.343c0 101.953 38.158 189.648 96.343 222.093v6.094c-58.186 32.445-96.344 120.14-96.344 222.094v9.344H401.81v-9.344c0-102.552-38.804-190.274-97.53-222.188V253.5c58.722-31.917 97.53-119.64 97.53-222.188V21.97H115.06zM134 40.655h248.875c-2.477 96.445-42.742 175.523-91.938 198.906l-5.343 2.532V270.844l5.344 2.53c49.193 23.383 89.456 102.438 91.937 198.876H134c2.456-95.898 42.125-175.078 90.875-198.938l5.25-2.562v-28.594l-5.25-2.562c-48.748-23.86-88.42-103.04-90.875-198.938zm213.656 86.125c-57.607 27.81-124.526 27.84-177.562 4.095C184.748 181.78 213.91 218.012 248.22 224c-1.54 2.047-2.47 4.585-2.47 7.344 0 6.76 5.488 12.25 12.25 12.25s12.25-5.49 12.25-12.25c0-2.72-.907-5.218-2.406-7.25 35.426-5.88 65.488-44.07 79.812-97.313zM258 258.626c-6.762 0-12.25 5.488-12.25 12.25s5.488 12.25 12.25 12.25 12.25-5.488 12.25-12.25-5.488-12.25-12.25-12.25zm0 39.28c-6.762 0-12.25 5.49-12.25 12.25 0 6.763 5.488 12.25 12.25 12.25s12.25-5.487 12.25-12.25c0-6.76-5.488-12.25-12.25-12.25zm0 39.533c-6.762 0-12.25 5.488-12.25 12.25 0 6.76 5.488 12.25 12.25 12.25s12.25-5.49 12.25-12.25c0-6.762-5.488-12.25-12.25-12.25zm.125 39.906c-23.21.28-46.19 25.77-75.813 75.656h153c-30.523-51.003-53.977-75.936-77.187-75.656z"
       transform="translate(0, 0) scale(1, 1) rotate(-360, 256, 256)"
       id="path4" />
  </g>
  <!-- react-empty: 6 -->
</svg>
