<?xml version="1.0" encoding="UTF-8" standalone="no"?>
<svg
   xmlns:dc="http://purl.org/dc/elements/1.1/"
   xmlns:cc="http://creativecommons.org/ns#"
   xmlns:rdf="http://www.w3.org/1999/02/22-rdf-syntax-ns#"
   xmlns:svg="http://www.w3.org/2000/svg"
   xmlns="http://www.w3.org/2000/svg"
   xmlns:sodipodi="http://sodipodi.sourceforge.net/DTD/sodipodi-0.dtd"
   xmlns:inkscape="http://www.inkscape.org/namespaces/inkscape"
   viewBox="0 0 1000 560"
   version="1.1"
   id="svg8"
   sodipodi:docname="pocket-bow.svg"
   width="1000"
   height="560"
   inkscape:export-filename="C:\Users\William\Documents\Dev\Games\ccg\ccgclient\src\assets\png\pocket-bow.png"
   inkscape:export-xdpi="240"
   inkscape:export-ydpi="240"
   inkscape:version="0.92.1 r15371">
  <metadata
     id="metadata14">
    <rdf:RDF>
      <cc:Work
         rdf:about="">
        <dc:format>image/svg+xml</dc:format>
        <dc:type
           rdf:resource="http://purl.org/dc/dcmitype/StillImage" />
        <dc:title></dc:title>
      </cc:Work>
    </rdf:RDF>
  </metadata>
  <defs
     id="defs12" />
  <sodipodi:namedview
     pagecolor="#ffffff"
     bordercolor="#666666"
     borderopacity="1"
     objecttolerance="10"
     gridtolerance="10"
     guidetolerance="10"
     inkscape:pageopacity="0"
     inkscape:pageshadow="2"
     inkscape:window-width="3840"
     inkscape:window-height="2104"
     id="namedview10"
     showgrid="true"
     inkscape:zoom="0.4609375"
     inkscape:cx="256"
     inkscape:cy="256"
     inkscape:window-x="-16"
     inkscape:window-y="-16"
     inkscape:window-maximized="1"
     inkscape:current-layer="svg8">
    <inkscape:grid
       type="xygrid"
       id="grid4491" />
  </sodipodi:namedview>
  <path
     d="M 0,0 H 1000 V 560 H 0 Z"
     id="path2"
     inkscape:connector-curvature="0"
     style="fill:#417505;stroke-width:1.46158493" />
  <g
     class=""
     transform="translate(238.15,33.183)"
     id="g6">
    <path
       d="m 77.85,11.848 9.535,70.648 -69.418,-11.174 41.508,56.07 -11.127,322.715 c -11.712,13.235 -20.716,28.85 -25.823,47.914 74.198,-55.834 152.88,-71.602 223.606,-101.383 l -35.913,-35.914 c -53.122,25.232 -105.774,42.49 -142.547,71.347 l 9.674,-280.54 8.06,10.888 2.2,4.47 h 71.304 L 358.723,394.03 c 15.618,-13.627 29.605,-28.41 42.66,-44.645 L 171.506,155.605 V 84.226 l -11.86,-9.165 273.594,-10.66 c -29.99,36.36 -46.84,89.07 -71.39,142.416 l 36.558,36.56 c 29.22,-70.24 45.014,-148.09 100.262,-221.507 -18.54,4.97 -33.69,13.015 -46.604,23.603 l -0.02,-0.506 -315.437,12.29 -58.76,-45.41 z m 24.613,42.638 50.355,38.916 v 54.795 H 99.236 l -0.607,-0.146 -38.357,-50.988 49,7.89 -6.81,-50.466 z m 248.103,167.48 c -8.162,13.275 -17.044,25.835 -26.586,37.727 l 30.727,25.903 c 11.16,-8.75 22.568,-17.176 34.06,-25.432 l -38.2,-38.2 z m 100.006,89.74 C 414.826,368.52 375.184,412.43 315.88,447.67 c 59.143,20.683 118.488,37.302 178.8,43.98 -8.706,-60.66 -23.977,-120.562 -44.108,-179.94 z m -184.08,5.774 c -13.42,10.98 -27.58,21.186 -42.414,30.674 l 37.47,37.47 c 8.748,-14.57 18.62,-27.954 29.327,-40.43 z"
       id="path4"
       inkscape:connector-curvature="0"
       style="fill:#000000" />
  </g>
  <!-- react-empty: 6 -->
</svg>
