<?xml version="1.0" encoding="UTF-8" standalone="no"?>
<svg
   xmlns:dc="http://purl.org/dc/elements/1.1/"
   xmlns:cc="http://creativecommons.org/ns#"
   xmlns:rdf="http://www.w3.org/1999/02/22-rdf-syntax-ns#"
   xmlns:svg="http://www.w3.org/2000/svg"
   xmlns="http://www.w3.org/2000/svg"
   xmlns:sodipodi="http://sodipodi.sourceforge.net/DTD/sodipodi-0.dtd"
   xmlns:inkscape="http://www.inkscape.org/namespaces/inkscape"
   viewBox="0 0 1000 560"
   version="1.1"
   id="svg21"
   sodipodi:docname="poison-gas.svg"
   width="1000"
   height="560"
   inkscape:export-filename="C:\Users\William\Documents\Dev\Games\ccg\ccgclient\src\assets\png\poison-gas.png"
   inkscape:export-xdpi="96"
   inkscape:export-ydpi="96"
   inkscape:version="0.92.1 r15371">
  <metadata
     id="metadata25">
    <rdf:RDF>
      <cc:Work
         rdf:about="">
        <dc:format>image/svg+xml</dc:format>
        <dc:type
           rdf:resource="http://purl.org/dc/dcmitype/StillImage" />
        <dc:title />
      </cc:Work>
    </rdf:RDF>
  </metadata>
  <sodipodi:namedview
     pagecolor="#ffffff"
     bordercolor="#666666"
     borderopacity="1"
     objecttolerance="10"
     gridtolerance="10"
     guidetolerance="10"
     inkscape:pageopacity="0"
     inkscape:pageshadow="2"
     inkscape:window-width="3840"
     inkscape:window-height="2104"
     id="namedview23"
     showgrid="true"
     inkscape:zoom="1.84375"
     inkscape:cx="254.58008"
     inkscape:cy="266.6417"
     inkscape:window-x="-16"
     inkscape:window-y="-16"
     inkscape:window-maximized="1"
     inkscape:current-layer="svg21">
    <inkscape:grid
       type="xygrid"
       id="grid4502" />
  </sodipodi:namedview>
  <defs
     id="defs13">
    <filter
       id="shadow-1"
       height="3"
       width="3"
       x="-1"
       y="-1">
      <feFlood
         flood-color="#0f0"
         result="flood"
         id="feFlood2" />
      <feComposite
         in="flood"
         in2="SourceGraphic"
         operator="atop"
         result="composite"
         id="feComposite4" />
      <feGaussianBlur
         in="composite"
         stdDeviation="15"
         result="blur"
         id="feGaussianBlur6" />
      <feOffset
         result="offset"
         id="feOffset8" />
      <feComposite
         in="SourceGraphic"
         in2="offset"
         operator="over"
         id="feComposite10" />
    </filter>
  </defs>
  <path
     d="M 0,0 H 1005 V 560 H 0 Z"
     id="path15"
     inkscape:connector-curvature="0"
     style="fill:#334033;fill-opacity:1;stroke-width:1.46523428" />
  <g
     class=""
     id="g19"
     transform="translate(246.824,24.499)"
     style="filter:url(#shadow-1)">
    <path
       d="m 372.03,16.318 c -18.85,0 -37.693,7.71 -49.214,23.125 -25.114,-24.456 -78.796,-13.708 -78.796,32.248 0,6.683 1.14,12.617 3.156,17.81 h 126.906 l 43.98,182.098 h -75.558 l -10.514,90.42 c 35.93,0.896 72.553,-22.212 72.553,-69.356 l -0.002,-0.164 c 15.128,1.198 30.85,-4.22 40.5,-16.244 13.076,11.892 39.855,6.224 39.855,-17.014 0,-18.95 -17.805,-26.2 -31.47,-21.79 -3.356,-17.022 -15.09,-27.788 -29.05,-32.307 5.138,-7.003 8.3,-16.072 8.3,-27.213 0,-21.872 -12.166,-35.76 -27.618,-41.682 0.302,-1.52 0.466,-3.144 0.466,-4.875 0,-1.72 -0.164,-3.333 -0.462,-4.844 15.914,-9.37 27.426,-26.276 27.426,-50.74 0,-39.647 -30.228,-59.47 -60.457,-59.472 z M 98.7,39.695 c -19.232,-0.137 -38.25,10.7 -43.63,35.428 -12.75,58.617 76.628,78.058 89.38,19.44 0.482,-2.216 0.8,-4.37 1,-6.473 11.744,3.185 25.72,-1.606 29.114,-17.207 5.824,-26.77 -29.91,-37.59 -42.388,-18.38 -8.952,-8.2 -21.255,-12.72 -33.475,-12.808 z m 62.116,68.494 -34.956,144.721 h 68.466 l 20.772,178.64 h 89.992 l 20.77,-178.64 h 68.464 L 359.37,108.19 H 160.815 Z m 308.83,11.29 c -10.803,0 -21.607,7.087 -21.607,21.258 0,28.343 43.214,28.343 43.214,0 0,-14.17 -10.804,-21.258 -21.608,-21.258 z m -300.536,47.998 67.292,47.228 -79.062,7.078 z m 181.753,0 11.772,54.306 -79.063,-7.078 67.29,-47.228 z m 111.537,9.42 c -7.432,0 -14.863,4.875 -14.863,14.623 0,19.495 29.727,19.495 29.727,0 0,-9.748 -7.432,-14.624 -14.864,-14.624 z M 48.125,189.58 c -15.72,0 -31.443,10.31 -31.443,30.93 0,27.956 28.893,36.956 47.51,27.01 1.29,63.073 85.368,71.095 107.73,24.076 h -69.8 l 19.61,-81.192 C 105.236,190.158 88.628,196.216 77.52,208.588 72.768,195.918 60.448,189.58 48.125,189.58 Z m 211.865,41.053 31.88,42.1 -14.9,11.283 -16.982,-22.428 -16.984,22.428 -14.9,-11.284 31.886,-42.1 z M 40.38,272.738 c -7.433,0 -14.864,4.872 -14.864,14.62 0,19.5 29.726,19.5 29.726,0 0,-9.746 -7.432,-14.62 -14.863,-14.62 z m 141.222,32.56 c -15.187,0.658 -29.89,10.956 -29.89,30.897 0,7.752 2.22,14.044 5.83,18.88 -8.155,7.493 -13.548,18.505 -13.548,33.058 0,23.906 14.53,38.272 32.004,43.125 -2.34,3.485 -3.756,7.896 -3.756,13.238 0,28.692 40.822,30.603 46.274,5.742 h -20.06 z m 147.244,83.747 -7.116,61.193 h -52.253 c 11.388,26.444 46.265,32.527 68.462,18.252 5.28,35.71 62.494,33.894 62.494,-5.445 0,-25.93 -24.858,-35.552 -43.317,-28.875 0.058,-1.037 0.096,-2.087 0.096,-3.162 0,-22.225 -12.56,-36.207 -28.367,-41.963 z m 153.53,6.543 c -7.142,0.088 -14.38,5.985 -11.946,15.072 4.1,15.304 27.436,9.05 23.336,-6.254 -1.666,-6.22 -6.505,-8.878 -11.39,-8.818 z M 61.312,416.842 c -13.135,0 -26.27,8.613 -26.27,25.842 0,17.23 13.14,25.846 26.275,25.843 -0.26,1.37 -0.404,2.828 -0.404,4.38 0,26.502 40.41,26.502 40.41,0 0,-11.306 -7.355,-17.772 -15.787,-19.432 1.3,-3.116 2.045,-6.71 2.045,-10.79 0,-17.23 -13.135,-25.843 -26.27,-25.843 z M 463,431.766 c -5.583,0.068 -11.202,3.082 -13.688,8.17 -13.404,-8.747 -36.365,2.018 -30.974,22.14 6.044,22.56 37.068,17.112 39.658,-2.02 9.654,2.782 22.22,-4.778 18.775,-17.632 -2.013,-7.516 -7.864,-10.73 -13.77,-10.658 z m -332.88,1.857 c -7.43,0 -14.862,4.875 -14.862,14.623 0,19.496 29.724,19.496 29.724,0 0,-9.75 -7.43,-14.623 -14.86,-14.623 z"
       id="path17"
       inkscape:connector-curvature="0"
       style="fill:#00ff00;fill-opacity:1" />
  </g>
</svg>
