<?xml version="1.0" encoding="UTF-8" standalone="no"?>
<svg
   xmlns:dc="http://purl.org/dc/elements/1.1/"
   xmlns:cc="http://creativecommons.org/ns#"
   xmlns:rdf="http://www.w3.org/1999/02/22-rdf-syntax-ns#"
   xmlns:svg="http://www.w3.org/2000/svg"
   xmlns="http://www.w3.org/2000/svg"
   xmlns:sodipodi="http://sodipodi.sourceforge.net/DTD/sodipodi-0.dtd"
   xmlns:inkscape="http://www.inkscape.org/namespaces/inkscape"
   viewBox="0 0 1000 560"
   version="1.1"
   id="svg8"
   sodipodi:docname="pope-crown.svg"
   width="1000"
   height="560"
   inkscape:version="0.92.1 r15371"
   inkscape:export-filename="C:\Users\William\Documents\Dev\Games\ccg\ccgclient\src\assets\png\pope-crown.png"
   inkscape:export-xdpi="240"
   inkscape:export-ydpi="240">
  <metadata
     id="metadata14">
    <rdf:RDF>
      <cc:Work
         rdf:about="">
        <dc:format>image/svg+xml</dc:format>
        <dc:type
           rdf:resource="http://purl.org/dc/dcmitype/StillImage" />
        <dc:title />
      </cc:Work>
    </rdf:RDF>
  </metadata>
  <defs
     id="defs12" />
  <sodipodi:namedview
     pagecolor="#ffffff"
     bordercolor="#666666"
     borderopacity="1"
     objecttolerance="10"
     gridtolerance="10"
     guidetolerance="10"
     inkscape:pageopacity="0"
     inkscape:pageshadow="2"
     inkscape:window-width="3840"
     inkscape:window-height="2004"
     id="namedview10"
     showgrid="true"
     inkscape:zoom="1.3037281"
     inkscape:cx="515.64831"
     inkscape:cy="298.9305"
     inkscape:window-x="-16"
     inkscape:window-y="-16"
     inkscape:window-maximized="1"
     inkscape:current-layer="svg8">
    <inkscape:grid
       type="xygrid"
       id="grid4484" />
  </sodipodi:namedview>
  <path
     d="M 0,0 H 1000 V 560 H 0 Z"
     id="path2"
     inkscape:connector-curvature="0"
     style="fill:#f8e71c;fill-opacity:1;stroke-width:1.46158493" />
  <g
     class=""
     id="g6"
     transform="matrix(1.2116647,0,0,1.1292147,196.39015,-1.3500934)">
    <path
       d="m 247,29.337 v 23 h -23 v 18 h 23 v 30.71 c 3.042,-0.46 6.046,-0.71 9,-0.71 2.954,0 5.958,0.25 9,0.71 v -30.71 h 23 v -18 h -23 v -23 z m 9,89 c -2.13,0 -4.48,0.282 -7,0.805 v 309.8 c 4.678,-0.154 9.322,-0.154 14,0 v -309.8 c -2.52,-0.523 -4.87,-0.805 -7,-0.805 z m -25.002,7.318 c -17.49,8.458 -38.558,23.73 -58.012,43.12 -30.294,30.198 -57.61,69.585 -68.416,103.308 -18.06,56.354 -1.17,117.767 28.424,178.756 43.848,-10.937 72.82,-17.792 98.004,-20.583 z m 50.004,0 v 304.602 c 25.183,2.79 54.156,9.646 98.004,20.582 29.595,-60.99 46.483,-122.403 28.424,-178.757 -10.807,-33.723 -38.122,-73.11 -68.416,-103.307 -19.454,-19.39 -40.523,-34.663 -58.012,-43.12 z M 256,446.337 c -3.78,0 -7.558,0.033 -11.324,0.09 -25.686,1.59 -54.423,8.623 -103.608,20.922 l 7.657,15.313 c 101.827,-28.995 112.723,-28.995 214.55,0 l 7.657,-15.314 c -49.185,-12.3 -77.922,-19.333 -103.608,-20.923 -3.766,-0.057 -7.545,-0.09 -11.324,-0.09 z"
       id="path4"
       inkscape:connector-curvature="0"
       style="fill:#131210" />
  </g>
  <!-- react-empty: 6 -->
</svg>
