<?xml version="1.0" encoding="UTF-8" standalone="no"?>
<svg
   xmlns:dc="http://purl.org/dc/elements/1.1/"
   xmlns:cc="http://creativecommons.org/ns#"
   xmlns:rdf="http://www.w3.org/1999/02/22-rdf-syntax-ns#"
   xmlns:svg="http://www.w3.org/2000/svg"
   xmlns="http://www.w3.org/2000/svg"
   xmlns:sodipodi="http://sodipodi.sourceforge.net/DTD/sodipodi-0.dtd"
   xmlns:inkscape="http://www.inkscape.org/namespaces/inkscape"
   viewBox="0 0 1000 560"
   version="1.1"
   id="svg8"
   sodipodi:docname="radar-dish.svg"
   width="1000"
   height="560"
   inkscape:version="0.92.1 r15371"
   inkscape:export-filename="C:\Users\William\Documents\Dev\Games\ccg\ccgclient\src\assets\png\radar-dish.png"
   inkscape:export-xdpi="240"
   inkscape:export-ydpi="240">
  <metadata
     id="metadata14">
    <rdf:RDF>
      <cc:Work
         rdf:about="">
        <dc:format>image/svg+xml</dc:format>
        <dc:type
           rdf:resource="http://purl.org/dc/dcmitype/StillImage" />
        <dc:title></dc:title>
      </cc:Work>
    </rdf:RDF>
  </metadata>
  <defs
     id="defs12" />
  <sodipodi:namedview
     pagecolor="#ffffff"
     bordercolor="#666666"
     borderopacity="1"
     objecttolerance="10"
     gridtolerance="10"
     guidetolerance="10"
     inkscape:pageopacity="0"
     inkscape:pageshadow="2"
     inkscape:window-width="3840"
     inkscape:window-height="2004"
     id="namedview10"
     showgrid="true"
     inkscape:zoom="1.3037281"
     inkscape:cx="617.91603"
     inkscape:cy="307.82651"
     inkscape:window-x="-16"
     inkscape:window-y="-16"
     inkscape:window-maximized="1"
     inkscape:current-layer="svg8">
    <inkscape:grid
       type="xygrid"
       id="grid4491" />
  </sodipodi:namedview>
  <path
     d="M 0,0 H 1010 V 570 H 0 Z"
     id="path2"
     inkscape:connector-curvature="0"
     style="fill:#c9c9c9;stroke:#ffffff;stroke-width:6.02181721" />
  <g
     class=""
     id="g6"
     transform="matrix(1.2118969,0,0,1.2118969,181.34085,-29.19011)">
    <path
       d="m 227.47,31.47 c -67.048,70.547 -83.972,178.936 -32.907,267.467 51.07,88.544 153.333,128.083 247.906,105.22 l -215,-372.688 z m 232.81,82.155 c -5.05,0.133 -10.127,1.48 -14.81,4.188 -11.303,6.53 -17.02,19.035 -15.44,31.218 l -96.31,29.25 34.842,60.345 L 442,169.812 c 9.755,7.504 23.456,8.826 34.78,2.282 14.992,-8.663 20.117,-27.822 11.47,-42.813 -5.945,-10.305 -16.856,-15.948 -27.97,-15.655 z m -311.874,107.5 -26.656,4.688 10.688,60.53 -42.063,39.376 18.688,32.124 58.656,-17.813 3.155,4.158 L 53.53,493.094 h 78.345 l 85.344,-21.53 52.686,21.53 h 50.563 l -7.064,-45.78 0.813,-0.22 -0.97,-0.625 -4.75,-30.72 c -6.82,-2.366 -13.532,-5.066 -20.125,-8.03 l 3.844,24.967 -51,-33.437 18.75,-6.594 c -6.528,-4.05 -12.883,-8.437 -19.033,-13.125 l -19.375,6.814 -39.625,-26 5.813,-7.375 15.156,-9.658 c -9.043,-10.742 -17.264,-22.432 -24.53,-35.03 -16,-27.74 -25.828,-57.3 -29.97,-87.157 z m 21.906,153.97 29.094,19.06 -61.062,21.5 31.97,-40.56 z m 48.72,31.967 49.343,32.344 -49.78,12.563 -58.845,-24.033 59.28,-20.875 z m -94.813,26.532 5.718,2.312 58.125,23.75 -105.312,26.564 41.47,-52.626 z m 170.968,18.312 5.187,33.438 -52.625,-21.47 45.813,-11.562 z"
       id="path4"
       inkscape:connector-curvature="0"
       style="fill:#000000" />
  </g>
  <!-- react-empty: 6 -->
</svg>
