<?xml version="1.0" encoding="UTF-8" standalone="no"?>
<svg
   xmlns:dc="http://purl.org/dc/elements/1.1/"
   xmlns:cc="http://creativecommons.org/ns#"
   xmlns:rdf="http://www.w3.org/1999/02/22-rdf-syntax-ns#"
   xmlns:svg="http://www.w3.org/2000/svg"
   xmlns="http://www.w3.org/2000/svg"
   xmlns:sodipodi="http://sodipodi.sourceforge.net/DTD/sodipodi-0.dtd"
   xmlns:inkscape="http://www.inkscape.org/namespaces/inkscape"
   viewBox="0 0 1000 560"
   version="1.1"
   id="svg21"
   sodipodi:docname="raise-skeleton.svg"
   width="1000"
   height="560"
   inkscape:version="0.92.1 r15371"
   inkscape:export-filename="C:\Users\William\Documents\Dev\Games\ccg\ccgclient\src\assets\png\raise-skeleton.png"
   inkscape:export-xdpi="240"
   inkscape:export-ydpi="240">
  <metadata
     id="metadata25">
    <rdf:RDF>
      <cc:Work
         rdf:about="">
        <dc:format>image/svg+xml</dc:format>
        <dc:type
           rdf:resource="http://purl.org/dc/dcmitype/StillImage" />
        <dc:title></dc:title>
      </cc:Work>
    </rdf:RDF>
  </metadata>
  <sodipodi:namedview
     pagecolor="#000000"
     bordercolor="#666666"
     borderopacity="1"
     objecttolerance="10"
     gridtolerance="10"
     guidetolerance="10"
     inkscape:pageopacity="1"
     inkscape:pageshadow="2"
     inkscape:window-width="3840"
     inkscape:window-height="2004"
     id="namedview23"
     showgrid="false"
     inkscape:zoom="0.921875"
     inkscape:cx="351.31025"
     inkscape:cy="327.30262"
     inkscape:window-x="-16"
     inkscape:window-y="-16"
     inkscape:window-maximized="1"
     inkscape:current-layer="svg21" />
  <defs
     id="defs13">
    <filter
       id="shadow-1"
       height="3"
       width="3"
       x="-1"
       y="-1">
      <feFlood
         flood-color="#9013fe"
         result="flood"
         id="feFlood2" />
      <feComposite
         in="flood"
         in2="SourceGraphic"
         operator="atop"
         result="composite"
         id="feComposite4" />
      <feGaussianBlur
         in="composite"
         stdDeviation="25"
         result="blur"
         id="feGaussianBlur6" />
      <feOffset
         result="offset"
         id="feOffset8" />
      <feComposite
         in="SourceGraphic"
         in2="offset"
         operator="over"
         id="feComposite10" />
    </filter>
  </defs>
  <g
     class=""
     transform="matrix(1.0591555,0,0,1.0102241,214.39824,64.154216)"
     id="g19">
    <path
       d="m 244,439.765 -22.63,3 8.5,-148.15 a 68.48,68.48 0 0 0 22.33,6.7 l -7.94,138.45 z m 28.5,7 4.37,1.32 18.3,0.65 v -153.58 a 70.07,70.07 0 0 1 -22.68,6.29 v 145.35 z m -255.26,45.6 h 473.52 l -56.07,-32.23 -37.84,-9.11 -46.68,-19.3 -36.71,34.72 -39.41,-1.4 -27.86,-8.41 -41.34,5.41 -25,-15.92 -10.78,-18.22 -84.07,19.61 -55.34,20.32 z m 148.05,-334.53 c -3.757,-4.877 -10.72,-5.866 -15.686,-2.227 -4.966,3.638 -6.122,10.575 -2.604,15.627 l 12,16.45 16.21,-16.32 z m 35.71,48.72 -15.6,-21.29 -16.17,16.3 15.19,20.8 15.37,-14.81 a 8.55,8.55 0 0 1 1.21,-1 z m 25.67,35 -15.67,-21.27 -16.44,15.88 16.67,22.76 c 2.46,-6.81 7.9,-12.78 15.42,-17.32 z m -24.9,-146.42 c -2.193,-5.775 -8.606,-8.733 -14.422,-6.651 -5.817,2.081 -8.897,8.436 -6.928,14.291 l 14.23,39.78 20.64,-9.62 z m 16.83,114.35 10.91,30.48 a 67.76,67.76 0 0 1 21.67,-6.74 l -11.43,-31.86 z m 2.4,-60.42 -20.64,9.62 12.46,34.83 21.18,-8.15 z m 30,32.69 22.62,-1.87 -1.72,-38.52 -22.64,1.26 z m 0.75,17 1.51,34.25 a 83.52,83.52 0 0 1 22.72,0.42 l -1.61,-36.54 z m 17.36,-120.58 c -0.433,-6.13 -5.672,-10.8 -11.812,-10.53 -6.14,0.272 -10.947,5.385 -10.838,11.53 l 2.05,46.5 22.64,-1.31 z m 82.54,20.19 c 1.945,-5.83 -1.109,-12.149 -6.886,-14.247 -5.777,-2.098 -12.174,0.788 -14.424,6.507 l -12.34,33.95 21.15,8.2 z m -18.29,50.4 -21.15,-8.2 -15.62,43 21.41,7.45 z m -55,85.06 a 63.82,63.82 0 0 1 21.28,7.84 l 12.59,-34.67 -21.42,-7.45 z m 106.42,-21 c 5.037,-3.722 6.102,-10.823 2.38,-15.86 -3.722,-5.037 -10.823,-6.102 -15.86,-2.38 l -27.18,20.08 14.41,17.55 z m -68.65,50.72 28.7,-21.21 -14.41,-17.55 -26.69,19.72 c 6.79,5.16 11.27,11.71 12.38,19.01 z m -53,21.46 c 20.78,0 36.31,-9.38 36.31,-17.76 0,-8.38 -15.53,-17.76 -36.31,-17.76 -20.78,0 -36.31,9.38 -36.31,17.76 0,8.38 15.47,17.72 36.26,17.72 z"
       id="path17"
       inkscape:connector-curvature="0"
       style="fill:#9013fe;filter:url(#shadow-1)" />
  </g>
  <!-- react-empty: 13 -->
</svg>
