<?xml version="1.0" encoding="UTF-8" standalone="no"?>
<svg
   xmlns:dc="http://purl.org/dc/elements/1.1/"
   xmlns:cc="http://creativecommons.org/ns#"
   xmlns:rdf="http://www.w3.org/1999/02/22-rdf-syntax-ns#"
   xmlns:svg="http://www.w3.org/2000/svg"
   xmlns="http://www.w3.org/2000/svg"
   xmlns:sodipodi="http://sodipodi.sourceforge.net/DTD/sodipodi-0.dtd"
   xmlns:inkscape="http://www.inkscape.org/namespaces/inkscape"
   viewBox="0 0 1000 560"
   version="1.1"
   id="svg21"
   sodipodi:docname="rally-the-troops.svg"
   width="1000"
   height="560"
   inkscape:version="0.92.1 r15371"
   inkscape:export-filename="C:\Users\William\Documents\Dev\Games\ccg\ccgclient\src\assets\png\rally-the-troops.png"
   inkscape:export-xdpi="240"
   inkscape:export-ydpi="240">
  <metadata
     id="metadata25">
    <rdf:RDF>
      <cc:Work
         rdf:about="">
        <dc:format>image/svg+xml</dc:format>
        <dc:type
           rdf:resource="http://purl.org/dc/dcmitype/StillImage" />
        <dc:title></dc:title>
      </cc:Work>
    </rdf:RDF>
  </metadata>
  <sodipodi:namedview
     pagecolor="#2f2f25"
     bordercolor="#666666"
     borderopacity="1"
     objecttolerance="10"
     gridtolerance="10"
     guidetolerance="10"
     inkscape:pageopacity="1"
     inkscape:pageshadow="2"
     inkscape:window-width="3840"
     inkscape:window-height="2004"
     id="namedview23"
     showgrid="true"
     inkscape:zoom="0.921875"
     inkscape:cx="-331.45745"
     inkscape:cy="160.71244"
     inkscape:window-x="-16"
     inkscape:window-y="-16"
     inkscape:window-maximized="1"
     inkscape:current-layer="svg21">
    <inkscape:grid
       type="xygrid"
       id="grid4502" />
  </sodipodi:namedview>
  <defs
     id="defs13">
    <filter
       id="shadow-1"
       height="3"
       width="3"
       x="-1"
       y="-1">
      <feFlood
         flood-color="#f5a623"
         result="flood"
         id="feFlood2" />
      <feComposite
         in="flood"
         in2="SourceGraphic"
         operator="atop"
         result="composite"
         id="feComposite4" />
      <feGaussianBlur
         in="composite"
         stdDeviation="15"
         result="blur"
         id="feGaussianBlur6" />
      <feOffset
         result="offset"
         id="feOffset8" />
      <feComposite
         in="SourceGraphic"
         in2="offset"
         operator="over"
         id="feComposite10" />
    </filter>
  </defs>
  <g
     class=""
     transform="matrix(1.1119771,0,0,1.1119771,190.96181,9.6639258)"
     id="g19">
    <path
       d="m 458.125,19.125 c -9.603,0 -17.188,7.585 -17.188,17.188 0,9.602 7.585,17.187 17.188,17.187 9.603,0 17.188,-7.585 17.188,-17.188 0,-9.602 -7.585,-17.187 -17.188,-17.187 z M 377.78,40.938 c -160.32,0.806 -218.11,217.493 -362.936,96.28 3.244,36.77 88.5,78.407 88.5,78.407 -26.103,19.995 -34.85,24.705 -72.063,25.438 104.168,86.748 338.695,-99.8 408.408,40.093 l -2.25,-38.312 -45.47,-46.563 42.75,0.657 -0.593,-10.28 -50.75,-32.188 48.406,-7.22 -0.655,-11.063 -50.03,-27.25 47.903,-8.843 -0.625,-10.688 -52.156,-22.75 50.467,-5.844 -0.812,-13.906 c -17.043,-4.2 -33.02,-6.044 -48.094,-5.968 z m 70.845,29.968 20.188,428 18.656,-0.875 L 467.31,71 c -2.933,0.784 -6.018,1.188 -9.187,1.188 -3.283,0 -6.472,-0.442 -9.5,-1.282 z m -93.438,221.97 -43.562,70.03 21.25,25.03 L 317.22,493 h 18.874 l 15.25,-102.28 27.937,-20.22 -24.092,-77.625 z m -156.717,17.904 -28.814,69.783 20.53,20.218 2.22,92.22 h 18.688 l -2.22,-92.97 19.595,-19.936 -30,-69.313 z m -158.157,5 -16.407,61.876 17.657,13.28 L 56.406,493 H 75.28 L 60.063,388.25 73.283,370.656 40.345,315.781 h -0.032 z m 86,7.44 -28.25,57.467 15.156,16.97 L 106.5,493 h 18.75 l 6.72,-95.28 15.905,-14.19 -21.563,-60.31 z m 136.843,32.31 -19.436,68.41 19.405,15.125 5.813,53.935 h 18.812 l -5.875,-54.28 16.813,-21.595 -35.532,-61.594 z m 143.656,0.064 -18.906,68.562 20.313,15.563 6.155,53.28 h 18.813 l -6.375,-55.188 16.03,-20.906 -36.03,-61.312 z"
       id="path17"
       inkscape:connector-curvature="0"
       style="fill:#f8e71c;filter:url(#shadow-1)" />
  </g>
  <!-- react-empty: 13 -->
</svg>
