<?xml version="1.0" encoding="UTF-8" standalone="no"?>
<svg
   xmlns:dc="http://purl.org/dc/elements/1.1/"
   xmlns:cc="http://creativecommons.org/ns#"
   xmlns:rdf="http://www.w3.org/1999/02/22-rdf-syntax-ns#"
   xmlns:svg="http://www.w3.org/2000/svg"
   xmlns="http://www.w3.org/2000/svg"
   xmlns:sodipodi="http://sodipodi.sourceforge.net/DTD/sodipodi-0.dtd"
   xmlns:inkscape="http://www.inkscape.org/namespaces/inkscape"
   viewBox="0 0 1000 560"
   version="1.1"
   id="svg8"
   sodipodi:docname="reaper-scythe.svg"
   width="1000"
   height="560"
   inkscape:version="0.92.1 r15371"
   inkscape:export-filename="C:\Users\William\Documents\Dev\Games\ccg\ccgclient\src\assets\png\reaper-scythe.png"
   inkscape:export-xdpi="96"
   inkscape:export-ydpi="96">
  <metadata
     id="metadata14">
    <rdf:RDF>
      <cc:Work
         rdf:about="">
        <dc:format>image/svg+xml</dc:format>
        <dc:type
           rdf:resource="http://purl.org/dc/dcmitype/StillImage" />
        <dc:title></dc:title>
      </cc:Work>
    </rdf:RDF>
  </metadata>
  <defs
     id="defs12" />
  <sodipodi:namedview
     pagecolor="#370661"
     bordercolor="#666666"
     borderopacity="1"
     objecttolerance="10"
     gridtolerance="10"
     guidetolerance="10"
     inkscape:pageopacity="1"
     inkscape:pageshadow="2"
     inkscape:window-width="3840"
     inkscape:window-height="2104"
     id="namedview10"
     showgrid="false"
     inkscape:zoom="0.4609375"
     inkscape:cx="-927.45762"
     inkscape:cy="256"
     inkscape:window-x="-16"
     inkscape:window-y="-16"
     inkscape:window-maximized="1"
     inkscape:current-layer="svg8" />
  <g
     class=""
     style="fill:#ffffff"
     id="g6"
     transform="matrix(1.1097151,0,0,1.1457805,202.03039,-4.8547178)">
    <path
       d="m 171.125,20.28 c -3.678,0.004 -7.287,0.027 -10.844,0.095 l -5.718,0.125 -2.5,5.125 c -6.484,13.307 -23.588,23.72 -45.937,31.625 -8.73,3.088 -18.122,5.803 -27.72,8.313 l 9.657,16.812 c 8.253,-2.24 16.435,-4.714 24.313,-7.5 22.043,-7.795 42.253,-18.258 53.375,-35.813 54.302,-0.54 123.166,6.728 181.688,29.126 54.774,20.963 99.65,54.383 117.812,106.624 -2.063,-0.668 -4.205,-1.333 -6.313,-2 l -63.28,-52.593 -25.876,30 -43.124,-46.47 -23.156,34.313 -45.28,-45.907 -27.908,38.125 -46,-45.81 -23.78,45.124 -38.782,-27.72 -7.406,26.282 23.594,41.094 c 13.6,-7.09 32.617,-14.47 49.875,-17.72 12.606,-2.37 24.367,-2.552 32.093,-0.31 7.727,2.24 11.237,5.162 12.656,13 l 1.813,9.968 9.78,-2.594 c 74.608,-19.777 168.01,4.457 231.97,26.437 l 15.78,5.44 -3.624,-16.314 C 472.78,117.786 417.833,75.1 354.126,50.72 294.401,27.86 226.291,20.247 171.126,20.28 Z M 40.72,50.313 c -12.622,0.486 -23.765,10.62 -23.376,28.626 94.07,133.71 175.316,272.647 239.47,417.562 H 298.25 L 52.406,53.22 c -2.063,-0.898 -4.34,-1.96 -6.437,-2.345 -1.836,-0.336 -3.45,-0.637 -5.25,-0.563 z M 382.75,255.97 c -8.857,0.08 -17.908,1.26 -26.97,3.686 -55.227,14.784 -88.043,69.08 -74.342,120.156 3.257,12.147 14.716,25.216 29.468,36.344 10.09,7.61 21.485,14.305 32.063,19.72 -2.054,-13.744 -5.87,-27.03 -13.064,-39.938 l 16.313,-9.094 c 18.71,33.585 17.717,68.118 18.03,100.906 9.32,1.53 18.46,3.04 27.47,4.188 l 1.842,-34 18.657,1 -1.876,34.78 c 11.114,0.645 22.016,0.378 32.75,-1.406 l -1.656,-35.375 18.687,-0.843 1.438,31.47 c 6.713,-2.395 13.364,-5.54 19.968,-9.627 0.64,-5.552 2.86,-25.628 4.033,-53.968 0.565,-13.672 0.764,-28.563 0.312,-43.095 -15.635,4.024 -31.625,-5.263 -35.813,-20.875 -4.212,-15.705 5.12,-31.853 20.844,-36.063 2.457,-0.657 4.944,-0.975 7.375,-1 h 0.064 C 465.917,283.512 428.73,257.113 386.53,256 c -1.256,-0.033 -2.515,-0.043 -3.78,-0.03 z m 4.72,70.936 c 15.152,-0.15 29.052,9.89 33.155,25.188 4.863,18.13 -5.88,36.766 -24.03,41.625 -18.153,4.858 -36.826,-5.903 -41.69,-24.033 -4.86,-18.13 5.912,-36.766 24.064,-41.625 2.835,-0.76 5.693,-1.128 8.5,-1.156 z m 51.936,46.188 25.594,53.626 -38.563,6.06 12.97,-59.686 z"
       id="path4"
       style="fill:#ffffff"
       inkscape:connector-curvature="0" />
  </g>
</svg>
