<?xml version="1.0" encoding="UTF-8" standalone="no"?>
<svg
   xmlns:dc="http://purl.org/dc/elements/1.1/"
   xmlns:cc="http://creativecommons.org/ns#"
   xmlns:rdf="http://www.w3.org/1999/02/22-rdf-syntax-ns#"
   xmlns:svg="http://www.w3.org/2000/svg"
   xmlns="http://www.w3.org/2000/svg"
   xmlns:sodipodi="http://sodipodi.sourceforge.net/DTD/sodipodi-0.dtd"
   xmlns:inkscape="http://www.inkscape.org/namespaces/inkscape"
   viewBox="0 0 1000 560"
   version="1.1"
   id="svg8"
   sodipodi:docname="relic-blade.svg"
   width="1000"
   height="560"
   inkscape:version="0.92.1 r15371">
  <metadata
     id="metadata14">
    <rdf:RDF>
      <cc:Work
         rdf:about="">
        <dc:format>image/svg+xml</dc:format>
        <dc:type
           rdf:resource="http://purl.org/dc/dcmitype/StillImage" />
        <dc:title></dc:title>
      </cc:Work>
    </rdf:RDF>
  </metadata>
  <defs
     id="defs12" />
  <sodipodi:namedview
     pagecolor="#ffffff"
     bordercolor="#666666"
     borderopacity="1"
     objecttolerance="10"
     gridtolerance="10"
     guidetolerance="10"
     inkscape:pageopacity="0"
     inkscape:pageshadow="2"
     inkscape:window-width="3840"
     inkscape:window-height="2004"
     id="namedview10"
     showgrid="true"
     inkscape:zoom="0.4609375"
     inkscape:cx="256"
     inkscape:cy="256"
     inkscape:window-x="-16"
     inkscape:window-y="-16"
     inkscape:window-maximized="1"
     inkscape:current-layer="svg8">
    <inkscape:grid
       type="xygrid"
       id="grid4491" />
  </sodipodi:namedview>
  <path
     d="M 0,0 H 1020 V 560 H 0 Z"
     id="path2"
     inkscape:connector-curvature="0"
     style="fill:#f8e71c;stroke-width:1.47612846" />
  <g
     class=""
     transform="matrix(0.49181488,1.3512503,-1.3512503,0.49181488,730.25935,-190.05518)"
     id="g6">
    <path
       d="m 499.78,16.125 -22.623,6.375 -151.47,42.53 -6.592,1.876 -0.22,6.844 -0.905,29.344 -18.814,5.03 -6.656,1.75 -0.28,6.907 -0.97,24.657 -134.125,133.594 -2.875,2.876 0.125,4.063 c 0.71,20.398 -14.288,31.957 -22.75,31.217 -9.973,-0.872 -15.33,-4.037 -18.875,-8.437 -3.544,-4.4 -5.546,-10.93 -5.5,-19.656 l 0.125,-24.156 -16.344,17.78 c -17.327,18.843 -26.697,42.824 -26.843,66.97 l -0.062,9.406 h 9.406 c 12.214,0.003 24.46,2.815 35.72,8.344 l -4.063,14.468 c -20.925,17.263 -41.855,40.54 -52.968,59.97 -1.636,2.857 -2.977,5.514 -4.064,7.968 l -31.907,8.905 -1.5,41.656 41.656,-1.5 9,-32.187 c 2.383,-1.07 4.96,-2.36 7.72,-3.94 19.338,-11.062 42.48,-31.857 59.718,-52.686 l 14.47,-4.063 c 5.345,11.147 8.143,23.224 8.186,35.064 l 0.03,9.312 h 9.314 c 24.72,0.007 49.722,-9.366 68.844,-27.53 l 13.906,-13.22 -19,-2.78 c -10.576,-1.556 -18.374,-5.412 -23.03,-9.75 -4.66,-4.34 -6.335,-8.744 -5.876,-13.626 1.054,-11.204 4.174,-16.044 8.437,-19.063 4.263,-3.018 11.267,-4.52 21.094,-4.218 l 4.06,0.124 2.845,-2.875 136.313,-136.314 18.968,-0.47 6.938,-0.186 1.844,-6.688 4.437,-16.093 32.906,-1.44 6.75,-0.28 1.845,-6.53 45.625,-148.843 8.03,-20.5 z M 466.157,45 429.97,173.906 397,175.312 l -6.78,0.282 -1.814,6.594 -4.406,16 -15.75,0.375 -3.72,0.093 -2.655,2.625 -136.28,136.314 c -9.812,0.1 -19.142,1.668 -27.064,6.812 l 0.69,-19.25 144.343,-144.344 26.437,-1.03 4.624,-16.783 1.844,-6.656 6.905,-0.188 32.25,-0.937 22.938,-82.595 -82.594,22.938 -0.968,29.938 -0.22,6.875 -6.655,1.844 -19.03,5.186 -0.876,30.344 -142.25,142.22 -21.19,0.75 c 4.803,-7.545 7.843,-16.86 8.22,-27.158 l 134,-133.437 2.625,-2.594 0.125,-3.655 0.875,-21.47 18.875,-5.03 6.72,-1.813 0.186,-6.937 0.938,-29.438 L 466.156,45 Z M 93.03,307.78 c 1.38,3.076 3.004,6.015 5.157,8.69 4.966,6.163 11.98,10.684 20.5,13.217 l -4.343,15.5 c -9.857,-4.416 -20.287,-7.18 -30.844,-8.25 1.23,-10.044 4.448,-19.957 9.53,-29.156 z m 87.25,23.095 -1.53,42.97 -57.5,16.092 16.063,-57.53 42.968,-1.532 z m 2.657,61.22 c 2.006,5.516 5.43,10.576 9.875,14.717 3.934,3.665 8.684,6.685 14.032,9.094 -10.278,6.204 -21.67,9.998 -33.188,11.28 -1.086,-10.328 -3.84,-20.554 -8.125,-30.248 l 17.407,-4.844 z"
       id="path4"
       inkscape:connector-curvature="0"
       style="fill:#000000" />
  </g>
  <!-- react-empty: 6 -->
</svg>
