<?xml version="1.0" encoding="UTF-8" standalone="no"?>
<svg
   xmlns:dc="http://purl.org/dc/elements/1.1/"
   xmlns:cc="http://creativecommons.org/ns#"
   xmlns:rdf="http://www.w3.org/1999/02/22-rdf-syntax-ns#"
   xmlns:svg="http://www.w3.org/2000/svg"
   xmlns="http://www.w3.org/2000/svg"
   xmlns:sodipodi="http://sodipodi.sourceforge.net/DTD/sodipodi-0.dtd"
   xmlns:inkscape="http://www.inkscape.org/namespaces/inkscape"
   viewBox="0 0 512 512"
   style="height: 512px; width: 512px;"
   id="svg2"
   version="1.1"
   inkscape:version="0.92.1 r15371"
   sodipodi:docname="renewal.svg"
   inkscape:export-filename="C:\Users\William\Documents\Dev\Games\ccg\ccgclient\src\assets\png\renewal-small.png"
   inkscape:export-xdpi="12"
   inkscape:export-ydpi="12">
  <metadata
     id="metadata14">
    <rdf:RDF>
      <cc:Work
         rdf:about="">
        <dc:format>image/svg+xml</dc:format>
        <dc:type
           rdf:resource="http://purl.org/dc/dcmitype/StillImage" />
      </cc:Work>
    </rdf:RDF>
  </metadata>
  <defs
     id="defs12" />
  <sodipodi:namedview
     pagecolor="#ffffff"
     bordercolor="#666666"
     borderopacity="1"
     objecttolerance="10"
     gridtolerance="10"
     guidetolerance="10"
     inkscape:pageopacity="0"
     inkscape:pageshadow="2"
     inkscape:window-width="3840"
     inkscape:window-height="2004"
     id="namedview10"
     showgrid="false"
     inkscape:zoom="0.65186406"
     inkscape:cx="-367.04408"
     inkscape:cy="291.94531"
     inkscape:window-x="-16"
     inkscape:window-y="-16"
     inkscape:window-maximized="1"
     inkscape:current-layer="svg2" />
  <ellipse
     style="opacity:1;fill:#f8e71c;fill-opacity:1;stroke:#000000;stroke-width:2.74624467;stroke-miterlimit:4;stroke-dasharray:none;stroke-opacity:1"
     id="path4150"
     cx="256.95541"
     cy="258.87973"
     rx="241.74167"
     ry="245.57684" />
  <g
     class=""
     transform="matrix(0.87544489,0,0,0.8992018,29.970947,7.6727885)"
     id="g6">
    <path
       d="m 227.02,45.682 -2.01,150.17 c -10.8,2.273 -21.273,5.438 -31.334,9.423 l -34.46,-54.44 10.48,65.913 c -11.186,6.322 -21.69,13.712 -31.362,22.043 l -85.387,-73.01 60.914,98.26 c -10.724,13.255 -19.744,27.943 -26.725,43.73 l -37.89,-9.674 32.146,24.228 c -5.19,14.893 -8.618,30.607 -10.036,46.89 l -52.426,1.497 151.115,58.343 c -5.937,-13.1 -9.244,-27.634 -9.244,-42.922 0,-57.535 46.842,-104.378 104.378,-104.378 57.535,0 104.377,46.843 104.377,104.38 0,14.662 -3.05,28.628 -8.535,41.304 -0.054,0.597 -0.1,1.188 -0.16,1.79 l 138.406,-59.548 -40.56,-3.928 c -2.213,-21.043 -7.78,-41.097 -16.17,-59.607 l 29.804,-34.71 -41.317,13.08 c -9.153,-14.872 -20.252,-28.418 -32.937,-40.292 L 457.013,112.422 363.987,218.66 c -13.207,-7.81 -27.41,-14.104 -42.377,-18.64 l 2.535,-65.838 -24.547,60.54 c -11.17,-1.997 -22.667,-3.04 -34.405,-3.04 -2.4,0 -4.785,0.06 -7.164,0.146 L 227.02,45.682 Z m 38.173,164.685 c 9.258,0 18.345,0.717 27.213,2.09 l -19.693,48.572 -10.74,-50.622 c 1.072,-0.02 2.143,-0.04 3.22,-0.04 z m -40.44,4.664 -0.515,38.53 -20.392,-32.218 c 6.78,-2.518 13.76,-4.633 20.908,-6.31 z m 96.112,4.312 c 10.708,3.56 20.953,8.127 30.63,13.578 l -32.585,37.213 1.955,-50.79 z m -148.03,17.15 5.85,36.803 -26.048,-22.274 c 6.366,-5.3 13.115,-10.156 20.197,-14.528 z m 217.186,25.766 c 8.48,8.533 16.08,17.934 22.673,28.056 l -41.02,12.987 18.348,-41.042 z m -265.73,18.605 26.808,43.24 -45.643,-11.654 c 5.185,-11.22 11.508,-21.8 18.836,-31.587 z M 265.18,300.44 c -47.435,0 -85.69,38.256 -85.69,85.69 0,47.436 38.255,85.688 85.69,85.688 47.435,0 85.687,-38.252 85.687,-85.687 0,-47.434 -38.252,-85.69 -85.687,-85.69 z m 163.808,21.484 c 5.21,13.28 8.856,27.35 10.707,41.984 l -43.17,-4.18 32.463,-37.804 z m -331.878,12.252 43.853,33.054 -50.805,1.45 c 1.177,-11.892 3.534,-23.433 6.953,-34.504 z"
       id="path8"
       inkscape:connector-curvature="0"
       style="fill:#000000" />
  </g>
  <!-- react-empty: 6 -->
</svg>
