<?xml version="1.0" encoding="UTF-8" standalone="no"?>
<svg
   xmlns:dc="http://purl.org/dc/elements/1.1/"
   xmlns:cc="http://creativecommons.org/ns#"
   xmlns:rdf="http://www.w3.org/1999/02/22-rdf-syntax-ns#"
   xmlns:svg="http://www.w3.org/2000/svg"
   xmlns="http://www.w3.org/2000/svg"
   xmlns:sodipodi="http://sodipodi.sourceforge.net/DTD/sodipodi-0.dtd"
   xmlns:inkscape="http://www.inkscape.org/namespaces/inkscape"
   viewBox="0 0 1000 560"
   version="1.1"
   id="svg8"
   sodipodi:docname="rosa-shield.svg"
   width="1000"
   height="560"
   inkscape:version="0.92.1 r15371"
   inkscape:export-filename="C:\Users\William\Documents\Dev\Games\ccg\ccgclient\src\assets\png\rosa-shield.png"
   inkscape:export-xdpi="96"
   inkscape:export-ydpi="96">
  <metadata
     id="metadata14">
    <rdf:RDF>
      <cc:Work
         rdf:about="">
        <dc:format>image/svg+xml</dc:format>
        <dc:type
           rdf:resource="http://purl.org/dc/dcmitype/StillImage" />
        <dc:title />
      </cc:Work>
    </rdf:RDF>
  </metadata>
  <defs
     id="defs12" />
  <sodipodi:namedview
     pagecolor="#ffffff"
     bordercolor="#666666"
     borderopacity="1"
     objecttolerance="10"
     gridtolerance="10"
     guidetolerance="10"
     inkscape:pageopacity="0"
     inkscape:pageshadow="2"
     inkscape:window-width="3840"
     inkscape:window-height="2104"
     id="namedview10"
     showgrid="true"
     inkscape:zoom="0.4609375"
     inkscape:cx="-1024"
     inkscape:cy="256"
     inkscape:window-x="-16"
     inkscape:window-y="-16"
     inkscape:window-maximized="1"
     inkscape:current-layer="svg8">
    <inkscape:grid
       type="xygrid"
       id="grid16" />
  </sodipodi:namedview>
  <path
     d="M -2.1694916,0 H 1000 V 564.33894 H -2.1694916 Z"
     id="path2"
     inkscape:connector-curvature="0"
     style="fill:#f8e71c;stroke-width:1.46882701;fill-opacity:1" />
  <g
     class=""
     id="g6"
     transform="translate(233.563,37.312)">
    <path
       fill="rgba(255, 255, 255, 1)"
       d="m 253.875,20.844 c -61.545,0.405 -123.647,9.54 -187.47,27.812 l -6.467,1.844 -0.28,6.72 c -6.405,147.46 49.12,346.625 192.28,429.28 l 4.688,2.688 4.656,-2.688 C 400.312,406.23 463.162,204.736 456.658,57.22 l -0.125,-5.907 -6.624,-2.657 c -63.63,-18.215 -126.57,-27.65 -190.062,-27.812 -1.984,-0.005 -3.984,-0.013 -5.97,0 z m 0.344,18.625 c 1.86,-0.013 3.73,-0.006 5.593,0 59.47,0.15 118.43,8.782 178.28,25.343 3.956,139.034 -57.428,327.223 -181.468,402.625 C 128.534,389.791 74.074,204.417 78.186,64.843 138.233,48.228 196.493,39.838 254.22,39.47 Z M 258,56.03 229.562,182.75 184.25,157.437 l 26.97,48.25 -92.5,26.157 91.655,25.937 -26.688,47.72 45.625,-25.5 28.657,127.688 28.655,-127.625 45.875,25.656 -26.72,-47.814 91.845,-26 -92.75,-26.25 27.063,-48.406 -45.5,25.438 z"
       id="path4"
       inkscape:connector-curvature="0" />
  </g>
</svg>
