<?xml version="1.0" encoding="UTF-8" standalone="no"?>
<svg
   xmlns:dc="http://purl.org/dc/elements/1.1/"
   xmlns:cc="http://creativecommons.org/ns#"
   xmlns:rdf="http://www.w3.org/1999/02/22-rdf-syntax-ns#"
   xmlns:svg="http://www.w3.org/2000/svg"
   xmlns="http://www.w3.org/2000/svg"
   xmlns:sodipodi="http://sodipodi.sourceforge.net/DTD/sodipodi-0.dtd"
   xmlns:inkscape="http://www.inkscape.org/namespaces/inkscape"
   viewBox="0 0 1000 560"
   version="1.1"
   id="svg21"
   sodipodi:docname="scales.svg"
   width="1000"
   height="560"
   inkscape:version="0.92.1 r15371"
   inkscape:export-filename="C:\Users\William\Documents\Dev\Games\ccg\ccgclient\src\assets\png\scales.png"
   inkscape:export-xdpi="240"
   inkscape:export-ydpi="240">
  <metadata
     id="metadata25">
    <rdf:RDF>
      <cc:Work
         rdf:about="">
        <dc:format>image/svg+xml</dc:format>
        <dc:type
           rdf:resource="http://purl.org/dc/dcmitype/StillImage" />
        <dc:title></dc:title>
      </cc:Work>
    </rdf:RDF>
  </metadata>
  <sodipodi:namedview
     pagecolor="#ffffff"
     bordercolor="#666666"
     borderopacity="1"
     objecttolerance="10"
     gridtolerance="10"
     guidetolerance="10"
     inkscape:pageopacity="0"
     inkscape:pageshadow="2"
     inkscape:window-width="3840"
     inkscape:window-height="2004"
     id="namedview23"
     showgrid="true"
     inkscape:zoom="0.921875"
     inkscape:cx="256.54164"
     inkscape:cy="510.98006"
     inkscape:window-x="-16"
     inkscape:window-y="-16"
     inkscape:window-maximized="1"
     inkscape:current-layer="svg21">
    <inkscape:grid
       type="xygrid"
       id="grid4502" />
  </sodipodi:namedview>
  <defs
     id="defs13">
    <filter
       id="shadow-1"
       height="3"
       width="3"
       x="-1"
       y="-1">
      <feFlood
         flood-color="#f5a623"
         result="flood"
         id="feFlood2" />
      <feComposite
         in="flood"
         in2="SourceGraphic"
         operator="atop"
         result="composite"
         id="feComposite4" />
      <feGaussianBlur
         in="composite"
         stdDeviation="15"
         result="blur"
         id="feGaussianBlur6" />
      <feOffset
         result="offset"
         id="feOffset8" />
      <feComposite
         in="SourceGraphic"
         in2="offset"
         operator="over"
         id="feComposite10" />
    </filter>
  </defs>
  <path
     d="M 0,0 H 1010 V 560 H 0 Z"
     id="path15"
     inkscape:connector-curvature="0"
     style="fill:#2f2f25;stroke:#ffffff;stroke-width:5.96876049" />
  <g
     class=""
     transform="matrix(1.245101,0,0,1.245101,176.07838,-33.411552)"
     id="g19">
    <path
       d="m 254.47,53.094 c 0,0 -4.808,37.12 -49.5,49.5 -44.695,12.38 -129.282,0 -129.282,0 l -14.345,13.186 8.187,9.157 -1.093,2.876 L 16.594,265.125 16,266.72 v 1.717 c 0,18.897 8.253,34.243 20.344,44 12.09,9.758 27.563,14.31 42.937,14.313 15.376,0.003 30.878,-4.556 42.97,-14.313 12.092,-9.756 20.344,-25.094 20.344,-44 v -1.843 L 141.907,264.906 86.97,130.28 c 23.946,-3.003 80.866,-8.54 115.5,1.532 23.064,6.71 36.151,20.345 43.436,31.97 l -35.126,190.686 21.407,30.31 c -17.75,7.75 -32.593,24.84 -37.562,51.345 -56.076,6.195 -95.47,20.74 -95.47,37.688 h 311.876 c 0,-16.947 -39.392,-31.493 -95.467,-37.688 -4.91,-26.6 -19.57,-44.112 -37.188,-51.906 l 21,-29.75 L 264,162.28 c 7.457,-11.275 20.388,-24.045 42.47,-30.468 34.955,-10.167 92.615,-4.42 116.155,-1.437 l -50.875,134.75 -0.625,1.594 v 1.717 c 0,18.897 8.253,34.243 20.344,44 12.09,9.758 27.593,14.31 42.967,14.313 15.375,0.003 30.877,-4.556 42.97,-14.313 12.09,-9.756 20.343,-25.094 20.343,-44 v -1.843 L 497.061,264.905 441,127.562 l -0.938,-2.28 8.782,-8.438 -15.594,-14.25 c 0,0 -84.556,12.38 -129.25,0 -44.694,-12.38 -49.53,-49.5 -49.53,-49.5 z M 77.53,156.656 121.75,265.031 H 36.594 L 77.53,156.657 Z m 355.158,0 44.218,108.375 H 391.72 l 40.967,-108.374 z"
       id="path17"
       inkscape:connector-curvature="0"
       style="fill:#f8e71c;filter:url(#shadow-1)" />
  </g>
  <!-- react-empty: 13 -->
</svg>
