<?xml version="1.0" encoding="UTF-8" standalone="no"?>
<svg
   xmlns:dc="http://purl.org/dc/elements/1.1/"
   xmlns:cc="http://creativecommons.org/ns#"
   xmlns:rdf="http://www.w3.org/1999/02/22-rdf-syntax-ns#"
   xmlns:svg="http://www.w3.org/2000/svg"
   xmlns="http://www.w3.org/2000/svg"
   xmlns:sodipodi="http://sodipodi.sourceforge.net/DTD/sodipodi-0.dtd"
   xmlns:inkscape="http://www.inkscape.org/namespaces/inkscape"
   viewBox="0 0 1000 560"
   version="1.1"
   id="svg6"
   sodipodi:docname="shambling-mound.svg"
   inkscape:version="0.92.1 r15371"
   inkscape:export-filename="C:\Users\William\Documents\Dev\Games\ccg\ccgclient\src\assets\png\shambling-mound.png"
   inkscape:export-xdpi="200"
   inkscape:export-ydpi="200">
  <metadata
     id="metadata12">
    <rdf:RDF>
      <cc:Work
         rdf:about="">
        <dc:format>image/svg+xml</dc:format>
        <dc:type
           rdf:resource="http://purl.org/dc/dcmitype/StillImage" />
      </cc:Work>
    </rdf:RDF>
  </metadata>
  <defs
     id="defs10" />
  <sodipodi:namedview
     pagecolor="#ffffff"
     bordercolor="#666666"
     borderopacity="1"
     objecttolerance="10"
     gridtolerance="10"
     guidetolerance="10"
     inkscape:pageopacity="0"
     inkscape:pageshadow="2"
     inkscape:window-width="3840"
     inkscape:window-height="2104"
     id="namedview8"
     showgrid="false"
     inkscape:zoom="1.19198"
     inkscape:cx="505.5121"
     inkscape:cy="106.63996"
     inkscape:window-x="-16"
     inkscape:window-y="-16"
     inkscape:window-maximized="1"
     inkscape:current-layer="svg6" />
  <rect
     width="1000"
     height="560"
     fill="white"
     class="card-image-background"
     id="rect2"
     style="fill:#417505;fill-opacity:1" />
  <path
     d="m 356.10768,10.239645 -18.16064,11.517676 c 5.61545,8.793577 4.89859,11.816369 3.10642,15.424604 -10.03615,13.357636 -26.58385,18.913361 -38.60333,28.543285 -7.6227,6.212854 -14.97059,16.296793 -13.047,28.387964 2.59268,16.081736 15.12592,26.954236 27.65915,35.556636 14.79138,-0.59739 30.44299,0.71688 43.22713,0.71688 l 0.23896,-0.47792 c -13.14257,-6.57129 -46.69199,-25.20985 -49.88205,-39.248511 12.00754,-19.964766 39.2485,-24.277921 49.52362,-43.752828 5.13754,-10.155626 4.06224,-23.811957 -4.06226,-36.667786 z m 110.87555,0.358434 c -2.1506,21.052016 -5.13755,38.280738 -8.48294,53.741187 l 33.81227,20.454628 -40.02512,6.344276 c -3.94277,15.23344 -6.81024,27.4202 -10.03615,41.27964 -12.54518,5.97389 -26.40462,11.23093 -38.4719,14.33735 15.05422,7.76607 30.10844,17.68275 36.44077,33.57331 4.30122,10.51406 2.50904,21.38655 -1.07529,30.70583 -3.46486,9.19981 -8.7219,17.68274 -13.38153,25.56829 -4.65965,7.88554 -8.60242,15.1737 -10.15564,20.66969 0.47792,27.47993 37.51608,32.13956 56.63257,27.1215 1.31425,-7.88555 6.69076,-15.53214 11.70883,-20.55022 -8.84137,-3.10643 -17.56326,-7.52711 -24.01507,-15.41266 -7.0492,-8.6024 -9.31928,-21.98394 -3.8233,-34.76808 4.42069,-7.88554 13.26206,-12.78414 21.02813,-13.97892 13.73997,-1.07531 26.64359,1.67269 39.18877,5.13755 0.95582,-8.24398 2.62852,-16.72691 5.85442,-24.25402 2.50903,-5.85442 6.57129,-11.82832 12.42571,-15.41266 l -13.14258,-12.90362 -20.90864,19.71386 -21.02812,-20.90864 -20.07231,15.53213 8.7219,-53.28717 16.8464,17.56327 12.18675,-18.04118 10.87249,25.20985 21.74499,-31.66166 9.1998,56.63256 c 3.22591,-1.19478 6.33233,-1.55321 9.43876,-1.55321 9.67771,0.59738 17.80222,6.57128 23.05924,13.501 5.9739,8.7219 10.15564,18.39961 12.78414,27.1215 1.6727,-0.95583 3.22591,-1.79217 4.8986,-2.74799 7.52711,-3.94278 15.29318,-7.6466 23.2982,-9.55824 -27.71888,-8.24398 -32.73695,-31.06427 -33.5733,-58.18577 -11.23093,-0.95582 -19.59439,-0.71686 -30.58636,-0.47791 -2.38956,-13.38153 -4.3012,-27.71889 -5.73494,-39.51136 L 502.22923,85.224012 539.02844,62.90553 c -2.27008,-15.93836 -5.25703,-31.55413 -10.63353,-46.954839 -17.20483,4.516267 -39.42773,4.755223 -61.41168,-5.352612 z m 197.25811,27.109549 c 0,0 -45.16266,24.325712 -41.33937,44.123211 1.19478,6.320382 6.33233,12.282335 12.78414,16.703021 -2.98695,7.24037 -4.18172,14.40904 -4.65964,21.69719 7.0492,2.15061 13.85945,4.54017 20.55021,7.04921 -0.95582,-7.52712 -1.43374,-15.05423 -0.71686,-22.46187 6.21285,1.31427 12.30623,0.71688 16.84638,-2.27007 17.9217,-12.079228 -3.46486,-64.840692 -3.46486,-64.840692 z m -63.56227,96.860782 c 2.62851,17.68274 2.62851,32.498 20.78916,35.12652 17.44379,3.94277 35.72392,-2.62852 50.4197,1.43374 -2.50903,-5.01808 -5.01807,-10.15563 -7.28815,-15.29318 -20.66969,-8.84137 -40.98094,-16.8464 -63.92071,-21.26708 z M 330.5394,151.17585 c -7.38374,16.36847 -14.82721,32.61748 -22.00784,48.86648 -4.58796,-3.58433 -9.57019,-6.69076 -15.37681,-8.96084 1.42179,-7.76607 0.66907,-15.65162 -3.03474,-20.90865 -3.97863,-5.61546 -12.36597,-7.52711 -21.64942,-7.52711 -17.73052,-0.11947 -38.77059,6.57129 -38.77059,6.57129 0,0 22.95172,51.97292 44.15906,47.6717 5.31676,-1.19477 9.90471,-5.13754 13.35763,-10.51405 4.74328,3.70381 8.96085,8.12449 12.92751,12.90361 -11.18313,26.28515 -21.27902,52.57031 -28.81808,79.45284 26.03424,2.38957 47.44471,11.58937 66.26247,23.17874 9.55825,-39.0693 18.16066,-72.16469 36.20183,-101.4368 l 34.76809,2.86747 c 5.13755,-10.03614 16.12952,-23.77611 11.82832,-34.88756 -15.65162,-19.71386 -35.72391,-28.1968 -58.66369,-36.44077 -10.99196,0 -21.1476,-0.5974 -31.18374,-0.83635 z m 211.47599,37.87451 c -1.6727,3.94278 -3.10643,9.7972 -3.94277,16.01004 4.18173,-1.31425 8.60241,-2.03112 13.14257,-2.03112 3.94277,0 7.64659,0.47791 11.23093,1.43374 -2.27008,-6.57129 -5.13755,-12.66467 -8.00502,-16.48796 -5.9739,-7.88554 -9.79719,-5.01808 -12.42571,1.0753 z m 93.67072,2.86747 c 2.98695,1.79217 5.73495,4.54017 7.52711,7.76607 6.21285,10.99197 2.98695,23.89559 -3.2259,32.85644 -0.95582,1.31426 -1.91165,2.74799 -2.98695,3.94278 l 48.03014,81.36449 c 2.03112,-10.51407 4.18173,-24.37351 5.61546,-39.42773 2.86747,-31.18375 0.23895,-66.31027 -11.11145,-80.2892 -11.46988,-10.2751 -29.75001,-6.69076 -43.84841,-6.21285 z m -16.01004,18.28013 c -5.01808,0.83634 -12.78414,4.06225 -20.19178,8.1245 -2.1506,1.19478 -4.30121,2.38957 -6.21286,3.58434 7.04921,3.10643 13.50102,6.45181 18.51909,9.43876 4.42069,-3.82329 8.24398,-7.64659 10.51406,-10.99198 3.8233,-6.69076 5.01807,-11.58935 -2.62851,-10.15562 z m -143.73199,11.9478 c -5.01808,4.18172 -2.15061,9.31928 0.59739,12.66466 2.74799,3.2259 9.08032,7.0492 16.72691,9.55824 4.65964,1.43374 9.67771,2.62851 14.21788,3.46486 0.11948,-7.76607 1.91164,-15.89057 5.01807,-21.74499 -9.43876,-2.62852 -29.86949,-7.40763 -36.56025,-3.94277 z m 75.27111,2.38956 c -12.54518,0 -22.2229,9.55823 -22.2229,21.26708 0,11.70883 9.67772,21.26707 22.2229,21.26707 12.54519,0 22.2229,-9.55824 22.2229,-21.26707 0,-11.70885 -9.67771,-21.26708 -22.2229,-21.26708 z m 162.1316,11.82832 c 0.95582,14.69578 0,29.86948 -1.31426,44.08737 -1.55321,16.249 -3.94277,31.06427 -6.09338,42.17571 19.35544,-9.79719 33.81226,-23.41767 44.44581,-40.50303 -12.90363,-14.93475 -25.32934,-30.10845 -37.03817,-45.76005 z m -116.84945,11.11144 c -3.94277,7.6466 -5.13755,16.60744 -9.55824,22.82029 4.06226,3.70383 8.96085,7.76607 14.69579,11.9478 6.33233,4.54017 13.0231,8.36346 17.68274,9.91667 8.60241,3.94278 11.70884,-8.72189 10.27511,-13.85944 -1.19478,-4.65965 -5.73495,-10.75302 -11.9478,-16.249 -7.28815,-6.45181 -15.05423,-11.11146 -21.1476,-14.57632 z m -82.08136,21.26708 c -7.52711,4.77912 -17.56326,9.08033 -20.78917,18.04118 -1.31425,7.28815 6.81025,17.56325 14.57632,15.77109 9.55823,-4.30122 15.1737,-11.9478 20.07229,-20.43074 -5.61546,-3.34538 -10.2751,-7.88554 -13.85944,-13.38153 z m 55.91569,15.53214 c -5.61547,2.62851 -11.9478,4.18172 -18.51909,4.3012 2.03113,12.30623 4.8986,35.72392 13.62049,41.81729 10.39459,0.83635 11.82832,-39.90564 4.8986,-46.11849 z m -162.72899,5.85442 c -4.06224,20.19177 -8.1245,40.62251 -12.4257,60.93375 13.02309,8.7219 26.88254,19.35543 36.44078,29.8695 8.24397,9.1998 14.93474,19.59438 16.12952,31.90061 0.95582,10.63354 -4.06226,19.83334 -10.15563,26.40463 -6.09337,6.57128 -13.26205,11.70884 -19.95282,16.60744 -6.69076,4.89859 -12.78414,9.43876 -16.249,13.38153 -3.46486,4.06225 -4.18172,6.09338 -3.58434,9.08033 2.27008,4.54015 10.27511,6.09337 15.05423,7.64658 5.25702,1.55322 11.11144,3.22591 16.96586,6.21286 5.85443,2.86747 12.06728,7.64659 15.05423,15.41265 v 0.11948 c 8.24397,-57.34942 14.69579,-108.12755 32.85643,-153.52918 l 61.88959,-1.67268 c 4.65965,17.8022 9.43876,36.7992 13.50101,52.21186 10.8725,15.53213 21.98394,30.94479 36.67973,42.05625 7.16868,5.25702 13.38153,7.5271 17.80222,7.28815 5.9739,-13.0231 9.55824,-29.98896 23.65663,-33.33436 6.21286,-1.31425 12.30623,-1.19477 18.28013,0.11948 -5.13754,-12.66466 -10.03614,-25.20985 -14.81526,-37.87451 -10.03615,4.65964 -21.50603,8.96085 -33.81226,5.61546 -15.05423,-4.06224 -25.09037,-15.89056 -33.0954,-28.91366 -1.55321,-2.62852 -3.10643,-5.25703 -4.54016,-8.00503 -8.96085,-0.95582 -15.41266,-7.28815 -19.71387,-13.97891 -4.77911,-8.96085 -7.88554,-18.28013 -9.79719,-27.00203 -5.49599,5.73495 -12.18675,10.8725 -20.78916,12.90362 -16.12953,0.35843 -29.03315,-6.21285 -36.20183,-18.16064 -9.08032,2.38955 -17.80222,3.46486 -26.04619,3.10643 -16.8464,-0.71688 -31.54218,-7.40764 -43.13155,-18.39961 z m 360.46501,4.3012 c -4.06225,6.45181 -8.60242,12.42571 -13.73996,18.04118 l 13.02309,4.42068 5.73495,36.3213 21.26708,-3.34538 -7.88555,-49.22492 z m -174.19887,8.60242 c -0.11948,9.55823 -0.95582,19.35543 -4.06225,28.31627 -1.43373,4.30121 -3.34538,8.36346 -6.45181,11.9478 5.37651,9.19981 13.26205,21.62551 23.05925,24.49299 2.27008,0.59738 11.82832,-1.43375 20.55021,-5.01808 -6.57129,-17.56327 -13.14257,-34.88757 -19.83334,-52.33135 -4.65964,-2.03112 -9.08032,-4.54016 -13.26206,-7.40763 z m -331.32433,16.72691 -28.55523,55.91569 19.16426,9.79719 32.07984,-62.84541 c -7.0731,-1.67269 -14.60021,-2.62852 -22.68887,-2.86747 z m 29.95313,4.65964 -17.79027,46.83537 -7.39569,42.17571 21.1715,3.82329 7.06115,-40.26407 16.98976,-44.68476 c -6.36818,-3.10642 -12.99921,-5.73494 -20.03645,-7.88554 z m 444.62528,3.94277 c -5.61547,4.30121 -11.58936,8.12451 -17.92169,11.70885 l 34.88756,58.42471 18.39961,-10.99196 z m -418.08923,7.40763 3.15422,47.43275 -17.13314,22.22291 17.03755,13.14258 22.06759,-28.67471 -2.62852,-39.54721 c -7.40764,-5.37651 -15.53213,-10.75301 -22.4977,-14.57632 z m 387.14443,10.63355 c -7.64658,3.2259 -13.501,5.13754 -21.02811,7.52711 l 1.55321,22.10342 26.64359,20.43073 13.14257,-16.96587 -18.99699,-14.69578 z m -315.89972,27.36044 c -3.58434,16.72693 -7.28816,33.33436 -11.23093,50.06127 -16.72692,26.88255 -42.2952,55.91569 -63.50254,67.38557 -11.57741,6.33234 -20.37099,7.40763 -27.13344,4.06225 -6.7744,-3.34538 -14.50463,-13.02309 -19.52269,-35.24599 l -20.98034,4.77912 c 5.75884,25.56828 15.89057,42.29519 30.94479,49.70282 15.05423,7.52712 32.02009,3.8233 47.02653,-4.42068 13.85944,-7.64658 27.36046,-19.23595 39.66668,-32.61748 -6.81024,25.44881 -14.21787,50.89761 -22.46186,76.46589 21.62551,13.62049 48.14963,9.19981 75.27112,2.98695 5.9739,-16.01004 9.1998,-34.52913 6.45181,-41.6978 -0.47791,-1.07531 -1.43373,-2.27009 -4.65964,-3.94278 -3.2259,-1.55321 -8.1245,-3.10643 -13.62048,-4.77912 -5.37651,-1.67269 -11.23094,-3.34538 -16.96588,-6.69076 -5.61547,-3.46486 -11.46989,-9.55824 -13.0231,-17.68274 -1.79217,-10.63354 2.86748,-20.19177 8.60242,-27.00202 5.85442,-6.69077 13.14257,-11.82831 19.83334,-16.72692 6.69076,-4.89859 12.90362,-9.55823 16.72691,-13.62048 3.8233,-4.18173 4.8986,-6.81024 4.54017,-9.91667 v -0.11948 c -0.47791,-5.01807 -4.18173,-12.18675 -10.63355,-19.47491 -6.57128,-7.28815 -15.53213,-14.69578 -24.61245,-21.02812 -0.23895,-0.11947 -0.47792,-0.35844 -0.71687,-0.47792 z m 241.34549,78.37756 c -3.46487,10.99196 -10.39459,22.10342 -21.38656,23.41767 -12.42571,1.19478 -23.53716,-4.3012 -33.21488,-11.46989 -3.58434,-2.74799 -7.16867,-5.73494 -10.51406,-8.84137 9.67772,34.29018 20.78916,67.98297 35.96287,100.60045 47.55222,11.70884 82.67875,7.76607 117.0884,2.98695 -14.81527,-22.70082 -27.59941,-45.76006 -39.18877,-68.93878 7.52711,-1.31426 14.93474,-3.2259 22.2229,-7.16868 5.01808,5.9739 11.46988,10.39459 17.92169,10.8725 19.95282,1.67268 39.42773,-45.76007 39.42773,-45.76007 0,0 -21.38655,-6.09337 -39.90564,-5.9739 -11.11145,0 -21.26708,2.27009 -24.97089,9.43876 -2.62852,4.77913 -2.38956,10.99198 -0.47791,16.96588 -7.76607,1.67269 -15.77109,1.91164 -23.77612,1.67269 -3.10643,-6.57129 -6.09338,-13.26206 -8.96085,-19.83334 -17.08534,-11.11146 -24.13455,-16.36848 -30.22791,2.03113 z"
     class="card-image-forground"
     id="path4"
     inkscape:connector-curvature="0"
     style="fill:#000000;stroke-width:1.19477963" />
</svg>
