<?xml version="1.0" encoding="UTF-8" standalone="no"?>
<svg
   xmlns:dc="http://purl.org/dc/elements/1.1/"
   xmlns:cc="http://creativecommons.org/ns#"
   xmlns:rdf="http://www.w3.org/1999/02/22-rdf-syntax-ns#"
   xmlns:svg="http://www.w3.org/2000/svg"
   xmlns="http://www.w3.org/2000/svg"
   xmlns:sodipodi="http://sodipodi.sourceforge.net/DTD/sodipodi-0.dtd"
   xmlns:inkscape="http://www.inkscape.org/namespaces/inkscape"
   viewBox="0 0 1000 560"
   version="1.1"
   id="svg21"
   sodipodi:docname="sinusoidal-beam.svg"
   width="1000"
   height="560"
   inkscape:version="0.92.1 r15371"
   inkscape:export-filename="C:\Users\William\Documents\Dev\Games\ccg\ccgclient\src\assets\png\sinusoidal-beam.png"
   inkscape:export-xdpi="240"
   inkscape:export-ydpi="240">
  <metadata
     id="metadata25">
    <rdf:RDF>
      <cc:Work
         rdf:about="">
        <dc:format>image/svg+xml</dc:format>
        <dc:type
           rdf:resource="http://purl.org/dc/dcmitype/StillImage" />
        <dc:title></dc:title>
      </cc:Work>
    </rdf:RDF>
  </metadata>
  <sodipodi:namedview
     pagecolor="#0c0d0c"
     bordercolor="#666666"
     borderopacity="1"
     objecttolerance="10"
     gridtolerance="10"
     guidetolerance="10"
     inkscape:pageopacity="1"
     inkscape:pageshadow="2"
     inkscape:window-width="3840"
     inkscape:window-height="2004"
     id="namedview23"
     showgrid="false"
     inkscape:zoom="1.84375"
     inkscape:cx="584.3084"
     inkscape:cy="332.30349"
     inkscape:window-x="-16"
     inkscape:window-y="-16"
     inkscape:window-maximized="1"
     inkscape:current-layer="svg21" />
  <defs
     id="defs13">
    <filter
       id="shadow-1"
       height="3"
       width="3"
       x="-1"
       y="-1">
      <feFlood
         flood-color="#c9c9c9"
         result="flood"
         id="feFlood2" />
      <feComposite
         in="flood"
         in2="SourceGraphic"
         operator="atop"
         result="composite"
         id="feComposite4" />
      <feGaussianBlur
         in="composite"
         stdDeviation="15"
         result="blur"
         id="feGaussianBlur6" />
      <feOffset
         result="offset"
         id="feOffset8" />
      <feComposite
         in="SourceGraphic"
         in2="offset"
         operator="over"
         id="feComposite10" />
    </filter>
  </defs>
  <g
     class=""
     transform="matrix(1.1668498,0,0,1.1668498,238.77872,-21.459076)"
     id="g19">
    <path
       d="M 18.7,18.7 -6.4001762,19.960825 26.504,60.027 c -3.24,5.71 -5.774,11.464 -7.512,17.12 -0.104,0.34 -0.192,0.684 -0.29,1.025 v 28.437 c 1.392,3.52 3.446,6.762 6.275,9.585 9.892,9.873 24.882,10.316 39.107,5.93 2.954,-0.91 5.934,-2.048 8.922,-3.377 l 38.894,49.115 c -1.928,4.116 -3.545,8.218 -4.81,12.266 -5.35,17.106 -4.78,34.656 6.61,46.07 11.392,11.41 28.924,11.99 45.96,6.67 0.977,-0.306 1.96,-0.637 2.942,-0.98 l 65.402,82.587 c -0.53,1.544 -1.036,3.084 -1.49,4.61 -6.15,20.656 -5.49,41.09 7.65,54.255 11.795,11.818 29.506,13.57 47.713,9.166 l 95.63791,123.34009 17.79736,-8.83155 -4.17527,-6.64154 c 3.324,-9.926 8.54,-20.652 15.472,-31.45 l 39.73173,42.27591 131.09134,-1.56593 L 462.238,390.729 c 5.482,-8.462 10.068,-16.987 13.664,-25.396 L 653.19642,492.57343 655.05569,464.83007 482.319,346.698 c 5.676,-22.206 3.702,-43.492 -10.226,-57.39 -15.163,-15.132 -39.034,-16.085 -63.23,-8.472 -2.783,0.875 -5.59,1.88 -8.41,2.984 L 310.96,215.084 c 0.83,-2.283 1.583,-4.55 2.24,-6.8 5.66,-19.4 4.954,-38.725 -7.53,-51.235 -12.484,-12.51 -31.86,-13.23 -50.99,-7.25 -6.114,1.91 -12.345,4.524 -18.582,7.786 l -59.504,-45.703 c 2.706,-4.89 4.92,-9.77 6.59,-14.557 5.17,-14.83 5.566,-30.396 -4.614,-40.597 -10.178,-10.202 -25.744,-9.823 -40.57,-4.664 -7.716,2.685 -15.67,6.774 -23.54,12.092 L 55.274,18.7 Z m 137.84,48.556 c 4.273,-0.033 7.21,1.077 8.802,2.672 2.83,2.835 4.132,9.955 0.195,21.244 -1.012,2.903 -2.35,5.977 -3.99,9.152 l -31.27,-24.017 c 4.855,-2.87 9.55,-5.088 13.866,-6.59 4.938,-1.72 9.072,-2.436 12.396,-2.46 z m -117.244,8.926 21.615,27.297 c -0.788,0.282 -1.57,0.55 -2.336,0.786 -10.46,3.225 -17.255,1.84 -20.398,-1.297 -3.144,-3.138 -4.525,-9.9 -1.32,-20.333 0.636,-2.07 1.456,-4.233 2.44,-6.455 z m 78.72,14.273 33.383,25.64 c -0.527,0.686 -1.086,1.37 -1.636,2.053 L 118.017,90.455 Z m -17.11,33.426 22.44,24.595 c -0.47,0.658 -0.94,1.317 -1.396,1.978 L 100.91,123.88 Z m 65.34,3.622 52.868,40.605 c -2.168,1.557 -4.323,3.197 -6.463,4.903 l -48.773,-42.547 c 0.803,-0.984 1.602,-1.97 2.368,-2.96 z m -29.936,35.18 38.627,42.334 c -2.238,1.42 -4.468,2.74 -6.67,3.923 l -34.048,-42.995 c 0.667,-1.085 1.368,-2.174 2.09,-3.263 z m 140.77,2.164 c 6.828,0.095 12.03,2.068 15.36,5.406 5.685,5.696 7.436,16.95 2.824,32.777 L 252.78,170.4 c 2.548,-1.07 5.05,-2.006 7.474,-2.763 5.763,-1.8 10.93,-2.685 15.44,-2.785 0.47,-0.01 0.93,-0.013 1.386,-0.006 z m -42.338,15.26 53.252,40.904 c -1.968,3.888 -4.236,7.85 -6.748,11.836 l -54.215,-47.293 c 2.567,-1.938 5.142,-3.765 7.712,-5.446 z m -109.488,4.62 24.86,31.395 c -11.155,2.685 -19.058,1.01 -23.184,-3.122 l -0.002,-0.002 c -4.6,-4.61 -6.178,-13.935 -2.002,-27.29 0.1,-0.322 0.22,-0.653 0.328,-0.98 z m 62.484,34.32 56.766,62.212 c -2.957,4.59 -5.663,9.19 -8.06,13.775 l -56.39,-71.21 c 2.57,-1.47 5.134,-3.067 7.684,-4.778 z m 115.342,13.55 78.408,60.222 c -6.084,3.394 -12.166,7.278 -18.177,11.616 l -67.794,-59.14 c 2.768,-4.223 5.302,-8.465 7.564,-12.698 z m 134.16,62.273 c 9.404,0.114 16.794,2.82 21.653,7.667 6.444,6.43 9.11,17.333 6.96,31.518 l -47.537,-36.512 c 6.178,-1.672 11.877,-2.538 17.016,-2.662 0.645,-0.015 1.28,-0.018 1.908,-0.01 z m -179.63,0.753 50.32,55.15 c -6.605,4.173 -13.157,7.547 -19.403,10.03 l -39.18,-49.477 c 2.283,-5.103 5.053,-10.373 8.262,-15.703 z m 140.245,9.768 62.665,48.13 c -3.06,7.96 -7.285,16.32 -12.563,24.755 L 377.852,317.12 c 6.714,-4.59 13.44,-8.52 20.003,-11.73 z m -155.425,27.303 26.26,33.162 c -9.63,0.86 -16.912,-1.318 -21.3,-5.714 -5.222,-5.232 -7.314,-14.614 -4.96,-27.447 z m 78.302,32.112 72.788,79.77 c -6.504,9.502 -11.876,19.133 -15.967,28.646 l -76.987,-97.216 c 6.712,-3.015 13.476,-6.772 20.166,-11.2 z"
       id="path17"
       inkscape:connector-curvature="0"
       style="fill:#c9c9c9;filter:url(#shadow-1)"
       sodipodi:nodetypes="ccccccccccccccccccccccccccccccccccsccccccccccccccccccccsccccccccccccccccccccccccccccccccccccccccccccccccccccccccccccccccccccccccccccccccccccccc" />
  </g>
  <!-- react-empty: 13 -->
</svg>
