<?xml version="1.0" encoding="UTF-8" standalone="no"?>
<svg
   xmlns:dc="http://purl.org/dc/elements/1.1/"
   xmlns:cc="http://creativecommons.org/ns#"
   xmlns:rdf="http://www.w3.org/1999/02/22-rdf-syntax-ns#"
   xmlns:svg="http://www.w3.org/2000/svg"
   xmlns="http://www.w3.org/2000/svg"
   xmlns:sodipodi="http://sodipodi.sourceforge.net/DTD/sodipodi-0.dtd"
   xmlns:inkscape="http://www.inkscape.org/namespaces/inkscape"
   viewBox="0 0 1000 560"
   version="1.1"
   id="svg8"
   sodipodi:docname="skeleton.svg"
   width="1000"
   height="560"
   inkscape:version="0.92.1 r15371"
   inkscape:export-filename="C:\Users\William\Documents\Dev\Games\ccg\ccgclient\src\assets\png\skeleton.png"
   inkscape:export-xdpi="240"
   inkscape:export-ydpi="240">
  <metadata
     id="metadata14">
    <rdf:RDF>
      <cc:Work
         rdf:about="">
        <dc:format>image/svg+xml</dc:format>
        <dc:type
           rdf:resource="http://purl.org/dc/dcmitype/StillImage" />
        <dc:title></dc:title>
      </cc:Work>
    </rdf:RDF>
  </metadata>
  <defs
     id="defs12" />
  <sodipodi:namedview
     pagecolor="#370661"
     bordercolor="#666666"
     borderopacity="1"
     objecttolerance="10"
     gridtolerance="10"
     guidetolerance="10"
     inkscape:pageopacity="1"
     inkscape:pageshadow="2"
     inkscape:window-width="3840"
     inkscape:window-height="2004"
     id="namedview10"
     showgrid="false"
     inkscape:zoom="1.3037281"
     inkscape:cx="462.23584"
     inkscape:cy="147.3806"
     inkscape:window-x="-16"
     inkscape:window-y="-16"
     inkscape:window-maximized="1"
     inkscape:current-layer="svg8" />
  <g
     class=""
     transform="matrix(1.1292466,0,0,1.1292466,208.13257,6.743448)"
     id="g6">
    <path
       d="m 266.7,175.748 v 8.948 h 33.962 a 10.164609,10.164609 0 0 1 -0.094,20.329 H 266.7 v 8.948 h 2.672 a 10.165281,10.165281 0 0 1 -0.252,20.329 h -2.42 v 8.948 h 1.666 a 10.165281,10.165281 0 1 1 -0.252,20.329 h -1.425 v 4.789 a 10.175,10.175 0 0 1 -10.153,9.954 h -0.147 a 10.164,10.164 0 0 1 -10.018,-10.31 v -4.433 h -1.666 a 10.164636,10.164636 0 0 1 0.105,-20.329 h 1.561 v -8.948 h -1.666 a 10.164636,10.164636 0 0 1 0.105,-20.329 h 1.561 v -8.948 h -33.95 a 10.164,10.164 0 0 1 -6.979,-17.447 9.997,9.997 0 0 1 7.23,-2.871 h 33.71 v -8.949 h -33.95 a 10.164133,10.164133 0 0 1 0.104,-20.328 h 33.856 v -8.95 h -12.008 a 10.164136,10.164136 0 1 1 0.105,-20.328 h 11.893 v -9.724 a 10.164,10.164 0 0 1 9.913,-10.258 3.217,3.217 0 0 1 0.492,0 10.154,10.154 0 0 1 9.913,10.3 v 9.672 h 11.998 a 10.164,10.164 0 0 1 6.978,17.457 10.08,10.08 0 0 1 -7.23,2.871 H 266.7 v 8.939 h 33.96 a 10.196,10.196 0 0 1 3.825,19.584 9.357,9.357 0 0 1 -3.887,0.744 H 266.7 Z M 220.207,114.542 A 10.185,10.185 0 0 0 211.07,108.8 h -0.126 a 10.154,10.154 0 0 0 -4.558,1.11 l -29.225,14.618 a 10.164,10.164 0 0 0 8.76,18.306 l 0.304,-0.146 29.236,-14.67 a 10.185,10.185 0 0 0 4.746,-13.476 z m 118.733,20.203 a 10.185,10.185 0 0 0 -4.328,-13.727 l -0.251,-0.126 -29.235,-14.67 a 10.164,10.164 0 1 0 -9.127,18.16 l 29.235,14.617 a 10.175,10.175 0 0 0 13.706,-4.265 z m -156.487,23.65 a 10.122,10.122 0 0 0 -7.178,-3.08 h -0.262 a 10.175,10.175 0 0 0 -10.017,10.268 v 58.513 a 10.164,10.164 0 0 0 10.028,10.3 h 0.146 a 10.175,10.175 0 0 0 10.154,-9.913 3.751,3.751 0 0 0 0,-0.46 v -58.398 a 10.101,10.101 0 0 0 -2.87,-7.23 z m 154.234,-3.08 a 10.175,10.175 0 0 0 -10.017,10.268 v 58.513 a 10.164,10.164 0 0 0 10.028,10.3 h 0.21 a 9.043,9.043 0 0 0 3.447,-0.566 10.3,10.3 0 0 0 6.643,-9.347 3.751,3.751 0 0 0 0,-0.46 v -58.398 a 10.164,10.164 0 0 0 -10.049,-10.31 z m -36.497,114.77 a 10.196,10.196 0 0 0 -5.386,1.76 l -38.278,25.526 -38.247,-25.494 a 10.08,10.08 0 0 0 -5.742,-1.792 9.829,9.829 0 0 0 -4.872,1.216 10.206,10.206 0 0 0 -5.24,8.927 10.101,10.101 0 0 0 4.6,8.54 l 43.874,29.256 a 10.101,10.101 0 0 0 12.501,-0.775 l 42.69,-28.45 a 10.164,10.164 0 0 0 -5.9,-18.714 z m -80.276,51.429 a 10.122,10.122 0 0 0 -7.178,-3.08 h -0.262 a 10.175,10.175 0 0 0 -10.017,10.268 v 58.512 a 10.164,10.164 0 0 0 10.028,10.3 h 0.146 a 10.175,10.175 0 0 0 10.154,-9.912 3.751,3.751 0 0 0 0,-0.46 v -58.387 a 10.101,10.101 0 0 0 -2.86,-7.241 z m 87.82,0 a 10.112,10.112 0 0 0 -7.177,-3.08 h -0.262 a 10.175,10.175 0 0 0 -10.007,10.268 v 58.512 a 10.164,10.164 0 0 0 10.028,10.3 h 0.23 a 8.886,8.886 0 0 0 3.438,-0.565 10.321,10.321 0 0 0 6.632,-9.357 4.024,4.024 0 0 0 0,-0.44 v -58.397 a 10.09,10.09 0 0 0 -2.87,-7.241 z m -87.82,93.48 a 10.112,10.112 0 0 0 -7.178,-3.082 h -0.262 a 10.175,10.175 0 0 0 -10.017,10.27 v 58.512 a 10.164,10.164 0 0 0 10.028,10.3 h 0.146 a 10.175,10.175 0 0 0 10.154,-9.913 3.783,3.783 0 0 0 0,-0.46 v -58.398 a 10.09,10.09 0 0 0 -2.86,-7.23 z m -37.46,-165.426 a 10.112,10.112 0 0 0 -7.179,-3.08 h -0.262 a 10.175,10.175 0 0 0 -10.017,10.268 v 21.806 a 10.164,10.164 0 0 0 10.028,10.3 h 0.146 a 10.175,10.175 0 0 0 10.154,-9.912 3.751,3.751 0 0 0 0,-0.461 v -21.68 a 10.09,10.09 0 0 0 -2.87,-7.241 z m 161.673,3.668 a 10.112,10.112 0 0 0 -7.178,-3.081 h -0.262 a 10.175,10.175 0 0 0 -10.017,10.269 v 21.774 a 10.164,10.164 0 0 0 10.028,10.3 h 0.21 a 9.043,9.043 0 0 0 3.447,-0.565 10.3,10.3 0 0 0 6.643,-9.347 3.772,3.772 0 0 0 0,-0.461 v -21.66 a 10.09,10.09 0 0 0 -2.871,-7.23 z m -36.382,161.757 a 10.112,10.112 0 0 0 -7.178,-3.08 h -0.261 a 10.175,10.175 0 0 0 -10.007,10.268 v 58.513 a 10.164,10.164 0 0 0 10.028,10.3 h 0.21 a 9.001,9.001 0 0 0 3.447,-0.566 10.31,10.31 0 0 0 6.643,-9.357 4.045,4.045 0 0 0 0,-0.44 v -58.408 a 10.09,10.09 0 0 0 -2.882,-7.23 z M 285.74,59.467 c 0,17.363 -13.13,38.467 -28.292,38.467 -15.162,0 -30.157,-21.02 -30.157,-38.467 C 227.29,34.193 242.265,21 257.448,21 c 15.184,0 28.334,13.109 28.334,38.467 z m -34.086,-3.51 a 9.095,9.095 0 1 0 -9.096,9.095 9.095,9.095 0 0 0 9.137,-9.095 z m 27.883,0 a 9.095,9.095 0 1 0 -9.095,9.095 9.095,9.095 0 0 0 9.137,-9.095 z"
       id="path4"
       inkscape:connector-curvature="0"
       style="fill:#ffffff" />
  </g>
  <!-- react-empty: 6 -->
</svg>
