<?xml version="1.0" encoding="UTF-8" standalone="no"?>
<svg
   xmlns:dc="http://purl.org/dc/elements/1.1/"
   xmlns:cc="http://creativecommons.org/ns#"
   xmlns:rdf="http://www.w3.org/1999/02/22-rdf-syntax-ns#"
   xmlns:svg="http://www.w3.org/2000/svg"
   xmlns="http://www.w3.org/2000/svg"
   xmlns:sodipodi="http://sodipodi.sourceforge.net/DTD/sodipodi-0.dtd"
   xmlns:inkscape="http://www.inkscape.org/namespaces/inkscape"
   viewBox="0 0 1000 560"
   version="1.1"
   id="svg8"
   sodipodi:docname="skull-shield.svg"
   width="1000"
   height="560"
   inkscape:version="0.92.1 r15371"
   inkscape:export-filename="C:\Users\William\Documents\Dev\Games\ccg\ccgclient\src\assets\png\skull-shield.png"
   inkscape:export-xdpi="96"
   inkscape:export-ydpi="96">
  <metadata
     id="metadata14">
    <rdf:RDF>
      <cc:Work
         rdf:about="">
        <dc:format>image/svg+xml</dc:format>
        <dc:type
           rdf:resource="http://purl.org/dc/dcmitype/StillImage" />
        <dc:title />
      </cc:Work>
    </rdf:RDF>
  </metadata>
  <defs
     id="defs12" />
  <sodipodi:namedview
     pagecolor="#370661"
     bordercolor="#666666"
     borderopacity="1"
     objecttolerance="10"
     gridtolerance="10"
     guidetolerance="10"
     inkscape:pageopacity="1"
     inkscape:pageshadow="2"
     inkscape:window-width="3840"
     inkscape:window-height="2104"
     id="namedview10"
     showgrid="false"
     inkscape:zoom="0.4609375"
     inkscape:cx="-384"
     inkscape:cy="256"
     inkscape:window-x="-16"
     inkscape:window-y="-16"
     inkscape:window-maximized="1"
     inkscape:current-layer="svg8" />
  <g
     class=""
     id="g6"
     transform="matrix(1.0723278,0,0,1.1423105,220.24361,-10.906611)"
     style="fill:#ffffff">
    <path
       d="M 255.47,27.094 C 199.81,59.227 101.786,80.984 39.75,67.187 40.916,227.212 95.64,441.319 256.563,484.437 422.287,440.032 472.823,227.332 474.093,67.187 412.821,80.647 304.711,55.523 255.469,27.094 Z m 2.56,44.968 c 31.866,-0.34 63.817,5.085 95.595,17.344 l 35.28,146.125 h -63.75 c 9.446,29.716 6.468,70.128 -9.905,99.845 l -17.344,-49.906 -19.812,54.217 -19.813,-50 -19.78,49.375 -19.22,-53.593 -17.31,49.28 c -14.528,-26.456 -23.842,-65.022 -9.907,-99.22 H 127.657 L 162.97,89.407 c 31.433,-10.896 63.196,-17.003 95.06,-17.344 z m -172.78,42.188 11.5,2.656 c 11.29,2.595 24.925,2.822 39.594,1.344 l -3.75,19.563 c -9.76,0.572 -19.265,0.393 -28.28,-0.72 1.55,59.134 12.177,124.982 35.81,180.188 8.367,19.543 18.273,37.668 29.907,53.75 l -3.28,25.908 c -17.92,-20.952 -32.374,-45.668 -43.78,-72.313 -26.502,-61.9 -37.207,-134.657 -37.657,-198.53 l -0.063,-11.845 z m 349.125,0.03 -0.094,11.814 c -0.488,63.837 -10.383,136.353 -36.56,198.156 -11.802,27.86 -27.07,53.627 -46.345,75.22 l -3.688,-24.69 c 13.025,-17.086 23.87,-36.625 32.844,-57.81 23.33,-55.074 33.288,-120.73 34.783,-179.97 -9.305,1.02 -19.255,0.99 -29.532,0.156 l -4.124,-19.312 c 15.67,1.7 30.068,1.594 41.22,-0.938 l 11.5,-2.625 z m -261.78,41.407 -11.126,51.282 74.686,-6.657 C 223.37,174.237 200.471,161.638 172.593,155.687 Z m 171.655,0 c -26.53,7.927 -49.585,20.382 -63.563,44.625 l 74.688,6.657 z m -85.844,58.813 -7.437,9.844 -23.095,30.47 14.906,11.28 15.626,-20.625 15.625,20.624 14.908,-11.28 -23.063,-30.47 -7.47,-9.844 z m -56.936,137.78 14.5,56.814 22.968,-47.563 19.343,59.345 19.345,-59.938 21.72,48.157 15.78,-56.188 c 15.586,18.392 20.75,39.556 18.28,65.75 -48.64,37.818 -96.95,42.896 -148.905,0 0.234,-24.123 -0.63,-44.257 16.97,-66.375 z"
       id="path4"
       inkscape:connector-curvature="0"
       style="fill:#ffffff" />
  </g>
</svg>
