<?xml version="1.0" encoding="UTF-8" standalone="no"?>
<svg
   xmlns:dc="http://purl.org/dc/elements/1.1/"
   xmlns:cc="http://creativecommons.org/ns#"
   xmlns:rdf="http://www.w3.org/1999/02/22-rdf-syntax-ns#"
   xmlns:svg="http://www.w3.org/2000/svg"
   xmlns="http://www.w3.org/2000/svg"
   xmlns:sodipodi="http://sodipodi.sourceforge.net/DTD/sodipodi-0.dtd"
   xmlns:inkscape="http://www.inkscape.org/namespaces/inkscape"
   viewBox="0 0 1000 560"
   version="1.1"
   id="svg8"
   sodipodi:docname="spectre.svg"
   width="1000"
   height="560"
   inkscape:version="0.92.1 r15371"
   inkscape:export-filename="C:\Users\William\Documents\Dev\Games\ccg\ccgclient\src\assets\png\spectre.png"
   inkscape:export-xdpi="240"
   inkscape:export-ydpi="240">
  <metadata
     id="metadata14">
    <rdf:RDF>
      <cc:Work
         rdf:about="">
        <dc:format>image/svg+xml</dc:format>
        <dc:type
           rdf:resource="http://purl.org/dc/dcmitype/StillImage" />
        <dc:title></dc:title>
      </cc:Work>
    </rdf:RDF>
  </metadata>
  <defs
     id="defs12" />
  <sodipodi:namedview
     pagecolor="#370661"
     bordercolor="#666666"
     borderopacity="1"
     objecttolerance="10"
     gridtolerance="10"
     guidetolerance="10"
     inkscape:pageopacity="1"
     inkscape:pageshadow="2"
     inkscape:window-width="3840"
     inkscape:window-height="2104"
     id="namedview10"
     showgrid="false"
     inkscape:zoom="0.4609375"
     inkscape:cx="256"
     inkscape:cy="256"
     inkscape:window-x="-16"
     inkscape:window-y="-16"
     inkscape:window-maximized="1"
     inkscape:current-layer="svg8" />
  <g
     class=""
     id="g6"
     transform="matrix(1.0783493,0,0,1.0783493,227.72175,8.9344808)">
    <path
       d="m 282.83,18.877 c 21.567,6.146 36.328,15.205 40.572,28.77 -1.367,0.74 -2.725,1.518 -4.066,2.363 -25.655,5.807 -53.084,18.634 -81.047,34.363 20.225,-4.69 36.705,-4.42 47.544,3.324 -5.712,10.3 -10.797,22.294 -15.123,36.06 C 249.367,191.679 145.032,43.18 81.645,118.502 41.47,166.24 92.702,212.342 26.5,294.29 c 35.583,-4.14 45.11,-9.47 62.416,-36.21 10.44,-16.13 28.52,-22.1 44.668,-21.45 -12.718,11.206 -25.786,30.354 -38.21,59.895 19.832,-18.528 44.927,-38.68 71.603,-40.005 0.912,6.354 -2.408,13.74 -12.008,21.418 C 93.21,327.327 15.58,364.185 19.83,476.504 c 5.558,-11.267 11.646,-20.31 17.574,-28.617 5.98,29.582 28.2,53.8 92.99,40.482 -46.928,-6.407 -76.268,-59.586 -45.355,-82.528 62.716,-46.544 128.82,1.436 269.9,-75.342 2.475,-1.346 4.86,-2.49 7.164,-3.46 -2.246,19.6 -12.367,39.84 -22.362,57.14 14.26,-10.38 25.415,-20.147 33.928,-29.262 2.14,26.14 -11.748,54.65 -25.393,78.268 43.26,-31.49 61.19,-57.976 63.207,-78.422 9.334,36.678 -1.895,95.547 -25.03,123.492 77.553,-39.433 106.608,-77.127 109.76,-190.664 1.662,-59.824 -66.23,-60.536 -56.435,-101.344 11.945,-49.756 6.768,-84.69 -7.565,-107.947 -19.6,-49.73 -79.99,-59.74 -149.385,-59.423 z M 89.8,47.684 C 54.69,47.534 45.233,83.056 55.724,117 72.87,65.496 126.138,72.76 166.894,82.633 133.612,57.628 108.187,47.763 89.798,47.683 Z m 254.595,30.742 c 18.643,21.37 29.373,43.02 10.105,65.732 -26.562,-16.677 -26.985,-39.252 -10.105,-65.732 z m 74.494,48.6 c 3.655,-0.013 7.78,0.35 12.473,1.09 -1.706,30.506 -14.4,33 -46.634,32.154 8.335,-22.146 14.416,-33.176 34.16,-33.245 z m -84.677,40.316 c 9.652,0.1 20.258,2.84 30.598,8.918 44.65,26.246 21.934,73.314 -4.1,74.78 -15.174,0.855 1.443,-23.842 -16.17,-38.476 -15.258,-12.678 -38.596,12.53 -45.204,-5.78 -8.218,-22.693 10.21,-39.696 34.877,-39.442 z m 60.18,246.168 c -24.195,27.825 -58.89,60.1 -99.444,31.41 16.625,45.643 68.87,70.465 99.443,-31.41 z"
       id="path4"
       inkscape:connector-curvature="0"
       style="fill:#ffffff" />
  </g>
  <!-- react-empty: 6 -->
</svg>
