<?xml version="1.0" encoding="UTF-8" standalone="no"?>
<svg
   xmlns:dc="http://purl.org/dc/elements/1.1/"
   xmlns:cc="http://creativecommons.org/ns#"
   xmlns:rdf="http://www.w3.org/1999/02/22-rdf-syntax-ns#"
   xmlns:svg="http://www.w3.org/2000/svg"
   xmlns="http://www.w3.org/2000/svg"
   xmlns:sodipodi="http://sodipodi.sourceforge.net/DTD/sodipodi-0.dtd"
   xmlns:inkscape="http://www.inkscape.org/namespaces/inkscape"
   viewBox="0 0 1000 560"
   version="1.1"
   id="svg8"
   sodipodi:docname="spider-face.svg"
   width="1000"
   height="560"
   inkscape:version="0.92.1 r15371"
   inkscape:export-filename="C:\Users\William\Documents\Dev\Games\ccg\ccgclient\src\assets\png\spider-face.png"
   inkscape:export-xdpi="240"
   inkscape:export-ydpi="240">
  <metadata
     id="metadata14">
    <rdf:RDF>
      <cc:Work
         rdf:about="">
        <dc:format>image/svg+xml</dc:format>
        <dc:type
           rdf:resource="http://purl.org/dc/dcmitype/StillImage" />
        <dc:title />
      </cc:Work>
    </rdf:RDF>
  </metadata>
  <defs
     id="defs12" />
  <sodipodi:namedview
     pagecolor="#ffffff"
     bordercolor="#666666"
     borderopacity="1"
     objecttolerance="10"
     gridtolerance="10"
     guidetolerance="10"
     inkscape:pageopacity="0"
     inkscape:pageshadow="2"
     inkscape:window-width="3840"
     inkscape:window-height="2004"
     id="namedview10"
     showgrid="true"
     inkscape:zoom="3.6875001"
     inkscape:cx="338.51051"
     inkscape:cy="418.71656"
     inkscape:window-x="-16"
     inkscape:window-y="-16"
     inkscape:window-maximized="1"
     inkscape:current-layer="svg8">
    <inkscape:grid
       type="xygrid"
       id="grid4491" />
  </sodipodi:namedview>
  <path
     d="M 0,-5 H 1000 V 560 H 0 Z"
     id="path2"
     inkscape:connector-curvature="0"
     style="fill:#417505;stroke:#ffffff;stroke-width:5.96559334" />
  <g
     class=""
     id="g6"
     transform="matrix(1.1045415,0,0,1.1045415,214.98344,-21.515413)">
    <path
       d="M -9.0601375,17.868749 C -14.779354,91.64952 9.3900832,174.50997 16,253.844 c 1.700452,20.40928 19.324,40.365 48.156,57.47 11.504,-6.066 23.26,-9.564 34.813,-9.564 29.023,0 53.453,20.3 62.093,48.188 1.888,0.495 3.752,0.863 5.625,1.343 13.824,-9.92 26.255,-12.217 34.687,-12.217 17.552,0 33.037,9.688 42.125,24.312 4.288,0.208 8.717,0.53 12.78,0.53 4.177,0 8.507,-0.18 12.94,-0.436 9.087,-14.69 24.586,-24.408 42.186,-24.408 8.08,0 19.85,2.198 32.97,11.094 2.655,-0.736 5.296,-1.576 7.968,-2.344 9.216,-26.784 33.18,-46.03 61.47,-46.03 10.27,0 20.71,2.715 30.998,7.53 C 475.325,291.6 491.52406,271.35609 496,253.97 515.8893,176.7131 540.29454,94.767607 538.67845,17.868749 Z M 83.53,143.468 c 20.72,0 37.5,16.796 37.5,37.532 0,20.72 -16.78,37.5 -37.5,37.5 C 62.81,218.5 46,201.72 46,181 46,160.28 62.81,143.47 83.53,143.47 Z m 345.126,0 c 20.72,0 37.53,16.796 37.53,37.532 0.002,20.72 -16.81,37.5 -37.53,37.5 -20.72,0 -37.53,-16.78 -37.53,-37.5 0,-20.72 16.81,-37.53 37.53,-37.53 z M 76.97,155.282 c -9.112,0 -16.5,7.39 -16.5,16.5 0,9.112 7.388,16.5 16.5,16.5 9.11,0 16.5,-7.388 16.5,-16.5 0,-9.11 -7.39,-16.5 -16.5,-16.5 z m 345.124,0 c -9.11,0 -16.5,7.39 -16.5,16.5 0,9.112 7.39,16.5 16.5,16.5 9.11,0 16.5,-7.388 16.5,-16.5 0,-9.11 -7.39,-16.5 -16.5,-16.5 z m -241.03,11.97 c 33.135,0 60,26.848 60,60 0.014,33.136 -26.85,60.03 -60,60.03 -33.137,0 -60.033,-26.894 -60.033,-60.03 0,-33.136 26.897,-60 60.032,-60 z m 150.06,0 c 33.137,0 60,26.848 60,60 0.017,33.136 -26.847,60.03 -60,60.03 -33.135,0 -60.03,-26.894 -60.03,-60.03 0,-33.136 26.895,-60 60.03,-60 z M 170.563,182.5 c -16.577,0 -30.03,13.423 -30.03,30 0,16.577 13.453,30.03 30.03,30.03 16.578,0 30,-13.453 30,-30.03 0,-16.577 -13.422,-30 -30,-30 z m 150.032,0 c -16.578,0 -30,13.423 -30,30 0,16.577 13.422,30.03 30,30.03 16.577,0 30.03,-13.453 30.03,-30.03 0,-16.577 -13.453,-30 -30.03,-30 z M 100.03,193.563 c -3.63,0 -6.593,2.96 -6.593,6.593 0,3.632 2.962,6.563 6.594,6.563 3.633,0 6.564,-2.932 6.564,-6.564 0,-3.632 -2.93,-6.594 -6.563,-6.594 z m 345.126,0 c -3.632,0 -6.594,2.96 -6.594,6.593 0,3.632 2.962,6.563 6.594,6.563 3.632,0 6.563,-2.932 6.563,-6.564 0,-3.632 -2.932,-6.594 -6.564,-6.594 z M 207.47,242.875 c -8.29,0 -15,6.71 -15,15 0,8.29 6.71,15.03 15,15.03 8.287,0 15,-6.74 15,-15.03 0,-8.29 -6.713,-15 -15,-15 z m 150.06,0 c -8.287,0 -15.03,6.71 -15.03,15 0,8.29 6.743,15.03 15.03,15.03 8.29,0 15,-6.74 15,-15.03 0,-8.29 -6.71,-15 -15,-15 z m 56.314,81.375 c -25.584,0 -43.156,23.245 -43.156,47.47 31.408,25.71 51.75,67.292 51.75,114.092 0,3.008 -0.06,6.008 -0.157,9 29.105,-24.928 46.94,-58.54 46.94,-95.5 0,-20.624 -5.565,-40.165 -15.533,-57.78 C 439.32,329.275 425.733,324.25 413.845,324.25 Z M 99,324.28 c -11.872,0 -25.49,4.995 -39.875,17.25 -9.968,17.617 -15.5,37.19 -15.5,57.814 0,36.944 17.818,70.556 46.906,95.5 -0.11,-2.976 -0.155,-5.992 -0.155,-9 0,-46.8 20.373,-88.398 51.78,-114.094 0.017,-24.24 -17.57,-47.47 -43.155,-47.47 z m 102.406,35.845 c -8.144,0 -17.488,3.5 -27.344,12.125 -6.832,12.4 -10.656,26.175 -10.656,40.688 0,26.016 12.25,49.666 32.22,67.218 -0.08,-2.096 -0.126,-4.2 -0.126,-6.312 0,-32.944 13.98,-62.217 35.53,-80.313 0,-17.023 -12.072,-33.405 -29.624,-33.405 z m 110.03,0 c -17.55,0 -29.623,16.382 -29.623,33.438 21.552,18.096 35.5,47.352 35.5,80.312 0,2.112 -0.014,4.216 -0.094,6.313 19.967,-17.568 32.217,-41.203 32.217,-67.22 0,-14.51 -3.808,-28.287 -10.656,-40.687 -9.855,-8.623 -19.182,-12.17 -27.342,-12.155 z"
       id="path4"
       inkscape:connector-curvature="0"
       style="fill:#000000"
       sodipodi:nodetypes="cscsccscscsccscscccsssccccssccssssssssssscssssscssssssssssssscssscccsssccssssssssssscscscssscscscssccscacccccscsccc" />
  </g>
  <!-- react-empty: 6 -->
</svg>
