<?xml version="1.0" encoding="UTF-8" standalone="no"?>
<svg
   xmlns:dc="http://purl.org/dc/elements/1.1/"
   xmlns:cc="http://creativecommons.org/ns#"
   xmlns:rdf="http://www.w3.org/1999/02/22-rdf-syntax-ns#"
   xmlns:svg="http://www.w3.org/2000/svg"
   xmlns="http://www.w3.org/2000/svg"
   xmlns:sodipodi="http://sodipodi.sourceforge.net/DTD/sodipodi-0.dtd"
   xmlns:inkscape="http://www.inkscape.org/namespaces/inkscape"
   viewBox="0 0 1000 560"
   version="1.1"
   id="svg6"
   sodipodi:docname="spiked-dragon-head.svg"
   inkscape:version="0.92.1 r15371"
   inkscape:export-filename="C:\Users\William\Documents\Dev\Games\ccg\ccgclient\src\assets\png\spiked-dragon-head.png"
   inkscape:export-xdpi="200"
   inkscape:export-ydpi="200">
  <metadata
     id="metadata12">
    <rdf:RDF>
      <cc:Work
         rdf:about="">
        <dc:format>image/svg+xml</dc:format>
        <dc:type
           rdf:resource="http://purl.org/dc/dcmitype/StillImage" />
      </cc:Work>
    </rdf:RDF>
  </metadata>
  <defs
     id="defs10" />
  <sodipodi:namedview
     pagecolor="#ffffff"
     bordercolor="#666666"
     borderopacity="1"
     objecttolerance="10"
     gridtolerance="10"
     guidetolerance="10"
     inkscape:pageopacity="0"
     inkscape:pageshadow="2"
     inkscape:window-width="3840"
     inkscape:window-height="2104"
     id="namedview8"
     showgrid="false"
     inkscape:zoom="1.19198"
     inkscape:cx="458.25204"
     inkscape:cy="67.02491"
     inkscape:window-x="-16"
     inkscape:window-y="-16"
     inkscape:window-maximized="1"
     inkscape:current-layer="svg6" />
  <rect
     width="1000"
     height="560"
     fill="white"
     class="card-image-background"
     id="rect2"
     style="fill:#417505;fill-opacity:1" />
  <path
     d="m 442.7299,22.10372 c -6.04544,30.626406 5.24698,63.579735 38.8961,98.68889 12.77526,-8.31533 36.04449,-12.47869 57.03242,-9.30769 C 486.1886,86.037056 462.80531,57.726166 442.7299,22.10372 Z m -182.05887,7.117646 c 16.39111,52.994518 59.19964,116.551444 114.53249,161.607044 -41.166,-2.62349 -90.87545,-17.33785 -126.42946,-28.8584 28.47059,40.15082 73.1954,60.3403 117.8746,75.62498 -28.48199,20.18948 -62.86113,40.72115 -117.98866,44.14309 62.32502,21.90045 122.66532,10.15177 149.81274,0.79845 -20.4176,39.80863 -114.88609,75.51092 -139.51269,87.82992 60.75093,4.79072 138.82831,-12.54713 190.49967,-37.52733 11.40648,28.05995 -1.82504,60.68249 -11.52055,88.74244 -2.16723,5.13292 -4.33446,10.15177 -6.50169,15.17062 5.81731,-3.99227 11.52055,-7.98454 16.99566,-12.09087 26.9193,-18.4785 54.52299,-36.38668 67.86857,-67.07012 29.77092,35.58823 71.51865,70.83426 122.04937,97.41136 19.84728,25.20833 32.28034,55.89177 39.01017,84.17985 9.46738,-21.78639 15.74094,-45.85406 11.06429,-68.7811 27.94588,-4.10633 40.60707,-33.87725 40.49301,-62.05126 -14.37217,7.07202 -17.22379,7.18608 -35.58823,9.35331 0,-11.52054 0.68439,-14.2581 -3.42194,-32.7366 -11.74868,9.58144 -23.95362,12.77526 -35.13197,13.45965 2.39536,-8.66893 3.42195,-22.24264 4.2204,-31.1397 -14.82843,8.0986 -21.90045,11.06429 -34.33351,12.319 -0.45626,-12.43306 -0.11407,-22.81296 -4.67666,-34.67571 -33.76319,21.67232 -55.43551,1.71098 -77.56408,-24.2958 22.58483,-19.39102 109.95849,-24.86614 108.47565,8.0986 15.96907,-8.32673 21.44418,-12.77526 26.9193,-18.13631 10.3799,9.69551 15.28468,23.83955 17.22379,35.81636 10.60802,-10.7221 11.74867,-11.97681 19.50508,-27.14743 6.5017,11.52055 10.03771,19.39102 12.20494,34.90384 9.69551,-7.07202 17.56598,-14.9425 22.58483,-24.40988 8.55487,17.68005 9.46738,18.25038 14.14404,37.6414 20.30354,-14.9425 24.86613,-35.58823 26.00678,-54.29486 2.2813,-37.6414 -0.34219,-123.41815 -35.36009,-162.99864 1.9391,41.40553 -14.9425,79.84538 -38.55392,92.05032 -14.37216,5.58917 -110.07255,-85.09237 -156.9532,-106.42249 -26.80523,-11.63461 -54.86518,8.0986 -77.33595,10.60803 C 395.0508,119.99416 322.69948,79.774897 260.67103,29.221366 Z M 565.12146,173.14836 c 15.17062,23.83955 36.72887,42.08993 68.55296,62.73566 -22.12858,3.30788 -75.05466,-7.64234 -88.62837,-27.37556 -6.27357,-9.01112 8.0986,-24.29581 20.07541,-35.3601 z M 433.37658,362.83817 c -16.42533,7.07202 -33.30693,12.43307 -49.96039,16.31127 -2.73756,4.10634 -5.24698,8.09861 -7.64235,11.97681 16.8816,6.04544 35.93042,7.98454 50.30259,3.19382 3.76414,-11.17836 6.27357,-22.01452 7.30015,-31.4819 z m -77.56408,21.78638 -11.63461,1.71098 C 307.89386,428.08325 273.57176,504.05043 289.15301,559.6 h 41.21163 C 317.68063,516.59756 311.50972,460.24954 355.8125,384.62455 Z m 9.69551,24.52394 c -6.72983,13.00339 -11.86274,25.20833 -15.74095,36.61481 14.71437,7.64235 33.19287,10.15177 51.10105,9.35332 5.24698,-11.97681 11.17835,-24.86613 16.65346,-37.98359 -17.56598,2.05317 -35.81636,-1.59691 -52.01356,-7.98454 z m 127.06822,7.52828 c -13.68778,11.97681 -28.74434,23.15516 -44.37122,33.76319 7.98454,38.78204 38.09765,72.3171 84.29391,109.16004 h 95.016 C 562.26984,523.32738 519.60959,475.99048 492.57623,416.67677 Z m -148.28428,49.27601 c -2.85162,13.45965 -3.76414,25.89271 -3.42194,37.52732 42.54618,16.19721 71.29051,15.39876 111.2132,4.67666 -8.21266,-11.74867 -14.82842,-23.95361 -19.27695,-36.84294 -37.2992,10.7221 -63.19192,6.5017 -88.51431,-5.36104 z m 121.59311,59.76997 c -43.4587,12.43306 -78.4766,15.05655 -122.61969,0.34219 2.05316,11.86274 5.13292,22.92703 8.55486,33.53506 H 500.21857 C 487.32924,548.42165 475.8087,537.24329 465.88506,525.72275 Z"
     class="card-image-forground"
     id="path4"
     inkscape:connector-curvature="0"
     style="fill:#000000;stroke-width:1.14064825" />
</svg>
