<?xml version="1.0" encoding="UTF-8" standalone="no"?>
<svg
   xmlns:dc="http://purl.org/dc/elements/1.1/"
   xmlns:cc="http://creativecommons.org/ns#"
   xmlns:rdf="http://www.w3.org/1999/02/22-rdf-syntax-ns#"
   xmlns:svg="http://www.w3.org/2000/svg"
   xmlns="http://www.w3.org/2000/svg"
   xmlns:sodipodi="http://sodipodi.sourceforge.net/DTD/sodipodi-0.dtd"
   xmlns:inkscape="http://www.inkscape.org/namespaces/inkscape"
   viewBox="0 0 1000 560"
   version="1.1"
   id="svg8"
   sodipodi:docname="spy.svg"
   width="1000"
   height="560"
   inkscape:version="0.92.1 r15371"
   inkscape:export-filename="C:\Users\William\Documents\Dev\Games\ccg\ccgclient\src\assets\png\spy.png"
   inkscape:export-xdpi="240"
   inkscape:export-ydpi="240">
  <metadata
     id="metadata14">
    <rdf:RDF>
      <cc:Work
         rdf:about="">
        <dc:format>image/svg+xml</dc:format>
        <dc:type
           rdf:resource="http://purl.org/dc/dcmitype/StillImage" />
        <dc:title></dc:title>
      </cc:Work>
    </rdf:RDF>
  </metadata>
  <defs
     id="defs12" />
  <sodipodi:namedview
     pagecolor="#c9c9c9"
     bordercolor="#666666"
     borderopacity="1"
     objecttolerance="10"
     gridtolerance="10"
     guidetolerance="10"
     inkscape:pageopacity="1"
     inkscape:pageshadow="2"
     inkscape:window-width="3840"
     inkscape:window-height="2004"
     id="namedview10"
     showgrid="false"
     inkscape:zoom="1.3037281"
     inkscape:cx="541.98223"
     inkscape:cy="216.00697"
     inkscape:window-x="-16"
     inkscape:window-y="-16"
     inkscape:window-maximized="1"
     inkscape:current-layer="svg8" />
  <g
     class=""
     transform="matrix(1.1052471,0,0,1.1052471,205.29762,-4.6616381)"
     id="g6">
    <path
       d="m 218,19 c -1,0 -2.76,0.52 -5.502,3.107 -2.742,2.589 -6.006,7.021 -9.191,12.76 -6.37,11.478 -12.527,28.033 -17.666,45.653 -4.33,14.844 -7.91,30.457 -10.616,44.601 54.351,24.019 107.599,24.019 161.95,0 C 334.269,110.977 330.689,95.364 326.359,80.52 321.22,62.9 315.064,46.345 308.693,34.867 305.508,29.128 302.243,24.696 299.502,22.107 296.76,19.52 295,19 294,19 c -6.5,0 -9.092,1.375 -10.822,2.85 -1.73,1.474 -3.02,3.81 -4.358,7.34 -1.338,3.53 -2.397,8.024 -5.55,12.783 C 270.116,46.73 263.367,51 256,51 c -7.433,0 -14.24,-4.195 -17.455,-8.988 -3.214,-4.794 -4.26,-9.335 -5.576,-12.881 -1.316,-3.546 -2.575,-5.867 -4.254,-7.315 C 227.035,20.37 224.5,19 218,19 Z m -46.111,124.334 c -1.41,9.278 -2.296,17.16 -2.57,22.602 6.61,5.087 17.736,10.007 31.742,13.302 C 217.18,183.031 236.6,185 256,185 c 19.4,0 38.82,-1.969 54.94,-5.762 14.005,-3.295 25.13,-8.215 31.742,-13.302 -0.275,-5.443 -1.161,-13.324 -2.57,-22.602 -55.757,23.332 -112.467,23.332 -168.223,0 z M 151.945,155.1 c -19.206,3.36 -36.706,7.385 -51.918,11.63 -19.879,5.548 -35.905,11.489 -46.545,16.57 -5.32,2.542 -9.312,4.915 -11.494,6.57 -0.37,0.28 -0.247,0.306 -0.445,0.546 0.333,0.677 0.82,1.456 1.73,2.479 1.973,2.216 5.564,4.992 10.627,7.744 10.127,5.504 25.944,10.958 45.725,15.506 C 139.187,225.24 194.703,231 256,231 c 61.297,0 116.813,-5.76 156.375,-14.855 19.78,-4.548 35.598,-10.002 45.725,-15.506 5.063,-2.752 8.653,-5.528 10.627,-7.744 0.91,-1.023 1.397,-1.802 1.73,-2.479 -0.198,-0.24 -0.075,-0.266 -0.445,-0.547 -2.182,-1.654 -6.174,-4.027 -11.494,-6.568 -10.64,-5.082 -26.666,-11.023 -46.545,-16.57 -15.212,-4.246 -32.712,-8.272 -51.918,-11.631 0.608,5.787 0.945,10.866 0.945,14.9 v 3.729 l -2.637,2.634 c -10.121,10.122 -25.422,16.191 -43.302,20.399 C 297.18,200.969 276.6,203 256,203 c -20.6,0 -41.18,-2.031 -59.06,-6.238 -17.881,-4.208 -33.182,-10.277 -43.303,-20.399 L 151,173.73 V 170 c 0,-4.034 0.337,-9.113 0.945,-14.9 z m 1.094,88.205 C 154.558,308.17 200.64,359 256,359 c 55.36,0 101.442,-50.83 102.96,-115.695 a 748.452,748.452 0 0 1 -19.284,2.013 c -1.33,5.252 -6.884,25.248 -15.676,30.682 -13.61,8.412 -34.006,7.756 -48,0 -7.986,-4.426 -14.865,-19.196 -18.064,-27.012 -0.648,0.002 -1.287,0.012 -1.936,0.012 -0.65,0 -1.288,-0.01 -1.936,-0.012 -3.2,7.816 -10.078,22.586 -18.064,27.012 -13.994,7.756 -34.39,8.412 -48,0 -8.792,-5.434 -14.346,-25.43 -15.676,-30.682 a 748.452,748.452 0 0 1 -19.285,-2.013 z M 137.4,267.209 c -47.432,13.23 -77.243,32.253 -113.546,61.082 42.575,4.442 67.486,21.318 101.265,48.719 l 16.928,13.732 -21.686,2.211 c -13.663,1.393 -28.446,8.622 -39.3,17.3 -5.925,4.738 -10.178,10.06 -12.957,14.356 44.68,5.864 73.463,10.086 98.011,20.147 18.603,7.624 34.81,18.89 53.737,35.781 l 5.304,-23.576 c -1.838,-9.734 -4.134,-19.884 -6.879,-30.3 -5.12,-7.23 -9.698,-14.866 -13.136,-22.007 C 201.612,397.326 199,391 199,384 c 0,-3.283 0.936,-6.396 2.428,-9.133 a 480.414,480.414 0 0 0 -6.942,-16.863 C 165.403,338.506 144.269,305.645 137.4,267.209 Z m 237.2,0 c -6.87,38.436 -28.003,71.297 -57.086,90.795 a 480.521,480.521 0 0 0 -6.942,16.861 c 1.493,2.737 2.428,5.851 2.428,9.135 0,7 -2.612,13.326 -6.14,20.654 -3.44,7.142 -8.019,14.78 -13.14,22.01 -2.778,10.547 -5.099,20.82 -6.949,30.666 l 5.14,23.42 c 19.03,-17.01 35.293,-28.338 53.974,-35.994 24.548,-10.06 53.33,-14.283 98.011,-20.147 -2.78,-4.297 -7.032,-9.618 -12.957,-14.355 -10.854,-8.679 -25.637,-15.908 -39.3,-17.3 l -21.686,-2.212 16.928,-13.732 c 33.779,-27.4 58.69,-44.277 101.265,-48.719 C 451.843,299.462 422.032,280.44 374.6,267.209 Z M 256,377 c -8,0 -19.592,0.098 -28.234,1.826 -4.321,0.864 -7.8,2.222 -9.393,3.324 C 216.781,383.253 217,383 217,384 c 0,1 1.388,6.674 4.36,12.846 2.971,6.172 7.247,13.32 11.964,19.924 4.717,6.604 9.925,12.699 14.465,16.806 4.075,3.687 7.842,5.121 8.211,5.377 0.37,-0.256 4.136,-1.69 8.21,-5.377 4.54,-4.107 9.749,-10.202 14.466,-16.806 4.717,-6.605 8.993,-13.752 11.965,-19.924 C 293.612,390.674 295,385 295,384 c 0,-1 0.22,-0.747 -1.373,-1.85 -1.593,-1.102 -5.072,-2.46 -9.393,-3.324 C 275.592,377.098 264,377 256,377 Z m 0,61.953 c -0.042,0.03 -0.051,0.047 0,0.047 0.051,0 0.042,-0.018 0,-0.047 z M 244.352,453.654 235.047,495 h 41.56 l -9.058,-41.285 C 264.162,455.71 260.449,457 256,457 c -4.492,0 -8.235,-1.316 -11.648,-3.346 z"
       id="path4"
       inkscape:connector-curvature="0"
       style="fill:#000000" />
  </g>
  <!-- react-empty: 13 -->
</svg>
