<?xml version="1.0" encoding="UTF-8" standalone="no"?>
<svg
   xmlns:dc="http://purl.org/dc/elements/1.1/"
   xmlns:cc="http://creativecommons.org/ns#"
   xmlns:rdf="http://www.w3.org/1999/02/22-rdf-syntax-ns#"
   xmlns:svg="http://www.w3.org/2000/svg"
   xmlns="http://www.w3.org/2000/svg"
   xmlns:sodipodi="http://sodipodi.sourceforge.net/DTD/sodipodi-0.dtd"
   xmlns:inkscape="http://www.inkscape.org/namespaces/inkscape"
   viewBox="0 0 1000 560"
   version="1.1"
   id="svg8"
   sodipodi:docname="stone-bust.svg"
   width="1000"
   height="560"
   inkscape:version="0.92.1 r15371"
   inkscape:export-filename="C:\Users\William\Documents\Dev\Games\ccg\ccgclient\src\assets\png\stone-bust.png"
   inkscape:export-xdpi="240"
   inkscape:export-ydpi="240">
  <metadata
     id="metadata14">
    <rdf:RDF>
      <cc:Work
         rdf:about="">
        <dc:format>image/svg+xml</dc:format>
        <dc:type
           rdf:resource="http://purl.org/dc/dcmitype/StillImage" />
        <dc:title></dc:title>
      </cc:Work>
    </rdf:RDF>
  </metadata>
  <defs
     id="defs12" />
  <sodipodi:namedview
     pagecolor="#ffffff"
     bordercolor="#666666"
     borderopacity="1"
     objecttolerance="10"
     gridtolerance="10"
     guidetolerance="10"
     inkscape:pageopacity="0"
     inkscape:pageshadow="2"
     inkscape:window-width="3840"
     inkscape:window-height="2004"
     id="namedview10"
     showgrid="false"
     inkscape:zoom="0.4609375"
     inkscape:cx="256"
     inkscape:cy="256"
     inkscape:window-x="-16"
     inkscape:window-y="-16"
     inkscape:window-maximized="1"
     inkscape:current-layer="svg8" />
  <path
     d="M 4,52 H 508 V 556 H 4 Z"
     id="path2"
     inkscape:connector-curvature="0"
     style="fill:#ffffff;stroke:#ffffff;stroke-width:4" />
  <g
     class=""
     id="g6"
     transform="matrix(1.1303557,0,0,1.1303557,194.62894,13.741107)">
    <path
       d="m 256,25 c 14.33,0 27.676,7.905 37.977,22.068 10.3,14.164 17.023,34.4 17.023,56.932 0,22.532 -6.723,42.768 -17.023,56.932 C 283.676,175.095 270.329,183 256,183 241.67,183 228.324,175.095 218.023,160.932 207.723,146.768 201,126.532 201,104 201,81.468 207.722,61.232 218.023,47.068 228.324,32.905 241.671,25 256,25 Z m 40,78 h -80 v 18 h 31 v 23 h 18 v -23 h 31 z m 4.777,77.732 c 22.269,3.505 48.815,9.312 84.93,17.334 -18.385,31.94 -30.507,71.784 -36.947,105.024 -30.784,3.249 -71.261,9.48 -92.76,-11.819 -23.106,21.245 -68.115,17.842 -92.838,11.424 -6.459,-33.161 -18.556,-72.814 -36.869,-104.629 36.115,-8.022 62.661,-13.829 84.93,-17.334 C 223.35,193.18 238.89,201 256,201 c 17.11,0 32.65,-7.82 44.777,-20.268 z M 265,224 h -18 v 48 h 18 z m -8.992,91.117 c 25.254,11.781 65.5,11.202 89.556,7.113 -1.059,7.611 -1.768,14.623 -2.12,20.77 H 168.556 c -0.358,-6.232 -1.08,-13.351 -2.164,-21.084 29,2.217 65.796,6.81 89.615,-6.799 z M 315,361 v 94 h -18 v -64 h -82 v 64 h -18 v -94 z m -36,48 v 46 h -46 v -46 z m 69.271,64 14,18 H 149.73 l 14,-18 z"
       id="path4"
       inkscape:connector-curvature="0"
       style="fill:#000000" />
  </g>
  <!-- react-empty: 13 -->
</svg>
