<?xml version="1.0" encoding="UTF-8" standalone="no"?>
<svg
   xmlns:dc="http://purl.org/dc/elements/1.1/"
   xmlns:cc="http://creativecommons.org/ns#"
   xmlns:rdf="http://www.w3.org/1999/02/22-rdf-syntax-ns#"
   xmlns:svg="http://www.w3.org/2000/svg"
   xmlns="http://www.w3.org/2000/svg"
   xmlns:sodipodi="http://sodipodi.sourceforge.net/DTD/sodipodi-0.dtd"
   xmlns:inkscape="http://www.inkscape.org/namespaces/inkscape"
   viewBox="0 0 1000 560"
   version="1.1"
   id="svg21"
   sodipodi:docname="sunbeams.svg"
   width="1000"
   height="560"
   inkscape:version="0.92.1 r15371"
   inkscape:export-filename="C:\Users\William\Documents\Dev\Games\ccg\ccgclient\src\assets\png\sunbeams.png"
   inkscape:export-xdpi="240"
   inkscape:export-ydpi="240">
  <metadata
     id="metadata25">
    <rdf:RDF>
      <cc:Work
         rdf:about="">
        <dc:format>image/svg+xml</dc:format>
        <dc:type
           rdf:resource="http://purl.org/dc/dcmitype/StillImage" />
        <dc:title></dc:title>
      </cc:Work>
    </rdf:RDF>
  </metadata>
  <sodipodi:namedview
     pagecolor="#ffffff"
     bordercolor="#666666"
     borderopacity="1"
     objecttolerance="10"
     gridtolerance="10"
     guidetolerance="10"
     inkscape:pageopacity="0"
     inkscape:pageshadow="2"
     inkscape:window-width="3840"
     inkscape:window-height="2004"
     id="namedview23"
     showgrid="true"
     inkscape:zoom="1.84375"
     inkscape:cx="775.12986"
     inkscape:cy="208.77914"
     inkscape:window-x="-16"
     inkscape:window-y="-16"
     inkscape:window-maximized="1"
     inkscape:current-layer="svg21">
    <inkscape:grid
       type="xygrid"
       id="grid4502" />
  </sodipodi:namedview>
  <defs
     id="defs13">
    <filter
       id="shadow-1"
       height="3"
       width="3"
       x="-1"
       y="-1">
      <feFlood
         flood-color="#f5a623"
         result="flood"
         id="feFlood2" />
      <feComposite
         in="flood"
         in2="SourceGraphic"
         operator="atop"
         result="composite"
         id="feComposite4" />
      <feGaussianBlur
         in="composite"
         stdDeviation="15"
         result="blur"
         id="feGaussianBlur6" />
      <feOffset
         result="offset"
         id="feOffset8" />
      <feComposite
         in="SourceGraphic"
         in2="offset"
         operator="over"
         id="feComposite10" />
    </filter>
  </defs>
  <path
     d="M 0,0 H 1000 V 560 H 0 Z"
     id="path15"
     inkscape:connector-curvature="0"
     style="fill:#2f2f25;stroke:#ffffff;stroke-width:5.93913889" />
  <g
     class=""
     transform="matrix(1.1157848,0,0,1.1840775,216.41976,-23.100277)"
     id="g19">
    <path
       d="M 17.488,17.883 V 27.1 l 31.72,13.17 C 44.261,56.933 41.335,74.457 40.701,92.545 L -193.96192,65.958754 V 175.74887 L 46.342,148.954 c 3.968,16.532 9.893,32.31 17.527,47.068 l -257.83092,93.73967 V 433.33336 L 94.787,240.57 c 10.784,11.913 22.92,22.575 36.154,31.762 L -23.678186,488.22841 17.487,493.859 h 79.15 l 80.544,-197.33 c 14.558,5.425 29.874,9.278 45.746,11.35 l -24.914,185.98 H 299.93 L 275.055,308.18 c 16.05,-1.902 31.553,-5.62 46.29,-10.948 l 79.96,196.63 h 92.16 L 536.46567,505.1192 368.043,273.34 c 13.018,-8.875 24.983,-19.18 35.68,-30.682 L 702.26825,437.55605 706.7494,302.42976 435.822,197.443 c 7.784,-14.768 13.854,-30.573 17.95,-47.15 l 248.49625,25.45587 V 65.958754 L 459.717,91.818 c -0.694,-18.028 -3.672,-35.49 -8.65,-52.09 l 42.398,-17.505 v -4.338 h -112.22 l -42.282,32.527 c -4.65,-8.143 -10.22,-15.098 -16.805,-21.683 l 8.13,-10.845 H 167.655 l 7.59,9.758 c -6.94,6.73 -12.477,14.34 -17.346,22.767 L 116.155,17.882 H 17.488 Z m 416.22,29.012 c 4.37,15.116 6.913,31.006 7.392,47.43 l -88.584,11.925 c 0.04,-1.177 0,-2.065 0,-3.254 0,-7.216 -0.776,-14.88 -2.168,-21.683 z M 66.57,47.48 145.426,80.227 c -1.546,7.146 -2.168,15.16 -2.168,22.767 0,1.19 -0.04,2.075 0,3.254 L 59.31,95.03 c 0.42,-16.463 2.93,-32.39 7.262,-47.55 z m 82.65,87.5 c 2.51,7.588 5.67,14.977 9.758,21.684 l -77.84,32.21 C 74.135,175.576 68.658,161.352 64.934,146.428 l 84.287,-11.448 z m 197.872,1.086 88.07,11.743 c -3.854,14.962 -9.48,29.21 -16.63,42.514 l -81.74,-33.658 c 3.9,-6.395 7.833,-13.4 10.3,-20.6 z m -171.852,41.74 c 5.61,5.437 11.178,10.017 17.89,14.096 l -50.806,65.703 c -12.01,-8.234 -23.03,-17.804 -32.846,-28.5 l 65.762,-51.298 z m 144.203,0.003 69.49,53.47 c -9.706,10.252 -20.536,19.43 -32.296,27.33 l -52.915,-68.333 c 5.71,-3.65 10.837,-7.81 15.72,-12.468 z m -37.404,22.768 32.274,79.365 c -13.294,4.732 -27.27,8.03 -41.74,9.715 L 261.44,206.54 c 6.972,-0.943 14.133,-3.712 20.6,-5.962 z m -66.138,1.084 c 6.534,2.07 13.58,4.128 20.6,4.88 l -11.096,82.825 c -14.282,-1.85 -28.07,-5.276 -41.18,-10.1 z"
       id="path17"
       inkscape:connector-curvature="0"
       style="fill:#f8e71c;filter:url(#shadow-1)"
       sodipodi:nodetypes="cccccccccccccccccccccccccccccccccccccccccccccccccsccccsccccccccccccccccccccccccccccccccccccccc" />
  </g>
  <!-- react-empty: 13 -->
</svg>
