<?xml version="1.0" encoding="UTF-8" standalone="no"?>
<svg
   xmlns:dc="http://purl.org/dc/elements/1.1/"
   xmlns:cc="http://creativecommons.org/ns#"
   xmlns:rdf="http://www.w3.org/1999/02/22-rdf-syntax-ns#"
   xmlns:svg="http://www.w3.org/2000/svg"
   xmlns="http://www.w3.org/2000/svg"
   xmlns:sodipodi="http://sodipodi.sourceforge.net/DTD/sodipodi-0.dtd"
   xmlns:inkscape="http://www.inkscape.org/namespaces/inkscape"
   viewBox="0 0 512 512"
   style="height: 512px; width: 512px;"
   id="svg2"
   version="1.1"
   inkscape:version="0.91 r13725"
   sodipodi:docname="synthesis.svg"
   inkscape:export-xdpi="240"
   inkscape:export-ydpi="240">
  <metadata
     id="metadata14">
    <rdf:RDF>
      <cc:Work
         rdf:about="">
        <dc:format>image/svg+xml</dc:format>
        <dc:type
           rdf:resource="http://purl.org/dc/dcmitype/StillImage" />
        <dc:title />
      </cc:Work>
    </rdf:RDF>
  </metadata>
  <defs
     id="defs12" />
  <sodipodi:namedview
     pagecolor="#ffffff"
     bordercolor="#666666"
     borderopacity="1"
     objecttolerance="10"
     gridtolerance="10"
     guidetolerance="10"
     inkscape:pageopacity="0"
     inkscape:pageshadow="2"
     inkscape:window-width="1536"
     inkscape:window-height="801"
     id="namedview10"
     showgrid="false"
     inkscape:zoom="0.61914063"
     inkscape:cx="240.65615"
     inkscape:cy="241.67628"
     inkscape:window-x="-8"
     inkscape:window-y="-8"
     inkscape:window-maximized="1"
     inkscape:current-layer="svg2" />
  <ellipse
     style="opacity:1;fill:#9b9b9b;fill-opacity:1;stroke:#000000;stroke-width:2.5188396;stroke-miterlimit:4;stroke-dasharray:none;stroke-opacity:1"
     id="path4142"
     ry="235.24371"
     rx="234.28563"
     cy="262.46057"
     cx="257.2113" />
  <g
     class=""
     transform="matrix(0.83917901,0,0,0.86290906,43.134385,40.506495)"
     id="g6">
    <path
       d="m 234.875,18.78 c -26.087,2.367 -51.557,8.56 -74.875,18.782 15.37,32.763 14.222,66.706 -6.72,82.407 -20.835,15.617 -54.055,7.965 -81.124,-15.69 -16.246,19.452 -29.336,41.36 -38.875,65.626 33.83,12.333 56.635,37.665 52.94,63.5 -3.698,25.835 -32.697,43.74 -68.626,46.094 2.338,25.796 8.91,50.778 18.937,73.875 17.81,-8.182 35.793,-11.09 51.095,-8.938 13.032,1.87 23.927,7.015 31.156,16.657 15.817,21.097 7.603,54.713 -16.78,81.97 19.516,16.35 42.216,29.444 66.594,39.03 12.33,-33.828 37.655,-56.634 63.5,-52.938 25.844,3.697 43.74,32.696 46.094,68.625 26.087,-2.365 51.557,-8.555 74.875,-18.78 -15.766,-32.997 -14.26,-67.588 6.843,-83.406 9.64,-7.23 22.568,-9.022 35.594,-7.125 15.112,2.16 31.19,10.25 45.563,22.78 16.088,-19.345 29.4,-41.51 38.875,-65.594 -33.83,-12.332 -56.635,-37.653 -52.938,-63.5 3.697,-25.846 32.665,-43.772 68.594,-46.125 -2.36,-25.944 -8.774,-50.663 -18.906,-73.874 -32.612,15.117 -66.66,13.145 -82.282,-7.687 -15.696,-20.944 -7.252,-53.86 16.688,-81 C 391.577,57.117 368.849,44.022 344.472,34.437 332.14,68.265 306.815,91.097 280.972,87.405 255.126,83.712 237.228,54.709 234.877,18.78 Z m 21.656,95.126 c 79.626,0 144.376,64.752 144.376,144.375 0,79.626 -64.75,144.376 -144.375,144.376 -79.624,0 -144.374,-64.75 -144.374,-144.375 0,-79.624 64.75,-144.374 144.375,-144.374 z m 0,18.688 c -69.524,0 -125.686,56.162 -125.686,125.687 0,69.526 56.162,125.69 125.687,125.69 69.526,0 125.69,-56.164 125.69,-125.69 0,-69.522 -56.164,-125.686 -125.69,-125.686 z m 0.033,15.125 c 61.094,0 110.625,49.53 110.625,110.624 0,61.095 -49.53,110.625 -110.625,110.625 -61.095,0 -110.625,-49.53 -110.625,-110.626 0,-61.095 49.53,-110.625 110.625,-110.625 z"
       id="path8"
       inkscape:connector-curvature="0"
       style="fill:#000000" />
  </g>
  <!-- react-empty: 6 -->
</svg>
