<?xml version="1.0" encoding="UTF-8" standalone="no"?>
<svg
   xmlns:dc="http://purl.org/dc/elements/1.1/"
   xmlns:cc="http://creativecommons.org/ns#"
   xmlns:rdf="http://www.w3.org/1999/02/22-rdf-syntax-ns#"
   xmlns:svg="http://www.w3.org/2000/svg"
   xmlns="http://www.w3.org/2000/svg"
   xmlns:sodipodi="http://sodipodi.sourceforge.net/DTD/sodipodi-0.dtd"
   xmlns:inkscape="http://www.inkscape.org/namespaces/inkscape"
   viewBox="0 0 1000 560"
   version="1.1"
   id="svg21"
   sodipodi:docname="third-eye.svg"
   width="1000"
   height="560"
   inkscape:version="0.92.1 r15371">
  <metadata
     id="metadata25">
    <rdf:RDF>
      <cc:Work
         rdf:about="">
        <dc:format>image/svg+xml</dc:format>
        <dc:type
           rdf:resource="http://purl.org/dc/dcmitype/StillImage" />
        <dc:title></dc:title>
      </cc:Work>
    </rdf:RDF>
  </metadata>
  <sodipodi:namedview
     pagecolor="#ffffff"
     bordercolor="#666666"
     borderopacity="1"
     objecttolerance="10"
     gridtolerance="10"
     guidetolerance="10"
     inkscape:pageopacity="0"
     inkscape:pageshadow="2"
     inkscape:window-width="3840"
     inkscape:window-height="2004"
     id="namedview23"
     showgrid="false"
     inkscape:zoom="1.84375"
     inkscape:cx="268.88828"
     inkscape:cy="189.19621"
     inkscape:window-x="-16"
     inkscape:window-y="-16"
     inkscape:window-maximized="1"
     inkscape:current-layer="svg21" />
  <defs
     id="defs13">
    <filter
       id="shadow-1"
       height="3"
       width="3"
       x="-1"
       y="-1">
      <feFlood
         flood-color="#c7eeee"
         result="flood"
         id="feFlood2" />
      <feComposite
         in="flood"
         in2="SourceGraphic"
         operator="atop"
         result="composite"
         id="feComposite4" />
      <feGaussianBlur
         in="composite"
         stdDeviation="3"
         result="blur"
         id="feGaussianBlur6" />
      <feOffset
         dy="10"
         result="offset"
         id="feOffset8" />
      <feComposite
         in="SourceGraphic"
         in2="offset"
         operator="over"
         id="feComposite10" />
    </filter>
  </defs>
  <path
     d="M 0,0.27118639 H 1001.7627 V 560 H 0 Z"
     id="path15"
     inkscape:connector-curvature="0"
     style="fill:#6b6b6b;stroke-width:1.46251833" />
  <g
     class=""
     id="g19"
     transform="translate(245.15253,17.084746)">
    <path
       d="m 252.076,20.326 c -44.403,0 -85.074,25.412 -115.224,68.104 -22.122,31.322 -38.243,71.822 -45.268,117.295 11.268,-3.406 22.4,-5.216 33.176,-5.47 13.302,-0.316 26.063,1.73 37.87,6.024 h 0.64 c 0.506,0.263 0.99,0.537 1.49,0.804 14.208,5.552 26.97,14.42 37.545,26.42 27.592,31.31 40.233,82.2 31.002,147.836 11.677,2.103 25.794,2 37.056,-0.014 -9.227,-65.628 3.416,-116.514 31.006,-147.822 26.953,-30.586 68.11,-40.84 111.224,-27.63 C 405.581,160.34 389.448,119.786 367.303,88.429 337.151,45.737 296.478,20.325 252.075,20.325 Z m -2.478,78.69 c 1.268,-0.017 2.536,-0.018 3.804,0 40.59,0.548 80.635,18.362 114.31,50.902 l 6.983,6.748 -7.01,6.72 c -37.295,35.744 -78.045,53.636 -118.17,53.253 -40.128,-0.384 -78.892,-19.074 -112.103,-53.515 l -6.353,-6.588 6.454,-6.488 c 33.47,-33.64 72.76,-50.512 112.084,-51.034 z m 1.732,19.545 c -20.775,0 -37.55,16.932 -37.55,38.225 0,21.293 16.775,38.225 37.55,38.225 20.775,0 37.55,-16.932 37.55,-38.225 0,-21.294 -16.775,-38.224 -37.55,-38.224 z m 47.816,8.37 c 5.332,8.7 8.42,18.933 8.42,29.855 0,11.535 -3.442,22.304 -9.337,31.307 16.365,-6.818 32.772,-17.236 48.954,-31.46 -15.21,-13.253 -31.398,-23.184 -48.038,-29.702 z m -95.92,0.457 c -15.647,6.447 -30.93,16.173 -45.464,29.384 14.99,14.17 30.685,24.68 46.806,31.537 -5.98,-9.046 -9.476,-19.896 -9.476,-31.522 0,-10.73 2.973,-20.8 8.133,-29.398 z m 48.186,12.808 c 9.22,0 16.695,7.583 16.695,16.936 0,9.354 -7.475,16.934 -16.695,16.934 -9.22,0 -16.693,-7.58 -16.693,-16.933 0,-9.352 7.472,-16.935 16.692,-16.935 z m 138.736,79.553 c -1.77,23.523 -18.57,43.682 -42.44,57.676 -16.024,9.395 -35.52,16.348 -57.147,20.178 -5.55,24.405 -6.327,54.318 -0.484,89.334 l 1.344,8.052 -7.8,2.412 c -18.743,5.8 -43.65,6.162 -63.57,0 l -7.8,-2.412 1.344,-8.052 c 5.83,-34.932 5.07,-64.782 -0.444,-89.155 -22.05,-3.786 -41.922,-10.808 -58.207,-20.356 -23.814,-13.962 -40.593,-34.06 -42.43,-57.514 -7.567,1.242 -15.398,3.354 -23.458,6.397 -0.91,10.044 -1.383,20.29 -1.383,30.693 0,66.152 19.03,125.88 49.18,168.57 4.094,5.798 8.39,11.265 12.855,16.405 6.487,-5.172 14.775,-9.26 24.592,-12.69 20.326,-7.1 47.276,-11.228 77.026,-11.228 29.75,0 56.7,4.127 77.028,11.228 10.163,3.55 18.706,7.796 25.29,13.23 0.063,0.054 0.124,0.11 0.188,0.163 4.687,-5.343 9.19,-11.044 13.47,-17.108 30.15,-42.69 49.18,-102.418 49.18,-168.57 0,-10.56 -0.49,-20.955 -1.427,-31.145 l -0.203,0.538 c -8.503,-3.228 -16.75,-5.42 -24.704,-6.645 z M 251.326,436.744 c -27.984,0 -53.328,4.058 -70.863,10.184 -7.556,2.64 -13.624,5.7 -17.725,8.61 25.946,24.332 56.627,38.136 89.338,38.136 32.43,0 62.867,-13.568 88.672,-37.512 -4.087,-3.096 -10.458,-6.405 -18.557,-9.234 -17.533,-6.126 -42.88,-10.184 -70.864,-10.184 z"
       id="path17"
       inkscape:connector-curvature="0"
       style="fill:#e8e8e8;filter:url(#shadow-1)" />
  </g>
  <!-- react-empty: 6 -->
</svg>
