<?xml version="1.0" encoding="UTF-8" standalone="no"?>
<svg
   xmlns:dc="http://purl.org/dc/elements/1.1/"
   xmlns:cc="http://creativecommons.org/ns#"
   xmlns:rdf="http://www.w3.org/1999/02/22-rdf-syntax-ns#"
   xmlns:svg="http://www.w3.org/2000/svg"
   xmlns="http://www.w3.org/2000/svg"
   xmlns:sodipodi="http://sodipodi.sourceforge.net/DTD/sodipodi-0.dtd"
   xmlns:inkscape="http://www.inkscape.org/namespaces/inkscape"
   viewBox="0 0 1000 560"
   version="1.1"
   id="svg8"
   sodipodi:docname="throne-king.svg"
   width="1000"
   height="560"
   inkscape:version="0.92.1 r15371"
   inkscape:export-filename="C:\Users\William\Documents\Dev\Games\ccg\ccgclient\src\assets\png\throne-king.png"
   inkscape:export-xdpi="240"
   inkscape:export-ydpi="240">
  <metadata
     id="metadata14">
    <rdf:RDF>
      <cc:Work
         rdf:about="">
        <dc:format>image/svg+xml</dc:format>
        <dc:type
           rdf:resource="http://purl.org/dc/dcmitype/StillImage" />
        <dc:title></dc:title>
      </cc:Work>
    </rdf:RDF>
  </metadata>
  <defs
     id="defs12" />
  <sodipodi:namedview
     pagecolor="#f8e71c"
     bordercolor="#666666"
     borderopacity="1"
     objecttolerance="10"
     gridtolerance="10"
     guidetolerance="10"
     inkscape:pageopacity="1"
     inkscape:pageshadow="2"
     inkscape:window-width="3840"
     inkscape:window-height="2004"
     id="namedview10"
     showgrid="false"
     inkscape:zoom="1.84375"
     inkscape:cx="321.00898"
     inkscape:cy="374.25298"
     inkscape:window-x="-16"
     inkscape:window-y="-16"
     inkscape:window-maximized="1"
     inkscape:current-layer="svg8" />
  <g
     class=""
     transform="matrix(1.2277496,0,0,1.1432441,187.15372,5.7316632)"
     id="g6">
    <path
       d="M 256,17.492 276.912,52.348 306,34.895 296.973,71 H 215.027 L 206,34.896 235.088,52.348 Z m 64.3,34.414 C 334.08,62.311 343,77 343,96 v 64.648 c -10.638,-7.27 -22.444,-13.917 -34.984,-18.63 C 311.239,132.817 313,122.663 313,112 c 0,-8.018 -1.005,-15.744 -1.489,-19.372 z m -128.6,0 8.789,40.722 C 200.005,96.256 199,103.982 199,112 c 0,10.663 1.76,20.817 4.984,30.018 -12.54,4.713 -24.346,11.36 -34.984,18.63 V 96 c 0,-19.001 8.92,-33.689 22.7,-44.094 z M 291.356,89 c 2.31,6.965 3.643,14.753 3.643,23 0,15.85 -4.892,30.032 -12.26,39.855 C 275.372,161.68 266.012,167 256,167 245.988,167 236.628,161.68 229.26,151.855 221.892,142.032 217,127.85 217,112 c 0,-8.247 1.334,-16.035 3.643,-23 z m 8.541,69.67 c 25.391,9.618 49.716,29.5 65.356,43.92 -3.358,1.38 -6.477,3.137 -9.281,5.24 -4.585,3.438 -8.377,7.98 -10.655,13.223 l -23.134,-5.783 -4.368,17.46 6.9,1.725 c 2.53,16.035 3.235,31.57 3.249,43.781 -5.706,-6.514 -12.54,-12.787 -21.897,-14.996 -3.203,-0.756 -6.388,-0.989 -9.529,-0.838 -9.422,0.453 -18.448,4.359 -26.393,7.94 A 163.812,163.812 0 0 0 256,277.566 163.812,163.812 0 0 0 241.854,270.342 c -10.593,-4.775 -23.11,-10.126 -35.922,-7.102 -9.358,2.21 -16.19,8.482 -21.897,14.996 0.014,-12.212 0.72,-27.746 3.248,-43.78 l 6.9,-1.726 -4.367,-17.46 -23.134,5.783 c -2.278,-5.244 -6.07,-9.785 -10.655,-13.223 -2.804,-2.103 -5.923,-3.86 -9.28,-5.24 15.639,-14.42 39.964,-34.302 65.355,-43.92 a 71.055,71.055 0 0 0 2.757,3.984 c 6.988,9.318 16.241,16.507 26.805,20.004 L 256,240 270.336,182.658 c 10.564,-3.497 19.817,-10.686 26.805,-20.004 a 71.06,71.06 0 0 0 2.757,-3.984 z M 384,217 c 7.013,0 13.194,2.204 17.227,5.229 3.974,2.98 5.704,6.29 5.753,9.625 -0.292,0.051 -0.395,0.103 -0.884,0.132 C 402.147,232.22 393.729,231 384,231 c -9.729,0 -18.147,1.22 -22.096,0.986 -0.49,-0.029 -0.592,-0.081 -0.884,-0.132 0.05,-3.336 1.779,-6.645 5.753,-9.625 C 370.806,219.204 376.987,217 384,217 Z m -256,0 c 7.013,0 13.194,2.204 17.227,5.229 3.974,2.98 5.704,6.29 5.753,9.625 -0.292,0.051 -0.395,0.103 -0.884,0.132 C 146.147,232.22 137.729,231 128,231 c -9.729,0 -18.147,1.22 -22.096,0.986 -0.49,-0.029 -0.592,-0.081 -0.884,-0.132 0.05,-3.336 1.779,-6.645 5.753,-9.625 C 114.806,219.204 120.987,217 128,217 Z m 279,32 V 423 H 361 V 249 Z m -256,0 V 423 H 105 V 249 Z m 149.23,31.6 c 0.677,0 1.251,0.054 1.702,0.16 2.735,0.646 10.877,7.205 16.595,14.224 4.698,5.766 7.671,10.392 8.8,12.182 l 11.118,88.953 c -3.57,-4.158 -7.477,-8.167 -11.738,-11.615 C 320.277,379.3 312.839,375 304,375 c -20.5,0 -34.72,14.856 -43.488,28.008 a 111.855,111.855 0 0 0 -4.512,7.39 111.855,111.855 0 0 0 -4.512,-7.39 C 242.72,389.856 228.5,375 208,375 c -8.839,0 -16.276,4.3 -22.707,9.504 -4.26,3.448 -8.169,7.457 -11.738,11.615 l 11.119,-88.953 c 1.128,-1.79 4.101,-6.416 8.799,-12.182 5.718,-7.019 13.86,-13.578 16.595,-14.224 3.603,-0.85 15.085,1.798 24.389,5.992 2.106,0.95 4.095,1.919 5.945,2.857 L 256,352 271.598,289.61 c 1.85,-0.939 3.84,-1.909 5.945,-2.858 6.978,-3.146 15.182,-5.423 20.367,-6.006 a 20.831,20.831 0 0 1 2.32,-0.146 z M 304,393 c 2.475,0 6.694,1.7 11.385,5.496 4.69,3.796 9.634,9.323 13.949,14.969 2.518,3.294 4.72,6.502 6.717,9.535 h -66.31 c 1.592,-3.153 3.419,-6.515 5.747,-10.008 C 282.72,402.144 292.5,393 304,393 Z m -96,0 c 11.5,0 21.28,9.144 28.512,19.992 2.328,3.493 4.155,6.855 5.748,10.008 h -66.31 c 1.995,-3.033 4.198,-6.24 6.716,-9.535 4.315,-5.646 9.259,-11.173 13.95,-14.969 C 201.305,394.7 205.525,393 208,393 Z m 231,48 v 14 H 73 v -14 z m 48,32 v 14 H 25 v -14 z"
       id="path4"
       inkscape:connector-curvature="0"
       style="fill:#000000" />
  </g>
  <!-- react-empty: 13 -->
</svg>
