<?xml version="1.0" encoding="UTF-8" standalone="no"?>
<svg
   xmlns:dc="http://purl.org/dc/elements/1.1/"
   xmlns:cc="http://creativecommons.org/ns#"
   xmlns:rdf="http://www.w3.org/1999/02/22-rdf-syntax-ns#"
   xmlns:svg="http://www.w3.org/2000/svg"
   xmlns="http://www.w3.org/2000/svg"
   xmlns:sodipodi="http://sodipodi.sourceforge.net/DTD/sodipodi-0.dtd"
   xmlns:inkscape="http://www.inkscape.org/namespaces/inkscape"
   viewBox="0 0 1000 560"
   version="1.1"
   id="svg8"
   sodipodi:docname="trireme.svg"
   width="1000"
   height="560"
   inkscape:version="0.92.1 r15371"
   inkscape:export-filename="C:\Users\William\Documents\Dev\Games\ccg\ccgclient\src\assets\png\trireme.png"
   inkscape:export-xdpi="240"
   inkscape:export-ydpi="240">
  <metadata
     id="metadata14">
    <rdf:RDF>
      <cc:Work
         rdf:about="">
        <dc:format>image/svg+xml</dc:format>
        <dc:type
           rdf:resource="http://purl.org/dc/dcmitype/StillImage" />
        <dc:title></dc:title>
      </cc:Work>
    </rdf:RDF>
  </metadata>
  <defs
     id="defs12" />
  <sodipodi:namedview
     pagecolor="#f8e71c"
     bordercolor="#666666"
     borderopacity="1"
     objecttolerance="10"
     gridtolerance="10"
     guidetolerance="10"
     inkscape:pageopacity="1"
     inkscape:pageshadow="2"
     inkscape:window-width="3840"
     inkscape:window-height="2004"
     id="namedview10"
     showgrid="false"
     inkscape:zoom="0.4609375"
     inkscape:cx="256"
     inkscape:cy="256"
     inkscape:window-x="-16"
     inkscape:window-y="-16"
     inkscape:window-maximized="1"
     inkscape:current-layer="svg8" />
  <g
     class=""
     transform="matrix(1.2806984,0,0,1.0870356,163.99342,4.9392593)"
     id="g6">
    <path
       d="m 176.837,19.198 -16.84,6.358 a 409.33,409.33 0 0 1 6.2,17.662 604,604 0 0 1 19.026,0.412 430.187,430.187 0 0 0 -8.386,-24.432 z m 171.73,27.88 -17.076,5.689 a 308.315,308.315 0 0 1 6.451,22.168 c 6.2,-0.201 12.885,-0.21 18.531,-0.084 -2.243,-9.35 -4.858,-18.625 -7.906,-27.774 z M 163.608,61.553 c -35.687,-0.08 -72.224,2.875 -102.092,9.047 31.502,63.023 21.36,127.176 11.951,186.377 6.66,-3.484 14.299,-6.825 23.17,-9.924 20.7,-7.23 46.702,-13.283 73.541,-16.29 26.84,-3.006 54.461,-3.007 78.53,2.42 2.393,0.54 4.752,1.147 7.078,1.807 4.659,-43.672 3.944,-88.62 -19.928,-129.758 l -5.37,-9.254 c 14.989,-5.784 31.568,-10.739 45.061,-13.65 a 278.187,278.187 0 0 0 -8.035,-9.91 C 240.517,65.373 202.641,61.64 163.608,61.553 Z m 186.03,31.215 c -2.063,-0.011 -4.133,-0.001 -6.21,0.03 -30.306,0.47 -61.853,5.293 -86.87,13.055 25.163,50.463 21.18,104.252 14.523,152.272 4.878,-2.44 10.147,-4.748 16.12,-6.99 16.449,-6.173 36.648,-11.122 57.325,-13.38 20.677,-2.257 41.797,-1.88 60.207,3.286 11.532,3.236 22.213,8.601 30.441,16.525 6.069,-19.54 12.783,-37.8 15.141,-57.576 3.016,-25.295 -0.556,-53.611 -22.184,-92.482 -18.522,-9.572 -47.56,-14.576 -78.494,-14.74 z M 34.74,242.779 c -1.579,20.015 -7.296,37.936 -8.25,56.257 -0.764,15.604 1.607,33.312 6.898,50.799 9.265,30.615 27.63,61.29 56.248,75.158 l -48.056,54.668 13.52,11.885 56.663,-64.46 c 6.464,1.064 13.686,1.997 21.569,2.808 l -43.753,49.766 13.52,11.885 52.556,-59.785 c 7.252,0.486 14.971,0.884 22.953,1.228 l -41.03,46.672 13.52,11.885 50.778,-57.762 c 10.092,0.258 20.587,0.43 31.443,0.518 l -40.98,46.615 13.519,11.885 51.373,-58.438 c 8.072,-0.004 16.766,-0.047 24.094,-0.07 l -40.987,46.623 13.52,11.885 51.518,-58.602 c 8.254,-0.038 16.347,-0.09 24.191,-0.181 l -41.229,46.898 13.52,11.885 52.078,-59.24 c 51.293,-1.339 93.833,-5.506 131.713,-19.575 l -2.457,-17.558 c -34.2,-1.249 -51.658,-29.807 -43.396,-54.461 5.637,-4.618 10.617,-9.951 14.673,-15.858 11.127,-16.2 14.881,-37.733 4.229,-57.478 l -15.842,8.547 c 7.38,13.678 5.014,26.75 -3.223,38.742 -3.941,5.738 -9.35,10.968 -15.57,15.242 -108.045,18.877 -295.175,45.39 -372.65,15.988 -4.219,-15.394 -7.539,-32.63 -6.944,-47.236 l 0.002,-0.018 25.604,-15.914 z m 170.699,4 a 272.962,272.962 0 0 0 -17.19,0.5 c -1.076,30.34 -3.038,66.685 -4.462,97.138 l 17.98,-1.158 c 1.43,-30.563 3.467,-65.377 4.565,-96.469 -0.299,-0.002 -0.594,-0.01 -0.893,-0.012 z m 160.512,7.712 c -6.009,0.048 -12.151,0.404 -18.295,1.04 -1.834,26.561 -4.137,54.553 -5.192,74.027 l 17.973,-3.028 c 1.053,-19.438 3.573,-44.157 5.514,-72.039 z m 21.32,102.58 c 15.183,0.519 36.84,18.13 36.559,23.008 -0.291,5.035 -21.101,27.619 -35.309,27.943 -14.207,0.325 -38.825,-16.226 -38.951,-20.71 -0.126,-4.485 21.04,-29.602 36.252,-30.237 0.475,-0.02 0.96,-0.02 1.45,-0.004 z m -0.758,11.395 c -7.739,0 -14.012,6.275 -14.011,14.013 0,7.74 6.272,14.013 14.011,14.014 7.74,0 14.014,-6.274 14.014,-14.014 0,-7.74 -6.274,-14.013 -14.014,-14.013 z"
       id="path4"
       inkscape:connector-curvature="0"
       style="fill:#000000" />
  </g>
  <!-- react-empty: 6 -->
</svg>
