<?xml version="1.0" encoding="UTF-8" standalone="no"?>
<svg
   xmlns:dc="http://purl.org/dc/elements/1.1/"
   xmlns:cc="http://creativecommons.org/ns#"
   xmlns:rdf="http://www.w3.org/1999/02/22-rdf-syntax-ns#"
   xmlns:svg="http://www.w3.org/2000/svg"
   xmlns="http://www.w3.org/2000/svg"
   xmlns:sodipodi="http://sodipodi.sourceforge.net/DTD/sodipodi-0.dtd"
   xmlns:inkscape="http://www.inkscape.org/namespaces/inkscape"
   viewBox="0 0 1000 560"
   version="1.1"
   id="svg21"
   sodipodi:docname="unicorn.svg"
   width="1000"
   height="560"
   inkscape:version="0.92.1 r15371"
   inkscape:export-filename="C:\Users\William\Documents\Dev\Games\ccg\ccgclient\src\assets\png\unicorn.png"
   inkscape:export-xdpi="240"
   inkscape:export-ydpi="240">
  <metadata
     id="metadata25">
    <rdf:RDF>
      <cc:Work
         rdf:about="">
        <dc:format>image/svg+xml</dc:format>
        <dc:type
           rdf:resource="http://purl.org/dc/dcmitype/StillImage" />
        <dc:title></dc:title>
      </cc:Work>
    </rdf:RDF>
  </metadata>
  <sodipodi:namedview
     pagecolor="#ffffff"
     bordercolor="#666666"
     borderopacity="1"
     objecttolerance="10"
     gridtolerance="10"
     guidetolerance="10"
     inkscape:pageopacity="0"
     inkscape:pageshadow="2"
     inkscape:window-width="3840"
     inkscape:window-height="2004"
     id="namedview23"
     showgrid="true"
     inkscape:zoom="0.65186406"
     inkscape:cx="118.89745"
     inkscape:cy="49.229225"
     inkscape:window-x="-16"
     inkscape:window-y="-16"
     inkscape:window-maximized="1"
     inkscape:current-layer="svg21">
    <inkscape:grid
       type="xygrid"
       id="grid4502" />
  </sodipodi:namedview>
  <defs
     id="defs13">
    <filter
       id="shadow-1"
       height="3"
       width="3"
       x="-1"
       y="-1">
      <feFlood
         flood-color="#e3aa00"
         result="flood"
         id="feFlood2" />
      <feComposite
         in="flood"
         in2="SourceGraphic"
         operator="atop"
         result="composite"
         id="feComposite4" />
      <feGaussianBlur
         in="composite"
         stdDeviation="15"
         result="blur"
         id="feGaussianBlur6" />
      <feOffset
         result="offset"
         id="feOffset8" />
      <feComposite
         in2="offset"
         in="SourceGraphic"
         operator="over"
         id="feComposite10" />
    </filter>
  </defs>
  <path
     d="M 0,0 H 1000 V 560 H 0 Z"
     id="path15"
     inkscape:connector-curvature="0"
     style="fill:#f8e71c;fill-opacity:1;stroke-width:1.46158493" />
  <g
     class=""
     id="g19"
     transform="matrix(1.1671137,0,0,1.1671137,223.44584,-18.660973)"
     style="fill:#000000">
    <path
       d="M 494,20 304.887,143.357 c 16.494,14.608 32.743,22.57 44.963,36.97 z M 298.346,93.594 c -12.58,0.436 -26.59,4.984 -38.047,11.77 -7.64,4.523 -14.115,9.97 -18.304,15.142 -4.19,5.173 -5.79,9.832 -5.648,12.668 l 0.283,5.73 -5.075,2.676 C 133.713,193.16 80.945,250.727 18,310.594 V 494 h 166.047 c 6.145,-15.424 12.724,-33.898 15.086,-47.535 1.728,-9.977 -2.783,-21.807 -8.23,-35.244 -5.444,-13.436 -11.85,-28.706 -7.63,-45.423 3.49,-13.827 14.375,-25.752 24.096,-35.656 4.45,-4.534 8.71,-8.463 12.075,-11.445 -6.558,-8.577 -14.065,-20.315 -16.51,-34.894 l 17.75,-2.978 c 2.68,15.976 15.203,28.533 22.8,39.24 l -0.323,0.23 c 10.54,14.634 18.892,28.395 30.72,37.546 13.358,10.337 31.484,16.39 66.526,11.49 l 6.658,-0.932 2.782,6.124 c 6.96,15.322 14.372,23.89 21.015,28.423 6.643,4.535 12.63,5.46 18.692,4.79 12.125,-1.34 24.29,-10.974 27.76,-14.264 4.13,-3.92 9.657,-9.476 13.32,-16.124 3.347,-6.076 5.073,-12.687 3.48,-20.744 -42.68,-37.562 -69.592,-108.75 -90.256,-152.6 -9.245,-19.62 -35.786,-34.492 -52.967,-47.95 -2.427,-1.4 -2.675,-2.582 -3.24,-5.154 -4.215,-19.167 3.188,-40.257 10.974,-57.298 -0.096,0.002 -0.186,-0.01 -0.28,-0.006 z M 59.352,136.55 c 17.863,4.925 37.775,9.665 57.406,14.815 14.803,3.883 29.26,7.935 42.406,12.766 17.914,-12.178 37.407,-24.123 59.072,-35.77 -51.62,-13.3 -109.928,-3.148 -158.884,8.19 z m 28.738,26.126 c -23.002,4.133 -45.974,10.254 -67.147,16.662 18.133,3.813 38.298,7.314 58.207,11.242 11.774,2.323 23.337,4.766 34.256,7.643 a 686.475,686.475 0 0 1 27.403,-21.15 c -9.044,-2.932 -18.71,-5.698 -28.62,-8.298 -7.952,-2.086 -16.043,-4.098 -24.1,-6.1 z M 47.44,202.94 c -9.875,2.096 -19.728,4.582 -29.44,7.29 v 18.04 a 2251.165,2251.165 0 0 1 20.172,3.146 c 10.505,1.7 20.847,3.498 30.734,5.625 8.836,-8.185 17.887,-16.322 27.268,-24.397 -6.64,-1.56 -13.52,-3.024 -20.508,-4.403 -9.32,-1.838 -18.81,-3.566 -28.227,-5.3 z M 304,224 c 8.837,0 16,7.163 16,16 0,8.837 -7.163,16 -16,16 -8.837,0 -16,-7.163 -16,-16 0,-8.837 7.163,-16 16,-16 z M 18,246.512 v 26.58 c 4.16,0.195 8.28,0.425 12.342,0.71 7.44,-7.2 14.878,-14.384 22.387,-21.538 A 604.747,604.747 0 0 0 35.296,249.186 1501.67,1501.67 0 0 0 18,246.512 Z"
       id="path17"
       inkscape:connector-curvature="0"
       style="fill:#000000" />
  </g>
  <!-- react-empty: 13 -->
</svg>
