<?xml version="1.0" encoding="UTF-8" standalone="no"?>
<svg
   xmlns:dc="http://purl.org/dc/elements/1.1/"
   xmlns:cc="http://creativecommons.org/ns#"
   xmlns:rdf="http://www.w3.org/1999/02/22-rdf-syntax-ns#"
   xmlns:svg="http://www.w3.org/2000/svg"
   xmlns="http://www.w3.org/2000/svg"
   xmlns:sodipodi="http://sodipodi.sourceforge.net/DTD/sodipodi-0.dtd"
   xmlns:inkscape="http://www.inkscape.org/namespaces/inkscape"
   viewBox="0 0 1000 560"
   version="1.1"
   id="svg8"
   sodipodi:docname="vintage-robot.svg"
   width="1000"
   height="560"
   inkscape:version="0.92.1 r15371"
   inkscape:export-filename="C:\Users\William\Documents\Dev\Games\ccg\ccgclient\src\assets\png\vintage-robot.png"
   inkscape:export-xdpi="240"
   inkscape:export-ydpi="240">
  <metadata
     id="metadata14">
    <rdf:RDF>
      <cc:Work
         rdf:about="">
        <dc:format>image/svg+xml</dc:format>
        <dc:type
           rdf:resource="http://purl.org/dc/dcmitype/StillImage" />
        <dc:title></dc:title>
      </cc:Work>
    </rdf:RDF>
  </metadata>
  <defs
     id="defs12" />
  <sodipodi:namedview
     pagecolor="#ffffff"
     bordercolor="#666666"
     borderopacity="1"
     objecttolerance="10"
     gridtolerance="10"
     guidetolerance="10"
     inkscape:pageopacity="0"
     inkscape:pageshadow="2"
     inkscape:window-width="3840"
     inkscape:window-height="2004"
     id="namedview10"
     showgrid="false"
     inkscape:zoom="0.921875"
     inkscape:cx="1067.2547"
     inkscape:cy="-8.7626342"
     inkscape:window-x="-16"
     inkscape:window-y="-16"
     inkscape:window-maximized="1"
     inkscape:current-layer="svg8" />
  <path
     d="M 0,-0.05217303 H 1000.1713 V 560 H 0 Z"
     id="path2"
     inkscape:connector-curvature="0"
     style="fill:#c9c9c9;stroke-width:1.46177816" />
  <g
     class=""
     id="g6"
     transform="matrix(1.3499612,0,0,1.3499612,142.51737,-53.751671)">
    <path
       d="m 260.22,58.28 c -33.15,0 -60.763,22.89 -68,53.782 h 136 c -7.24,-30.89 -34.85,-53.78 -68,-53.78 z M 146.06,130.75 V 324.938 H 381.22 V 130.75 Z m 117.063,24.125 c 32.075,0 58.28,26.207 58.28,58.28 0,32.075 -26.206,58.282 -58.28,58.282 -32.074,0 -58.28,-26.207 -58.28,-58.28 0,-32.076 26.206,-58.282 58.28,-58.282 z m -135.75,40.22 c -37.902,8.577 -67.593,37.596 -77.094,75.124 -3.368,0.833 -6.668,2.127 -9.81,3.936 -18.16,10.452 -24.47,33.907 -13.97,52.03 l 16.156,-9.342 c -5.428,-9.37 -2.296,-21.078 7.125,-26.5 l 0.157,-0.063 c 9.396,-5.302 21.1,-2.135 26.5,7.19 5.43,9.374 2.3,21.043 -7.124,26.467 l 9.312,16.188 c 18.16,-10.453 24.466,-33.905 13.97,-52.03 -1.42,-2.454 -3.09,-4.682 -4.94,-6.69 5.013,-20.46 20.205,-36.686 39.72,-44 v -42.31 z m 272.53,3.25 v 44.624 c 13.927,8.56 24.357,22.155 28.345,38.436 -1.848,2.007 -3.517,4.235 -4.938,6.688 -10.497,18.126 -4.19,41.578 13.97,52.03 l 9.312,-16.187 c -9.425,-5.424 -12.555,-17.093 -7.125,-26.468 5.427,-9.375 17.234,-12.55 26.655,-7.126 9.42,5.422 12.553,17.13 7.125,26.5 l 16.156,9.344 c 10.5,-18.125 4.19,-41.58 -13.97,-52.032 -3.142,-1.81 -6.442,-3.103 -9.81,-3.937 -8.527,-33.68 -33.33,-60.522 -65.72,-71.876 z m -224.28,145.28 v 33.125 c 5.605,-1.6 11.743,-2.5 18.438,-2.5 8.152,0 15.475,1.222 22,3.406 v -34.03 h -40.438 z m 141.688,0 v 33.47 c 6.063,-1.826 12.78,-2.845 20.187,-2.845 7.424,0 14.164,1.085 20.25,3.03 V 343.625 H 317.31 Z m -123.25,49.313 c -21.565,0 -31.638,9.323 -38.75,23.375 -5.676,11.21 -8.255,25.565 -9.438,38.718 h 96.438 c -1.052,-13.284 -3.285,-27.65 -8.75,-38.81 -6.833,-13.953 -16.734,-23.283 -39.5,-23.283 z m 143.437,0 c -22.766,0 -32.668,9.33 -39.5,23.28 -5.466,11.162 -7.698,25.528 -8.75,38.813 h 96.438 c -1.183,-13.152 -3.763,-27.506 -9.438,-38.717 -7.113,-14.052 -17.186,-23.375 -38.75,-23.375 z"
       id="path4"
       inkscape:connector-curvature="0"
       style="fill:#170303" />
  </g>
  <!-- react-empty: 6 -->
</svg>
