<?xml version="1.0" encoding="UTF-8" standalone="no"?>
<svg
   xmlns:dc="http://purl.org/dc/elements/1.1/"
   xmlns:cc="http://creativecommons.org/ns#"
   xmlns:rdf="http://www.w3.org/1999/02/22-rdf-syntax-ns#"
   xmlns:svg="http://www.w3.org/2000/svg"
   xmlns="http://www.w3.org/2000/svg"
   xmlns:sodipodi="http://sodipodi.sourceforge.net/DTD/sodipodi-0.dtd"
   xmlns:inkscape="http://www.inkscape.org/namespaces/inkscape"
   viewBox="0 0 1000 560"
   version="1.1"
   id="svg21"
   sodipodi:docname="volcano.svg"
   width="1000"
   height="560"
   inkscape:version="0.92.1 r15371"
   inkscape:export-filename="C:\Users\William\Documents\Dev\Games\ccg\ccgclient\src\assets\png\volcano.png"
   inkscape:export-xdpi="240"
   inkscape:export-ydpi="240">
  <metadata
     id="metadata25">
    <rdf:RDF>
      <cc:Work
         rdf:about="">
        <dc:format>image/svg+xml</dc:format>
        <dc:type
           rdf:resource="http://purl.org/dc/dcmitype/StillImage" />
        <dc:title></dc:title>
      </cc:Work>
    </rdf:RDF>
  </metadata>
  <sodipodi:namedview
     pagecolor="#334033"
     bordercolor="#666666"
     borderopacity="1"
     objecttolerance="10"
     gridtolerance="10"
     guidetolerance="10"
     inkscape:pageopacity="1"
     inkscape:pageshadow="2"
     inkscape:window-width="3840"
     inkscape:window-height="2004"
     id="namedview23"
     showgrid="true"
     inkscape:zoom="0.921875"
     inkscape:cx="449.3078"
     inkscape:cy="84.047154"
     inkscape:window-x="-16"
     inkscape:window-y="-16"
     inkscape:window-maximized="1"
     inkscape:current-layer="svg21">
    <inkscape:grid
       type="xygrid"
       id="grid4502" />
  </sodipodi:namedview>
  <defs
     id="defs13">
    <filter
       id="shadow-1"
       height="3"
       width="3"
       x="-1"
       y="-1">
      <feFlood
         flood-color="#0f0"
         result="flood"
         id="feFlood2" />
      <feComposite
         in="flood"
         in2="SourceGraphic"
         operator="atop"
         result="composite"
         id="feComposite4" />
      <feGaussianBlur
         in="composite"
         stdDeviation="15"
         result="blur"
         id="feGaussianBlur6" />
      <feOffset
         result="offset"
         id="feOffset8" />
      <feComposite
         in="SourceGraphic"
         in2="offset"
         operator="over"
         id="feComposite10" />
    </filter>
  </defs>
  <g
     class=""
     id="g19"
     transform="matrix(1.1678309,0,0,1.1848705,193.26221,-22.429594)">
    <path
       d="m 26.125,19.97 c 59.805,21.772 99.325,56.84 127.72,105.31 20.807,35.52 35.428,78.442 46.624,128.282 0.646,5.295 1.186,10.563 1.686,15.813 C 154.149,204.955 83.587,166.81 20.561,165.625 v 0.22 c 58.233,16.936 103.123,50.71 135.188,92.968 -29.434,-17.817 -63.758,-23.935 -115.03,-25.063 88.53,26.684 116.565,46.203 136.936,91.906 -50.52,-9.608 -100.656,16.807 -107.28,70 17.742,-29.653 41.175,-46.612 65.093,-48.28 25.746,-1.8 32.124,14.687 15.436,37.562 l -6.687,8.125 c -0.162,0.176 -0.307,0.354 -0.47,0.53 l 0.063,-0.03 -1.563,1.906 -75.938,51.5 -0.968,0.686 -0.78,0.875 -41.064,46.44 h 24.938 l 29.374,-33.19 76.032,-51.56 1.094,-0.75 0.875,-1.033 49.69,-60.467 29.72,15.967 2.968,1.594 3.312,-0.686 34.656,-7.03 1.375,-0.283 1.22,-0.655 16.375,-8.906 h 2.25 l 53.75,57.124 0.5,0.53 0.53,0.438 113.408,88.907 h 30.03 v -0.19 L 365.782,392.97 c -15.184,-25.04 -5.886,-49.94 17.44,-54.845 35.786,-7.526 64.944,-6.61 105.436,11.094 -44.382,-35.54 -97.07,-46.683 -146.375,-30.345 27.234,-63.822 87.474,-107.53 153.314,-132.22 v -0.718 c -68.792,7.528 -131.456,37.83 -177.844,84.875 11.63,-57.224 27.12,-105.994 50.28,-145.53 28.366,-48.42 67.863,-83.47 127.564,-105.25 v -0.063 h -45.406 c -42.903,23.262 -74.69,55.603 -98.282,95.874 -12.098,20.65 -22.08,43.34 -30.53,67.97 C 332.187,116.106 353.705,53.018 394,19.968 h -79.03 c -28.243,100.098 -41.47,200.18 -52.314,300.28 -0.684,-100.097 -0.42,-200.185 12,-300.28 H 183.75 c 23.25,68.337 31.688,136.213 34.094,207.218 -12.94,-81.71 -35.23,-150.175 -70.313,-207.22 h -40.28 c 20.476,19.316 38.15,47.228 52.594,79.844 C 137.505,66.928 108.775,40.057 71.751,19.967 H 26.125 Z"
       id="path17"
       inkscape:connector-curvature="0"
       style="fill:#00ff00;filter:url(#shadow-1)" />
  </g>
  <!-- react-empty: 6 -->
</svg>
