<?xml version="1.0" encoding="UTF-8" standalone="no"?>
<svg
   xmlns:dc="http://purl.org/dc/elements/1.1/"
   xmlns:cc="http://creativecommons.org/ns#"
   xmlns:rdf="http://www.w3.org/1999/02/22-rdf-syntax-ns#"
   xmlns:svg="http://www.w3.org/2000/svg"
   xmlns="http://www.w3.org/2000/svg"
   xmlns:sodipodi="http://sodipodi.sourceforge.net/DTD/sodipodi-0.dtd"
   xmlns:inkscape="http://www.inkscape.org/namespaces/inkscape"
   viewBox="0 0 1000 560"
   version="1.1"
   id="svg8"
   sodipodi:docname="wasp-sting.svg"
   width="1000"
   height="560"
   inkscape:version="0.92.1 r15371"
   inkscape:export-filename="C:\Users\William\Documents\Dev\Games\ccg\ccgclient\src\assets\png\wasp-sting.png"
   inkscape:export-xdpi="240"
   inkscape:export-ydpi="240">
  <metadata
     id="metadata14">
    <rdf:RDF>
      <cc:Work
         rdf:about="">
        <dc:format>image/svg+xml</dc:format>
        <dc:type
           rdf:resource="http://purl.org/dc/dcmitype/StillImage" />
        <dc:title></dc:title>
      </cc:Work>
    </rdf:RDF>
  </metadata>
  <defs
     id="defs12" />
  <sodipodi:namedview
     pagecolor="#ffffff"
     bordercolor="#666666"
     borderopacity="1"
     objecttolerance="10"
     gridtolerance="10"
     guidetolerance="10"
     inkscape:pageopacity="0"
     inkscape:pageshadow="2"
     inkscape:window-width="3840"
     inkscape:window-height="2004"
     id="namedview10"
     showgrid="true"
     inkscape:zoom="1.84375"
     inkscape:cx="474.88555"
     inkscape:cy="210.81517"
     inkscape:window-x="-16"
     inkscape:window-y="-16"
     inkscape:window-maximized="1"
     inkscape:current-layer="svg8">
    <inkscape:grid
       type="xygrid"
       id="grid4491" />
  </sodipodi:namedview>
  <path
     d="M 0,0 H 1005 V 560 H 0 Z"
     id="path2"
     inkscape:connector-curvature="0"
     style="fill:#417505;stroke-width:1.46523428"
     inkscape:export-filename="C:\Users\William\Documents\Dev\Games\ccg\ccgclient\src\assets\png\path2.png"
     inkscape:export-xdpi="240"
     inkscape:export-ydpi="240" />
  <g
     class=""
     style="fill:#241c1c"
     id="g6"
     transform="matrix(1.0648336,0,0,1.0648336,192.04465,-6.767422)">
    <path
       d="m 235.75,42.28 c -0.68,0.006 -1.353,0.01 -2.03,0.032 -3.1,0.11 -6.195,0.404 -9.25,0.907 -20.682,3.4 -40.108,14.714 -55.376,30.28 -18.356,-6.394 -37.205,-10.75 -56.656,-12.563 -2.31,-0.215 -4.59,-0.333 -6.844,-0.343 -0.752,-0.004 -1.507,0.012 -2.25,0.03 -20.82,0.524 -38.94,9.602 -52.53,23.063 -15.533,15.385 -25.624,36.27 -29.658,57.907 -4.033,21.638 -2.052,44.237 8.125,62.906 10.178,18.67 29.117,32.835 55.532,36.094 36.828,4.544 70.415,5.794 103.72,4.594 l 0.437,0.406 0.374,-0.438 c 27.815,-1.036 55.45,-3.77 84.625,-7.78 -0.814,7.602 0.168,14.882 3.155,21.31 23.12,15.608 47.78,19.41 76.72,11.22 3.638,-1.957 7.24,-4.17 10.75,-6.687 10.992,-7.885 19.667,-17.44 25.592,-27.47 -10.102,-20.476 -13.347,-41.67 -9.656,-62.53 -6.924,-3.75 -15.252,-5.577 -24.28,-5.47 -0.715,0.008 -1.433,0.06 -2.156,0.094 -16.59,-32.33 -35.69,-63.26 -60.063,-95.563 -15.846,-21 -37.24,-30.144 -58.28,-30 z m 2.188,18.532 c 14.892,0.16 28.934,6.522 41.156,22.72 22.482,29.797 40.225,58.18 55.75,87.812 -2.768,0.87 -5.543,1.875 -8.313,3.062 -44.5,-38.158 -89.732,-72.463 -138.124,-93.344 11.76,-10.097 25.604,-17.187 39.094,-19.406 3.515,-0.578 7,-0.88 10.438,-0.843 z m 165,17.563 -6.625,17.47 c 30.865,11.68 52.434,36.81 64.5,67.25 -27.754,-32.927 -66.408,-55.983 -109.563,-56.19 l -0.094,18.72 c 27.147,0.13 52.99,11.29 74.688,29.125 -10.274,5.33 -19.327,12.764 -27.094,22.438 -3.192,18.115 0.078,35.896 10.406,54.562 21.263,21.66 46.337,33.562 76.25,33.094 6.106,-18.483 7.41,-34.1 5.344,-47.656 -2.258,-58.64 -30.98,-117.305 -87.813,-138.813 z m -291.782,1.188 c 69.776,6.655 133.8,50.255 197.97,104.593 -0.27,0.19 -0.545,0.37 -0.813,0.563 -1.253,0.897 -2.465,1.84 -3.657,2.78 l -191.03,-67.22 -2.47,-40.718 z M 92.5,80.656 98.063,171.812 38.969,148.469 c 0.17,-1.15 0.348,-2.292 0.56,-3.44 3.39,-18.177 12.1,-35.84 24.44,-48.06 8.12,-8.044 17.597,-13.812 28.53,-16.314 z m 22.375,59.844 109.656,38.594 -43.624,47.656 c -8.55,0.216 -17.118,0.268 -25.78,0.125 L 117.47,182.937 Z m -76.72,27.75 63.657,25.125 27.907,32.563 c -13.784,-0.8 -27.915,-2.095 -42.595,-3.907 -21.254,-2.62 -33.857,-12.56 -41.438,-26.468 -4.322,-7.93 -6.81,-17.322 -7.53,-27.312 z m 397.5,4.813 c 0.374,-0.02 0.75,0 1.126,0 12.082,0 21.876,9.794 21.876,21.875 0,12.082 -9.794,21.875 -21.875,21.875 -12.08,0 -21.874,-9.795 -21.874,-21.875 0,-11.703 9.193,-21.29 20.75,-21.875 z m -192.873,12.467 47.032,16.532 c -4.065,5.014 -7.425,10.27 -10,15.594 -25.21,3.637 -48.96,6.376 -72.468,7.906 l 36.094,-39.437 -0.657,-0.594 z m 19,85.157 c -22.023,3.702 -40.202,14.834 -53.28,30.063 13.942,16.114 30.9,26.48 51.47,31.78 24.453,6.303 54.333,5.188 89.624,-3.905 -1.118,-13.518 -6.158,-25.815 -20.72,-36.125 -24.175,0.564 -46.892,-6.817 -67.093,-21.813 z M 197.595,316.5 c -9.088,16.403 -13.382,35.462 -11.844,54.5 31.95,24.294 61.132,35.617 87.625,35.156 25.832,-0.45 50.003,-11.76 73.594,-35.875 0.625,-7.607 1.596,-15.078 2.25,-22.342 -35.35,8.516 -66.727,9.7 -93.94,2.687 -22.447,-5.785 -41.876,-17.308 -57.686,-34.125 z m 149.562,78.97 c -22.667,18.85 -47.38,28.92 -73.47,29.374 -26.433,0.46 -53.628,-8.724 -81.498,-26.53 10.815,26.82 35.084,50.75 75.968,63.31 22.05,3.672 40.392,3.026 54.906,-1.437 16.862,-5.183 28.98,-15.113 37.688,-31.312 -8.31,-10.982 -12.13,-22.215 -13.594,-33.406 z m 150.406,12.655 c -21.934,13.607 -78.608,25.768 -99.343,15.594 -4.52,19.162 -15.06,21.715 -23.47,18.28 -8.854,14.47 -21.072,25.37 -35.97,32.156 30.077,21.514 136.794,17.434 158.783,-66.03 z"
       id="path4"
       style="fill:#241c1c"
       inkscape:connector-curvature="0" />
  </g>
  <!-- react-empty: 6 -->
</svg>
