<?xml version="1.0" encoding="UTF-8" standalone="no"?>
<svg
   xmlns:dc="http://purl.org/dc/elements/1.1/"
   xmlns:cc="http://creativecommons.org/ns#"
   xmlns:rdf="http://www.w3.org/1999/02/22-rdf-syntax-ns#"
   xmlns:svg="http://www.w3.org/2000/svg"
   xmlns="http://www.w3.org/2000/svg"
   xmlns:sodipodi="http://sodipodi.sourceforge.net/DTD/sodipodi-0.dtd"
   xmlns:inkscape="http://www.inkscape.org/namespaces/inkscape"
   viewBox="0 0 1000 560"
   version="1.1"
   id="svg21"
   sodipodi:docname="web-spit.svg"
   width="1000"
   height="560"
   inkscape:version="0.92.1 r15371"
   inkscape:export-filename="C:\Users\William\Documents\Dev\Games\ccg\ccgclient\src\assets\png\web-spit.png"
   inkscape:export-xdpi="240"
   inkscape:export-ydpi="240">
  <metadata
     id="metadata25">
    <rdf:RDF>
      <cc:Work
         rdf:about="">
        <dc:format>image/svg+xml</dc:format>
        <dc:type
           rdf:resource="http://purl.org/dc/dcmitype/StillImage" />
        <dc:title></dc:title>
      </cc:Work>
    </rdf:RDF>
  </metadata>
  <sodipodi:namedview
     pagecolor="#334033"
     bordercolor="#666666"
     borderopacity="1"
     objecttolerance="10"
     gridtolerance="10"
     guidetolerance="10"
     inkscape:pageopacity="1"
     inkscape:pageshadow="2"
     inkscape:window-width="3840"
     inkscape:window-height="2004"
     id="namedview23"
     showgrid="false"
     inkscape:zoom="0.65186406"
     inkscape:cx="374.82529"
     inkscape:cy="387.62098"
     inkscape:window-x="-16"
     inkscape:window-y="-16"
     inkscape:window-maximized="1"
     inkscape:current-layer="svg21" />
  <defs
     id="defs13">
    <filter
       id="shadow-1"
       height="3"
       width="3"
       x="-1"
       y="-1">
      <feFlood
         flood-color="#0f0"
         result="flood"
         id="feFlood2" />
      <feComposite
         in="flood"
         in2="SourceGraphic"
         operator="atop"
         result="composite"
         id="feComposite4" />
      <feGaussianBlur
         in="composite"
         stdDeviation="15"
         result="blur"
         id="feGaussianBlur6" />
      <feOffset
         result="offset"
         id="feOffset8" />
      <feComposite
         in="SourceGraphic"
         in2="offset"
         operator="over"
         id="feComposite10" />
    </filter>
  </defs>
  <g
     class=""
     transform="translate(233.79989,27.996723)"
     id="g19">
    <path
       d="m 21.438,17.656 v 9.938 C 37.81,43.897 54.236,59.792 70.78,75.25 c 2.573,12.667 1.725,23.156 -2.124,32.438 -15.92,-18.03 -31.71,-35.61 -47.22,-52.782 l 0.002,27.907 c 70.88,78.78 146.137,165.605 206.343,263.156 13.8,52.237 8.507,101.07 -26.5,145.936 h 23.032 c 8.083,-12.15 14.338,-24.677 18.938,-37.47 15.217,1.72 33.785,5.172 48.03,13.377 3.376,7.964 6.63,16 9.75,24.093 h 20 c -3.345,-8.968 -6.838,-17.854 -10.5,-26.656 8.66,-10.96 22.278,-19.576 37.94,-24.938 11.79,20.602 21.207,38.808 26.624,51.594 h 20.125 c -5.083,-14.244 -14.946,-33.968 -27.626,-56.312 20.542,-3.283 42,-1.254 57.937,6.03 l 0.314,0.157 c 11.46,16.573 22.16,33.27 32.03,50.126 h 21.563 c -11.953,-21.14 -25.167,-41.973 -39.468,-62.562 2.386,-9.1 5.464,-17.228 9.436,-24.563 l 47.156,36.97 V 418 l -36.5,-28.594 c 7.515,-8.648 17.01,-16.088 29.063,-22.844 2.47,1.22 4.956,2.42 7.438,3.625 v -20.843 c -18.542,-9.172 -36.76,-18.583 -54.688,-28.25 -1.054,-13.162 0.976,-23.972 6.53,-33.75 6.17,-10.858 17.096,-20.864 34.876,-30.25 l 4.19,-2.22 c 3.075,0.052 6.108,0.03 9.092,-0.06 v -18.72 c -4.68,0.146 -9.552,0.092 -14.625,-0.188 -9.012,-15.84 -13.766,-31.516 -15.906,-47.406 10.3,-4.778 20.49,-10.258 30.533,-16.375 V 150 C 431.459,192.96 364.103,207.01 292.095,177.656 220.985,145.256 149.409,104.993 94.971,72.156 75.838,54.553 56.819,36.403 37.907,17.656 Z m 69.093,75.75 c 9.104,8.28 18.228,16.462 27.407,24.5 -2.14,9.614 -6.785,21.5 -13.343,31.125 -7.563,-8.876 -15.15,-17.642 -22.72,-26.31 4.953,-8.856 7.91,-18.705 8.657,-29.314 z m 43.157,38.156 c 8.516,7.292 17.06,14.502 25.657,21.594 11.636,23.238 15.422,49.608 8.062,73.188 -16.436,-21.38 -33.276,-42.186 -50.25,-62.438 7.905,-9.9 13.208,-21.488 16.53,-32.344 z m 33.72,3.97 c 19.33,10.633 39.44,21.326 59.968,31.718 -0.643,2.09 -1.78,4.563 -3.594,7.03 -0.93,1.27 -2.013,2.506 -3.186,3.69 -15.632,-11.976 -31.102,-24.276 -46.438,-36.876 -0.196,-0.365 -0.394,-0.73 -0.594,-1.094 l -0.437,0.25 c -1.91,-1.57 -3.814,-3.138 -5.72,-4.72 z m 76.968,40.187 c 6.032,2.968 12.09,5.89 18.156,8.78 v 0.03 c 6.862,3.562 13.704,6.74 20.533,9.564 5.253,2.4 10.5,4.78 15.75,7.094 7.944,3.5 15.86,6.88 23.75,10.156 -1.775,2.63 -4.25,5.393 -7.407,7.906 -6.508,5.18 -15.358,9.116 -23.75,10.094 -18.86,-12.937 -37.46,-26.262 -55.812,-40 1.152,-1.29 2.243,-2.63 3.25,-4 2.21,-3.008 4.123,-6.236 5.53,-9.625 z m -55.72,8.593 c 25.305,22.866 49.936,45.837 73.626,69 l -81.405,-9.938 c 8.618,-18.825 10.685,-39.22 7.78,-59.063 z m 259.658,11.656 c 2.107,12.503 5.76,25.073 11.53,37.624 -25.556,-3.827 -54.49,-11.692 -85.03,-22.344 25.004,-0.867 49.547,-6.166 73.5,-15.28 z m -108,22.56 c 14.673,5.778 29.14,11.077 43.312,15.72 -7.58,15.442 -11.644,30.8 -13.188,46.03 -19.927,-12.048 -39.524,-24.437 -58.812,-37.25 5.526,-2.412 10.66,-5.55 15.188,-9.155 5.49,-4.368 10.29,-9.51 13.5,-15.344 z m 61.406,21.314 c 18.968,5.555 37.247,9.83 54.5,12.375 -10.454,7.697 -18.568,16.23 -24.064,25.905 -5.7,10.035 -8.58,21.023 -9.125,32.688 -11.698,-6.502 -23.257,-13.142 -34.717,-19.875 0.57,-17 4.48,-33.964 13.406,-51.094 z m -122.845,3.53 c 29.595,20.37 59.846,39.808 90.938,58.345 0.64,15.733 3.538,31.3 7.53,46.624 -30.25,-35.6 -63.362,-70.51 -98.468,-104.97 z m -83.47,20.595 28.97,3.53 c 15.58,14.313 37.374,41.2 59.313,71.875 -6.406,12.17 -10.73,26.36 -12.938,43.22 -22.624,-41.445 -48.19,-80.912 -75.344,-118.626 z m 58.564,7.155 29.968,3.656 c 9.93,10.012 19.686,20.043 29.218,30.126 -6.933,5.344 -13.097,11.203 -18.437,17.75 -14.15,-19.553 -28.05,-37.334 -40.75,-51.53 z m 135.343,42.063 c 26.142,15.11 52.89,29.6 80.312,43.562 -20.473,14.02 -34.436,31.82 -43,53.844 -5.67,-7.747 -11.472,-15.448 -17.438,-23.125 -8.76,-25.44 -16.983,-50.004 -19.875,-74.283 z m -63.375,5.437 c 8.626,9.347 17.076,18.738 25.312,28.156 -21.46,6.077 -43.836,14.744 -61.188,31.126 4.605,-28.262 16.223,-44.755 35.875,-59.28 z M 364.75,362.5 c 15.275,18.052 29.763,36.24 43.375,54.594 -16.32,-2.82 -33.8,-2.268 -50.53,1.312 -8.52,-14.31 -17.885,-29.31 -27.72,-44.406 10.934,-4.86 22.817,-8.386 34.875,-11.5 z m -51.344,20.47 c 8.952,13.758 17.532,27.64 25.438,40.905 -13.797,5.136 -26.463,12.596 -36.47,22.53 -4.935,-11.072 -10.09,-22.034 -15.468,-32.842 6.303,-13.44 15.514,-23.187 26.5,-30.594 z m -60.28,6.5 c 9.57,17.408 18.628,35.132 27.03,53.217 -10.95,-3.496 -21.905,-5.32 -31.47,-6.468 3.61,-15.33 4.978,-30.955 4.44,-46.75 z"
       id="path17"
       inkscape:connector-curvature="0"
       style="fill:#00ff00;filter:url(#shadow-1)" />
  </g>
  <!-- react-empty: 6 -->
</svg>
