<?xml version="1.0" encoding="UTF-8" standalone="no"?>
<svg
   xmlns:dc="http://purl.org/dc/elements/1.1/"
   xmlns:cc="http://creativecommons.org/ns#"
   xmlns:rdf="http://www.w3.org/1999/02/22-rdf-syntax-ns#"
   xmlns:svg="http://www.w3.org/2000/svg"
   xmlns="http://www.w3.org/2000/svg"
   xmlns:sodipodi="http://sodipodi.sourceforge.net/DTD/sodipodi-0.dtd"
   xmlns:inkscape="http://www.inkscape.org/namespaces/inkscape"
   viewBox="0 0 1000 560"
   version="1.1"
   id="svg8"
   sodipodi:docname="winchester-rifle.svg"
   width="1000"
   height="560"
   inkscape:version="0.92.1 r15371"
   inkscape:export-filename="C:\Users\William\Documents\Dev\Games\ccg\ccgclient\src\assets\png\winchester-rifle.png"
   inkscape:export-xdpi="240"
   inkscape:export-ydpi="240">
  <metadata
     id="metadata14">
    <rdf:RDF>
      <cc:Work
         rdf:about="">
        <dc:format>image/svg+xml</dc:format>
        <dc:type
           rdf:resource="http://purl.org/dc/dcmitype/StillImage" />
        <dc:title></dc:title>
      </cc:Work>
    </rdf:RDF>
  </metadata>
  <defs
     id="defs12" />
  <sodipodi:namedview
     pagecolor="#c9c9c9"
     bordercolor="#000000"
     borderopacity="0.41176471"
     objecttolerance="10"
     gridtolerance="10"
     guidetolerance="10"
     inkscape:pageopacity="1"
     inkscape:pageshadow="2"
     inkscape:window-width="3840"
     inkscape:window-height="2004"
     id="namedview10"
     showgrid="false"
     inkscape:zoom="0.4609375"
     inkscape:cx="256"
     inkscape:cy="256"
     inkscape:window-x="-16"
     inkscape:window-y="-16"
     inkscape:window-maximized="1"
     inkscape:current-layer="svg8" />
  <path
     d="M 0,48 H 512 V 560 H 0 Z"
     id="path2"
     inkscape:connector-curvature="0"
     style="fill:#c9c9c9" />
  <g
     class=""
     transform="matrix(1.2268744,0.85906666,-0.85906666,1.2268744,382.00963,-274.19305)"
     id="g6">
    <path
       d="M 323.8,149.6 334.2,163.4 491.8,43.8 481.4,30 Z m -95.1,72.2 25.3,33.3 -68.7,64.7 -21.5,-10.1 9.3,-45.7 z M 18.3,424.2 117.4,328.9 c 0,0 21.7,10.5 27.5,8.7 0.5,-0.2 1,-0.4 1.4,-0.8 2.6,-2 6,-6.9 9.1,-12 l 1.1,0.5 19,8.8 L 74.3,482 c -6.8,-40.3 -51.6,-57.5 -56,-57.8 z m 224.1,-212.8 67.7,-51.3 17.1,22.6 c 4.7,6.3 3.9,15.5 -2.4,20.2 l -56.4,42.8 -0.7,-1 z m -64.8,182.3 c 7.9,4.8 18.3,2.3 23.1,-5.7 l 14,-23.1 c 3.4,-5.7 3.2,-12.8 -0.6,-18.3 1.3,-0.7 2.5,-1.5 3.6,-2.3 5.4,-4 9,-9.9 10.1,-16.4 1.1,-6.8 -0.5,-13.8 -4.4,-20.3 l -6.4,6.1 c 2.1,3.9 3,8.4 2.3,12.9 -1,6.4 -5.7,11.5 -12.7,14.2 -7.7,-3.1 -16.5,-0.2 -20.7,6.9 l -14,23.1 c -4.8,7.8 -2.3,18.1 5.7,22.9 z m 1.7,-18.6 14.1,-23.2 c 2.4,-3.9 7.4,-5.1 11.3,-2.8 l 1.1,0.8 c 3.1,2.6 3.8,7.1 1.7,10.5 l -14.1,23.2 c -2.4,3.9 -7.4,5.2 -11.3,2.8 -3.9,-2.3 -5.2,-7.4 -2.8,-11.3 z m 167.6,-189 c -0.5,-3 -1.5,-5.9 -2.8,-8.7 l 144.4,-109.5 5.2,6.9 z m -192.7,84.5 -3.2,15.6 c -7.7,-3.3 -10.2,-12.1 -18.1,-9.2 2.4,-8.6 16.4,-5.3 21.3,-6.4 z"
       id="path4"
       inkscape:connector-curvature="0"
       style="fill:#000000" />
  </g>
  <!-- react-empty: 6 -->
</svg>
