<?xml version="1.0" encoding="UTF-8" standalone="no"?>
<svg
   xmlns:dc="http://purl.org/dc/elements/1.1/"
   xmlns:cc="http://creativecommons.org/ns#"
   xmlns:rdf="http://www.w3.org/1999/02/22-rdf-syntax-ns#"
   xmlns:svg="http://www.w3.org/2000/svg"
   xmlns="http://www.w3.org/2000/svg"
   xmlns:sodipodi="http://sodipodi.sourceforge.net/DTD/sodipodi-0.dtd"
   xmlns:inkscape="http://www.inkscape.org/namespaces/inkscape"
   viewBox="0 0 1000 560"
   id="svg2"
   version="1.1"
   inkscape:version="0.91 r13725"
   sodipodi:docname="wolf-head.svg"
   width="1000"
   height="560"
   inkscape:export-filename="C:\Users\William\Documents\Dev\Games\ccg\resources\Cards\wolf-head.png"
   inkscape:export-xdpi="240"
   inkscape:export-ydpi="240">
  <metadata
     id="metadata14">
    <rdf:RDF>
      <cc:Work
         rdf:about="">
        <dc:format>image/svg+xml</dc:format>
        <dc:type
           rdf:resource="http://purl.org/dc/dcmitype/StillImage" />
        <dc:title></dc:title>
      </cc:Work>
    </rdf:RDF>
  </metadata>
  <defs
     id="defs12" />
  <sodipodi:namedview
     pagecolor="#ffffff"
     bordercolor="#666666"
     borderopacity="1"
     objecttolerance="10"
     gridtolerance="10"
     guidetolerance="10"
     inkscape:pageopacity="0"
     inkscape:pageshadow="2"
     inkscape:window-width="1536"
     inkscape:window-height="801"
     id="namedview10"
     showgrid="false"
     inkscape:zoom="0.4609375"
     inkscape:cx="256"
     inkscape:cy="256"
     inkscape:window-x="-8"
     inkscape:window-y="-8"
     inkscape:window-maximized="1"
     inkscape:current-layer="svg2" />
  <path
     d="m 0,2.440678 1004.4746,0 0,557.559322 L 0,560 Z"
     id="path4"
     inkscape:connector-curvature="0"
     style="fill:#417505" />
  <g
     class=""
     id="g6"
     transform="matrix(1.1080294,0,0,1.1080294,232.47215,-12.613122)">
    <path
       d="m 179.344,38.938 c -23.277,36.69 -31.747,78.147 -19.875,127.624 l 0.405,-0.218 c 2.173,6.744 4.972,13.307 8.5,19.594 l -16.313,9.156 c -6.688,-11.917 -11.17,-24.43 -13.843,-37.188 -34.475,-6.297 -69.44,-7.537 -105,-2.156 34.076,10.17 52.767,23.785 76.686,46.72 -26.828,9.758 -60.256,30.27 -92.937,70.25 35.47,-8.856 64.83,-11.472 89.436,-6.314 C 69.46,288.87 42.34,322.548 18.062,380.53 53.964,363.292 82.952,361.713 121,361.656 97.935,394.406 85.73,438.94 84.687,474.5 c 24.532,-26.01 57.623,-60.165 87.188,-78.97 3,29.9 15.02,58.303 35.938,85.22 -0.223,-43.817 10.263,-88.266 31.593,-133.344 -10.426,4.945 -20.715,10.638 -30.844,17.094 l -19.062,12.156 4.906,-22.062 13.75,-61.625 c -12.038,0.324 -24.336,4.325 -37.937,9.655 l -22.564,8.844 10.78,-21.69 38.408,-77.467 16.75,8.312 -28.438,57.344 c 11.467,-3.135 23.34,-4.905 36,-2.845 l 9.78,1.594 -2.155,9.655 -11.468,51.375 c 16.637,-8.996 33.66,-16.18 50.907,-21.656 l 0.06,-0.03 0.658,-0.19 c 8.017,-2.522 16.094,-4.67 24.187,-6.468 0.094,-0.02 0.187,-0.04 0.28,-0.062 43.116,-10.896 89.554,-19.018 150.595,-21.656 7.63,-12.867 13.767,-24.22 18.844,-34.75 l -6.313,-24.434 -24.405,30.813 -7.875,-27.47 -22.47,29.188 -7.53,-26.092 -23.844,31.437 -7.687,-28.22 -23.845,31.47 1.22,-41.156 22.56,-42.626 7.658,28.22 23.875,-31.44 7.656,28.19 23.437,-30 6.564,26.905 24.406,-30.814 7.875,27.5 24.594,-31.97 c 2.28,-10.793 4.624,-22.47 7.405,-35.78 -55.52,-3.68 -106.326,4.826 -154.063,9.875 -26.584,-14.895 -58.665,-22 -88.593,-21.874 -11.535,0.05 -22.757,1.182 -33.22,3.344 L 179.342,38.937 Z m 100.53,108.5 c 15.745,0.07 30.662,5.308 45.657,10.812 -4.553,14.292 -13.067,18.39 -24.717,20.688 -16.15,-4.413 -28.315,-15.564 -34.375,-30.22 4.558,-0.897 9.03,-1.3 13.437,-1.28 z"
       id="path8"
       inkscape:connector-curvature="0"
       style="fill:#000000" />
  </g>
  <!-- react-empty: 6 -->
</svg>
