<?xml version="1.0" encoding="UTF-8" standalone="no"?>
<svg
   xmlns:dc="http://purl.org/dc/elements/1.1/"
   xmlns:cc="http://creativecommons.org/ns#"
   xmlns:rdf="http://www.w3.org/1999/02/22-rdf-syntax-ns#"
   xmlns:svg="http://www.w3.org/2000/svg"
   xmlns="http://www.w3.org/2000/svg"
   xmlns:sodipodi="http://sodipodi.sourceforge.net/DTD/sodipodi-0.dtd"
   xmlns:inkscape="http://www.inkscape.org/namespaces/inkscape"
   viewBox="0 0 1000 560"
   version="1.1"
   id="svg21"
   sodipodi:docname="wolf-howl.svg"
   width="1000"
   height="560"
   inkscape:version="0.92.1 r15371"
   inkscape:export-filename="C:\Users\William\Documents\Dev\Games\ccg\ccgclient\src\assets\png\wolf-howl.png"
   inkscape:export-xdpi="240"
   inkscape:export-ydpi="240">
  <metadata
     id="metadata25">
    <rdf:RDF>
      <cc:Work
         rdf:about="">
        <dc:format>image/svg+xml</dc:format>
        <dc:type
           rdf:resource="http://purl.org/dc/dcmitype/StillImage" />
        <dc:title></dc:title>
      </cc:Work>
    </rdf:RDF>
  </metadata>
  <sodipodi:namedview
     pagecolor="#ffffff"
     bordercolor="#666666"
     borderopacity="1"
     objecttolerance="10"
     gridtolerance="10"
     guidetolerance="10"
     inkscape:pageopacity="0"
     inkscape:pageshadow="2"
     inkscape:window-width="3840"
     inkscape:window-height="2004"
     id="namedview23"
     showgrid="true"
     inkscape:zoom="0.921875"
     inkscape:cx="271.33193"
     inkscape:cy="284.87302"
     inkscape:window-x="-16"
     inkscape:window-y="-16"
     inkscape:window-maximized="1"
     inkscape:current-layer="svg21">
    <inkscape:grid
       type="xygrid"
       id="grid4502" />
  </sodipodi:namedview>
  <defs
     id="defs13">
    <filter
       id="shadow-1"
       height="3"
       width="3"
       x="-1"
       y="-1">
      <feFlood
         flood-color="#0f0"
         result="flood"
         id="feFlood2" />
      <feComposite
         in="flood"
         in2="SourceGraphic"
         operator="atop"
         result="composite"
         id="feComposite4" />
      <feGaussianBlur
         in="composite"
         stdDeviation="15"
         result="blur"
         id="feGaussianBlur6" />
      <feOffset
         result="offset"
         id="feOffset8" />
      <feComposite
         in="SourceGraphic"
         in2="offset"
         operator="over"
         id="feComposite10" />
    </filter>
  </defs>
  <path
     d="M 0,0 H 1000 V 560 H 0 Z"
     id="path15"
     inkscape:connector-curvature="0"
     style="fill:#334033;stroke-width:1.46158493" />
  <g
     class=""
     id="g19"
     transform="translate(244.221,33.029)">
    <path
       d="m 255.563,22.094 c -126.81,0 -229.594,102.784 -229.594,229.594 0,25.4 4.132,49.846 11.75,72.687 40.154,-24.203 76.02,-41.17 107.56,-52.03 -35.752,5.615 -66.405,23.66 -109.843,4 31.552,-27.765 87.682,-65.842 138.532,-71.658 26.58,-21.615 68.113,-43.962 89.655,-37.28 30.492,-26.873 67.982,-61.093 108.125,-85.75 10.667,16.156 17.124,35.94 12.563,57.874 -80.37,20.205 -61.692,148.928 13.468,67.44 6.348,13.064 9.41,26.665 9.095,41.436 -32.675,33.83 -66.97,63.026 -101.938,87.906 0.466,23.99 -5.605,52.915 -19,84.813 -5.635,13.42 -7.33,36.406 22.875,53.97 101.14,-24.012 176.375,-114.924 176.375,-223.408 0,-126.81 -102.815,-229.593 -229.625,-229.593 z m 3.312,164.375 c -17.835,2.22 -32.794,9.046 -45.844,18.968 12.083,-0.036 25.612,2.882 37.5,6.156 6.208,-6.698 10.236,-18.52 8.345,-25.125 z"
       id="path17"
       inkscape:connector-curvature="0"
       style="fill:#00ff00;filter:url(#shadow-1)" />
  </g>
  <!-- react-empty: 6 -->
</svg>
