<?xml version="1.0" encoding="UTF-8" standalone="no"?>
<svg
   xmlns:dc="http://purl.org/dc/elements/1.1/"
   xmlns:cc="http://creativecommons.org/ns#"
   xmlns:rdf="http://www.w3.org/1999/02/22-rdf-syntax-ns#"
   xmlns:svg="http://www.w3.org/2000/svg"
   xmlns="http://www.w3.org/2000/svg"
   xmlns:sodipodi="http://sodipodi.sourceforge.net/DTD/sodipodi-0.dtd"
   xmlns:inkscape="http://www.inkscape.org/namespaces/inkscape"
   viewBox="0 0 1000 560"
   version="1.1"
   id="svg8"
   sodipodi:docname="zeppelin.svg"
   width="1000"
   height="560"
   inkscape:version="0.92.1 r15371">
  <metadata
     id="metadata14">
    <rdf:RDF>
      <cc:Work
         rdf:about="">
        <dc:format>image/svg+xml</dc:format>
        <dc:type
           rdf:resource="http://purl.org/dc/dcmitype/StillImage" />
        <dc:title></dc:title>
      </cc:Work>
    </rdf:RDF>
  </metadata>
  <defs
     id="defs12" />
  <sodipodi:namedview
     pagecolor="#ffffff"
     bordercolor="#666666"
     borderopacity="1"
     objecttolerance="10"
     gridtolerance="10"
     guidetolerance="10"
     inkscape:pageopacity="0"
     inkscape:pageshadow="2"
     inkscape:window-width="3840"
     inkscape:window-height="2004"
     id="namedview10"
     showgrid="true"
     showguides="false"
     inkscape:zoom="0.4609375"
     inkscape:cx="256"
     inkscape:cy="256"
     inkscape:window-x="-16"
     inkscape:window-y="-16"
     inkscape:window-maximized="1"
     inkscape:current-layer="svg8">
    <inkscape:grid
       type="xygrid"
       id="grid4491" />
  </sodipodi:namedview>
  <path
     d="M 0,0 H 1020 V 560 H 0 Z"
     id="path2"
     inkscape:connector-curvature="0"
     style="fill:#c9c9c9;stroke-width:1.47612834" />
  <g
     class=""
     id="g6"
     transform="matrix(1.387382,0,0,1.387382,152.68368,-85.5837)">
    <path
       d="m 494.905,253.49 c 0,42.47 -47.24,77.43 -156.85,80.77 -1.9,0.06 -57.36,0 -61.36,0 -121.48,0 -259.6,-80.77 -259.6,-80.77 0,0 138.11,-80.76 259.6,-80.76 4.14,0 60,-0.06 62,0 109.17,3.44 156.21,38.36 156.21,80.76 z m -356,-71.31 -28.21,-35.35 -53.69,-16.22 7,81.17 c 9.54,-4.34 60.6,-24.86 74.87,-29.6 z m -74.9,113.01 -7,81.18 53.64,-16.22 28.21,-35.35 c -14.25,-4.74 -65.31,-25.26 -74.85,-29.61 z m 200.75,54.81 4.25,31.39 h 81 l 10.18,-32.25 c -15.55,1.3 -91.4,1.03 -95.43,0.86 z"
       id="path4"
       inkscape:connector-curvature="0"
       style="fill:#000000" />
  </g>
  <!-- react-empty: 6 -->
</svg>
